<svg width="46" height="49" viewBox="0 0 46 49" fill="none" xmlns="http://www.w3.org/2000/svg">
<rect x="0.523193" y="0.291687" width="45.3199" height="48.2917" rx="9.65834" fill="#8F907E"/>
<path d="M25.2983 10.2L31.6433 15.7624C31.9779 16.0617 32.2451 16.4285 32.4274 16.8386C32.6097 17.2488 32.7029 17.693 32.7008 18.1418V28.3385C32.7008 29.5695 31.7048 30.5674 30.4738 30.5674C29.9583 30.5674 29.3361 30.5674 28.59 30.5674C27.359 30.5674 26.3588 29.5695 26.3588 28.3385V23.1538C26.3588 21.9228 25.361 20.9249 24.13 20.9249H22.2365C21.0056 20.9249 20.0077 21.9228 20.0077 23.1538V28.3385C20.0077 29.5695 19.0101 30.5674 17.7791 30.5674C17.1625 30.5674 16.5019 30.5674 15.8945 30.5674C14.6636 30.5674 13.6659 29.5695 13.6659 28.3385V18.1524C13.6623 17.7018 13.7547 17.2555 13.9371 16.8435C14.1194 16.4314 14.3875 16.0628 14.7234 15.7624L21.0683 10.2C21.65 9.67977 22.403 9.39215 23.1833 9.39215C23.9637 9.39215 24.7167 9.67977 25.2983 10.2Z" fill="white"/>
<path d="M10.85 42.168V37.5258H12.8066C13.114 37.5258 13.3757 37.5798 13.5917 37.6878C13.8119 37.7917 13.9801 37.9412 14.0964 38.1365C14.2169 38.3276 14.2772 38.5602 14.2772 38.8343C14.2772 39.0462 14.219 39.2456 14.1027 39.4325C13.9905 39.6153 13.8098 39.7669 13.5606 39.8874V39.4948C13.789 39.5821 13.9698 39.6901 14.1027 39.8189C14.2356 39.9476 14.3291 40.091 14.3831 40.2488C14.4371 40.4067 14.4641 40.5728 14.4641 40.7473C14.4641 41.1918 14.3166 41.5407 14.0217 41.7941C13.7309 42.0434 13.3259 42.168 12.8066 42.168H10.85ZM11.6975 41.4203H12.8938C13.114 41.4203 13.2885 41.36 13.4173 41.2396C13.5502 41.1149 13.6167 40.9509 13.6167 40.7473C13.6167 40.5438 13.5502 40.3797 13.4173 40.255C13.2885 40.1304 13.114 40.0681 12.8938 40.0681H11.6975V41.4203ZM11.6975 39.3266H12.8502C13.0247 39.3266 13.1639 39.2768 13.2677 39.1771C13.3716 39.0732 13.4235 38.9403 13.4235 38.7783C13.4235 38.6163 13.3716 38.4875 13.2677 38.3919C13.1639 38.2964 13.0247 38.2486 12.8502 38.2486H11.6975V39.3266ZM16.6974 42.2428C16.3484 42.2428 16.0431 42.1638 15.7814 42.006C15.5197 41.8481 15.3161 41.6342 15.1707 41.3642C15.0253 41.0942 14.9526 40.7951 14.9526 40.4669C14.9526 40.1263 15.0253 39.8251 15.1707 39.5634C15.3203 39.2975 15.5218 39.0877 15.7752 38.934C16.0327 38.7803 16.3193 38.7035 16.635 38.7035C16.9009 38.7035 17.1335 38.7471 17.3329 38.8343C17.5365 38.9216 17.7089 39.0421 17.8501 39.1958C17.9914 39.3495 18.0994 39.526 18.1741 39.7254C18.2489 39.9206 18.2863 40.1325 18.2863 40.361C18.2863 40.4191 18.2821 40.4794 18.2738 40.5417C18.2697 40.604 18.2593 40.658 18.2427 40.7037H15.6256V40.0806H17.7816L17.3952 40.3734C17.4326 40.1823 17.4222 40.012 17.3641 39.8625C17.3101 39.7129 17.2187 39.5945 17.0899 39.5073C16.9653 39.4201 16.8137 39.3765 16.635 39.3765C16.4647 39.3765 16.3131 39.4201 16.1802 39.5073C16.0472 39.5904 15.9455 39.715 15.8749 39.8812C15.8084 40.0432 15.7835 40.2405 15.8001 40.4731C15.7835 40.6808 15.8105 40.8657 15.8811 41.0277C15.9559 41.1856 16.0639 41.3081 16.2051 41.3953C16.3505 41.4826 16.5167 41.5262 16.7036 41.5262C16.8905 41.5262 17.0484 41.4867 17.1772 41.4078C17.3101 41.3289 17.4139 41.2229 17.4887 41.09L18.1492 41.414C18.0827 41.576 17.9789 41.7194 17.8377 41.844C17.6964 41.9686 17.5282 42.0662 17.3329 42.1368C17.1418 42.2075 16.93 42.2428 16.6974 42.2428ZM18.9051 42.168V38.7783H19.6715V39.5322L19.6092 39.4201C19.6881 39.1667 19.8107 38.9901 19.9768 38.8904C20.1471 38.7907 20.3507 38.7409 20.5875 38.7409H20.7869V39.4637H20.494C20.2614 39.4637 20.0744 39.5364 19.9332 39.6818C19.792 39.823 19.7214 40.0224 19.7214 40.28V42.168H18.9051ZM22.2638 42.2428C22.027 42.2428 21.8214 42.2033 21.6469 42.1244C21.4724 42.0455 21.3374 41.9333 21.2419 41.7879C21.1463 41.6384 21.0986 41.466 21.0986 41.2707C21.0986 41.0838 21.1401 40.9176 21.2232 40.7722C21.3063 40.6227 21.4351 40.4981 21.6095 40.3984C21.784 40.2987 22.0042 40.228 22.27 40.1865L23.3792 40.0058V40.6289L22.4258 40.7909C22.2638 40.82 22.1433 40.8719 22.0644 40.9467C21.9855 41.0215 21.946 41.1191 21.946 41.2396C21.946 41.3559 21.9896 41.4493 22.0769 41.52C22.1683 41.5864 22.2804 41.6197 22.4133 41.6197C22.5837 41.6197 22.7332 41.5844 22.862 41.5137C22.9949 41.439 23.0967 41.3372 23.1673 41.2084C23.2421 41.0796 23.2795 40.9384 23.2795 40.7847V39.9123C23.2795 39.7669 23.2213 39.6465 23.105 39.5509C22.9928 39.4512 22.8433 39.4014 22.6564 39.4014C22.4819 39.4014 22.3261 39.4492 22.189 39.5447C22.0561 39.6361 21.9585 39.7586 21.8962 39.9123L21.2294 39.5883C21.2959 39.4097 21.3997 39.256 21.541 39.1272C21.6864 38.9943 21.8567 38.8904 22.0519 38.8157C22.2472 38.7409 22.459 38.7035 22.6875 38.7035C22.9658 38.7035 23.2109 38.7554 23.4228 38.8593C23.6346 38.959 23.7987 39.1002 23.915 39.283C24.0355 39.4616 24.0957 39.6714 24.0957 39.9123V42.168H23.3231V41.5885L23.4976 41.576C23.4103 41.7214 23.3065 41.844 23.186 41.9437C23.0655 42.0392 22.9284 42.114 22.7747 42.168C22.621 42.2178 22.4507 42.2428 22.2638 42.2428ZM24.8502 42.168V38.7783H25.6166V39.445L25.5543 39.3266C25.6332 39.1231 25.762 38.9694 25.9406 38.8655C26.1234 38.7575 26.3353 38.7035 26.5762 38.7035C26.8255 38.7035 27.0456 38.7575 27.2367 38.8655C27.432 38.9735 27.5836 39.1251 27.6916 39.3204C27.7996 39.5115 27.8536 39.7337 27.8536 39.9871V42.168H27.0373V40.1803C27.0373 40.0307 27.0082 39.9019 26.9501 39.7939C26.8919 39.6859 26.8109 39.6029 26.7071 39.5447C26.6074 39.4824 26.489 39.4512 26.3519 39.4512C26.219 39.4512 26.1006 39.4824 25.9967 39.5447C25.8929 39.6029 25.8119 39.6859 25.7537 39.7939C25.6956 39.9019 25.6665 40.0307 25.6665 40.1803V42.168H24.8502ZM30.1203 42.2428C29.7921 42.2428 29.4993 42.1659 29.2417 42.0122C28.9842 41.8544 28.7806 41.6404 28.6311 41.3704C28.4815 41.1004 28.4068 40.8013 28.4068 40.4731C28.4068 40.1408 28.4815 39.8417 28.6311 39.5759C28.7806 39.31 28.9842 39.0981 29.2417 38.9403C29.5034 38.7824 29.7942 38.7035 30.1141 38.7035C30.3716 38.7035 30.6001 38.7554 30.7995 38.8593C31.0031 38.959 31.163 39.1002 31.2793 39.283L31.1547 39.4512V37.451H31.971V42.168H31.1983V41.5137L31.2855 41.6757C31.1692 41.8585 31.0072 41.9998 30.7995 42.0995C30.5918 42.195 30.3654 42.2428 30.1203 42.2428ZM30.2076 41.495C30.3945 41.495 30.5586 41.4514 30.6998 41.3642C30.841 41.2769 30.9511 41.1565 31.0301 41.0028C31.1131 40.8491 31.1547 40.6725 31.1547 40.4731C31.1547 40.2779 31.1131 40.1034 31.0301 39.9497C30.9511 39.7919 30.841 39.6693 30.6998 39.5821C30.5586 39.4948 30.3945 39.4512 30.2076 39.4512C30.0248 39.4512 29.8607 39.4969 29.7153 39.5883C29.5699 39.6756 29.4557 39.796 29.3726 39.9497C29.2937 40.0993 29.2542 40.2737 29.2542 40.4731C29.2542 40.6725 29.2937 40.8491 29.3726 41.0028C29.4557 41.1565 29.5699 41.2769 29.7153 41.3642C29.8607 41.4514 30.0248 41.495 30.2076 41.495ZM33.7585 42.2428C33.5217 42.2428 33.3161 42.2033 33.1416 42.1244C32.9672 42.0455 32.8322 41.9333 32.7366 41.7879C32.6411 41.6384 32.5933 41.466 32.5933 41.2707C32.5933 41.0838 32.6348 40.9176 32.7179 40.7722C32.801 40.6227 32.9298 40.4981 33.1042 40.3984C33.2787 40.2987 33.4989 40.228 33.7647 40.1865L34.8739 40.0058V40.6289L33.9205 40.7909C33.7585 40.82 33.638 40.8719 33.5591 40.9467C33.4802 41.0215 33.4407 41.1191 33.4407 41.2396C33.4407 41.3559 33.4843 41.4493 33.5716 41.52C33.663 41.5864 33.7751 41.6197 33.9081 41.6197C34.0784 41.6197 34.2279 41.5844 34.3567 41.5137C34.4896 41.439 34.5914 41.3372 34.662 41.2084C34.7368 41.0796 34.7742 40.9384 34.7742 40.7847V39.9123C34.7742 39.7669 34.716 39.6465 34.5997 39.5509C34.4876 39.4512 34.338 39.4014 34.1511 39.4014C33.9766 39.4014 33.8208 39.4492 33.6837 39.5447C33.5508 39.6361 33.4532 39.7586 33.3909 39.9123L32.7241 39.5883C32.7906 39.4097 32.8945 39.256 33.0357 39.1272C33.1811 38.9943 33.3514 38.8904 33.5467 38.8157C33.7419 38.7409 33.9538 38.7035 34.1822 38.7035C34.4606 38.7035 34.7056 38.7554 34.9175 38.8593C35.1294 38.959 35.2934 39.1002 35.4098 39.283C35.5302 39.4616 35.5905 39.6714 35.5905 39.9123V42.168H34.8178V41.5885L34.9923 41.576C34.905 41.7214 34.8012 41.844 34.6807 41.9437C34.5603 42.0392 34.4232 42.114 34.2695 42.168C34.1158 42.2178 33.9454 42.2428 33.7585 42.2428Z" fill="white"/>
</svg>
