<svg width="47" height="49" viewBox="0 0 47 49" fill="none" xmlns="http://www.w3.org/2000/svg">
<rect x="0.718262" y="0.166748" width="45.3199" height="48.2917" rx="9.65834" fill="white"/>
<path d="M29.0888 22.7101V13.1927C29.0888 12.4354 28.788 11.7092 28.2525 11.1737C27.717 10.6382 26.9908 10.3374 26.2335 10.3374H16.7161C15.9588 10.3374 15.2326 10.6382 14.6971 11.1737C14.1617 11.7092 13.8608 12.4354 13.8608 13.1927V22.7101C13.8608 23.4674 14.1617 24.1936 14.6971 24.7291C15.2326 25.2645 15.9588 25.5654 16.7161 25.5654H26.2335C26.9908 25.5654 27.717 25.2645 28.2525 24.7291C28.788 24.1936 29.0888 23.4674 29.0888 22.7101ZM15.7643 13.1927C15.7643 12.9402 15.8646 12.6982 16.0431 12.5197C16.2216 12.3412 16.4637 12.2409 16.7161 12.2409H26.2335C26.486 12.2409 26.728 12.3412 26.9065 12.5197C27.085 12.6982 27.1853 12.9402 27.1853 13.1927V17.3423L26.1574 16.3049C25.7006 15.8479 25.0809 15.5912 24.4347 15.5911C23.789 15.5932 23.1701 15.8497 22.7121 16.3049L21.846 17.171L21.0751 16.4C20.5535 15.8868 19.851 15.5992 19.1192 15.5992C18.3875 15.5992 17.685 15.8868 17.1634 16.4L15.7643 17.8086V13.1927ZM15.8785 23.1384C15.8051 23.0075 15.7659 22.8602 15.7643 22.7101V20.4926L18.5054 17.7515C18.5858 17.6707 18.6815 17.6065 18.7868 17.5627C18.8922 17.5189 19.0052 17.4964 19.1192 17.4964C19.2333 17.4964 19.3463 17.5189 19.4516 17.5627C19.557 17.6065 19.6526 17.6707 19.7331 17.7515L20.5231 18.5224L15.8785 23.1384ZM24.0636 17.6563C24.1105 17.6047 24.1679 17.5636 24.2318 17.5358C24.2958 17.5079 24.365 17.4938 24.4347 17.4946C24.5045 17.4938 24.5737 17.5079 24.6376 17.5358C24.7016 17.5636 24.759 17.6047 24.8059 17.6563L27.1853 20.0262V22.7101C27.1853 22.9625 27.085 23.2046 26.9065 23.3831C26.728 23.5616 26.486 23.6619 26.2335 23.6619H18.0485L24.0636 17.6563ZM31.944 14.1444C31.6916 14.1444 31.4495 14.2447 31.271 14.4232C31.0925 14.6017 30.9923 14.8437 30.9923 15.0961V24.6136C30.9923 25.3709 30.6915 26.0971 30.156 26.6326C29.6205 27.168 28.8943 27.4689 28.137 27.4689H18.6196C18.3672 27.4689 18.1251 27.5691 17.9466 27.7476C17.7681 27.9261 17.6678 28.1682 17.6678 28.4206C17.6678 28.673 17.7681 28.9151 17.9466 29.0936C18.1251 29.2721 18.3672 29.3723 18.6196 29.3723H28.137C29.3991 29.3723 30.6095 28.871 31.502 27.9785C32.3944 27.0861 32.8958 25.8757 32.8958 24.6136V15.0961C32.8958 14.8437 32.7955 14.6017 32.617 14.4232C32.4385 14.2447 32.1964 14.1444 31.944 14.1444Z" fill="#8F907E"/>
<path d="M17.06 42.1178C16.7277 42.1178 16.4203 42.0576 16.1378 41.9371C15.8554 41.8166 15.6082 41.6484 15.3963 41.4324C15.1845 41.2164 15.0183 40.963 14.8978 40.6722C14.7815 40.3814 14.7234 40.0636 14.7234 39.7188C14.7234 39.374 14.7794 39.0563 14.8916 38.7655C15.0079 38.4705 15.1699 38.2171 15.3776 38.0053C15.5895 37.7893 15.8367 37.6231 16.1191 37.5068C16.4016 37.3863 16.709 37.3261 17.0413 37.3261C17.3737 37.3261 17.6707 37.3822 17.9324 37.4943C18.1983 37.6065 18.4226 37.756 18.6054 37.943C18.7881 38.1257 18.919 38.3272 18.9979 38.5474L18.2439 38.9088C18.1567 38.6679 18.0092 38.4726 17.8015 38.3231C17.5938 38.1735 17.3404 38.0987 17.0413 38.0987C16.7506 38.0987 16.493 38.1673 16.2687 38.3044C16.0485 38.4415 15.8761 38.6305 15.7515 38.8714C15.631 39.1123 15.5708 39.3948 15.5708 39.7188C15.5708 40.0429 15.6331 40.3274 15.7577 40.5725C15.8865 40.8134 16.0631 41.0024 16.2874 41.1395C16.5117 41.2766 16.7692 41.3452 17.06 41.3452C17.2968 41.3452 17.5149 41.2995 17.7143 41.2081C17.9137 41.1125 18.0736 40.9796 18.1941 40.8093C18.3146 40.6348 18.3748 40.4292 18.3748 40.1924V39.8372L18.7611 40.1737H17.0413V39.4571H19.2222V39.9245C19.2222 40.2817 19.162 40.5974 19.0415 40.8716C18.9211 41.1458 18.757 41.3763 18.5493 41.5632C18.3457 41.746 18.1152 41.8852 17.8576 41.9807C17.6001 42.0721 17.3342 42.1178 17.06 42.1178ZM20.8524 42.1178C20.6156 42.1178 20.41 42.0784 20.2355 41.9994C20.0611 41.9205 19.926 41.8083 19.8305 41.6629C19.735 41.5134 19.6872 41.341 19.6872 41.1458C19.6872 40.9588 19.7287 40.7927 19.8118 40.6473C19.8949 40.4977 20.0237 40.3731 20.1981 40.2734C20.3726 40.1737 20.5928 40.1031 20.8586 40.0615L21.9678 39.8808V40.504L21.0144 40.666C20.8524 40.695 20.7319 40.747 20.653 40.8217C20.5741 40.8965 20.5346 40.9941 20.5346 41.1146C20.5346 41.2309 20.5782 41.3244 20.6655 41.395C20.7569 41.4615 20.869 41.4947 21.002 41.4947C21.1723 41.4947 21.3218 41.4594 21.4506 41.3888C21.5835 41.314 21.6853 41.2122 21.7559 41.0835C21.8307 40.9547 21.8681 40.8134 21.8681 40.6597V39.7874C21.8681 39.642 21.8099 39.5215 21.6936 39.426C21.5814 39.3263 21.4319 39.2764 21.245 39.2764C21.0705 39.2764 20.9147 39.3242 20.7776 39.4197C20.6447 39.5111 20.5471 39.6337 20.4848 39.7874L19.818 39.4634C19.8845 39.2847 19.9884 39.131 20.1296 39.0023C20.275 38.8693 20.4453 38.7655 20.6405 38.6907C20.8358 38.6159 21.0476 38.5785 21.2761 38.5785C21.5544 38.5785 21.7995 38.6305 22.0114 38.7343C22.2233 38.834 22.3873 38.9753 22.5037 39.158C22.6241 39.3367 22.6844 39.5464 22.6844 39.7874V42.043H21.9117V41.4636L22.0862 41.4511C21.9989 41.5965 21.8951 41.719 21.7746 41.8187C21.6541 41.9143 21.5171 41.989 21.3634 42.043C21.2097 42.0929 21.0393 42.1178 20.8524 42.1178ZM23.4388 42.043V37.3261H24.2551V42.043H23.4388ZM26.6164 42.1178C26.2674 42.1178 25.9621 42.0389 25.7004 41.881C25.4387 41.7232 25.2352 41.5092 25.0898 41.2392C24.9444 40.9692 24.8717 40.6701 24.8717 40.3419C24.8717 40.0013 24.9444 39.7001 25.0898 39.4384C25.2393 39.1726 25.4408 38.9628 25.6942 38.8091C25.9517 38.6554 26.2384 38.5785 26.5541 38.5785C26.8199 38.5785 27.0526 38.6222 27.252 38.7094C27.4555 38.7966 27.6279 38.9171 27.7691 39.0708C27.9104 39.2245 28.0184 39.401 28.0932 39.6004C28.1679 39.7957 28.2053 40.0075 28.2053 40.236C28.2053 40.2942 28.2012 40.3544 28.1929 40.4167C28.1887 40.479 28.1783 40.533 28.1617 40.5787H25.5446V39.9556H27.7006L27.3143 40.2485C27.3517 40.0574 27.3413 39.8871 27.2831 39.7375C27.2291 39.588 27.1377 39.4696 27.0089 39.3824C26.8843 39.2951 26.7327 39.2515 26.5541 39.2515C26.3838 39.2515 26.2321 39.2951 26.0992 39.3824C25.9663 39.4654 25.8645 39.5901 25.7939 39.7562C25.7274 39.9182 25.7025 40.1156 25.7191 40.3482C25.7025 40.5559 25.7295 40.7407 25.8001 40.9027C25.8749 41.0606 25.9829 41.1832 26.1241 41.2704C26.2695 41.3576 26.4357 41.4012 26.6226 41.4012C26.8096 41.4012 26.9674 41.3618 27.0962 41.2828C27.2291 41.2039 27.333 41.098 27.4077 40.9651L28.0682 41.2891C28.0018 41.4511 27.8979 41.5944 27.7567 41.719C27.6154 41.8436 27.4472 41.9413 27.252 42.0119C27.0609 42.0825 26.849 42.1178 26.6164 42.1178ZM28.8241 42.043V38.6533H29.5905V39.4073L29.5282 39.2951C29.6071 39.0417 29.7297 38.8652 29.8959 38.7655C30.0662 38.6658 30.2697 38.6159 30.5065 38.6159H30.7059V39.3387H30.413C30.1804 39.3387 29.9935 39.4114 29.8522 39.5568C29.711 39.6981 29.6404 39.8975 29.6404 40.155V42.043H28.8241ZM31.1547 42.043V38.6533H31.971V42.043H31.1547ZM31.1547 38.2732V37.4009H31.971V38.2732H31.1547Z" fill="#8F907E"/>
</svg>
