<svg width="46" height="49" viewBox="0 0 46 49" fill="none" xmlns="http://www.w3.org/2000/svg">
<rect x="0.169434" y="0.166748" width="45.3199" height="48.2917" rx="9.65834" fill="#8F907E"/>
<path fill-rule="evenodd" clip-rule="evenodd" d="M22.835 9.24763C25.2148 9.24763 27.4972 10.193 29.1799 11.8758C30.8557 13.5516 31.7971 15.8244 31.7971 18.1943C31.7971 20.5643 30.8557 22.8371 29.1799 24.5129L23.5646 30.1493C23.4663 30.2485 23.3494 30.3271 23.2205 30.3808C23.0916 30.4345 22.9534 30.4621 22.8138 30.4621C22.6742 30.4621 22.536 30.4345 22.4071 30.3808C22.2783 30.3271 22.1613 30.2485 22.063 30.1493L16.49 24.5658C14.8072 22.883 13.8618 20.6006 13.8618 18.2208C13.8618 15.841 14.8072 13.5586 16.49 11.8758C18.1728 10.193 20.4551 9.24763 22.835 9.24763ZM22.8295 21.6688C24.7867 21.6688 26.3732 20.0822 26.3732 18.1251C26.3732 16.168 24.7867 14.5814 22.8295 14.5814C20.8724 14.5814 19.2858 16.168 19.2858 18.1251C19.2858 20.0822 20.8724 21.6688 22.8295 21.6688Z" fill="white"/>
<path d="M13.5632 42.043V37.4009H14.4106V41.2953H16.3983V42.043H13.5632ZM18.5354 42.1178C18.2031 42.1178 17.8998 42.041 17.6257 41.8873C17.3556 41.7336 17.1396 41.5238 16.9776 41.2579C16.8198 40.9921 16.7408 40.6888 16.7408 40.3482C16.7408 40.0075 16.8198 39.7043 16.9776 39.4384C17.1396 39.1726 17.3556 38.9628 17.6257 38.8091C17.8957 38.6554 18.1989 38.5785 18.5354 38.5785C18.8677 38.5785 19.1689 38.6554 19.4389 38.8091C19.7089 38.9628 19.9229 39.1726 20.0807 39.4384C20.2427 39.7001 20.3237 40.0034 20.3237 40.3482C20.3237 40.6888 20.2427 40.9921 20.0807 41.2579C19.9187 41.5238 19.7027 41.7336 19.4327 41.8873C19.1627 42.041 18.8636 42.1178 18.5354 42.1178ZM18.5354 41.3701C18.7182 41.3701 18.8781 41.3265 19.0152 41.2392C19.1564 41.152 19.2665 41.0315 19.3454 40.8778C19.4285 40.72 19.4701 40.5434 19.4701 40.3482C19.4701 40.1488 19.4285 39.9743 19.3454 39.8248C19.2665 39.6711 19.1564 39.5506 19.0152 39.4634C18.8781 39.372 18.7182 39.3263 18.5354 39.3263C18.3485 39.3263 18.1844 39.372 18.0431 39.4634C17.9019 39.5506 17.7897 39.6711 17.7067 39.8248C17.6277 39.9743 17.5883 40.1488 17.5883 40.3482C17.5883 40.5434 17.6277 40.72 17.7067 40.8778C17.7897 41.0315 17.9019 41.152 18.0431 41.2392C18.1844 41.3265 18.3485 41.3701 18.5354 41.3701ZM20.9428 42.043V37.3261H21.759V40.4167L21.4475 40.3233L23.0426 38.6533H24.0583L22.8059 40.0179L24.0832 42.043H23.1486L22.0394 40.2859L22.5255 40.1862L21.5036 41.2828L21.759 40.7844V42.043H20.9428ZM25.5672 42.1178C25.3304 42.1178 25.1248 42.0784 24.9503 41.9994C24.7758 41.9205 24.6408 41.8083 24.5453 41.6629C24.4497 41.5134 24.4019 41.341 24.4019 41.1458C24.4019 40.9588 24.4435 40.7927 24.5266 40.6473C24.6097 40.4977 24.7384 40.3731 24.9129 40.2734C25.0874 40.1737 25.3075 40.1031 25.5734 40.0615L26.6825 39.8808V40.504L25.7292 40.666C25.5672 40.695 25.4467 40.747 25.3678 40.8217C25.2888 40.8965 25.2494 40.9941 25.2494 41.1146C25.2494 41.2309 25.293 41.3244 25.3802 41.395C25.4716 41.4615 25.5838 41.4947 25.7167 41.4947C25.887 41.4947 26.0366 41.4594 26.1654 41.3888C26.2983 41.314 26.4001 41.2122 26.4707 41.0835C26.5455 40.9547 26.5828 40.8134 26.5828 40.6597V39.7874C26.5828 39.642 26.5247 39.5215 26.4084 39.426C26.2962 39.3263 26.1467 39.2764 25.9597 39.2764C25.7853 39.2764 25.6295 39.3242 25.4924 39.4197C25.3595 39.5111 25.2618 39.6337 25.1995 39.7874L24.5328 39.4634C24.5993 39.2847 24.7031 39.131 24.8444 39.0023C24.9898 38.8693 25.1601 38.7655 25.3553 38.6907C25.5506 38.6159 25.7624 38.5785 25.9909 38.5785C26.2692 38.5785 26.5143 38.6305 26.7262 38.7343C26.938 38.834 27.1021 38.9753 27.2184 39.158C27.3389 39.3367 27.3991 39.5464 27.3991 39.7874V42.043H26.6265V41.4636L26.8009 41.4511C26.7137 41.5965 26.6098 41.719 26.4894 41.8187C26.3689 41.9143 26.2318 41.989 26.0781 42.043C25.9244 42.0929 25.7541 42.1178 25.5672 42.1178ZM29.4434 42.1178C29.082 42.1178 28.7663 42.0327 28.4963 41.8623C28.2304 41.6879 28.0476 41.4532 27.9479 41.1582L28.5586 40.8654C28.6458 41.0565 28.7663 41.206 28.92 41.314C29.0779 41.422 29.2523 41.476 29.4434 41.476C29.593 41.476 29.7114 41.4428 29.7986 41.3763C29.8858 41.3098 29.9294 41.2226 29.9294 41.1146C29.9294 41.0481 29.9107 40.9941 29.8734 40.9526C29.8401 40.9069 29.7924 40.8695 29.73 40.8404C29.6719 40.8072 29.6075 40.7802 29.5369 40.7594L28.9823 40.6037C28.6957 40.5206 28.4776 40.3939 28.328 40.2236C28.1827 40.0532 28.11 39.8518 28.11 39.6191C28.11 39.4114 28.1619 39.2307 28.2657 39.077C28.3737 38.9192 28.5212 38.7966 28.7081 38.7094C28.8992 38.6222 29.1173 38.5785 29.3624 38.5785C29.6823 38.5785 29.9648 38.6554 30.2098 38.8091C30.4549 38.9628 30.6294 39.1788 30.7333 39.4571L30.1101 39.75C30.052 39.5963 29.9544 39.4737 29.8173 39.3824C29.6802 39.291 29.5265 39.2453 29.3562 39.2453C29.2191 39.2453 29.1111 39.2764 29.0322 39.3387C28.9532 39.401 28.9138 39.4821 28.9138 39.5818C28.9138 39.6441 28.9304 39.6981 28.9636 39.7438C28.9969 39.7895 29.0425 39.8268 29.1007 39.8559C29.163 39.885 29.2336 39.912 29.3126 39.9369L29.8547 40.0989C30.133 40.182 30.3469 40.3066 30.4965 40.4728C30.6502 40.639 30.727 40.8425 30.727 41.0835C30.727 41.287 30.673 41.4677 30.565 41.6256C30.457 41.7793 30.3075 41.8997 30.1164 41.987C29.9253 42.0742 29.701 42.1178 29.4434 42.1178ZM31.3543 42.043V38.6533H32.1706V42.043H31.3543ZM31.3543 38.2732V37.4009H32.1706V38.2732H31.3543Z" fill="white"/>
</svg>
