<svg width="46" height="50" viewBox="0 0 46 50" fill="none" xmlns="http://www.w3.org/2000/svg">
<rect x="0.169434" y="0.875061" width="45.3199" height="48.2917" rx="9.65834" fill="white"/>
<path d="M29.1799 12.5841C27.4972 10.9013 25.2148 9.95596 22.835 9.95596C20.4551 9.95596 18.1728 10.9013 16.49 12.5841C14.8072 14.2669 13.8618 16.5493 13.8618 18.9291C13.8618 21.3089 14.8072 23.5913 16.49 25.2741L22.063 30.8577C22.1613 30.9568 22.2783 31.0355 22.4071 31.0891C22.536 31.1428 22.6742 31.1705 22.8138 31.1705C22.9534 31.1705 23.0916 31.1428 23.2205 31.0891C23.3494 31.0355 23.4663 30.9568 23.5646 30.8577L29.1799 25.2212C30.8557 23.5454 31.7971 21.2726 31.7971 18.9027C31.7971 16.5328 30.8557 14.2599 29.1799 12.5841ZM27.6677 23.709L22.835 28.5629L18.0022 23.709C17.0474 22.7534 16.3974 21.5361 16.1344 20.2111C15.8713 18.8861 16.0069 17.5129 16.5242 16.2649C17.0414 15.017 17.917 13.9505 19.0403 13.2001C20.1636 12.4497 21.4841 12.0492 22.835 12.0492C24.1858 12.0492 25.5064 12.4497 26.6297 13.2001C27.7529 13.9505 28.6285 15.017 29.1458 16.2649C29.663 17.5129 29.7987 18.8861 29.5356 20.2111C29.2725 21.5361 28.6225 22.7534 27.6677 23.709Z" fill="#8F907E"/>
<path fill-rule="evenodd" clip-rule="evenodd" d="M22.8296 21.0451C23.9732 21.0451 24.9003 20.1181 24.9003 18.9745C24.9003 17.8309 23.9732 16.9038 22.8296 16.9038C21.686 16.9038 20.7589 17.8309 20.7589 18.9745C20.7589 20.1181 21.686 21.0451 22.8296 21.0451ZM22.8296 23.274C25.2042 23.274 27.1291 21.349 27.1291 18.9745C27.1291 16.5999 25.2042 14.6749 22.8296 14.6749C20.4551 14.6749 18.5301 16.5999 18.5301 18.9745C18.5301 21.349 20.4551 23.274 22.8296 23.274Z" fill="#8F907E"/>
<path d="M13.5632 42.7514V38.1092H14.4106V42.0036H16.3983V42.7514H13.5632ZM18.5354 42.8261C18.2031 42.8261 17.8998 42.7493 17.6257 42.5956C17.3556 42.4419 17.1396 42.2321 16.9776 41.9663C16.8198 41.7004 16.7408 41.3971 16.7408 41.0565C16.7408 40.7159 16.8198 40.4126 16.9776 40.1468C17.1396 39.8809 17.3556 39.6711 17.6257 39.5174C17.8957 39.3637 18.1989 39.2869 18.5354 39.2869C18.8677 39.2869 19.1689 39.3637 19.4389 39.5174C19.7089 39.6711 19.9229 39.8809 20.0807 40.1468C20.2427 40.4085 20.3237 40.7117 20.3237 41.0565C20.3237 41.3971 20.2427 41.7004 20.0807 41.9663C19.9187 42.2321 19.7027 42.4419 19.4327 42.5956C19.1627 42.7493 18.8636 42.8261 18.5354 42.8261ZM18.5354 42.0784C18.7182 42.0784 18.8781 42.0348 19.0152 41.9476C19.1564 41.8603 19.2665 41.7399 19.3454 41.5862C19.4285 41.4283 19.4701 41.2517 19.4701 41.0565C19.4701 40.8571 19.4285 40.6826 19.3454 40.5331C19.2665 40.3794 19.1564 40.2589 19.0152 40.1717C18.8781 40.0803 18.7182 40.0346 18.5354 40.0346C18.3485 40.0346 18.1844 40.0803 18.0431 40.1717C17.9019 40.2589 17.7897 40.3794 17.7067 40.5331C17.6277 40.6826 17.5883 40.8571 17.5883 41.0565C17.5883 41.2517 17.6277 41.4283 17.7067 41.5862C17.7897 41.7399 17.9019 41.8603 18.0431 41.9476C18.1844 42.0348 18.3485 42.0784 18.5354 42.0784ZM20.9428 42.7514V38.0344H21.759V41.1251L21.4475 41.0316L23.0426 39.3616H24.0583L22.8059 40.7263L24.0832 42.7514H23.1486L22.0394 40.9942L22.5255 40.8945L21.5036 41.9912L21.759 41.4927V42.7514H20.9428ZM25.5672 42.8261C25.3304 42.8261 25.1248 42.7867 24.9503 42.7078C24.7758 42.6288 24.6408 42.5167 24.5453 42.3713C24.4497 42.2217 24.4019 42.0493 24.4019 41.8541C24.4019 41.6672 24.4435 41.501 24.5266 41.3556C24.6097 41.2061 24.7384 41.0814 24.9129 40.9817C25.0874 40.882 25.3075 40.8114 25.5734 40.7699L26.6825 40.5892V41.2123L25.7292 41.3743C25.5672 41.4034 25.4467 41.4553 25.3678 41.5301C25.2888 41.6048 25.2494 41.7025 25.2494 41.8229C25.2494 41.9393 25.293 42.0327 25.3802 42.1033C25.4716 42.1698 25.5838 42.203 25.7167 42.203C25.887 42.203 26.0366 42.1677 26.1654 42.0971C26.2983 42.0223 26.4001 41.9206 26.4707 41.7918C26.5455 41.663 26.5828 41.5218 26.5828 41.3681V40.4957C26.5828 40.3503 26.5247 40.2298 26.4084 40.1343C26.2962 40.0346 26.1467 39.9848 25.9597 39.9848C25.7853 39.9848 25.6295 40.0325 25.4924 40.1281C25.3595 40.2195 25.2618 40.342 25.1995 40.4957L24.5328 40.1717C24.5993 39.9931 24.7031 39.8394 24.8444 39.7106C24.9898 39.5777 25.1601 39.4738 25.3553 39.399C25.5506 39.3243 25.7624 39.2869 25.9909 39.2869C26.2692 39.2869 26.5143 39.3388 26.7262 39.4426C26.938 39.5423 27.1021 39.6836 27.2184 39.8664C27.3389 40.045 27.3991 40.2548 27.3991 40.4957V42.7514H26.6265V42.1719L26.8009 42.1594C26.7137 42.3048 26.6098 42.4274 26.4894 42.5271C26.3689 42.6226 26.2318 42.6974 26.0781 42.7514C25.9244 42.8012 25.7541 42.8261 25.5672 42.8261ZM29.4434 42.8261C29.082 42.8261 28.7663 42.741 28.4963 42.5707C28.2304 42.3962 28.0476 42.1615 27.9479 41.8666L28.5586 41.5737C28.6458 41.7648 28.7663 41.9143 28.92 42.0223C29.0779 42.1303 29.2523 42.1843 29.4434 42.1843C29.593 42.1843 29.7114 42.1511 29.7986 42.0846C29.8858 42.0182 29.9294 41.9309 29.9294 41.8229C29.9294 41.7565 29.9107 41.7025 29.8734 41.6609C29.8401 41.6152 29.7924 41.5778 29.73 41.5488C29.6719 41.5155 29.6075 41.4885 29.5369 41.4678L28.9823 41.312C28.6957 41.2289 28.4776 41.1022 28.328 40.9319C28.1827 40.7616 28.11 40.5601 28.11 40.3275C28.11 40.1198 28.1619 39.9391 28.2657 39.7854C28.3737 39.6275 28.5212 39.505 28.7081 39.4177C28.8992 39.3305 29.1173 39.2869 29.3624 39.2869C29.6823 39.2869 29.9648 39.3637 30.2098 39.5174C30.4549 39.6711 30.6294 39.8871 30.7333 40.1655L30.1101 40.4583C30.052 40.3046 29.9544 40.1821 29.8173 40.0907C29.6802 39.9993 29.5265 39.9536 29.3562 39.9536C29.2191 39.9536 29.1111 39.9848 29.0322 40.0471C28.9532 40.1094 28.9138 40.1904 28.9138 40.2901C28.9138 40.3524 28.9304 40.4064 28.9636 40.4521C28.9969 40.4978 29.0425 40.5352 29.1007 40.5642C29.163 40.5933 29.2336 40.6203 29.3126 40.6453L29.8547 40.8073C30.133 40.8903 30.3469 41.015 30.4965 41.1811C30.6502 41.3473 30.727 41.5508 30.727 41.7918C30.727 41.9953 30.673 42.176 30.565 42.3339C30.457 42.4876 30.3075 42.6081 30.1164 42.6953C29.9253 42.7825 29.701 42.8261 29.4434 42.8261ZM31.3543 42.7514V39.3616H32.1706V42.7514H31.3543ZM31.3543 38.9815V38.1092H32.1706V38.9815H31.3543Z" fill="#8F907E"/>
</svg>
