<svg width="46" height="49" viewBox="0 0 46 49" fill="none" xmlns="http://www.w3.org/2000/svg">
<rect x="0.0720215" width="45.3199" height="48.2917" rx="9.65834" fill="#8F907E"/>
<path d="M31.3687 11.8762C30.2459 10.7531 28.7574 10.0703 27.1738 9.95195C25.5902 9.83357 23.5124 10.2773 22.7395 12.0074C21.9215 10.3755 19.7193 9.77654 18.0526 9.96111C16.3859 10.1457 14.851 10.9549 13.7571 12.2258C12.6632 13.4967 12.0914 15.1349 12.1569 16.8105C12.2225 18.4861 12.9205 20.0746 14.1103 21.2562L21.9887 29.1345C22.087 29.2336 22.2039 29.3123 22.3328 29.366C22.4617 29.4197 22.5999 29.4473 22.7395 29.4473C22.8791 29.4473 23.0173 29.4197 23.1462 29.366C23.2751 29.3123 23.392 29.2336 23.4903 29.1345L31.3687 21.2562C31.9848 20.6404 32.4736 19.9093 32.8071 19.1046C33.1406 18.2998 33.3122 17.4373 33.3122 16.5662C33.3122 15.6951 33.1406 14.8325 32.8071 14.0278C32.4736 13.2231 31.9848 12.4919 31.3687 11.8762Z" fill="white"/>
<path d="M8.23562 41.8763V37.2341H9.04566L10.7841 39.5957H10.3978L12.0989 37.2341H12.909V41.8763H12.0553V38.1999L12.3855 38.2809L10.6221 40.6301H10.5224L8.80265 38.2809L9.08305 38.1999V41.8763H8.23562ZM15.3365 41.9511C14.9875 41.9511 14.6822 41.8721 14.4205 41.7143C14.1588 41.5564 13.9552 41.3425 13.8098 41.0725C13.6644 40.8025 13.5918 40.5034 13.5918 40.1752C13.5918 39.8346 13.6644 39.5334 13.8098 39.2717C13.9594 39.0058 14.1609 38.796 14.4143 38.6423C14.6718 38.4886 14.9584 38.4118 15.2742 38.4118C15.54 38.4118 15.7726 38.4554 15.972 38.5426C16.1756 38.6299 16.348 38.7503 16.4892 38.904C16.6305 39.0577 16.7385 39.2343 16.8132 39.4337C16.888 39.6289 16.9254 39.8408 16.9254 40.0693C16.9254 40.1274 16.9212 40.1876 16.9129 40.25C16.9088 40.3123 16.8984 40.3663 16.8818 40.412H14.2647V39.7889H16.4207L16.0344 40.0817C16.0717 39.8906 16.0614 39.7203 16.0032 39.5708C15.9492 39.4212 15.8578 39.3028 15.729 39.2156C15.6044 39.1284 15.4528 39.0847 15.2742 39.0847C15.1038 39.0847 14.9522 39.1284 14.8193 39.2156C14.6864 39.2987 14.5846 39.4233 14.514 39.5895C14.4475 39.7515 14.4226 39.9488 14.4392 40.1814C14.4226 40.3891 14.4496 40.574 14.5202 40.736C14.595 40.8938 14.703 41.0164 14.8442 41.1036C14.9896 41.1909 15.1558 41.2345 15.3427 41.2345C15.5296 41.2345 15.6875 41.195 15.8163 41.1161C15.9492 41.0372 16.053 40.9312 16.1278 40.7983L16.7883 41.1223C16.7219 41.2843 16.618 41.4276 16.4768 41.5523C16.3355 41.6769 16.1673 41.7745 15.972 41.8451C15.781 41.9157 15.5691 41.9511 15.3365 41.9511ZM17.5442 41.8763V38.4866H18.3106V39.2717L18.2234 39.1408C18.2857 38.8957 18.4103 38.7129 18.5972 38.5925C18.7842 38.472 19.0043 38.4118 19.2577 38.4118C19.5361 38.4118 19.7812 38.4845 19.993 38.6299C20.2049 38.7753 20.342 38.9663 20.4043 39.2031L20.1737 39.2218C20.2776 38.9518 20.4333 38.7503 20.6411 38.6174C20.8488 38.4803 21.0876 38.4118 21.3576 38.4118C21.5986 38.4118 21.8125 38.4658 21.9994 38.5738C22.1905 38.6818 22.3401 38.8334 22.4481 39.0287C22.5561 39.2197 22.6101 39.442 22.6101 39.6954V41.8763H21.7938V39.8886C21.7938 39.739 21.7668 39.6102 21.7128 39.5022C21.6588 39.3942 21.584 39.3111 21.4885 39.253C21.3929 39.1907 21.2766 39.1595 21.1395 39.1595C21.0108 39.1595 20.8965 39.1907 20.7968 39.253C20.6971 39.3111 20.6203 39.3942 20.5663 39.5022C20.5123 39.6102 20.4853 39.739 20.4853 39.8886V41.8763H19.669V39.8886C19.669 39.739 19.642 39.6102 19.588 39.5022C19.534 39.3942 19.4571 39.3111 19.3574 39.253C19.2619 39.1907 19.1477 39.1595 19.0147 39.1595C18.886 39.1595 18.7717 39.1907 18.672 39.253C18.5723 39.3111 18.4955 39.3942 18.4415 39.5022C18.3875 39.6102 18.3605 39.739 18.3605 39.8886V41.8763H17.5442ZM23.3007 43.1225V38.4866H24.0671V39.1595L23.9923 38.9913C24.1086 38.8085 24.2665 38.6673 24.4659 38.5676C24.6653 38.4637 24.8958 38.4118 25.1575 38.4118C25.4774 38.4118 25.7661 38.4907 26.0237 38.6486C26.2812 38.8064 26.4848 39.0183 26.6343 39.2841C26.788 39.55 26.8649 39.8491 26.8649 40.1814C26.8649 40.5096 26.7901 40.8087 26.6406 41.0787C26.491 41.3487 26.2875 41.5626 26.0299 41.7205C25.7723 41.8742 25.4795 41.9511 25.1513 41.9511C24.9062 41.9511 24.6798 41.9033 24.4721 41.8077C24.2686 41.708 24.1066 41.5668 23.9861 41.384L24.1169 41.222V43.1225H23.3007ZM25.0578 41.2033C25.2448 41.2033 25.4109 41.1597 25.5563 41.0725C25.7017 40.9852 25.8139 40.8648 25.8928 40.7111C25.9759 40.5574 26.0174 40.3808 26.0174 40.1814C26.0174 39.982 25.9759 39.8075 25.8928 39.658C25.8139 39.5043 25.7017 39.3838 25.5563 39.2966C25.4109 39.2052 25.2448 39.1595 25.0578 39.1595C24.8792 39.1595 24.7172 39.2031 24.5718 39.2904C24.4306 39.3776 24.3184 39.5001 24.2353 39.658C24.1564 39.8117 24.1169 39.9862 24.1169 40.1814C24.1169 40.3808 24.1564 40.5574 24.2353 40.7111C24.3184 40.8648 24.4306 40.9852 24.5718 41.0725C24.7172 41.1597 24.8792 41.2033 25.0578 41.2033ZM29.0948 41.9511C28.7459 41.9511 28.4406 41.8721 28.1789 41.7143C27.9172 41.5564 27.7136 41.3425 27.5682 41.0725C27.4228 40.8025 27.3501 40.5034 27.3501 40.1752C27.3501 39.8346 27.4228 39.5334 27.5682 39.2717C27.7178 39.0058 27.9192 38.796 28.1726 38.6423C28.4302 38.4886 28.7168 38.4118 29.0325 38.4118C29.2984 38.4118 29.531 38.4554 29.7304 38.5426C29.934 38.6299 30.1064 38.7503 30.2476 38.904C30.3888 39.0577 30.4968 39.2343 30.5716 39.4337C30.6464 39.6289 30.6838 39.8408 30.6838 40.0693C30.6838 40.1274 30.6796 40.1876 30.6713 40.25C30.6672 40.3123 30.6568 40.3663 30.6402 40.412H28.0231V39.7889H30.1791L29.7927 40.0817C29.8301 39.8906 29.8197 39.7203 29.7616 39.5708C29.7076 39.4212 29.6162 39.3028 29.4874 39.2156C29.3628 39.1284 29.2111 39.0847 29.0325 39.0847C28.8622 39.0847 28.7106 39.1284 28.5777 39.2156C28.4447 39.2987 28.3429 39.4233 28.2723 39.5895C28.2059 39.7515 28.1809 39.9488 28.1976 40.1814C28.1809 40.3891 28.2079 40.574 28.2786 40.736C28.3533 40.8938 28.4613 41.0164 28.6026 41.1036C28.748 41.1909 28.9141 41.2345 29.1011 41.2345C29.288 41.2345 29.4459 41.195 29.5746 41.1161C29.7076 41.0372 29.8114 40.9312 29.8862 40.7983L30.5467 41.1223C30.4802 41.2843 30.3764 41.4276 30.2351 41.5523C30.0939 41.6769 29.9257 41.7745 29.7304 41.8451C29.5393 41.9157 29.3275 41.9511 29.0948 41.9511ZM31.3026 41.8763V37.1593H32.1188V41.8763H31.3026ZM33.9006 41.9511C33.6639 41.9511 33.4582 41.9116 33.2838 41.8327C33.1093 41.7537 32.9743 41.6416 32.8787 41.4962C32.7832 41.3466 32.7354 41.1742 32.7354 40.979C32.7354 40.7921 32.777 40.6259 32.86 40.4805C32.9431 40.331 33.0719 40.2063 33.2464 40.1066C33.4208 40.0069 33.641 39.9363 33.9069 39.8948L35.016 39.7141V40.3372L34.0626 40.4992C33.9006 40.5283 33.7802 40.5802 33.7012 40.655C33.6223 40.7298 33.5828 40.8274 33.5828 40.9478C33.5828 41.0642 33.6265 41.1576 33.7137 41.2282C33.8051 41.2947 33.9173 41.3279 34.0502 41.3279C34.2205 41.3279 34.37 41.2926 34.4988 41.222C34.6318 41.1472 34.7335 41.0455 34.8041 40.9167C34.8789 40.7879 34.9163 40.6467 34.9163 40.493V39.6206C34.9163 39.4752 34.8582 39.3548 34.7418 39.2592C34.6297 39.1595 34.4801 39.1097 34.2932 39.1097C34.1187 39.1097 33.9629 39.1574 33.8259 39.253C33.6929 39.3444 33.5953 39.4669 33.533 39.6206L32.8663 39.2966C32.9327 39.118 33.0366 38.9643 33.1778 38.8355C33.3232 38.7026 33.4935 38.5987 33.6888 38.5239C33.884 38.4492 34.0959 38.4118 34.3244 38.4118C34.6027 38.4118 34.8478 38.4637 35.0596 38.5676C35.2715 38.6673 35.4356 38.8085 35.5519 38.9913C35.6724 39.1699 35.7326 39.3797 35.7326 39.6206V41.8763H34.9599V41.2968L35.1344 41.2843C35.0472 41.4297 34.9433 41.5523 34.8228 41.652C34.7024 41.7475 34.5653 41.8223 34.4116 41.8763C34.2579 41.9261 34.0876 41.9511 33.9006 41.9511ZM36.487 41.8763V38.4866H37.3033V41.8763H36.487ZM36.487 38.1065V37.2341H37.3033V38.1065H36.487Z" fill="white"/>
</svg>
