<svg width="47" height="49" viewBox="0 0 47 49" fill="none" xmlns="http://www.w3.org/2000/svg">
<rect x="0.815674" y="0.458435" width="45.3199" height="48.2917" rx="9.65834" fill="#8F907E"/>
<path fill-rule="evenodd" clip-rule="evenodd" d="M19.4439 10.3762C20.7269 9.84471 22.102 9.57118 23.4908 9.57118C26.2954 9.57118 28.9852 10.6853 30.9684 12.6685C32.9516 14.6517 34.0657 17.3415 34.0657 20.1461C34.0657 22.9508 32.9516 25.6406 30.9684 27.6238C28.9852 29.607 26.2954 30.7211 23.4908 30.7211H13.9733C13.7639 30.7299 13.5566 30.6763 13.3778 30.5671C13.1989 30.4579 13.0565 30.298 12.9687 30.1078C12.8877 29.9152 12.8656 29.7029 12.9051 29.4978C12.9446 29.2926 13.044 29.1038 13.1907 28.9551L15.3057 26.8401C13.7521 24.9562 12.9065 22.588 12.9158 20.1461C12.9158 17.3415 14.0299 14.6517 16.0131 12.6685C16.9951 11.6865 18.1609 10.9076 19.4439 10.3762ZM18.6732 19.2669C18.8471 19.1507 19.0516 19.0887 19.2608 19.0887C19.5412 19.0887 19.8102 19.2001 20.0085 19.3984C20.2068 19.5967 20.3183 19.8657 20.3183 20.1462C20.3183 20.3553 20.2562 20.5598 20.14 20.7337C20.0238 20.9076 19.8587 21.0431 19.6654 21.1232C19.4722 21.2032 19.2596 21.2241 19.0544 21.1833C18.8493 21.1425 18.6609 21.0418 18.513 20.8939C18.3651 20.746 18.2644 20.5576 18.2236 20.3525C18.1828 20.1473 18.2037 19.9347 18.2838 19.7415C18.3638 19.5483 18.4993 19.3831 18.6732 19.2669ZM22.9032 19.2669C23.0771 19.1507 23.2816 19.0887 23.4907 19.0887C23.7712 19.0887 24.0402 19.2001 24.2385 19.3984C24.4368 19.5967 24.5482 19.8657 24.5482 20.1462C24.5482 20.3553 24.4862 20.5598 24.37 20.7337C24.2538 20.9076 24.0887 21.0431 23.8954 21.1232C23.7022 21.2032 23.4896 21.2241 23.2844 21.1833C23.0793 21.1425 22.8909 21.0418 22.743 20.8939C22.5951 20.746 22.4944 20.5576 22.4536 20.3525C22.4128 20.1473 22.4337 19.9347 22.5137 19.7415C22.5938 19.5483 22.7293 19.3831 22.9032 19.2669ZM27.7207 19.0887C27.5116 19.0887 27.3071 19.1507 27.1332 19.2669C26.9593 19.3831 26.8238 19.5483 26.7437 19.7415C26.6637 19.9347 26.6427 20.1473 26.6835 20.3525C26.7244 20.5576 26.8251 20.746 26.973 20.8939C27.1209 21.0418 27.3093 21.1425 27.5144 21.1833C27.7196 21.2241 27.9322 21.2032 28.1254 21.1232C28.3186 21.0431 28.4838 20.9076 28.6 20.7337C28.7162 20.5598 28.7782 20.3553 28.7782 20.1462C28.7782 19.8657 28.6668 19.5967 28.4685 19.3984C28.2702 19.2001 28.0012 19.0887 27.7207 19.0887Z" fill="white"/>
<path d="M14.0322 42.4095C13.675 42.4095 13.3572 42.3347 13.0789 42.1852C12.8047 42.0356 12.5887 41.83 12.4308 41.5683C12.273 41.3066 12.1941 41.0096 12.1941 40.6772V37.6925H13.0415V40.6336C13.0415 40.8247 13.083 40.9971 13.1661 41.1508C13.2534 41.3045 13.3717 41.425 13.5213 41.5122C13.6708 41.5953 13.8412 41.6368 14.0322 41.6368C14.2275 41.6368 14.3978 41.5953 14.5432 41.5122C14.6927 41.425 14.8091 41.3045 14.8921 41.1508C14.9794 40.9971 15.023 40.8247 15.023 40.6336V37.6925H15.8704V40.6772C15.8704 41.0096 15.7915 41.3066 15.6336 41.5683C15.4758 41.83 15.2577 42.0356 14.9794 42.1852C14.7052 42.3347 14.3895 42.4095 14.0322 42.4095ZM18.2805 42.4095C17.944 42.4095 17.6407 42.3326 17.3707 42.1789C17.1049 42.0211 16.8951 41.8092 16.7414 41.5434C16.5877 41.2734 16.5108 40.9701 16.5108 40.6336C16.5108 40.2971 16.5877 39.996 16.7414 39.7301C16.8951 39.4643 17.1049 39.2545 17.3707 39.1008C17.6407 38.9471 17.944 38.8702 18.2805 38.8702C18.5214 38.8702 18.7457 38.9138 18.9534 39.0011C19.1611 39.0842 19.3398 39.2005 19.4893 39.35C19.643 39.4954 19.7531 39.6699 19.8195 39.8734L19.103 40.185C19.0407 40.0147 18.9347 39.8776 18.7852 39.7737C18.6398 39.6699 18.4715 39.618 18.2805 39.618C18.1018 39.618 17.9419 39.6616 17.8007 39.7488C17.6636 39.836 17.5556 39.9565 17.4766 40.1102C17.3977 40.2639 17.3583 40.4405 17.3583 40.6399C17.3583 40.8393 17.3977 41.0158 17.4766 41.1695C17.5556 41.3232 17.6636 41.4437 17.8007 41.5309C17.9419 41.6181 18.1018 41.6618 18.2805 41.6618C18.4757 41.6618 18.646 41.6098 18.7914 41.506C18.9368 41.4021 19.0407 41.263 19.103 41.0885L19.8195 41.4125C19.7531 41.6036 19.6451 41.776 19.4955 41.9297C19.346 42.0792 19.1674 42.1976 18.9597 42.2849C18.7519 42.368 18.5256 42.4095 18.2805 42.4095ZM21.4549 42.4095C21.2181 42.4095 21.0125 42.37 20.838 42.2911C20.6635 42.2122 20.5285 42.1 20.433 41.9546C20.3374 41.8051 20.2897 41.6327 20.2897 41.4374C20.2897 41.2505 20.3312 41.0843 20.4143 40.939C20.4974 40.7894 20.6261 40.6648 20.8006 40.5651C20.9751 40.4654 21.1952 40.3948 21.4611 40.3532L22.5702 40.1725V40.7956L21.6169 40.9576C21.4549 40.9867 21.3344 41.0387 21.2555 41.1134C21.1766 41.1882 21.1371 41.2858 21.1371 41.4063C21.1371 41.5226 21.1807 41.6161 21.2679 41.6867C21.3593 41.7532 21.4715 41.7864 21.6044 41.7864C21.7747 41.7864 21.9243 41.7511 22.0531 41.6805C22.186 41.6057 22.2878 41.5039 22.3584 41.3751C22.4332 41.2464 22.4706 41.1051 22.4706 40.9514V40.0791C22.4706 39.9337 22.4124 39.8132 22.2961 39.7177C22.1839 39.618 22.0344 39.5681 21.8474 39.5681C21.673 39.5681 21.5172 39.6159 21.3801 39.7114C21.2472 39.8028 21.1496 39.9254 21.0872 40.0791L20.4205 39.755C20.487 39.5764 20.5908 39.4227 20.7321 39.2939C20.8775 39.161 21.0478 39.0572 21.243 38.9824C21.4383 38.9076 21.6501 38.8702 21.8786 38.8702C22.1569 38.8702 22.402 38.9221 22.6139 39.026C22.8257 39.1257 22.9898 39.2669 23.1061 39.4497C23.2266 39.6283 23.2868 39.8381 23.2868 40.0791V42.3347H22.5142V41.7552L22.6886 41.7428C22.6014 41.8882 22.4976 42.0107 22.3771 42.1104C22.2566 42.2059 22.1195 42.2807 21.9658 42.3347C21.8121 42.3846 21.6418 42.4095 21.4549 42.4095ZM24.0413 43.5809V38.945H24.8077V39.618L24.7329 39.4497C24.8492 39.2669 25.0071 39.1257 25.2065 39.026C25.4059 38.9221 25.6364 38.8702 25.8982 38.8702C26.218 38.8702 26.5067 38.9491 26.7643 39.107C27.0218 39.2649 27.2254 39.4767 27.3749 39.7426C27.5286 40.0084 27.6055 40.3075 27.6055 40.6399C27.6055 40.968 27.5307 41.2671 27.3812 41.5371C27.2316 41.8072 27.0281 42.0211 26.7705 42.1789C26.513 42.3326 26.2201 42.4095 25.8919 42.4095C25.6468 42.4095 25.4204 42.3617 25.2127 42.2662C25.0092 42.1665 24.8472 42.0252 24.7267 41.8425L24.8576 41.6805V43.5809H24.0413ZM25.7985 41.6618C25.9854 41.6618 26.1516 41.6181 26.2969 41.5309C26.4423 41.4437 26.5545 41.3232 26.6334 41.1695C26.7165 41.0158 26.758 40.8393 26.758 40.6399C26.758 40.4405 26.7165 40.266 26.6334 40.1164C26.5545 39.9627 26.4423 39.8423 26.2969 39.755C26.1516 39.6636 25.9854 39.618 25.7985 39.618C25.6198 39.618 25.4578 39.6616 25.3124 39.7488C25.1712 39.836 25.059 39.9586 24.9759 40.1164C24.897 40.2701 24.8576 40.4446 24.8576 40.6399C24.8576 40.8393 24.897 41.0158 24.9759 41.1695C25.059 41.3232 25.1712 41.4437 25.3124 41.5309C25.4578 41.6181 25.6198 41.6618 25.7985 41.6618ZM29.256 42.4095C29.0192 42.4095 28.8135 42.37 28.6391 42.2911C28.4646 42.2122 28.3296 42.1 28.234 41.9546C28.1385 41.8051 28.0907 41.6327 28.0907 41.4374C28.0907 41.2505 28.1323 41.0843 28.2154 40.939C28.2984 40.7894 28.4272 40.6648 28.6017 40.5651C28.7762 40.4654 28.9963 40.3948 29.2622 40.3532L30.3713 40.1725V40.7956L29.418 40.9576C29.256 40.9867 29.1355 41.0387 29.0566 41.1134C28.9776 41.1882 28.9382 41.2858 28.9382 41.4063C28.9382 41.5226 28.9818 41.6161 29.069 41.6867C29.1604 41.7532 29.2726 41.7864 29.4055 41.7864C29.5758 41.7864 29.7254 41.7511 29.8541 41.6805C29.9871 41.6057 30.0888 41.5039 30.1595 41.3751C30.2342 41.2464 30.2716 41.1051 30.2716 40.9514V40.0791C30.2716 39.9337 30.2135 39.8132 30.0972 39.7177C29.985 39.618 29.8354 39.5681 29.6485 39.5681C29.474 39.5681 29.3183 39.6159 29.1812 39.7114C29.0482 39.8028 28.9506 39.9254 28.8883 40.0791L28.2216 39.755C28.288 39.5764 28.3919 39.4227 28.5331 39.2939C28.6785 39.161 28.8489 39.0572 29.0441 38.9824C29.2393 38.9076 29.4512 38.8702 29.6797 38.8702C29.958 38.8702 30.2031 38.9221 30.4149 39.026C30.6268 39.1257 30.7909 39.2669 30.9072 39.4497C31.0277 39.6283 31.0879 39.8381 31.0879 40.0791V42.3347H30.3152V41.7552L30.4897 41.7428C30.4025 41.8882 30.2986 42.0107 30.1782 42.1104C30.0577 42.2059 29.9206 42.2807 29.7669 42.3347C29.6132 42.3846 29.4429 42.4095 29.256 42.4095ZM31.8424 42.3347V38.945H32.6088V39.6117L32.5465 39.4933C32.6254 39.2898 32.7542 39.1361 32.9328 39.0322C33.1156 38.9242 33.3274 38.8702 33.5684 38.8702C33.8176 38.8702 34.0378 38.9242 34.2289 39.0322C34.4241 39.1402 34.5757 39.2919 34.6837 39.4871C34.7918 39.6782 34.8458 39.9004 34.8458 40.1538V42.3347H34.0295V40.347C34.0295 40.1974 34.0004 40.0687 33.9422 39.9607C33.8841 39.8527 33.8031 39.7696 33.6992 39.7114C33.5995 39.6491 33.4811 39.618 33.3441 39.618C33.2111 39.618 33.0927 39.6491 32.9889 39.7114C32.885 39.7696 32.804 39.8527 32.7459 39.9607C32.6877 40.0687 32.6586 40.1974 32.6586 40.347V42.3347H31.8424Z" fill="white"/>
</svg>
