<svg width="46" height="50" viewBox="0 0 46 50" fill="none" xmlns="http://www.w3.org/2000/svg">
<rect x="0.620605" y="0.875061" width="45.3199" height="48.2917" rx="9.65834" fill="#8F907E"/>
<path fill-rule="evenodd" clip-rule="evenodd" d="M29.6257 11.0458H30.6832C31.5246 11.0458 32.3316 11.3801 32.9265 11.975C33.5215 12.57 33.8557 13.3769 33.8557 14.2183V29.0232C33.8557 29.8646 33.5215 30.6716 32.9265 31.2665C32.3316 31.8615 31.5246 32.1957 30.6832 32.1957H15.8783C15.0369 32.1957 14.23 31.8615 13.635 31.2665C13.0401 30.6716 12.7058 29.8646 12.7058 29.0232V14.2183C12.7058 13.3769 13.0401 12.57 13.635 11.975C14.23 11.3801 15.0369 11.0458 15.8783 11.0458H16.9358V9.98831C16.9358 9.70785 17.0472 9.43887 17.2455 9.24055C17.4438 9.04223 17.7128 8.93082 17.9933 8.93082C18.2738 8.93082 18.5427 9.04223 18.7411 9.24055C18.9394 9.43887 19.0508 9.70785 19.0508 9.98831V11.0458H27.5108V9.98831C27.5108 9.70785 27.6222 9.43887 27.8205 9.24055C28.0188 9.04223 28.2878 8.93082 28.5683 8.93082C28.8487 8.93082 29.1177 9.04223 29.316 9.24055C29.5143 9.43887 29.6257 9.70785 29.6257 9.98831V11.0458ZM18.5809 23.5575C18.407 23.6737 18.2025 23.7358 17.9933 23.7358C17.7129 23.7358 17.4439 23.6243 17.2456 23.426C17.0473 23.2277 16.9359 22.9587 16.9359 22.6783C16.9359 22.4691 16.9979 22.2646 17.1141 22.0907C17.2303 21.9168 17.3954 21.7813 17.5887 21.7013C17.7819 21.6212 17.9945 21.6003 18.1997 21.6411C18.4048 21.6819 18.5932 21.7826 18.7411 21.9305C18.889 22.0784 18.9897 22.2668 19.0305 22.4719C19.0713 22.6771 19.0504 22.8897 18.9703 23.0829C18.8903 23.2762 18.7548 23.4413 18.5809 23.5575ZM29.1558 23.5575C28.9819 23.6737 28.7775 23.7358 28.5683 23.7358C28.2878 23.7358 28.0189 23.6243 27.8205 23.426C27.6222 23.2277 27.5108 22.9587 27.5108 22.6783C27.5108 22.4691 27.5728 22.2646 27.689 22.0907C27.8052 21.9168 27.9704 21.7813 28.1636 21.7013C28.3569 21.6212 28.5695 21.6003 28.7746 21.6411C28.9798 21.6819 29.1682 21.7826 29.3161 21.9305C29.464 22.0784 29.5647 22.2668 29.6055 22.4719C29.6463 22.6771 29.6253 22.8897 29.5453 23.0829C29.4653 23.2762 29.3297 23.4413 29.1558 23.5575ZM23.2808 27.9657C23.49 27.9657 23.6944 27.9037 23.8683 27.7875C24.0422 27.6713 24.1778 27.5062 24.2578 27.3129C24.3379 27.1197 24.3588 26.9071 24.318 26.7019C24.2772 26.4968 24.1765 26.3084 24.0286 26.1605C23.8807 26.0126 23.6923 25.9119 23.4871 25.8711C23.282 25.8303 23.0694 25.8512 22.8761 25.9312C22.6829 26.0113 22.5178 26.1468 22.4016 26.3207C22.2854 26.4946 22.2233 26.6991 22.2233 26.9082C22.2233 27.1887 22.3347 27.4577 22.5331 27.656C22.7314 27.8543 23.0004 27.9657 23.2808 27.9657ZM28.5683 27.9657C28.7775 27.9657 28.9819 27.9037 29.1558 27.7875C29.3297 27.6713 29.4653 27.5062 29.5453 27.3129C29.6253 27.1197 29.6463 26.9071 29.6055 26.7019C29.5647 26.4968 29.464 26.3084 29.3161 26.1605C29.1682 26.0126 28.9798 25.9119 28.7746 25.8711C28.5695 25.8303 28.3569 25.8512 28.1636 25.9312C27.9704 26.0113 27.8052 26.1468 27.689 26.3207C27.5728 26.4946 27.5108 26.6991 27.5108 26.9082C27.5108 27.1887 27.6222 27.4577 27.8205 27.656C28.0189 27.8543 28.2878 27.9657 28.5683 27.9657ZM23.2808 23.7358C23.49 23.7358 23.6944 23.6737 23.8683 23.5575C24.0422 23.4413 24.1778 23.2762 24.2578 23.0829C24.3379 22.8897 24.3588 22.6771 24.318 22.4719C24.2772 22.2668 24.1765 22.0784 24.0286 21.9305C23.8807 21.7826 23.6923 21.6819 23.4871 21.6411C23.282 21.6003 23.0694 21.6212 22.8761 21.7013C22.6829 21.7813 22.5178 21.9168 22.4016 22.0907C22.2854 22.2646 22.2233 22.4691 22.2233 22.6783C22.2233 22.9587 22.3347 23.2277 22.5331 23.426C22.7314 23.6243 23.0004 23.7358 23.2808 23.7358ZM17.9933 27.9657C18.2025 27.9657 18.407 27.9037 18.5809 27.7875C18.7548 27.6713 18.8903 27.5062 18.9703 27.3129C19.0504 27.1197 19.0713 26.9071 19.0305 26.7019C18.9897 26.4968 18.889 26.3084 18.7411 26.1605C18.5932 26.0126 18.4048 25.9119 18.1997 25.8711C17.9945 25.8303 17.7819 25.8512 17.5887 25.9312C17.3954 26.0113 17.2303 26.1468 17.1141 26.3207C16.9979 26.4946 16.9359 26.6991 16.9359 26.9082C16.9359 27.1887 17.0473 27.4577 17.2456 27.656C17.4439 27.8543 17.7129 27.9657 17.9933 27.9657Z" fill="white"/>
<path d="M14.8044 42.7514L13.5582 38.1092H14.4679L15.4462 42.0659H15.2094L16.2313 38.1092H17.1099L18.1256 42.0659H17.8888L18.8671 38.1092H19.7768L18.5306 42.7514H17.5585L16.5304 38.9005H16.8046L15.7764 42.7514H14.8044ZM21.0012 42.8261C20.7644 42.8261 20.5588 42.7867 20.3843 42.7078C20.2098 42.6288 20.0748 42.5167 19.9793 42.3713C19.8837 42.2217 19.836 42.0493 19.836 41.8541C19.836 41.6672 19.8775 41.501 19.9606 41.3556C20.0437 41.2061 20.1725 41.0814 20.3469 40.9817C20.5214 40.882 20.7416 40.8114 21.0074 40.7699L22.1166 40.5892V41.2123L21.1632 41.3743C21.0012 41.4034 20.8807 41.4553 20.8018 41.5301C20.7229 41.6048 20.6834 41.7025 20.6834 41.8229C20.6834 41.9393 20.727 42.0327 20.8143 42.1033C20.9056 42.1698 21.0178 42.203 21.1507 42.203C21.3211 42.203 21.4706 42.1677 21.5994 42.0971C21.7323 42.0223 21.8341 41.9206 21.9047 41.7918C21.9795 41.663 22.0169 41.5218 22.0169 41.3681V40.4957C22.0169 40.3503 21.9587 40.2298 21.8424 40.1343C21.7302 40.0346 21.5807 39.9848 21.3938 39.9848C21.2193 39.9848 21.0635 40.0325 20.9264 40.1281C20.7935 40.2195 20.6959 40.342 20.6336 40.4957L19.9668 40.1717C20.0333 39.9931 20.1371 39.8394 20.2784 39.7106C20.4238 39.5777 20.5941 39.4738 20.7893 39.399C20.9846 39.3243 21.1964 39.2869 21.4249 39.2869C21.7032 39.2869 21.9483 39.3388 22.1602 39.4426C22.372 39.5423 22.5361 39.6836 22.6524 39.8664C22.7729 40.045 22.8331 40.2548 22.8331 40.4957V42.7514H22.0605V42.1719L22.235 42.1594C22.1477 42.3048 22.0439 42.4274 21.9234 42.5271C21.8029 42.6226 21.6658 42.6974 21.5121 42.7514C21.3584 42.8012 21.1881 42.8261 21.0012 42.8261ZM23.5876 42.7514V38.0344H24.4039V41.1251L24.0923 41.0316L25.6875 39.3616H26.7032L25.4507 40.7263L26.7281 42.7514H25.7934L24.6843 40.9942L25.1703 40.8945L24.1484 41.9912L24.4039 41.4927V42.7514H23.5876ZM28.7292 42.7888C28.347 42.7888 28.05 42.6849 27.8381 42.4772C27.6304 42.2653 27.5266 41.9683 27.5266 41.5862V40.0907H26.9409V39.3616H27.0032C27.1693 39.3616 27.2981 39.318 27.3895 39.2308C27.4809 39.1436 27.5266 39.0169 27.5266 38.8507V38.589H28.3429V39.3616H29.1218V40.0907H28.3429V41.5425C28.3429 41.6547 28.3616 41.7502 28.3989 41.8292C28.4405 41.9081 28.5028 41.9683 28.5859 42.0099C28.6731 42.0514 28.7832 42.0722 28.9161 42.0722C28.9452 42.0722 28.9784 42.0701 29.0158 42.0659C29.0574 42.0618 29.0968 42.0576 29.1342 42.0535V42.7514C29.0761 42.7597 29.0096 42.768 28.9348 42.7763C28.8601 42.7846 28.7915 42.7888 28.7292 42.7888ZM30.9667 42.8261C30.705 42.8261 30.4765 42.768 30.2813 42.6517C30.0902 42.5354 29.9427 42.3734 29.8389 42.1656C29.7392 41.9579 29.6893 41.7149 29.6893 41.4366V39.3616H30.5056V41.3681C30.5056 41.5093 30.5326 41.6339 30.5866 41.7419C30.6448 41.8458 30.7258 41.9289 30.8296 41.9912C30.9376 42.0493 31.0581 42.0784 31.191 42.0784C31.324 42.0784 31.4423 42.0493 31.5462 41.9912C31.6501 41.9289 31.7311 41.8437 31.7892 41.7357C31.8474 41.6277 31.8764 41.4989 31.8764 41.3494V39.3616H32.6927V42.7514H31.9201V42.0846L31.9886 42.203C31.9097 42.4107 31.7788 42.5665 31.596 42.6704C31.4174 42.7742 31.2076 42.8261 30.9667 42.8261Z" fill="white"/>
</svg>
