<svg width="56" height="49" viewBox="0 0 56 49" fill="none" xmlns="http://www.w3.org/2000/svg">
<path d="M6.65479 48V40H9.71729C10.2954 40 10.7759 40.0911 11.1587 40.2734C11.5441 40.4531 11.8319 40.6992 12.022 41.0117C12.2147 41.3242 12.311 41.6784 12.311 42.0742C12.311 42.3997 12.2485 42.6784 12.1235 42.9102C11.9985 43.1393 11.8306 43.3255 11.6196 43.4687C11.4087 43.612 11.173 43.7148 10.9126 43.7773V43.8555C11.1965 43.8711 11.4686 43.9583 11.729 44.1172C11.992 44.2734 12.2069 44.4948 12.3735 44.7812C12.5402 45.0677 12.6235 45.4141 12.6235 45.8203C12.6235 46.2344 12.5233 46.6068 12.3228 46.9375C12.1222 47.2656 11.8202 47.5247 11.4165 47.7148C11.0129 47.9049 10.505 48 9.89307 48H6.65479ZM8.104 46.7891H9.6626C10.1886 46.7891 10.5675 46.6888 10.7993 46.4883C11.0337 46.2852 11.1509 46.0247 11.1509 45.707C11.1509 45.4701 11.0923 45.2565 10.9751 45.0664C10.8579 44.8737 10.6912 44.7227 10.4751 44.6133C10.259 44.5013 10.0011 44.4453 9.70166 44.4453H8.104V46.7891ZM8.104 43.4023H9.5376C9.7876 43.4023 10.0129 43.3568 10.2134 43.2656C10.4139 43.1719 10.5715 43.0404 10.686 42.8711C10.8032 42.6992 10.8618 42.4961 10.8618 42.2617C10.8618 41.9518 10.7524 41.6966 10.5337 41.4961C10.3175 41.2956 9.99593 41.1953 9.56885 41.1953H8.104V43.4023ZM16.478 48.1172C15.8765 48.1172 15.3569 47.9922 14.9194 47.7422C14.4845 47.4896 14.1499 47.1328 13.9155 46.6719C13.6812 46.2083 13.564 45.6628 13.564 45.0352C13.564 44.418 13.6812 43.8763 13.9155 43.4102C14.1525 42.9414 14.4832 42.5768 14.9077 42.3164C15.3322 42.0534 15.8309 41.9219 16.4038 41.9219C16.7736 41.9219 17.1226 41.9818 17.4507 42.1016C17.7814 42.2187 18.0731 42.401 18.3257 42.6484C18.5809 42.8958 18.7814 43.2109 18.9272 43.5937C19.0731 43.974 19.146 44.4271 19.146 44.9531V45.3867H14.228V44.4336H17.7905C17.7879 44.1628 17.7293 43.9219 17.6147 43.7109C17.5002 43.4974 17.34 43.3294 17.1343 43.207C16.9312 43.0846 16.6942 43.0234 16.4233 43.0234C16.1343 43.0234 15.8804 43.0937 15.6616 43.2344C15.4429 43.3724 15.2723 43.5547 15.1499 43.7812C15.0301 44.0052 14.9689 44.2513 14.9663 44.5195V45.3516C14.9663 45.7005 15.0301 46 15.1577 46.25C15.2853 46.4974 15.4637 46.6875 15.6929 46.8203C15.922 46.9505 16.1903 47.0156 16.4976 47.0156C16.7033 47.0156 16.8895 46.987 17.0562 46.9297C17.2228 46.8698 17.3674 46.7826 17.4897 46.668C17.6121 46.5534 17.7046 46.4115 17.7671 46.2422L19.0874 46.3906C19.0041 46.7396 18.8452 47.0443 18.6108 47.3047C18.3791 47.5625 18.0822 47.763 17.7202 47.9062C17.3582 48.0469 16.9442 48.1172 16.478 48.1172ZM20.3423 48V42H21.7134V43H21.7759C21.8853 42.6536 22.0728 42.3867 22.3384 42.1992C22.6066 42.0091 22.9126 41.9141 23.2563 41.9141C23.3345 41.9141 23.4217 41.918 23.5181 41.9258C23.617 41.931 23.6991 41.9401 23.7642 41.9531V43.2539C23.7043 43.2331 23.6092 43.2148 23.479 43.1992C23.3514 43.181 23.2277 43.1719 23.1079 43.1719C22.8501 43.1719 22.6183 43.2279 22.4126 43.3398C22.2095 43.4492 22.0493 43.6016 21.9321 43.7969C21.8149 43.9922 21.7563 44.2174 21.7563 44.4727V48H20.3423ZM26.3228 48.1211C25.9425 48.1211 25.6001 48.0534 25.2954 47.918C24.9933 47.7799 24.7537 47.5768 24.5767 47.3086C24.4022 47.0404 24.3149 46.7096 24.3149 46.3164C24.3149 45.9779 24.3774 45.6979 24.5024 45.4766C24.6274 45.2552 24.798 45.0781 25.0142 44.9453C25.2303 44.8125 25.4738 44.7122 25.7446 44.6445C26.0181 44.5742 26.3006 44.5234 26.5923 44.4922C26.9438 44.4557 27.229 44.4232 27.4478 44.3945C27.6665 44.3633 27.8254 44.3164 27.9243 44.2539C28.0259 44.1888 28.0767 44.0885 28.0767 43.9531V43.9297C28.0767 43.6354 27.9894 43.4076 27.8149 43.2461C27.6405 43.0846 27.3892 43.0039 27.061 43.0039C26.7147 43.0039 26.4399 43.0794 26.2368 43.2305C26.0363 43.3815 25.9009 43.5599 25.8306 43.7656L24.5103 43.5781C24.6144 43.2135 24.7863 42.9089 25.0259 42.6641C25.2655 42.4167 25.5584 42.2318 25.9048 42.1094C26.2511 41.9844 26.634 41.9219 27.0532 41.9219C27.3423 41.9219 27.63 41.9557 27.9165 42.0234C28.203 42.0911 28.4647 42.2031 28.7017 42.3594C28.9386 42.513 29.1287 42.7227 29.272 42.9883C29.4178 43.2539 29.4907 43.5859 29.4907 43.9844V48H28.1313V47.1758H28.0845C27.9985 47.3424 27.8774 47.4987 27.7212 47.6445C27.5675 47.7878 27.3735 47.9036 27.1392 47.9922C26.9074 48.0781 26.6353 48.1211 26.3228 48.1211ZM26.6899 47.082C26.9738 47.082 27.2199 47.026 27.4282 46.9141C27.6366 46.7995 27.7967 46.6484 27.9087 46.4609C28.0233 46.2734 28.0806 46.069 28.0806 45.8477V45.1406C28.0363 45.1771 27.9608 45.2109 27.854 45.2422C27.7498 45.2734 27.6326 45.3008 27.5024 45.3242C27.3722 45.3477 27.2433 45.3685 27.1157 45.3867C26.9881 45.4049 26.8774 45.4206 26.7837 45.4336C26.5728 45.4622 26.384 45.5091 26.2173 45.5742C26.0506 45.6393 25.9191 45.7305 25.8228 45.8477C25.7264 45.9622 25.6782 46.1107 25.6782 46.293C25.6782 46.5534 25.7733 46.75 25.9634 46.8828C26.1535 47.0156 26.3957 47.082 26.6899 47.082ZM32.3267 44.4844V48H30.9126V42H32.2642V43.0195H32.3345C32.4725 42.6836 32.6925 42.4167 32.9946 42.2187C33.2993 42.0208 33.6756 41.9219 34.1235 41.9219C34.5376 41.9219 34.8983 42.0104 35.2056 42.1875C35.5155 42.3646 35.755 42.6211 35.9243 42.957C36.0962 43.293 36.1808 43.7005 36.1782 44.1797V48H34.7642V44.3984C34.7642 43.9974 34.66 43.6836 34.4517 43.457C34.2459 43.2305 33.9608 43.1172 33.5962 43.1172C33.3488 43.1172 33.1287 43.1719 32.936 43.2812C32.7459 43.388 32.5962 43.543 32.4868 43.7461C32.38 43.9492 32.3267 44.1953 32.3267 44.4844ZM39.8423 48.1055C39.3709 48.1055 38.9491 47.9844 38.5767 47.7422C38.2043 47.5 37.91 47.1484 37.6938 46.6875C37.4777 46.2266 37.3696 45.6667 37.3696 45.0078C37.3696 44.3411 37.479 43.7786 37.6978 43.3203C37.9191 42.8594 38.2173 42.5117 38.5923 42.2773C38.9673 42.0404 39.3853 41.9219 39.8462 41.9219C40.1978 41.9219 40.4868 41.9818 40.7134 42.1016C40.9399 42.2187 41.1196 42.3607 41.2524 42.5273C41.3853 42.6914 41.4881 42.8464 41.561 42.9922H41.6196V40H43.0376V48H41.647V47.0547H41.561C41.4881 47.2005 41.3826 47.3555 41.2446 47.5195C41.1066 47.681 40.9243 47.819 40.6978 47.9336C40.4712 48.0482 40.186 48.1055 39.8423 48.1055ZM40.2368 46.9453C40.5363 46.9453 40.7915 46.8646 41.0024 46.7031C41.2134 46.5391 41.3735 46.3112 41.4829 46.0195C41.5923 45.7279 41.647 45.388 41.647 45C41.647 44.612 41.5923 44.2747 41.4829 43.9883C41.3761 43.7018 41.2173 43.4792 41.0063 43.3203C40.798 43.1615 40.5415 43.082 40.2368 43.082C39.9217 43.082 39.6587 43.1641 39.4478 43.3281C39.2368 43.4922 39.078 43.7187 38.9712 44.0078C38.8644 44.2969 38.811 44.6276 38.811 45C38.811 45.375 38.8644 45.7096 38.9712 46.0039C39.0806 46.2956 39.2407 46.526 39.4517 46.6953C39.6652 46.862 39.9269 46.9453 40.2368 46.9453ZM46.271 48.1211C45.8908 48.1211 45.5483 48.0534 45.2437 47.918C44.9416 47.7799 44.702 47.5768 44.5249 47.3086C44.3504 47.0404 44.2632 46.7096 44.2632 46.3164C44.2632 45.9779 44.3257 45.6979 44.4507 45.4766C44.5757 45.2552 44.7463 45.0781 44.9624 44.9453C45.1785 44.8125 45.422 44.7122 45.6929 44.6445C45.9663 44.5742 46.2489 44.5234 46.5405 44.4922C46.8921 44.4557 47.1772 44.4232 47.396 44.3945C47.6147 44.3633 47.7736 44.3164 47.8726 44.2539C47.9741 44.1888 48.0249 44.0885 48.0249 43.9531V43.9297C48.0249 43.6354 47.9377 43.4076 47.7632 43.2461C47.5887 43.0846 47.3374 43.0039 47.0093 43.0039C46.6629 43.0039 46.3882 43.0794 46.1851 43.2305C45.9845 43.3815 45.8491 43.5599 45.7788 43.7656L44.4585 43.5781C44.5627 43.2135 44.7345 42.9089 44.9741 42.6641C45.2137 42.4167 45.5067 42.2318 45.853 42.1094C46.1994 41.9844 46.5822 41.9219 47.0015 41.9219C47.2905 41.9219 47.5783 41.9557 47.8647 42.0234C48.1512 42.0911 48.4129 42.2031 48.6499 42.3594C48.8869 42.513 49.077 42.7227 49.2202 42.9883C49.366 43.2539 49.439 43.5859 49.439 43.9844V48H48.0796V47.1758H48.0327C47.9468 47.3424 47.8257 47.4987 47.6694 47.6445C47.5158 47.7878 47.3218 47.9036 47.0874 47.9922C46.8556 48.0781 46.5835 48.1211 46.271 48.1211ZM46.6382 47.082C46.922 47.082 47.1681 47.026 47.3765 46.9141C47.5848 46.7995 47.745 46.6484 47.8569 46.4609C47.9715 46.2734 48.0288 46.069 48.0288 45.8477V45.1406C47.9845 45.1771 47.909 45.2109 47.8022 45.2422C47.6981 45.2734 47.5809 45.3008 47.4507 45.3242C47.3205 45.3477 47.1916 45.3685 47.064 45.3867C46.9364 45.4049 46.8257 45.4206 46.7319 45.4336C46.521 45.4622 46.3322 45.5091 46.1655 45.5742C45.9989 45.6393 45.8674 45.7305 45.771 45.8477C45.6746 45.9622 45.6265 46.1107 45.6265 46.293C45.6265 46.5534 45.7215 46.75 45.9116 46.8828C46.1017 47.0156 46.3439 47.082 46.6382 47.082Z" fill="#4E4E4E"/>
<path d="M32.5 31.5V19.5C32.5 19.1022 32.342 18.7206 32.0607 18.4393C31.7794 18.158 31.3978 18 31 18H25C24.6022 18 24.2206 18.158 23.9393 18.4393C23.658 18.7206 23.5 19.1022 23.5 19.5V31.5" stroke="#4E4E4E" stroke-width="2" stroke-linecap="round" stroke-linejoin="round"/>
<path d="M14.5 15C14.4999 14.5636 14.595 14.1324 14.7787 13.7365C14.9624 13.3407 15.2302 12.9896 15.5635 12.708L26.0635 3.70945C26.605 3.25182 27.291 3.00073 28 3.00073C28.709 3.00073 29.395 3.25182 29.9365 3.70945L40.4365 12.708C40.7698 12.9896 41.0376 13.3407 41.2213 13.7365C41.405 14.1324 41.5001 14.5636 41.5 15V28.5C41.5 29.2956 41.1839 30.0587 40.6213 30.6213C40.0587 31.1839 39.2956 31.5 38.5 31.5H17.5C16.7044 31.5 15.9413 31.1839 15.3787 30.6213C14.8161 30.0587 14.5 29.2956 14.5 28.5V15Z" stroke="#4E4E4E" stroke-width="2" stroke-linecap="round" stroke-linejoin="round"/>
</svg>
