<svg width="56" height="51" viewBox="0 0 56 51" fill="none" xmlns="http://www.w3.org/2000/svg">
<path d="M16.9565 48V40H20.019C20.5972 40 21.0776 40.0911 21.4604 40.2734C21.8459 40.4531 22.1336 40.6992 22.3237 41.0117C22.5164 41.3242 22.6128 41.6784 22.6128 42.0742C22.6128 42.3997 22.5503 42.6784 22.4253 42.9102C22.3003 43.1393 22.1323 43.3255 21.9214 43.4687C21.7104 43.612 21.4748 43.7148 21.2144 43.7773V43.8555C21.4982 43.8711 21.7703 43.9583 22.0308 44.1172C22.2938 44.2734 22.5086 44.4948 22.6753 44.7812C22.842 45.0677 22.9253 45.4141 22.9253 45.8203C22.9253 46.2344 22.825 46.6068 22.6245 46.9375C22.424 47.2656 22.1219 47.5247 21.7183 47.7148C21.3146 47.9049 20.8068 48 20.1948 48H16.9565ZM18.4058 46.7891H19.9644C20.4904 46.7891 20.8693 46.6888 21.1011 46.4883C21.3354 46.2852 21.4526 46.0247 21.4526 45.707C21.4526 45.4701 21.394 45.2565 21.2769 45.0664C21.1597 44.8737 20.993 44.7227 20.7769 44.6133C20.5607 44.5013 20.3029 44.4453 20.0034 44.4453H18.4058V46.7891ZM18.4058 43.4023H19.8394C20.0894 43.4023 20.3146 43.3568 20.5151 43.2656C20.7157 43.1719 20.8732 43.0404 20.9878 42.8711C21.105 42.6992 21.1636 42.4961 21.1636 42.2617C21.1636 41.9518 21.0542 41.6966 20.8354 41.4961C20.6193 41.2956 20.2977 41.1953 19.8706 41.1953H18.4058V43.4023ZM25.5376 40V48H24.1235V40H25.5376ZM29.6089 48.1172C29.0229 48.1172 28.5151 47.9883 28.0854 47.7305C27.6558 47.4727 27.3224 47.112 27.0854 46.6484C26.8511 46.1849 26.7339 45.6432 26.7339 45.0234C26.7339 44.4036 26.8511 43.8607 27.0854 43.3945C27.3224 42.9284 27.6558 42.5664 28.0854 42.3086C28.5151 42.0508 29.0229 41.9219 29.6089 41.9219C30.1948 41.9219 30.7026 42.0508 31.1323 42.3086C31.562 42.5664 31.894 42.9284 32.1284 43.3945C32.3654 43.8607 32.4839 44.4036 32.4839 45.0234C32.4839 45.6432 32.3654 46.1849 32.1284 46.6484C31.894 47.112 31.562 47.4727 31.1323 47.7305C30.7026 47.9883 30.1948 48.1172 29.6089 48.1172ZM29.6167 46.9844C29.9344 46.9844 30.2 46.8971 30.4136 46.7227C30.6271 46.5456 30.786 46.3086 30.8901 46.0117C30.9969 45.7148 31.0503 45.3841 31.0503 45.0195C31.0503 44.6523 30.9969 44.3203 30.8901 44.0234C30.786 43.724 30.6271 43.4857 30.4136 43.3086C30.2 43.1315 29.9344 43.043 29.6167 43.043C29.2912 43.043 29.0203 43.1315 28.8042 43.3086C28.5907 43.4857 28.4305 43.724 28.3237 44.0234C28.2196 44.3203 28.1675 44.6523 28.1675 45.0195C28.1675 45.3841 28.2196 45.7148 28.3237 46.0117C28.4305 46.3086 28.5907 46.5456 28.8042 46.7227C29.0203 46.8971 29.2912 46.9844 29.6167 46.9844ZM36.2935 50.375C35.7856 50.375 35.3494 50.306 34.9849 50.168C34.6203 50.0326 34.3273 49.8503 34.106 49.6211C33.8846 49.3919 33.731 49.138 33.645 48.8594L34.9185 48.5508C34.9757 48.668 35.0591 48.7839 35.1685 48.8984C35.2778 49.0156 35.425 49.112 35.6099 49.1875C35.7974 49.2656 36.033 49.3047 36.3169 49.3047C36.7179 49.3047 37.05 49.207 37.313 49.0117C37.576 48.819 37.7075 48.5013 37.7075 48.0586V46.9219H37.6372C37.5643 47.0677 37.4575 47.2174 37.3169 47.3711C37.1789 47.5247 36.9953 47.6536 36.7661 47.7578C36.5396 47.862 36.2544 47.9141 35.9106 47.9141C35.4497 47.9141 35.0317 47.806 34.6567 47.5898C34.2843 47.3711 33.9875 47.0456 33.7661 46.6133C33.5474 46.1784 33.438 45.6341 33.438 44.9805C33.438 44.3216 33.5474 43.7656 33.7661 43.3125C33.9875 42.8568 34.2856 42.5117 34.6606 42.2773C35.0356 42.0404 35.4536 41.9219 35.9146 41.9219C36.2661 41.9219 36.5552 41.9818 36.7817 42.1016C37.0109 42.2187 37.1932 42.3607 37.3286 42.5273C37.464 42.6914 37.5669 42.8464 37.6372 42.9922H37.7153V42H39.1099V48.0977C39.1099 48.6107 38.9875 49.0352 38.7427 49.3711C38.4979 49.707 38.1632 49.9583 37.7388 50.125C37.3143 50.2917 36.8325 50.375 36.2935 50.375ZM36.3052 46.8047C36.6047 46.8047 36.8599 46.7318 37.0708 46.5859C37.2817 46.4401 37.4419 46.2305 37.5513 45.957C37.6606 45.6836 37.7153 45.3555 37.7153 44.9727C37.7153 44.5951 37.6606 44.2643 37.5513 43.9805C37.4445 43.6966 37.2856 43.4766 37.0747 43.3203C36.8664 43.1615 36.6099 43.082 36.3052 43.082C35.9901 43.082 35.7271 43.1641 35.5161 43.3281C35.3052 43.4922 35.1463 43.7174 35.0396 44.0039C34.9328 44.2878 34.8794 44.6107 34.8794 44.9727C34.8794 45.3398 34.9328 45.6615 35.0396 45.9375C35.1489 46.2109 35.3091 46.4245 35.52 46.5781C35.7336 46.7292 35.9953 46.8047 36.3052 46.8047Z" fill="#4E4E4E"/>
<path d="M16 33H40C40.7956 33 41.5587 32.6839 42.1213 32.1213C42.6839 31.5587 43 30.7956 43 30V6C43 5.20435 42.6839 4.44129 42.1213 3.87868C41.5587 3.31607 40.7956 3 40 3H22C21.2044 3 20.4413 3.31607 19.8787 3.87868C19.3161 4.44129 19 5.20435 19 6V30C19 30.7956 18.6839 31.5587 18.1213 32.1213C17.5587 32.6839 16.7956 33 16 33ZM16 33C15.2044 33 14.4413 32.6839 13.8787 32.1213C13.3161 31.5587 13 30.7956 13 30V16.5C13 14.85 14.35 13.5 16 13.5H19" stroke="#4E4E4E" stroke-width="1.875" stroke-linecap="round" stroke-linejoin="round"/>
<path d="M37 21H25" stroke="#4E4E4E" stroke-width="1.875" stroke-linecap="round" stroke-linejoin="round"/>
<path d="M32.5 27H25" stroke="#4E4E4E" stroke-width="1.875" stroke-linecap="round" stroke-linejoin="round"/>
<path d="M25 9H37V15H25V9Z" stroke="#4E4E4E" stroke-width="1.875" stroke-linecap="round" stroke-linejoin="round"/>
</svg>
