<svg width="56" height="49" viewBox="0 0 56 49" fill="none" xmlns="http://www.w3.org/2000/svg">
<path d="M5.47314 48V40H8.47314C9.08773 40 9.60335 40.1146 10.02 40.3437C10.4393 40.5729 10.7557 40.888 10.9692 41.2891C11.1854 41.6875 11.2935 42.1406 11.2935 42.6484C11.2935 43.1615 11.1854 43.6172 10.9692 44.0156C10.7531 44.4141 10.4341 44.7279 10.0122 44.957C9.59033 45.1836 9.0708 45.2969 8.45361 45.2969H6.46533V44.1055H8.2583C8.61768 44.1055 8.91195 44.043 9.14111 43.918C9.37028 43.793 9.53955 43.6211 9.64893 43.4023C9.76091 43.1836 9.81689 42.9323 9.81689 42.6484C9.81689 42.3646 9.76091 42.1146 9.64893 41.8984C9.53955 41.6823 9.36898 41.5143 9.13721 41.3945C8.90804 41.2721 8.61247 41.2109 8.25049 41.2109H6.92236V48H5.47314ZM14.1089 48.1211C13.7287 48.1211 13.3862 48.0534 13.0815 47.918C12.7795 47.7799 12.5399 47.5768 12.3628 47.3086C12.1883 47.0404 12.1011 46.7096 12.1011 46.3164C12.1011 45.9779 12.1636 45.6979 12.2886 45.4766C12.4136 45.2552 12.5841 45.0781 12.8003 44.9453C13.0164 44.8125 13.2599 44.7122 13.5308 44.6445C13.8042 44.5742 14.0868 44.5234 14.3784 44.4922C14.73 44.4557 15.0151 44.4232 15.2339 44.3945C15.4526 44.3633 15.6115 44.3164 15.7104 44.2539C15.812 44.1888 15.8628 44.0885 15.8628 43.9531V43.9297C15.8628 43.6354 15.7756 43.4076 15.6011 43.2461C15.4266 43.0846 15.1753 43.0039 14.8472 43.0039C14.5008 43.0039 14.2261 43.0794 14.0229 43.2305C13.8224 43.3815 13.687 43.5599 13.6167 43.7656L12.2964 43.5781C12.4006 43.2135 12.5724 42.9089 12.812 42.6641C13.0516 42.4167 13.3446 42.2318 13.6909 42.1094C14.0373 41.9844 14.4201 41.9219 14.8394 41.9219C15.1284 41.9219 15.4162 41.9557 15.7026 42.0234C15.9891 42.0911 16.2508 42.2031 16.4878 42.3594C16.7248 42.513 16.9149 42.7227 17.0581 42.9883C17.2039 43.2539 17.2769 43.5859 17.2769 43.9844V48H15.9175V47.1758H15.8706C15.7847 47.3424 15.6636 47.4987 15.5073 47.6445C15.3537 47.7878 15.1597 47.9036 14.9253 47.9922C14.6935 48.0781 14.4214 48.1211 14.1089 48.1211ZM14.4761 47.082C14.7599 47.082 15.006 47.026 15.2144 46.9141C15.4227 46.7995 15.5828 46.6484 15.6948 46.4609C15.8094 46.2734 15.8667 46.069 15.8667 45.8477V45.1406C15.8224 45.1771 15.7469 45.2109 15.6401 45.2422C15.536 45.2734 15.4188 45.3008 15.2886 45.3242C15.1584 45.3477 15.0295 45.3685 14.9019 45.3867C14.7743 45.4049 14.6636 45.4206 14.5698 45.4336C14.3589 45.4622 14.1701 45.5091 14.0034 45.5742C13.8368 45.6393 13.7052 45.7305 13.6089 45.8477C13.5125 45.9622 13.4644 46.1107 13.4644 46.293C13.4644 46.5534 13.5594 46.75 13.7495 46.8828C13.9396 47.0156 14.1818 47.082 14.4761 47.082ZM20.1128 44.4844V48H18.6987V42H20.0503V43.0195H20.1206C20.2586 42.6836 20.4787 42.4167 20.7808 42.2187C21.0854 42.0208 21.4618 41.9219 21.9097 41.9219C22.3237 41.9219 22.6844 42.0104 22.9917 42.1875C23.3016 42.3646 23.5412 42.6211 23.7104 42.957C23.8823 43.293 23.967 43.7005 23.9644 44.1797V48H22.5503V44.3984C22.5503 43.9974 22.4461 43.6836 22.2378 43.457C22.0321 43.2305 21.7469 43.1172 21.3823 43.1172C21.1349 43.1172 20.9149 43.1719 20.7222 43.2812C20.5321 43.388 20.3823 43.543 20.2729 43.7461C20.1662 43.9492 20.1128 44.1953 20.1128 44.4844ZM27.6284 48.1055C27.1571 48.1055 26.7352 47.9844 26.3628 47.7422C25.9904 47.5 25.6961 47.1484 25.48 46.6875C25.2638 46.2266 25.1558 45.6667 25.1558 45.0078C25.1558 44.3411 25.2651 43.7786 25.4839 43.3203C25.7052 42.8594 26.0034 42.5117 26.3784 42.2773C26.7534 42.0404 27.1714 41.9219 27.6323 41.9219C27.9839 41.9219 28.2729 41.9818 28.4995 42.1016C28.7261 42.2187 28.9058 42.3607 29.0386 42.5273C29.1714 42.6914 29.2743 42.8464 29.3472 42.9922H29.4058V40H30.8237V48H29.4331V47.0547H29.3472C29.2743 47.2005 29.1688 47.3555 29.0308 47.5195C28.8927 47.681 28.7104 47.819 28.4839 47.9336C28.2573 48.0482 27.9722 48.1055 27.6284 48.1055ZM28.0229 46.9453C28.3224 46.9453 28.5776 46.8646 28.7886 46.7031C28.9995 46.5391 29.1597 46.3112 29.269 46.0195C29.3784 45.7279 29.4331 45.388 29.4331 45C29.4331 44.612 29.3784 44.2747 29.269 43.9883C29.1623 43.7018 29.0034 43.4792 28.7925 43.3203C28.5841 43.1615 28.3276 43.082 28.0229 43.082C27.7078 43.082 27.4448 43.1641 27.2339 43.3281C27.0229 43.4922 26.8641 43.7187 26.7573 44.0078C26.6506 44.2969 26.5972 44.6276 26.5972 45C26.5972 45.375 26.6506 45.7096 26.7573 46.0039C26.8667 46.2956 27.0269 46.526 27.2378 46.6953C27.4513 46.862 27.7131 46.9453 28.0229 46.9453ZM36.1548 45.4766V42H37.5688V48H36.1978V46.9336H36.1353C35.9998 47.2695 35.7772 47.5443 35.4673 47.7578C35.16 47.9714 34.7811 48.0781 34.3306 48.0781C33.9373 48.0781 33.5897 47.9909 33.2876 47.8164C32.9881 47.6393 32.7537 47.3828 32.5845 47.0469C32.4152 46.7083 32.3306 46.2995 32.3306 45.8203V42H33.7446V45.6016C33.7446 45.9818 33.8488 46.2839 34.0571 46.5078C34.2655 46.7318 34.5389 46.8437 34.8774 46.8437C35.0858 46.8437 35.2876 46.793 35.4829 46.6914C35.6782 46.5898 35.8384 46.4388 35.9634 46.2383C36.091 46.0352 36.1548 45.7812 36.1548 45.4766ZM40.7495 48.1211C40.3693 48.1211 40.0269 48.0534 39.7222 47.918C39.4201 47.7799 39.1805 47.5768 39.0034 47.3086C38.8289 47.0404 38.7417 46.7096 38.7417 46.3164C38.7417 45.9779 38.8042 45.6979 38.9292 45.4766C39.0542 45.2552 39.2248 45.0781 39.4409 44.9453C39.6571 44.8125 39.9006 44.7122 40.1714 44.6445C40.4448 44.5742 40.7274 44.5234 41.019 44.4922C41.3706 44.4557 41.6558 44.4232 41.8745 44.3945C42.0933 44.3633 42.2521 44.3164 42.3511 44.2539C42.4526 44.1888 42.5034 44.0885 42.5034 43.9531V43.9297C42.5034 43.6354 42.4162 43.4076 42.2417 43.2461C42.0672 43.0846 41.8159 43.0039 41.4878 43.0039C41.1414 43.0039 40.8667 43.0794 40.6636 43.2305C40.4631 43.3815 40.3276 43.5599 40.2573 43.7656L38.937 43.5781C39.0412 43.2135 39.2131 42.9089 39.4526 42.6641C39.6922 42.4167 39.9852 42.2318 40.3315 42.1094C40.6779 41.9844 41.0607 41.9219 41.48 41.9219C41.769 41.9219 42.0568 41.9557 42.3433 42.0234C42.6297 42.0911 42.8914 42.2031 43.1284 42.3594C43.3654 42.513 43.5555 42.7227 43.6987 42.9883C43.8446 43.2539 43.9175 43.5859 43.9175 43.9844V48H42.5581V47.1758H42.5112C42.4253 47.3424 42.3042 47.4987 42.1479 47.6445C41.9943 47.7878 41.8003 47.9036 41.5659 47.9922C41.3341 48.0781 41.062 48.1211 40.7495 48.1211ZM41.1167 47.082C41.4006 47.082 41.6466 47.026 41.855 46.9141C42.0633 46.7995 42.2235 46.6484 42.3354 46.4609C42.45 46.2734 42.5073 46.069 42.5073 45.8477V45.1406C42.4631 45.1771 42.3875 45.2109 42.2808 45.2422C42.1766 45.2734 42.0594 45.3008 41.9292 45.3242C41.799 45.3477 41.6701 45.3685 41.5425 45.3867C41.4149 45.4049 41.3042 45.4206 41.2104 45.4336C40.9995 45.4622 40.8107 45.5091 40.644 45.5742C40.4774 45.6393 40.3459 45.7305 40.2495 45.8477C40.1532 45.9622 40.105 46.1107 40.105 46.293C40.105 46.5534 40.2 46.75 40.3901 46.8828C40.5802 47.0156 40.8224 47.082 41.1167 47.082ZM46.7534 44.4844V48H45.3394V42H46.6909V43.0195H46.7612C46.8993 42.6836 47.1193 42.4167 47.4214 42.2187C47.7261 42.0208 48.1024 41.9219 48.5503 41.9219C48.9644 41.9219 49.325 42.0104 49.6323 42.1875C49.9422 42.3646 50.1818 42.6211 50.3511 42.957C50.5229 43.293 50.6076 43.7005 50.605 44.1797V48H49.1909V44.3984C49.1909 43.9974 49.0868 43.6836 48.8784 43.457C48.6727 43.2305 48.3875 43.1172 48.0229 43.1172C47.7756 43.1172 47.5555 43.1719 47.3628 43.2812C47.1727 43.388 47.0229 43.543 46.9136 43.7461C46.8068 43.9492 46.7534 44.1953 46.7534 44.4844Z" fill="#4E4E4E"/>
<g clip-path="url(#clip0_913_4341)">
<path d="M32.5 3H19C18.2044 3 17.4413 3.31607 16.8787 3.87868C16.3161 4.44129 16 5.20435 16 6V30C16 30.7956 16.3161 31.5587 16.8787 32.1213C17.4413 32.6839 18.2044 33 19 33H37C37.7956 33 38.5587 32.6839 39.1213 32.1213C39.6839 31.5587 40 30.7956 40 30V10.5L32.5 3Z" stroke="#4E4E4E" stroke-width="1.875" stroke-linecap="round" stroke-linejoin="round"/>
<path d="M31 3V9C31 9.79565 31.3161 10.5587 31.8787 11.1213C32.4413 11.6839 33.2044 12 34 12H40" stroke="#4E4E4E" stroke-width="1.875" stroke-linecap="round" stroke-linejoin="round"/>
<path d="M25 13.5H22" stroke="#4E4E4E" stroke-width="1.875" stroke-linecap="round" stroke-linejoin="round"/>
<path d="M34 19.5H22" stroke="#4E4E4E" stroke-width="1.875" stroke-linecap="round" stroke-linejoin="round"/>
<path d="M34 25.5H22" stroke="#4E4E4E" stroke-width="1.875" stroke-linecap="round" stroke-linejoin="round"/>
</g>
<defs>
<clipPath id="clip0_913_4341">
<rect width="36" height="36" fill="white" transform="translate(10)"/>
</clipPath>
</defs>
</svg>
