<svg width="56" height="49" viewBox="0 0 56 49" fill="none" xmlns="http://www.w3.org/2000/svg">
<path d="M5.99414 48V40H8.99414C9.60872 40 10.1243 40.1146 10.541 40.3437C10.9603 40.5729 11.2767 40.888 11.4902 41.2891C11.7064 41.6875 11.8145 42.1406 11.8145 42.6484C11.8145 43.1615 11.7064 43.6172 11.4902 44.0156C11.2741 44.4141 10.9551 44.7279 10.5332 44.957C10.1113 45.1836 9.5918 45.2969 8.97461 45.2969H6.98633V44.1055H8.7793C9.13867 44.1055 9.43294 44.043 9.66211 43.918C9.89128 43.793 10.0605 43.6211 10.1699 43.4023C10.2819 43.1836 10.3379 42.9323 10.3379 42.6484C10.3379 42.3646 10.2819 42.1146 10.1699 41.8984C10.0605 41.6823 9.88997 41.5143 9.6582 41.3945C9.42904 41.2721 9.13346 41.2109 8.77148 41.2109H7.44336V48H5.99414ZM15.542 48.1172C14.9561 48.1172 14.4482 47.9883 14.0186 47.7305C13.5889 47.4727 13.2555 47.112 13.0186 46.6484C12.7842 46.1849 12.667 45.6432 12.667 45.0234C12.667 44.4036 12.7842 43.8607 13.0186 43.3945C13.2555 42.9284 13.5889 42.5664 14.0186 42.3086C14.4482 42.0508 14.9561 41.9219 15.542 41.9219C16.1279 41.9219 16.6357 42.0508 17.0654 42.3086C17.4951 42.5664 17.8271 42.9284 18.0615 43.3945C18.2985 43.8607 18.417 44.4036 18.417 45.0234C18.417 45.6432 18.2985 46.1849 18.0615 46.6484C17.8271 47.112 17.4951 47.4727 17.0654 47.7305C16.6357 47.9883 16.1279 48.1172 15.542 48.1172ZM15.5498 46.9844C15.8675 46.9844 16.1331 46.8971 16.3467 46.7227C16.5602 46.5456 16.7191 46.3086 16.8232 46.0117C16.93 45.7148 16.9834 45.3841 16.9834 45.0195C16.9834 44.6523 16.93 44.3203 16.8232 44.0234C16.7191 43.724 16.5602 43.4857 16.3467 43.3086C16.1331 43.1315 15.8675 43.043 15.5498 43.043C15.2243 43.043 14.9535 43.1315 14.7373 43.3086C14.5238 43.4857 14.3636 43.724 14.2568 44.0234C14.1527 44.3203 14.1006 44.6523 14.1006 45.0195C14.1006 45.3841 14.1527 45.7148 14.2568 46.0117C14.3636 46.3086 14.5238 46.5456 14.7373 46.7227C14.9535 46.8971 15.2243 46.9844 15.5498 46.9844ZM19.6172 48V42H20.9883V43H21.0508C21.1602 42.6536 21.3477 42.3867 21.6133 42.1992C21.8815 42.0091 22.1875 41.9141 22.5312 41.9141C22.6094 41.9141 22.6966 41.918 22.793 41.9258C22.8919 41.931 22.974 41.9401 23.0391 41.9531V43.2539C22.9792 43.2331 22.8841 43.2148 22.7539 43.1992C22.6263 43.181 22.5026 43.1719 22.3828 43.1719C22.125 43.1719 21.8932 43.2279 21.6875 43.3398C21.4844 43.4492 21.3242 43.6016 21.207 43.7969C21.0898 43.9922 21.0313 44.2174 21.0313 44.4727V48H19.6172ZM27.2969 42V43.0937H23.8477V42H27.2969ZM24.6992 40.5625H26.1133V46.1953C26.1133 46.3854 26.1419 46.5313 26.1992 46.6328C26.2591 46.7318 26.3372 46.7995 26.4336 46.8359C26.5299 46.8724 26.6367 46.8906 26.7539 46.8906C26.8424 46.8906 26.9232 46.8841 26.9961 46.8711C27.0716 46.8581 27.1289 46.8464 27.168 46.8359L27.4063 47.9414C27.3307 47.9674 27.2227 47.9961 27.082 48.0273C26.944 48.0586 26.7747 48.0768 26.5742 48.082C26.2201 48.0924 25.901 48.0391 25.6172 47.9219C25.3333 47.8021 25.1081 47.6172 24.9414 47.3672C24.7773 47.1172 24.6966 46.8047 24.6992 46.4297V40.5625ZM31.5186 42V43.0937H27.9717V42H31.5186ZM28.8584 48V41.4336C28.8584 41.0299 28.9417 40.694 29.1084 40.4258C29.2777 40.1576 29.5042 39.957 29.7881 39.8242C30.0719 39.6914 30.387 39.625 30.7334 39.625C30.9782 39.625 31.1956 39.6445 31.3857 39.6836C31.5758 39.7227 31.7165 39.7578 31.8076 39.7891L31.5264 40.8828C31.4665 40.8646 31.391 40.8464 31.2998 40.8281C31.2087 40.8073 31.1071 40.7969 30.9951 40.7969C30.7321 40.7969 30.5459 40.8607 30.4365 40.9883C30.3298 41.1133 30.2764 41.293 30.2764 41.5273V48H28.8584ZM35.0176 48.1172C34.4316 48.1172 33.9238 47.9883 33.4941 47.7305C33.0645 47.4727 32.7311 47.112 32.4941 46.6484C32.2598 46.1849 32.1426 45.6432 32.1426 45.0234C32.1426 44.4036 32.2598 43.8607 32.4941 43.3945C32.7311 42.9284 33.0645 42.5664 33.4941 42.3086C33.9238 42.0508 34.4316 41.9219 35.0176 41.9219C35.6035 41.9219 36.1113 42.0508 36.541 42.3086C36.9707 42.5664 37.3027 42.9284 37.5371 43.3945C37.7741 43.8607 37.8926 44.4036 37.8926 45.0234C37.8926 45.6432 37.7741 46.1849 37.5371 46.6484C37.3027 47.112 36.9707 47.4727 36.541 47.7305C36.1113 47.9883 35.6035 48.1172 35.0176 48.1172ZM35.0254 46.9844C35.3431 46.9844 35.6087 46.8971 35.8223 46.7227C36.0358 46.5456 36.1947 46.3086 36.2988 46.0117C36.4056 45.7148 36.459 45.3841 36.459 45.0195C36.459 44.6523 36.4056 44.3203 36.2988 44.0234C36.1947 43.724 36.0358 43.4857 35.8223 43.3086C35.6087 43.1315 35.3431 43.043 35.0254 43.043C34.6999 43.043 34.429 43.1315 34.2129 43.3086C33.9993 43.4857 33.8392 43.724 33.7324 44.0234C33.6283 44.3203 33.5762 44.6523 33.5762 45.0195C33.5762 45.3841 33.6283 45.7148 33.7324 46.0117C33.8392 46.3086 33.9993 46.5456 34.2129 46.7227C34.429 46.8971 34.6999 46.9844 35.0254 46.9844ZM40.5068 40V48H39.0928V40H40.5068ZM41.9609 48V42H43.375V48H41.9609ZM42.6719 41.1484C42.4479 41.1484 42.2552 41.0742 42.0938 40.9258C41.9323 40.7747 41.8516 40.5937 41.8516 40.3828C41.8516 40.1693 41.9323 39.9883 42.0938 39.8398C42.2552 39.6888 42.4479 39.6133 42.6719 39.6133C42.8984 39.6133 43.0911 39.6888 43.25 39.8398C43.4115 39.9883 43.4922 40.1693 43.4922 40.3828C43.4922 40.5937 43.4115 40.7747 43.25 40.9258C43.0911 41.0742 42.8984 41.1484 42.6719 41.1484ZM47.4463 48.1172C46.8604 48.1172 46.3525 47.9883 45.9229 47.7305C45.4932 47.4727 45.1598 47.112 44.9229 46.6484C44.6885 46.1849 44.5713 45.6432 44.5713 45.0234C44.5713 44.4036 44.6885 43.8607 44.9229 43.3945C45.1598 42.9284 45.4932 42.5664 45.9229 42.3086C46.3525 42.0508 46.8604 41.9219 47.4463 41.9219C48.0322 41.9219 48.54 42.0508 48.9697 42.3086C49.3994 42.5664 49.7314 42.9284 49.9658 43.3945C50.2028 43.8607 50.3213 44.4036 50.3213 45.0234C50.3213 45.6432 50.2028 46.1849 49.9658 46.6484C49.7314 47.112 49.3994 47.4727 48.9697 47.7305C48.54 47.9883 48.0322 48.1172 47.4463 48.1172ZM47.4541 46.9844C47.7718 46.9844 48.0374 46.8971 48.251 46.7227C48.4645 46.5456 48.6234 46.3086 48.7275 46.0117C48.8343 45.7148 48.8877 45.3841 48.8877 45.0195C48.8877 44.6523 48.8343 44.3203 48.7275 44.0234C48.6234 43.724 48.4645 43.4857 48.251 43.3086C48.0374 43.1315 47.7718 43.043 47.4541 43.043C47.1286 43.043 46.8577 43.1315 46.6416 43.3086C46.4281 43.4857 46.2679 43.724 46.1611 44.0234C46.057 44.3203 46.0049 44.6523 46.0049 45.0195C46.0049 45.3841 46.057 45.7148 46.1611 46.0117C46.2679 46.3086 46.4281 46.5456 46.6416 46.7227C46.8577 46.8971 47.1286 46.9844 47.4541 46.9844Z" fill="#4E4E4E"/>
<path d="M26.5 30H16C15.2044 30 14.4413 29.6839 13.8787 29.1213C13.3161 28.5587 13 27.7957 13 27V7.50002C13 6.70437 13.3161 5.94131 13.8787 5.3787C14.4413 4.81609 15.2044 4.50002 16 4.50002H21.85C22.3517 4.4951 22.8467 4.6161 23.2895 4.85195C23.7324 5.0878 24.1091 5.43096 24.385 5.85002L25.6 7.65002C25.8732 8.06482 26.245 8.4053 26.6823 8.64093C27.1195 8.87655 27.6083 8.99994 28.105 9.00002H40C40.7956 9.00002 41.5587 9.31609 42.1213 9.8787C42.6839 10.4413 43 11.2044 43 12V14.25" stroke="#4E4E4E" stroke-width="1.875" stroke-linecap="round" stroke-linejoin="round"/>
<path d="M30.8492 26.175C29.0492 24.375 29.1392 21.975 30.5492 20.58C30.8877 20.2408 31.2899 19.9716 31.7326 19.788C32.1753 19.6043 32.6499 19.5098 33.1292 19.5098C33.6085 19.5098 34.083 19.6043 34.5258 19.788C34.9685 19.9716 35.3706 20.2408 35.7092 20.58L36.2492 21.09L36.7592 20.58C37.097 20.2375 37.4993 19.9653 37.9429 19.779C38.3864 19.5928 38.8625 19.4962 39.3436 19.4948C39.8246 19.4934 40.3012 19.5872 40.7459 19.7709C41.1905 19.9546 41.5944 20.2245 41.9342 20.565C43.3592 21.99 43.4342 24.36 41.6342 26.175L36.2492 31.5L30.8492 26.175Z" stroke="#4E4E4E" stroke-width="1.875" stroke-linecap="round" stroke-linejoin="round"/>
</svg>
