<svg width="56" height="49" viewBox="0 0 56 49" fill="none" xmlns="http://www.w3.org/2000/svg">
<path d="M13.8872 41.2148V40H20.27V41.2148H17.7974V48H16.3599V41.2148H13.8872ZM23.2241 48.1172C22.6226 48.1172 22.103 47.9922 21.6655 47.7422C21.2306 47.4896 20.896 47.1328 20.6616 46.6719C20.4272 46.2083 20.3101 45.6628 20.3101 45.0352C20.3101 44.418 20.4272 43.8763 20.6616 43.4102C20.8986 42.9414 21.2293 42.5768 21.6538 42.3164C22.0783 42.0534 22.577 41.9219 23.1499 41.9219C23.5197 41.9219 23.8687 41.9818 24.1968 42.1016C24.5275 42.2187 24.8192 42.401 25.0718 42.6484C25.327 42.8958 25.5275 43.2109 25.6733 43.5937C25.8192 43.974 25.8921 44.4271 25.8921 44.9531V45.3867H20.9741V44.4336H24.5366C24.534 44.1628 24.4754 43.9219 24.3608 43.7109C24.2463 43.4974 24.0861 43.3294 23.8804 43.207C23.6772 43.0846 23.4403 43.0234 23.1694 43.0234C22.8804 43.0234 22.6265 43.0937 22.4077 43.2344C22.189 43.3724 22.0184 43.5547 21.896 43.7812C21.7762 44.0052 21.715 44.2513 21.7124 44.5195V45.3516C21.7124 45.7005 21.7762 46 21.9038 46.25C22.0314 46.4974 22.2098 46.6875 22.439 46.8203C22.6681 46.9505 22.9364 47.0156 23.2437 47.0156C23.4494 47.0156 23.6356 46.987 23.8022 46.9297C23.9689 46.8698 24.1134 46.7826 24.2358 46.668C24.3582 46.5534 24.4507 46.4115 24.5132 46.2422L25.8335 46.3906C25.7502 46.7396 25.5913 47.0443 25.3569 47.3047C25.1252 47.5625 24.8283 47.763 24.4663 47.9062C24.1043 48.0469 23.6903 48.1172 23.2241 48.1172ZM27.0884 48V42H28.4399V43.0195H28.5103C28.6353 42.6758 28.8423 42.4076 29.1313 42.2148C29.4204 42.0195 29.7655 41.9219 30.1665 41.9219C30.5728 41.9219 30.9152 42.0208 31.1938 42.2187C31.4751 42.4141 31.673 42.681 31.7876 43.0195H31.8501C31.9829 42.6862 32.2069 42.4206 32.522 42.2227C32.8397 42.0221 33.216 41.9219 33.6509 41.9219C34.203 41.9219 34.6535 42.0964 35.0024 42.4453C35.3514 42.7943 35.5259 43.3034 35.5259 43.9727V48H34.1079V44.1914C34.1079 43.819 34.009 43.5469 33.811 43.375C33.6131 43.2005 33.3709 43.1133 33.0845 43.1133C32.7433 43.1133 32.4764 43.2201 32.2837 43.4336C32.0936 43.6445 31.9985 43.9193 31.9985 44.2578V48H30.6118V44.1328C30.6118 43.8229 30.5181 43.5755 30.3306 43.3906C30.1457 43.2057 29.9035 43.1133 29.604 43.1133C29.4009 43.1133 29.216 43.1654 29.0493 43.2695C28.8826 43.3711 28.7498 43.5156 28.6509 43.7031C28.5519 43.888 28.5024 44.1042 28.5024 44.3516V48H27.0884ZM38.687 48.1211C38.3068 48.1211 37.9644 48.0534 37.6597 47.918C37.3576 47.7799 37.118 47.5768 36.9409 47.3086C36.7664 47.0404 36.6792 46.7096 36.6792 46.3164C36.6792 45.9779 36.7417 45.6979 36.8667 45.4766C36.9917 45.2552 37.1623 45.0781 37.3784 44.9453C37.5946 44.8125 37.8381 44.7122 38.1089 44.6445C38.3823 44.5742 38.6649 44.5234 38.9565 44.4922C39.3081 44.4557 39.5933 44.4232 39.812 44.3945C40.0308 44.3633 40.1896 44.3164 40.2886 44.2539C40.3901 44.1888 40.4409 44.0885 40.4409 43.9531V43.9297C40.4409 43.6354 40.3537 43.4076 40.1792 43.2461C40.0047 43.0846 39.7534 43.0039 39.4253 43.0039C39.0789 43.0039 38.8042 43.0794 38.6011 43.2305C38.4006 43.3815 38.2651 43.5599 38.1948 43.7656L36.8745 43.5781C36.9787 43.2135 37.1506 42.9089 37.3901 42.6641C37.6297 42.4167 37.9227 42.2318 38.269 42.1094C38.6154 41.9844 38.9982 41.9219 39.4175 41.9219C39.7065 41.9219 39.9943 41.9557 40.2808 42.0234C40.5672 42.0911 40.8289 42.2031 41.0659 42.3594C41.3029 42.513 41.493 42.7227 41.6362 42.9883C41.7821 43.2539 41.855 43.5859 41.855 43.9844V48H40.4956V47.1758H40.4487C40.3628 47.3424 40.2417 47.4987 40.0854 47.6445C39.9318 47.7878 39.7378 47.9036 39.5034 47.9922C39.2716 48.0781 38.9995 48.1211 38.687 48.1211ZM39.0542 47.082C39.3381 47.082 39.5841 47.026 39.7925 46.9141C40.0008 46.7995 40.161 46.6484 40.2729 46.4609C40.3875 46.2734 40.4448 46.069 40.4448 45.8477V45.1406C40.4006 45.1771 40.325 45.2109 40.2183 45.2422C40.1141 45.2734 39.9969 45.3008 39.8667 45.3242C39.7365 45.3477 39.6076 45.3685 39.48 45.3867C39.3524 45.4049 39.2417 45.4206 39.1479 45.4336C38.937 45.4622 38.7482 45.5091 38.5815 45.5742C38.4149 45.6393 38.2834 45.7305 38.187 45.8477C38.0907 45.9622 38.0425 46.1107 38.0425 46.293C38.0425 46.5534 38.1375 46.75 38.3276 46.8828C38.5177 47.0156 38.7599 47.082 39.0542 47.082Z" fill="#E3457B"/>
<path d="M30.25 10.5C30.6642 10.5 31 10.1642 31 9.75C31 9.33579 30.6642 9 30.25 9C29.8358 9 29.5 9.33579 29.5 9.75C29.5 10.1642 29.8358 10.5 30.25 10.5Z" fill="#E3457B" stroke="#E3457B" stroke-width="1.875" stroke-linecap="round" stroke-linejoin="round"/>
<path d="M36.25 16.5C36.6642 16.5 37 16.1642 37 15.75C37 15.3358 36.6642 15 36.25 15C35.8358 15 35.5 15.3358 35.5 15.75C35.5 16.1642 35.8358 16.5 36.25 16.5Z" fill="#E3457B" stroke="#E3457B" stroke-width="1.875" stroke-linecap="round" stroke-linejoin="round"/>
<path d="M22.75 12C23.1642 12 23.5 11.6642 23.5 11.25C23.5 10.8358 23.1642 10.5 22.75 10.5C22.3358 10.5 22 10.8358 22 11.25C22 11.6642 22.3358 12 22.75 12Z" fill="#E3457B" stroke="#E3457B" stroke-width="1.875" stroke-linecap="round" stroke-linejoin="round"/>
<path d="M19.75 19.5C20.1642 19.5 20.5 19.1642 20.5 18.75C20.5 18.3358 20.1642 18 19.75 18C19.3358 18 19 18.3358 19 18.75C19 19.1642 19.3358 19.5 19.75 19.5Z" fill="#E3457B" stroke="#E3457B" stroke-width="1.875" stroke-linecap="round" stroke-linejoin="round"/>
<path d="M28 3C19.75 3 13 9.75 13 18C13 26.25 19.75 33 28 33C29.389 33 30.472 31.881 30.472 30.468C30.472 29.8125 30.202 29.2155 29.8165 28.7805C29.3815 28.347 29.1595 27.8025 29.1595 27.093C29.1538 26.7629 29.2146 26.435 29.3384 26.1288C29.4621 25.8227 29.6462 25.5446 29.8797 25.3112C30.1131 25.0777 30.3912 24.8936 30.6973 24.7699C31.0035 24.6461 31.3314 24.5853 31.6615 24.591H34.6555C39.232 24.591 42.988 20.8365 42.988 16.26C42.9475 9.018 36.1915 3 28 3Z" stroke="#E3457B" stroke-width="1.875" stroke-linecap="round" stroke-linejoin="round"/>
</svg>
