<svg width="360" height="44" viewBox="0 0 360 44" fill="none" xmlns="http://www.w3.org/2000/svg">
<line y1="21.5" x2="71.5" y2="21.5" stroke="black"/>
<path d="M92.8843 33.05L95.1643 33.62V34H87.3743V33.62L89.6543 33.05V8.16H85.6643C85.6643 9.224 85.4489 10.212 85.0183 11.124C84.5876 12.036 84.0429 12.8213 83.3843 13.48H83.0043C83.0296 13.1507 83.0549 12.8087 83.0803 12.454C83.1056 12.15 83.1309 11.8333 83.1563 11.504C83.1816 11.1493 83.1943 10.7947 83.1943 10.44C83.1943 9.95867 83.1816 9.54066 83.1563 9.186C83.1309 8.806 83.1056 8.47667 83.0803 8.198C83.0549 7.894 83.0296 7.628 83.0043 7.4H99.5343C99.4836 7.628 99.4456 7.894 99.4203 8.198C99.3949 8.47667 99.3696 8.806 99.3443 9.186C99.3443 9.54066 99.3443 9.95867 99.3443 10.44C99.3443 10.7947 99.3443 11.1493 99.3443 11.504C99.3696 11.8333 99.3949 12.15 99.4203 12.454C99.4456 12.8087 99.4836 13.1507 99.5343 13.48H99.1543C98.4956 12.8213 97.9509 12.036 97.5203 11.124C97.0896 10.212 96.8743 9.224 96.8743 8.16H92.8843V33.05ZM103.916 25.26C103.916 26.8813 104.03 28.2367 104.258 29.326C104.511 30.4153 104.828 31.302 105.208 31.986C105.613 32.6447 106.057 33.1133 106.538 33.392C107.045 33.6707 107.564 33.81 108.096 33.81C108.755 33.81 109.375 33.6833 109.958 33.43C110.541 33.1767 111.06 32.8347 111.516 32.404C111.972 31.9733 112.339 31.454 112.618 30.846C112.922 30.238 113.125 29.5793 113.226 28.87H113.796C113.695 29.6807 113.467 30.4407 113.112 31.15C112.783 31.834 112.352 32.4293 111.82 32.936C111.288 33.4427 110.667 33.8353 109.958 34.114C109.274 34.418 108.527 34.57 107.716 34.57C106.753 34.57 105.841 34.3673 104.98 33.962C104.119 33.5313 103.346 32.9233 102.662 32.138C102.003 31.3273 101.471 30.352 101.066 29.212C100.686 28.0467 100.496 26.7293 100.496 25.26C100.496 23.74 100.686 22.3973 101.066 21.232C101.446 20.0667 101.94 19.104 102.548 18.344C103.181 17.5587 103.903 16.9633 104.714 16.558C105.55 16.1527 106.424 15.95 107.336 15.95C108.248 15.95 109.109 16.1527 109.92 16.558C110.756 16.9633 111.478 17.5587 112.086 18.344C112.719 19.104 113.226 20.0667 113.606 21.232C113.986 22.3973 114.176 23.74 114.176 25.26H103.916ZM107.336 16.52C106.956 16.52 106.576 16.6467 106.196 16.9C105.816 17.128 105.461 17.546 105.132 18.154C104.803 18.762 104.524 19.5853 104.296 20.624C104.093 21.6373 103.967 22.9293 103.916 24.5H110.756C110.705 22.9293 110.566 21.6373 110.338 20.624C110.135 19.5853 109.869 18.762 109.54 18.154C109.211 17.546 108.856 17.128 108.476 16.9C108.096 16.6467 107.716 16.52 107.336 16.52ZM122.358 33.05L124.638 33.62V34H117.038V33.62L119.318 33.05V17.47L117.038 16.9V16.52H122.358V21.08C122.687 20.1427 123.08 19.294 123.536 18.534C123.941 17.8753 124.435 17.28 125.018 16.748C125.601 16.216 126.297 15.95 127.108 15.95C127.387 15.95 127.653 15.9753 127.906 16.026C128.159 16.0513 128.387 16.0893 128.59 16.14C128.818 16.216 129.021 16.2793 129.198 16.33L128.058 19.18C127.906 19.104 127.741 19.0153 127.564 18.914C127.412 18.838 127.222 18.7747 126.994 18.724C126.791 18.648 126.576 18.61 126.348 18.61C125.689 18.61 125.107 18.7873 124.6 19.142C124.093 19.4967 123.675 19.8893 123.346 20.32C122.941 20.8267 122.611 21.3967 122.358 22.03V33.05ZM133.011 33.05V17.47L130.731 16.9V16.52H136.051V33.05L138.331 33.62V34H130.731V33.62L133.011 33.05ZM136.241 12.15C136.241 12.6313 136.039 13.0747 135.633 13.48C135.253 13.86 134.823 14.05 134.341 14.05C133.86 14.05 133.417 13.86 133.011 13.48C132.631 13.0747 132.441 12.6313 132.441 12.15C132.441 11.6687 132.631 11.238 133.011 10.858C133.417 10.4527 133.86 10.25 134.341 10.25C134.823 10.25 135.253 10.4527 135.633 10.858C136.039 11.238 136.241 11.6687 136.241 12.15ZM142.882 33.05V17.47L140.602 16.9V16.52H145.922V18.8C146.176 18.2933 146.518 17.8247 146.948 17.394C147.303 17.0393 147.759 16.71 148.316 16.406C148.874 16.102 149.532 15.95 150.292 15.95C151.255 15.95 152.04 16.1273 152.648 16.482C153.282 16.8367 153.788 17.2293 154.168 17.66C154.624 18.1667 154.979 18.7367 155.232 19.37C155.562 18.7367 155.954 18.1667 156.41 17.66C156.816 17.2293 157.31 16.8367 157.892 16.482C158.475 16.1273 159.172 15.95 159.982 15.95C160.742 15.95 161.439 16.0893 162.072 16.368C162.731 16.6467 163.301 17.0393 163.782 17.546C164.264 18.0273 164.631 18.6227 164.884 19.332C165.163 20.016 165.302 20.7887 165.302 21.65V33.05L167.582 33.62V34H160.172V33.62L162.262 33.05V21.65C162.262 19.8513 161.971 18.5847 161.388 17.85C160.831 17.09 160.172 16.71 159.412 16.71C158.779 16.71 158.234 16.8873 157.778 17.242C157.322 17.5967 156.93 17.9893 156.6 18.42C156.22 18.9267 155.891 19.4967 155.612 20.13V33.05L157.702 33.62V34H150.482V33.62L152.572 33.05V21.65C152.572 19.8513 152.281 18.5847 151.698 17.85C151.141 17.09 150.482 16.71 149.722 16.71C149.089 16.71 148.544 16.8873 148.088 17.242C147.632 17.5967 147.24 17.9893 146.91 18.42C146.53 18.9267 146.201 19.4967 145.922 20.13V33.05L148.012 33.62V34H140.602V33.62L142.882 33.05ZM179.915 24.69C177.711 24.69 176.077 25.184 175.013 26.172C173.974 27.1347 173.455 28.4773 173.455 30.2C173.455 31.34 173.733 32.2267 174.291 32.86C174.848 33.4933 175.456 33.81 176.115 33.81C176.723 33.81 177.255 33.6327 177.711 33.278C178.192 32.9233 178.597 32.5307 178.927 32.1C179.307 31.6187 179.636 31.0487 179.915 30.39V24.69ZM177.065 16.52C176.305 16.52 175.671 16.786 175.165 17.318C174.658 17.8247 174.405 18.5087 174.405 19.37C174.405 19.5727 174.405 19.75 174.405 19.902C174.43 20.054 174.455 20.1933 174.481 20.32C174.506 20.4467 174.544 20.5733 174.595 20.7L171.555 21.46C171.504 21.384 171.466 21.2827 171.441 21.156C171.415 21.0293 171.39 20.89 171.365 20.738C171.365 20.586 171.365 20.3833 171.365 20.13C171.365 19.598 171.491 19.0913 171.745 18.61C171.998 18.1033 172.365 17.66 172.847 17.28C173.353 16.8747 173.949 16.558 174.633 16.33C175.342 16.0767 176.153 15.95 177.065 15.95C178.889 15.95 180.32 16.4693 181.359 17.508C182.423 18.5467 182.955 19.9273 182.955 21.65V33.05L185.235 33.62V34H179.915V31.72C179.636 32.252 179.281 32.7333 178.851 33.164C178.496 33.5187 178.04 33.8353 177.483 34.114C176.951 34.418 176.305 34.57 175.545 34.57C173.721 34.57 172.34 34.1393 171.403 33.278C170.491 32.4167 170.035 31.264 170.035 29.82C170.035 29.1107 170.225 28.4013 170.605 27.692C171.01 26.9827 171.605 26.3493 172.391 25.792C173.201 25.2347 174.227 24.7913 175.469 24.462C176.71 24.1073 178.192 23.93 179.915 23.93V21.65C179.915 19.75 179.623 18.42 179.041 17.66C178.483 16.9 177.825 16.52 177.065 16.52ZM202.528 24.12V33.05L204.808 33.62V34H197.018V33.62L199.298 33.05V8.35L197.018 7.78V7.4H204.808V7.78L202.528 8.35V22.79L210.698 8.73L208.228 7.78V7.4H213.928V7.78L211.458 8.73L206.67 16.976L214.308 33.05L216.588 33.62V34H208.418V33.62L210.698 33.05L204.694 20.396L202.528 24.12ZM227.229 24.69C225.025 24.69 223.391 25.184 222.327 26.172C221.288 27.1347 220.769 28.4773 220.769 30.2C220.769 31.34 221.048 32.2267 221.605 32.86C222.162 33.4933 222.77 33.81 223.429 33.81C224.037 33.81 224.569 33.6327 225.025 33.278C225.506 32.9233 225.912 32.5307 226.241 32.1C226.621 31.6187 226.95 31.0487 227.229 30.39V24.69ZM224.379 16.52C223.619 16.52 222.986 16.786 222.479 17.318C221.972 17.8247 221.719 18.5087 221.719 19.37C221.719 19.5727 221.719 19.75 221.719 19.902C221.744 20.054 221.77 20.1933 221.795 20.32C221.82 20.4467 221.858 20.5733 221.909 20.7L218.869 21.46C218.818 21.384 218.78 21.2827 218.755 21.156C218.73 21.0293 218.704 20.89 218.679 20.738C218.679 20.586 218.679 20.3833 218.679 20.13C218.679 19.598 218.806 19.0913 219.059 18.61C219.312 18.1033 219.68 17.66 220.161 17.28C220.668 16.8747 221.263 16.558 221.947 16.33C222.656 16.0767 223.467 15.95 224.379 15.95C226.203 15.95 227.634 16.4693 228.673 17.508C229.737 18.5467 230.269 19.9273 230.269 21.65V33.05L232.549 33.62V34H227.229V31.72C226.95 32.252 226.596 32.7333 226.165 33.164C225.81 33.5187 225.354 33.8353 224.797 34.114C224.265 34.418 223.619 34.57 222.859 34.57C221.035 34.57 219.654 34.1393 218.717 33.278C217.805 32.4167 217.349 31.264 217.349 29.82C217.349 29.1107 217.539 28.4013 217.919 27.692C218.324 26.9827 218.92 26.3493 219.705 25.792C220.516 25.2347 221.542 24.7913 222.783 24.462C224.024 24.1073 225.506 23.93 227.229 23.93V21.65C227.229 19.75 226.938 18.42 226.355 17.66C225.798 16.9 225.139 16.52 224.379 16.52ZM241.663 34.57C240.852 34.57 240.156 34.4687 239.573 34.266C238.99 34.0887 238.522 33.8733 238.167 33.62C237.736 33.3413 237.382 33.0247 237.103 32.67C237.002 33.05 236.786 33.4047 236.457 33.734C236.153 34.0633 235.862 34.2787 235.583 34.38H235.013C235.038 34.0507 235.064 33.7087 235.089 33.354C235.114 33.05 235.14 32.7333 235.165 32.404C235.19 32.0493 235.203 31.6947 235.203 31.34C235.203 30.96 235.19 30.58 235.165 30.2C235.14 29.82 235.114 29.478 235.089 29.174C235.064 28.8193 235.038 28.4647 235.013 28.11H235.583C236.064 29.934 236.799 31.34 237.787 32.328C238.775 33.316 239.94 33.81 241.283 33.81C242.347 33.81 243.208 33.4807 243.867 32.822C244.551 32.1633 244.893 31.3527 244.893 30.39C244.893 29.706 244.652 29.1107 244.171 28.604C243.715 28.0973 243.132 27.6413 242.423 27.236C241.714 26.8053 240.954 26.3873 240.143 25.982C239.332 25.5767 238.572 25.1207 237.863 24.614C237.154 24.1073 236.558 23.512 236.077 22.828C235.621 22.144 235.393 21.308 235.393 20.32C235.393 19.7627 235.52 19.218 235.773 18.686C236.026 18.154 236.368 17.6853 236.799 17.28C237.255 16.8747 237.8 16.558 238.433 16.33C239.066 16.0767 239.763 15.95 240.523 15.95C241.182 15.95 241.752 16.0513 242.233 16.254C242.74 16.4567 243.17 16.672 243.525 16.9C243.905 17.1787 244.234 17.4953 244.513 17.85C244.614 17.47 244.817 17.1153 245.121 16.786C245.45 16.4567 245.754 16.2413 246.033 16.14H246.603C246.552 16.4693 246.514 16.8113 246.489 17.166C246.464 17.47 246.438 17.7993 246.413 18.154C246.413 18.5087 246.413 18.8507 246.413 19.18C246.413 19.56 246.413 19.9527 246.413 20.358C246.438 20.738 246.464 21.08 246.489 21.384C246.514 21.7387 246.552 22.0807 246.603 22.41H246.033C245.552 20.586 244.842 19.18 243.905 18.192C242.968 17.204 241.967 16.71 240.903 16.71C240.042 16.71 239.32 17.0013 238.737 17.584C238.154 18.1413 237.863 18.8 237.863 19.56C237.863 20.1933 238.104 20.738 238.585 21.194C239.066 21.65 239.662 22.0807 240.371 22.486C241.08 22.866 241.853 23.2587 242.689 23.664C243.55 24.0693 244.336 24.538 245.045 25.07C245.754 25.602 246.35 26.2353 246.831 26.97C247.312 27.7047 247.553 28.5913 247.553 29.63C247.553 30.238 247.401 30.846 247.097 31.454C246.818 32.0367 246.413 32.5687 245.881 33.05C245.374 33.506 244.754 33.8733 244.019 34.152C243.31 34.4307 242.524 34.57 241.663 34.57ZM252.504 33.05V17.47L250.224 16.9V16.52H255.544V33.05L257.824 33.62V34H250.224V33.62L252.504 33.05ZM255.734 12.15C255.734 12.6313 255.531 13.0747 255.126 13.48C254.746 13.86 254.315 14.05 253.834 14.05C253.352 14.05 252.909 13.86 252.504 13.48C252.124 13.0747 251.934 12.6313 251.934 12.15C251.934 11.6687 252.124 11.238 252.504 10.858C252.909 10.4527 253.352 10.25 253.834 10.25C254.315 10.25 254.746 10.4527 255.126 10.858C255.531 11.238 255.734 11.6687 255.734 12.15ZM262.185 33.05V8.35L259.905 7.78V7.4H265.225V18.8C265.478 18.2933 265.82 17.8247 266.251 17.394C266.605 17.0393 267.061 16.71 267.619 16.406C268.176 16.102 268.835 15.95 269.595 15.95C270.355 15.95 271.051 16.0893 271.685 16.368C272.343 16.6467 272.913 17.0393 273.395 17.546C273.876 18.0273 274.243 18.6227 274.497 19.332C274.775 20.016 274.915 20.7887 274.915 21.65V33.05L277.195 33.62V34H269.785V33.62L271.875 33.05V21.65C271.875 19.8513 271.583 18.5847 271.001 17.85C270.443 17.09 269.785 16.71 269.025 16.71C268.391 16.71 267.847 16.8873 267.391 17.242C266.935 17.5967 266.542 17.9893 266.213 18.42C265.833 18.9267 265.503 19.4967 265.225 20.13V33.05L267.315 33.62V34H259.905V33.62L262.185 33.05Z" fill="black"/>
<line x1="288.5" y1="21.5" x2="360" y2="21.5" stroke="black"/>
</svg>
