<svg width="18" height="4" viewBox="0 0 18 4" fill="none" xmlns="http://www.w3.org/2000/svg">
<path d="M16.2102 1.73468L15.9251 1.44965C15.7285 1.25307 15.6303 1.11219 15.6303 1.02701C15.6303 0.830431 15.7285 0.732147 15.9251 0.732147C16.0169 0.732147 16.2069 0.886138 16.4952 1.19411C16.8883 1.61347 17.2553 1.90505 17.596 2.06886C17.7926 2.16715 17.8909 2.2851 17.8909 2.4227C17.8909 2.55375 17.7926 2.6586 17.596 2.73723C16.0824 3.34006 15.2306 3.64148 15.0405 3.64148C14.844 3.64148 14.7457 3.54318 14.7457 3.3466C14.7457 3.21555 14.844 3.11727 15.0405 3.05174C15.7089 2.8224 16.3445 2.59306 16.9473 2.36372L16.6721 2.15732C16.6131 2.24905 16.528 2.29821 16.4166 2.30476C15.7613 2.37029 15.1323 2.40305 14.5294 2.40305C13.9266 2.40305 5.23531 2.38666 4.45556 2.3539C3.6758 2.32113 3.13522 2.30476 2.8338 2.30476C2.53239 2.30476 2.02784 2.39321 1.32017 2.57013C1.22188 2.58979 1.16291 2.59962 1.14325 2.59962C0.946677 2.59962 0.848389 2.50134 0.848389 2.30476C0.848389 2.1475 0.946677 2.04593 1.14325 2.00006C1.90335 1.81004 2.52584 1.71503 3.01072 1.71503C3.22696 1.71503 3.7184 1.73141 4.48504 1.76418C5.25169 1.79694 13.9233 1.81332 14.4999 1.81332C15.0766 1.81332 15.6466 1.7871 16.2102 1.73468Z" fill="white"/>
</svg>
