<svg width="40" height="40" viewBox="0 0 40 40" fill="none" xmlns="http://www.w3.org/2000/svg">
<g filter="url(#filter0_d_928_5646)">
<rect x="4" y="4.20782" width="30.4" height="30.4" rx="15.2" fill="white"/>
<path fill-rule="evenodd" clip-rule="evenodd" d="M18.7071 14.2809C18.9838 14.3955 19.1642 14.6655 19.1642 14.965V23.8506C19.1642 24.1501 18.9838 24.4201 18.7071 24.5347C18.4304 24.6493 18.1119 24.5859 17.9001 24.3742L15.1551 21.6292H13.2405C12.8315 21.6292 12.5 21.2977 12.5 20.8887V17.9269C12.5 17.5179 12.8315 17.1864 13.2405 17.1864H15.1551L17.9001 14.4414C18.1119 14.2297 18.4304 14.1663 18.7071 14.2809Z" fill="#8F907E"/>
<path fill-rule="evenodd" clip-rule="evenodd" d="M21.1362 17.1519C21.4616 16.8265 21.9892 16.8265 22.3147 17.1519L23.3921 18.2293L24.4695 17.1519C24.7949 16.8265 25.3226 16.8265 25.648 17.1519C25.9734 17.4774 25.9734 18.005 25.648 18.3304L24.5706 19.4078L25.648 20.4853C25.9734 20.8107 25.9734 21.3384 25.648 21.6638C25.3226 21.9892 24.7949 21.9892 24.4695 21.6638L23.3921 20.5864L22.3147 21.6638C21.9892 21.9892 21.4616 21.9892 21.1362 21.6638C20.8107 21.3384 20.8107 20.8107 21.1362 20.4853L22.2136 19.4078L21.1362 18.3304C20.8107 18.005 20.8107 17.4774 21.1362 17.1519Z" fill="#8F907E"/>
</g>
<defs>
<filter id="filter0_d_928_5646" x="0.48" y="0.687825" width="39.0399" height="39.04" filterUnits="userSpaceOnUse" color-interpolation-filters="sRGB">
<feFlood flood-opacity="0" result="BackgroundImageFix"/>
<feColorMatrix in="SourceAlpha" type="matrix" values="0 0 0 0 0 0 0 0 0 0 0 0 0 0 0 0 0 0 127 0" result="hardAlpha"/>
<feOffset dx="0.8" dy="0.8"/>
<feGaussianBlur stdDeviation="2.16"/>
<feComposite in2="hardAlpha" operator="out"/>
<feColorMatrix type="matrix" values="0 0 0 0 0 0 0 0 0 0 0 0 0 0 0 0 0 0 0.2 0"/>
<feBlend mode="normal" in2="BackgroundImageFix" result="effect1_dropShadow_928_5646"/>
<feBlend mode="normal" in="SourceGraphic" in2="effect1_dropShadow_928_5646" result="shape"/>
</filter>
</defs>
</svg>
