<svg width="40" height="40" viewBox="0 0 40 40" fill="none" xmlns="http://www.w3.org/2000/svg">
<g filter="url(#filter0_d_928_5645)">
<rect x="4" y="4.20782" width="30.4" height="30.4" rx="15.2" fill="white"/>
<path fill-rule="evenodd" clip-rule="evenodd" d="M18.7071 14.281C18.9838 14.3956 19.1642 14.6656 19.1642 14.9651V23.8506C19.1642 24.1502 18.9838 24.4201 18.7071 24.5347C18.4304 24.6494 18.1119 24.586 17.9001 24.3742L15.1551 21.6292H13.2405C12.8315 21.6292 12.5 21.2977 12.5 20.8888V17.9269C12.5 17.518 12.8315 17.1865 13.2405 17.1865H15.1551L17.9001 14.4415C18.1119 14.2297 18.4304 14.1664 18.7071 14.281Z" fill="#8F907E"/>
<path fill-rule="evenodd" clip-rule="evenodd" d="M22.6125 14.172C22.9017 13.8828 23.3705 13.8828 23.6597 14.172C24.9988 15.5111 25.8284 17.3633 25.8284 19.4078C25.8284 21.4524 24.9988 23.3045 23.6597 24.6437C23.3705 24.9328 22.9017 24.9328 22.6125 24.6437C22.3233 24.3545 22.3233 23.8857 22.6125 23.5965C23.6853 22.5237 24.3475 21.0438 24.3475 19.4078C24.3475 17.7718 23.6853 16.2919 22.6125 15.2191C22.3233 14.93 22.3233 14.4611 22.6125 14.172ZM20.5181 16.2663C20.8073 15.9771 21.2761 15.9771 21.5653 16.2663C21.9547 16.6557 22.2724 17.1175 22.4966 17.6304C22.7348 18.1757 22.8666 18.7773 22.8666 19.4078C22.8666 20.6344 22.3685 21.7462 21.5653 22.5493C21.2761 22.8385 20.8073 22.8385 20.5181 22.5493C20.229 22.2602 20.229 21.7913 20.5181 21.5022C21.055 20.9653 21.3857 20.2259 21.3857 19.4078C21.3857 18.9852 21.2976 18.5851 21.1395 18.2234C20.9905 17.8822 20.7786 17.5739 20.5181 17.3135C20.229 17.0243 20.229 16.5555 20.5181 16.2663Z" fill="#8F907E"/>
</g>
<defs>
<filter id="filter0_d_928_5645" x="0.48" y="0.687825" width="39.0399" height="39.04" filterUnits="userSpaceOnUse" color-interpolation-filters="sRGB">
<feFlood flood-opacity="0" result="BackgroundImageFix"/>
<feColorMatrix in="SourceAlpha" type="matrix" values="0 0 0 0 0 0 0 0 0 0 0 0 0 0 0 0 0 0 127 0" result="hardAlpha"/>
<feOffset dx="0.8" dy="0.8"/>
<feGaussianBlur stdDeviation="2.16"/>
<feComposite in2="hardAlpha" operator="out"/>
<feColorMatrix type="matrix" values="0 0 0 0 0 0 0 0 0 0 0 0 0 0 0 0 0 0 0.2 0"/>
<feBlend mode="normal" in2="BackgroundImageFix" result="effect1_dropShadow_928_5645"/>
<feBlend mode="normal" in="SourceGraphic" in2="effect1_dropShadow_928_5645" result="shape"/>
</filter>
</defs>
</svg>
