<svg width="46" height="49" viewBox="0 0 46 49" fill="none" xmlns="http://www.w3.org/2000/svg">
<rect x="0.523193" width="45.3199" height="48.2917" rx="9.65834" fill="white"/>
<path fill-rule="evenodd" clip-rule="evenodd" d="M25.2983 9.90838L31.6433 15.4708C31.9779 15.77 32.2451 16.1368 32.4274 16.547C32.6097 16.9572 32.7029 17.4013 32.7008 17.8502V27.1033C32.7008 27.9447 32.3666 28.7516 31.7716 29.3466C31.1766 29.9415 30.3697 30.2758 29.5283 30.2758H27.527C26.296 30.2758 25.298 29.2778 25.2981 28.0468L25.2983 22.8733C25.2983 22.5928 25.1869 22.3238 24.9886 22.1255C24.7903 21.9272 24.5213 21.8158 24.2408 21.8158H22.1258C21.8454 21.8158 21.5764 21.9272 21.3781 22.1255C21.1798 22.3238 21.0683 22.5928 21.0683 22.8733V27.5762V28.0469C21.0683 29.2779 20.0705 30.2758 18.8395 30.2758H17.3204H16.8384C15.997 30.2758 15.19 29.9415 14.5951 29.3466C14.0001 28.7516 13.6659 27.9447 13.6659 27.1033V17.8608C13.6623 17.4101 13.7547 16.9639 13.9371 16.5518C14.1194 16.1397 14.3875 15.7712 14.7234 15.4708L21.0683 9.90838C21.65 9.38814 22.403 9.10052 23.1833 9.10052C23.9637 9.10052 24.7167 9.38814 25.2983 9.90838ZM30.2761 27.851C30.4744 27.6527 30.5858 27.3837 30.5858 27.1033V17.8502C30.5856 17.7 30.5535 17.5516 30.4915 17.4149C30.4295 17.2781 30.3391 17.1562 30.2263 17.0571L23.8813 11.5052C23.6883 11.3357 23.4402 11.2422 23.1833 11.2422C22.9265 11.2422 22.6784 11.3357 22.4854 11.5052L16.1404 17.0571C16.0276 17.1562 15.9372 17.2781 15.8752 17.4149C15.8132 17.5516 15.7811 17.7 15.7809 17.8502V27.1033C15.7809 27.3837 15.8923 27.6527 16.0906 27.851C16.2889 28.0493 16.5579 28.1608 16.8384 28.1608H18.2104C18.6207 28.1608 18.9534 27.8281 18.9534 27.4178V22.8733C18.9534 22.0319 19.2876 21.225 19.8826 20.63C20.4775 20.035 21.2844 19.7008 22.1258 19.7008H24.2408C25.0822 19.7008 25.8892 20.035 26.4841 20.63C27.0791 21.225 27.4133 22.0319 27.4133 22.8733V27.4178C27.4133 27.8281 27.746 28.1608 28.1563 28.1608H29.5283C29.8088 28.1608 30.0778 28.0493 30.2761 27.851Z" fill="#8F907E"/>
<path d="M10.85 41.8763V37.2341H12.8066C13.114 37.2341 13.3757 37.2881 13.5917 37.3961C13.8119 37.5 13.9801 37.6495 14.0964 37.8447C14.2169 38.0358 14.2772 38.2685 14.2772 38.5426C14.2772 38.7545 14.219 38.9539 14.1027 39.1408C13.9905 39.3236 13.8098 39.4752 13.5606 39.5957V39.2031C13.789 39.2904 13.9698 39.3984 14.1027 39.5271C14.2356 39.6559 14.3291 39.7992 14.3831 39.9571C14.4371 40.115 14.4641 40.2811 14.4641 40.4556C14.4641 40.9001 14.3166 41.249 14.0217 41.5024C13.7309 41.7517 13.3259 41.8763 12.8066 41.8763H10.85ZM11.6975 41.1285H12.8938C13.114 41.1285 13.2885 41.0683 13.4173 40.9478C13.5502 40.8232 13.6167 40.6591 13.6167 40.4556C13.6167 40.252 13.5502 40.0879 13.4173 39.9633C13.2885 39.8387 13.114 39.7764 12.8938 39.7764H11.6975V41.1285ZM11.6975 39.0349H12.8502C13.0247 39.0349 13.1639 38.985 13.2677 38.8853C13.3716 38.7815 13.4235 38.6486 13.4235 38.4866C13.4235 38.3245 13.3716 38.1958 13.2677 38.1002C13.1639 38.0047 13.0247 37.9569 12.8502 37.9569H11.6975V39.0349ZM16.6974 41.9511C16.3484 41.9511 16.0431 41.8721 15.7814 41.7143C15.5197 41.5564 15.3161 41.3425 15.1707 41.0725C15.0253 40.8025 14.9526 40.5034 14.9526 40.1752C14.9526 39.8346 15.0253 39.5334 15.1707 39.2717C15.3203 39.0058 15.5218 38.796 15.7752 38.6423C16.0327 38.4886 16.3193 38.4118 16.635 38.4118C16.9009 38.4118 17.1335 38.4554 17.3329 38.5426C17.5365 38.6299 17.7089 38.7503 17.8501 38.904C17.9914 39.0577 18.0994 39.2343 18.1741 39.4337C18.2489 39.6289 18.2863 39.8408 18.2863 40.0693C18.2863 40.1274 18.2821 40.1876 18.2738 40.25C18.2697 40.3123 18.2593 40.3663 18.2427 40.412H15.6256V39.7889H17.7816L17.3952 40.0817C17.4326 39.8906 17.4222 39.7203 17.3641 39.5708C17.3101 39.4212 17.2187 39.3028 17.0899 39.2156C16.9653 39.1284 16.8137 39.0847 16.635 39.0847C16.4647 39.0847 16.3131 39.1284 16.1802 39.2156C16.0472 39.2987 15.9455 39.4233 15.8749 39.5895C15.8084 39.7515 15.7835 39.9488 15.8001 40.1814C15.7835 40.3891 15.8105 40.574 15.8811 40.736C15.9559 40.8938 16.0639 41.0164 16.2051 41.1036C16.3505 41.1909 16.5167 41.2345 16.7036 41.2345C16.8905 41.2345 17.0484 41.195 17.1772 41.1161C17.3101 41.0372 17.4139 40.9312 17.4887 40.7983L18.1492 41.1223C18.0827 41.2843 17.9789 41.4276 17.8377 41.5523C17.6964 41.6769 17.5282 41.7745 17.3329 41.8451C17.1418 41.9157 16.93 41.9511 16.6974 41.9511ZM18.9051 41.8763V38.4866H19.6715V39.2405L19.6092 39.1284C19.6881 38.875 19.8107 38.6984 19.9768 38.5987C20.1471 38.499 20.3507 38.4492 20.5875 38.4492H20.7869V39.172H20.494C20.2614 39.172 20.0744 39.2447 19.9332 39.3901C19.792 39.5313 19.7214 39.7307 19.7214 39.9883V41.8763H18.9051ZM22.2638 41.9511C22.027 41.9511 21.8214 41.9116 21.6469 41.8327C21.4724 41.7537 21.3374 41.6416 21.2419 41.4962C21.1463 41.3466 21.0986 41.1742 21.0986 40.979C21.0986 40.7921 21.1401 40.6259 21.2232 40.4805C21.3063 40.331 21.4351 40.2063 21.6095 40.1066C21.784 40.0069 22.0042 39.9363 22.27 39.8948L23.3792 39.7141V40.3372L22.4258 40.4992C22.2638 40.5283 22.1433 40.5802 22.0644 40.655C21.9855 40.7298 21.946 40.8274 21.946 40.9478C21.946 41.0642 21.9896 41.1576 22.0769 41.2282C22.1683 41.2947 22.2804 41.3279 22.4133 41.3279C22.5837 41.3279 22.7332 41.2926 22.862 41.222C22.9949 41.1472 23.0967 41.0455 23.1673 40.9167C23.2421 40.7879 23.2795 40.6467 23.2795 40.493V39.6206C23.2795 39.4752 23.2213 39.3548 23.105 39.2592C22.9928 39.1595 22.8433 39.1097 22.6564 39.1097C22.4819 39.1097 22.3261 39.1574 22.189 39.253C22.0561 39.3444 21.9585 39.4669 21.8962 39.6206L21.2294 39.2966C21.2959 39.118 21.3997 38.9643 21.541 38.8355C21.6864 38.7026 21.8567 38.5987 22.0519 38.5239C22.2472 38.4492 22.459 38.4118 22.6875 38.4118C22.9658 38.4118 23.2109 38.4637 23.4228 38.5676C23.6346 38.6673 23.7987 38.8085 23.915 38.9913C24.0355 39.1699 24.0957 39.3797 24.0957 39.6206V41.8763H23.3231V41.2968L23.4976 41.2843C23.4103 41.4297 23.3065 41.5523 23.186 41.652C23.0655 41.7475 22.9284 41.8223 22.7747 41.8763C22.621 41.9261 22.4507 41.9511 22.2638 41.9511ZM24.8502 41.8763V38.4866H25.6166V39.1533L25.5543 39.0349C25.6332 38.8313 25.762 38.6776 25.9406 38.5738C26.1234 38.4658 26.3353 38.4118 26.5762 38.4118C26.8255 38.4118 27.0456 38.4658 27.2367 38.5738C27.432 38.6818 27.5836 38.8334 27.6916 39.0287C27.7996 39.2197 27.8536 39.442 27.8536 39.6954V41.8763H27.0373V39.8886C27.0373 39.739 27.0082 39.6102 26.9501 39.5022C26.8919 39.3942 26.8109 39.3111 26.7071 39.253C26.6074 39.1907 26.489 39.1595 26.3519 39.1595C26.219 39.1595 26.1006 39.1907 25.9967 39.253C25.8929 39.3111 25.8119 39.3942 25.7537 39.5022C25.6956 39.6102 25.6665 39.739 25.6665 39.8886V41.8763H24.8502ZM30.1203 41.9511C29.7921 41.9511 29.4993 41.8742 29.2417 41.7205C28.9842 41.5626 28.7806 41.3487 28.6311 41.0787C28.4815 40.8087 28.4068 40.5096 28.4068 40.1814C28.4068 39.8491 28.4815 39.55 28.6311 39.2841C28.7806 39.0183 28.9842 38.8064 29.2417 38.6486C29.5034 38.4907 29.7942 38.4118 30.1141 38.4118C30.3716 38.4118 30.6001 38.4637 30.7995 38.5676C31.0031 38.6673 31.163 38.8085 31.2793 38.9913L31.1547 39.1595V37.1593H31.971V41.8763H31.1983V41.222L31.2855 41.384C31.1692 41.5668 31.0072 41.708 30.7995 41.8077C30.5918 41.9033 30.3654 41.9511 30.1203 41.9511ZM30.2076 41.2033C30.3945 41.2033 30.5586 41.1597 30.6998 41.0725C30.841 40.9852 30.9511 40.8648 31.0301 40.7111C31.1131 40.5574 31.1547 40.3808 31.1547 40.1814C31.1547 39.9862 31.1131 39.8117 31.0301 39.658C30.9511 39.5001 30.841 39.3776 30.6998 39.2904C30.5586 39.2031 30.3945 39.1595 30.2076 39.1595C30.0248 39.1595 29.8607 39.2052 29.7153 39.2966C29.5699 39.3838 29.4557 39.5043 29.3726 39.658C29.2937 39.8075 29.2542 39.982 29.2542 40.1814C29.2542 40.3808 29.2937 40.5574 29.3726 40.7111C29.4557 40.8648 29.5699 40.9852 29.7153 41.0725C29.8607 41.1597 30.0248 41.2033 30.2076 41.2033ZM33.7585 41.9511C33.5217 41.9511 33.3161 41.9116 33.1416 41.8327C32.9672 41.7537 32.8322 41.6416 32.7366 41.4962C32.6411 41.3466 32.5933 41.1742 32.5933 40.979C32.5933 40.7921 32.6348 40.6259 32.7179 40.4805C32.801 40.331 32.9298 40.2063 33.1042 40.1066C33.2787 40.0069 33.4989 39.9363 33.7647 39.8948L34.8739 39.7141V40.3372L33.9205 40.4992C33.7585 40.5283 33.638 40.5802 33.5591 40.655C33.4802 40.7298 33.4407 40.8274 33.4407 40.9478C33.4407 41.0642 33.4843 41.1576 33.5716 41.2282C33.663 41.2947 33.7751 41.3279 33.9081 41.3279C34.0784 41.3279 34.2279 41.2926 34.3567 41.222C34.4896 41.1472 34.5914 41.0455 34.662 40.9167C34.7368 40.7879 34.7742 40.6467 34.7742 40.493V39.6206C34.7742 39.4752 34.716 39.3548 34.5997 39.2592C34.4876 39.1595 34.338 39.1097 34.1511 39.1097C33.9766 39.1097 33.8208 39.1574 33.6837 39.253C33.5508 39.3444 33.4532 39.4669 33.3909 39.6206L32.7241 39.2966C32.7906 39.118 32.8945 38.9643 33.0357 38.8355C33.1811 38.7026 33.3514 38.5987 33.5467 38.5239C33.7419 38.4492 33.9538 38.4118 34.1822 38.4118C34.4606 38.4118 34.7056 38.4637 34.9175 38.5676C35.1294 38.6673 35.2934 38.8085 35.4098 38.9913C35.5302 39.1699 35.5905 39.3797 35.5905 39.6206V41.8763H34.8178V41.2968L34.9923 41.2843C34.905 41.4297 34.8012 41.5523 34.6807 41.652C34.5603 41.7475 34.4232 41.8223 34.2695 41.8763C34.1158 41.9261 33.9454 41.9511 33.7585 41.9511Z" fill="#8F907E"/>
</svg>
