<svg width="47" height="49" viewBox="0 0 47 49" fill="none" xmlns="http://www.w3.org/2000/svg">
<rect x="0.718262" y="0.458435" width="45.3199" height="48.2917" rx="9.65834" fill="#8F907E"/>
<path d="M21.5091 18.3174L21.5051 18.3135L21.5001 18.3171L21.5091 18.3174Z" fill="white"/>
<path fill-rule="evenodd" clip-rule="evenodd" d="M29.0888 13.4844V23.0018C29.0888 23.7591 28.788 24.4853 28.2525 25.0208C27.717 25.5562 26.9908 25.8571 26.2335 25.8571H16.7161C15.9588 25.8571 15.2326 25.5562 14.6971 25.0208C14.1617 24.4853 13.8608 23.7591 13.8608 23.0018V13.4844C13.8608 12.7271 14.1617 12.0009 14.6971 11.4654C15.2326 10.9299 15.9588 10.6291 16.7161 10.6291H26.2335C26.9908 10.6291 27.717 10.9299 28.2525 11.4654C28.788 12.0009 29.0888 12.7271 29.0888 13.4844ZM15.7643 19.2984V22.8391C15.7643 23.4546 16.2633 23.9536 16.8788 23.9536H26.2335C26.486 23.9536 26.728 23.8533 26.9065 23.6748C27.085 23.4963 27.1853 23.2542 27.1853 23.0018V18.832L24.8059 16.4622C24.759 16.4105 24.7016 16.3694 24.6376 16.3416C24.5737 16.3137 24.5045 16.2996 24.4347 16.3004C24.365 16.2996 24.2958 16.3137 24.2318 16.3416C24.1679 16.3694 24.1105 16.4105 24.0636 16.4622L21.5051 18.3135L19.7331 16.5573C19.6526 16.4765 19.557 16.4123 19.4516 16.3685C19.3463 16.3247 19.2333 16.3022 19.1192 16.3022C19.0052 16.3022 18.8922 16.3247 18.7868 16.3685C18.6815 16.4123 18.5858 16.4765 18.5054 16.5573L15.7643 19.2984Z" fill="white"/>
<path d="M31.271 14.7149C31.4495 14.5364 31.6916 14.4361 31.944 14.4361C32.1964 14.4361 32.4385 14.5364 32.617 14.7149C32.7955 14.8934 32.8958 15.1354 32.8958 15.3879V24.9053C32.8958 26.1674 32.3944 27.3778 31.502 28.2702C30.6095 29.1627 29.3991 29.664 28.137 29.664H18.6196C18.3672 29.664 18.1251 29.5638 17.9466 29.3853C17.7681 29.2068 17.6678 28.9647 17.6678 28.7123C17.6678 28.4599 17.7681 28.2178 17.9466 28.0393C18.1251 27.8608 18.3672 27.7606 18.6196 27.7606H28.137C28.8943 27.7606 29.6205 27.4597 30.156 26.9243C30.6915 26.3888 30.9923 25.6626 30.9923 24.9053V15.3879C30.9923 15.1354 31.0925 14.8934 31.271 14.7149Z" fill="white"/>
<path d="M17.06 42.4095C16.7277 42.4095 16.4203 42.3493 16.1378 42.2288C15.8554 42.1083 15.6082 41.9401 15.3963 41.7241C15.1845 41.5081 15.0183 41.2547 14.8978 40.9639C14.7815 40.6731 14.7234 40.3553 14.7234 40.0105C14.7234 39.6657 14.7794 39.3479 14.8916 39.0572C15.0079 38.7622 15.1699 38.5088 15.3776 38.297C15.5895 38.0809 15.8367 37.9148 16.1191 37.7985C16.4016 37.678 16.709 37.6178 17.0413 37.6178C17.3737 37.6178 17.6707 37.6738 17.9324 37.786C18.1983 37.8982 18.4226 38.0477 18.6054 38.2346C18.7881 38.4174 18.919 38.6189 18.9979 38.8391L18.2439 39.2005C18.1567 38.9595 18.0092 38.7643 17.8015 38.6147C17.5938 38.4652 17.3404 38.3904 17.0413 38.3904C16.7506 38.3904 16.493 38.459 16.2687 38.5961C16.0485 38.7331 15.8761 38.9221 15.7515 39.1631C15.631 39.404 15.5708 39.6865 15.5708 40.0105C15.5708 40.3345 15.6331 40.6191 15.7577 40.8642C15.8865 41.1051 16.0631 41.2941 16.2874 41.4312C16.5117 41.5683 16.7692 41.6368 17.06 41.6368C17.2968 41.6368 17.5149 41.5911 17.7143 41.4998C17.9137 41.4042 18.0736 41.2713 18.1941 41.101C18.3146 40.9265 18.3748 40.7209 18.3748 40.4841V40.1289L18.7611 40.4654H17.0413V39.7488H19.2222V40.2161C19.2222 40.5734 19.162 40.8891 19.0415 41.1633C18.9211 41.4374 18.757 41.668 18.5493 41.8549C18.3457 42.0377 18.1152 42.1769 17.8576 42.2724C17.6001 42.3638 17.3342 42.4095 17.06 42.4095ZM20.8524 42.4095C20.6156 42.4095 20.41 42.37 20.2355 42.2911C20.0611 42.2122 19.926 42.1 19.8305 41.9546C19.735 41.8051 19.6872 41.6327 19.6872 41.4374C19.6872 41.2505 19.7287 41.0843 19.8118 40.939C19.8949 40.7894 20.0237 40.6648 20.1981 40.5651C20.3726 40.4654 20.5928 40.3948 20.8586 40.3532L21.9678 40.1725V40.7956L21.0144 40.9576C20.8524 40.9867 20.7319 41.0387 20.653 41.1134C20.5741 41.1882 20.5346 41.2858 20.5346 41.4063C20.5346 41.5226 20.5782 41.6161 20.6655 41.6867C20.7569 41.7532 20.869 41.7864 21.002 41.7864C21.1723 41.7864 21.3218 41.7511 21.4506 41.6805C21.5835 41.6057 21.6853 41.5039 21.7559 41.3751C21.8307 41.2464 21.8681 41.1051 21.8681 40.9514V40.0791C21.8681 39.9337 21.8099 39.8132 21.6936 39.7177C21.5814 39.618 21.4319 39.5681 21.245 39.5681C21.0705 39.5681 20.9147 39.6159 20.7776 39.7114C20.6447 39.8028 20.5471 39.9254 20.4848 40.0791L19.818 39.755C19.8845 39.5764 19.9884 39.4227 20.1296 39.2939C20.275 39.161 20.4453 39.0572 20.6405 38.9824C20.8358 38.9076 21.0476 38.8702 21.2761 38.8702C21.5544 38.8702 21.7995 38.9221 22.0114 39.026C22.2233 39.1257 22.3873 39.2669 22.5037 39.4497C22.6241 39.6283 22.6844 39.8381 22.6844 40.0791V42.3347H21.9117V41.7552L22.0862 41.7428C21.9989 41.8882 21.8951 42.0107 21.7746 42.1104C21.6541 42.2059 21.5171 42.2807 21.3634 42.3347C21.2097 42.3846 21.0393 42.4095 20.8524 42.4095ZM23.4388 42.3347V37.6178H24.2551V42.3347H23.4388ZM26.6164 42.4095C26.2674 42.4095 25.9621 42.3306 25.7004 42.1727C25.4387 42.0149 25.2352 41.8009 25.0898 41.5309C24.9444 41.2609 24.8717 40.9618 24.8717 40.6336C24.8717 40.293 24.9444 39.9918 25.0898 39.7301C25.2393 39.4643 25.4408 39.2545 25.6942 39.1008C25.9517 38.9471 26.2384 38.8702 26.5541 38.8702C26.8199 38.8702 27.0526 38.9138 27.252 39.0011C27.4555 39.0883 27.6279 39.2088 27.7691 39.3625C27.9104 39.5162 28.0184 39.6927 28.0932 39.8921C28.1679 40.0874 28.2053 40.2992 28.2053 40.5277C28.2053 40.5859 28.2012 40.6461 28.1929 40.7084C28.1887 40.7707 28.1783 40.8247 28.1617 40.8704H25.5446V40.2473H27.7006L27.3143 40.5402C27.3517 40.3491 27.3413 40.1788 27.2831 40.0292C27.2291 39.8797 27.1377 39.7613 27.0089 39.674C26.8843 39.5868 26.7327 39.5432 26.5541 39.5432C26.3838 39.5432 26.2321 39.5868 26.0992 39.674C25.9663 39.7571 25.8645 39.8817 25.7939 40.0479C25.7274 40.2099 25.7025 40.4072 25.7191 40.6399C25.7025 40.8476 25.7295 41.0324 25.8001 41.1944C25.8749 41.3523 25.9829 41.4748 26.1241 41.5621C26.2695 41.6493 26.4357 41.6929 26.6226 41.6929C26.8096 41.6929 26.9674 41.6535 27.0962 41.5745C27.2291 41.4956 27.333 41.3897 27.4077 41.2567L28.0682 41.5808C28.0018 41.7428 27.8979 41.8861 27.7567 42.0107C27.6154 42.1353 27.4472 42.2329 27.252 42.3036C27.0609 42.3742 26.849 42.4095 26.6164 42.4095ZM28.8241 42.3347V38.945H29.5905V39.699L29.5282 39.5868C29.6071 39.3334 29.7297 39.1569 29.8959 39.0572C30.0662 38.9575 30.2697 38.9076 30.5065 38.9076H30.7059V39.6304H30.413C30.1804 39.6304 29.9935 39.7031 29.8522 39.8485C29.711 39.9897 29.6404 40.1891 29.6404 40.4467V42.3347H28.8241ZM31.1547 42.3347V38.945H31.971V42.3347H31.1547ZM31.1547 38.5649V37.6925H31.971V38.5649H31.1547Z" fill="white"/>
</svg>
