<svg width="46" height="49" viewBox="0 0 46 49" fill="none" xmlns="http://www.w3.org/2000/svg">
<rect x="0.266846" y="0.458435" width="45.3199" height="48.2917" rx="9.65834" fill="white"/>
<path fill-rule="evenodd" clip-rule="evenodd" d="M15.9759 14.8022C15.6251 14.2286 15.4446 13.5226 15.4446 12.6645C15.4446 10.9726 16.717 9.45789 18.6512 9.45789C20.588 9.45789 22.1499 10.7551 22.9267 12.7862C23.7035 10.7551 25.2654 9.45789 27.2022 9.45789C29.1365 9.45789 30.4088 10.9726 30.4088 12.6645C30.4088 13.5226 30.2283 14.2286 29.8775 14.8022H31.4777C32.6583 14.8022 33.6154 15.7593 33.6154 16.94V19.0777C33.6154 20.2583 32.6583 21.2154 31.4777 21.2154V28.6975C31.4777 29.8782 30.5206 30.8353 29.3399 30.8353H16.5135C15.3329 30.8353 14.3758 29.8782 14.3758 28.6975V21.2154C13.1951 21.2154 12.238 20.2583 12.238 19.0777V16.94C12.238 15.7593 13.1951 14.8022 14.3758 14.8022H15.9759ZM21.8579 16.94H14.3758V19.0777H21.8579V16.94ZM23.9956 19.0777H31.4777V16.94H23.9956V19.0777ZM21.8579 28.6975V21.2154H16.5135V28.6975H21.8579ZM23.9956 28.6975H29.3399V21.2154H23.9956V28.6975ZM18.6512 11.5956C17.9882 11.5956 17.5824 12.0787 17.5824 12.6645C17.5824 14.004 18.6694 14.641 21.248 14.775C20.9614 12.7838 19.8935 11.5956 18.6512 11.5956ZM27.1268 11.5956C25.8845 11.5956 24.8166 12.7838 24.53 14.775C27.1086 14.641 28.1956 14.004 28.1956 12.6645C28.1956 12.0787 27.7898 11.5956 27.1268 11.5956Z" fill="#8F907E"/>
<path d="M12.7508 42.3347V37.6925H13.5983V39.7177H15.5735V37.6925H16.4272V42.3347H15.5735V40.4654H13.5983V42.3347H12.7508ZM18.2803 42.4095C18.0436 42.4095 17.8379 42.37 17.6635 42.2911C17.489 42.2122 17.354 42.1 17.2584 41.9546C17.1629 41.8051 17.1151 41.6327 17.1151 41.4374C17.1151 41.2505 17.1567 41.0843 17.2397 40.939C17.3228 40.7894 17.4516 40.6648 17.6261 40.5651C17.8005 40.4654 18.0207 40.3948 18.2866 40.3532L19.3957 40.1725V40.7956L18.4423 40.9576C18.2803 40.9867 18.1599 41.0387 18.0809 41.1134C18.002 41.1882 17.9625 41.2858 17.9625 41.4063C17.9625 41.5226 18.0062 41.6161 18.0934 41.6867C18.1848 41.7532 18.297 41.7864 18.4299 41.7864C18.6002 41.7864 18.7497 41.7511 18.8785 41.6805C19.0115 41.6057 19.1132 41.5039 19.1838 41.3751C19.2586 41.2464 19.296 41.1051 19.296 40.9514V40.0791C19.296 39.9337 19.2379 39.8132 19.1215 39.7177C19.0094 39.618 18.8598 39.5681 18.6729 39.5681C18.4984 39.5681 18.3426 39.6159 18.2056 39.7114C18.0726 39.8028 17.975 39.9254 17.9127 40.0791L17.246 39.755C17.3124 39.5764 17.4163 39.4227 17.5575 39.2939C17.7029 39.161 17.8732 39.0572 18.0685 38.9824C18.2637 38.9076 18.4756 38.8702 18.7041 38.8702C18.9824 38.8702 19.2275 38.9221 19.4393 39.026C19.6512 39.1257 19.8153 39.2669 19.9316 39.4497C20.0521 39.6283 20.1123 39.8381 20.1123 40.0791V42.3347H19.3396V41.7552L19.5141 41.7428C19.4269 41.8882 19.323 42.0107 19.2025 42.1104C19.0821 42.2059 18.945 42.2807 18.7913 42.3347C18.6376 42.3846 18.4673 42.4095 18.2803 42.4095ZM22.4432 42.4095C22.115 42.4095 21.8222 42.3326 21.5646 42.1789C21.3071 42.0211 21.1035 41.8072 20.954 41.5371C20.8044 41.2671 20.7297 40.968 20.7297 40.6399C20.7297 40.3075 20.8044 40.0084 20.954 39.7426C21.1035 39.4767 21.3071 39.2649 21.5646 39.107C21.8263 38.9491 22.1171 38.8702 22.437 38.8702C22.6945 38.8702 22.923 38.9221 23.1224 39.026C23.326 39.1257 23.4859 39.2669 23.6022 39.4497L23.4776 39.618V37.6178H24.2939V42.3347H23.5212V41.6805L23.6084 41.8425C23.4921 42.0252 23.3301 42.1665 23.1224 42.2662C22.9147 42.3617 22.6883 42.4095 22.4432 42.4095ZM22.5304 41.6618C22.7174 41.6618 22.8815 41.6181 23.0227 41.5309C23.1639 41.4437 23.274 41.3232 23.353 41.1695C23.436 41.0158 23.4776 40.8393 23.4776 40.6399C23.4776 40.4446 23.436 40.2701 23.353 40.1164C23.274 39.9586 23.1639 39.836 23.0227 39.7488C22.8815 39.6616 22.7174 39.618 22.5304 39.618C22.3477 39.618 22.1836 39.6636 22.0382 39.755C21.8928 39.8423 21.7786 39.9627 21.6955 40.1164C21.6166 40.266 21.5771 40.4405 21.5771 40.6399C21.5771 40.8393 21.6166 41.0158 21.6955 41.1695C21.7786 41.3232 21.8928 41.4437 22.0382 41.5309C22.1836 41.6181 22.3477 41.6618 22.5304 41.6618ZM25.0533 42.3347V38.945H25.8696V42.3347H25.0533ZM25.0533 38.5649V37.6925H25.8696V38.5649H25.0533ZM27.6514 42.4095C27.4146 42.4095 27.209 42.37 27.0345 42.2911C26.86 42.2122 26.725 42.1 26.6295 41.9546C26.5339 41.8051 26.4861 41.6327 26.4861 41.4374C26.4861 41.2505 26.5277 41.0843 26.6108 40.939C26.6938 40.7894 26.8226 40.6648 26.9971 40.5651C27.1716 40.4654 27.3917 40.3948 27.6576 40.3532L28.7667 40.1725V40.7956L27.8134 40.9576C27.6514 40.9867 27.5309 41.0387 27.452 41.1134C27.373 41.1882 27.3336 41.2858 27.3336 41.4063C27.3336 41.5226 27.3772 41.6161 27.4644 41.6867C27.5558 41.7532 27.668 41.7864 27.8009 41.7864C27.9712 41.7864 28.1208 41.7511 28.2495 41.6805C28.3825 41.6057 28.4843 41.5039 28.5549 41.3751C28.6296 41.2464 28.667 41.1051 28.667 40.9514V40.0791C28.667 39.9337 28.6089 39.8132 28.4926 39.7177C28.3804 39.618 28.2309 39.5681 28.0439 39.5681C27.8694 39.5681 27.7137 39.6159 27.5766 39.7114C27.4437 39.8028 27.346 39.9254 27.2837 40.0791L26.617 39.755C26.6835 39.5764 26.7873 39.4227 26.9286 39.2939C27.0739 39.161 27.2443 39.0572 27.4395 38.9824C27.6347 38.9076 27.8466 38.8702 28.0751 38.8702C28.3534 38.8702 28.5985 38.9221 28.8103 39.026C29.0222 39.1257 29.1863 39.2669 29.3026 39.4497C29.4231 39.6283 29.4833 39.8381 29.4833 40.0791V42.3347H28.7107V41.7552L28.8851 41.7428C28.7979 41.8882 28.694 42.0107 28.5736 42.1104C28.4531 42.2059 28.316 42.2807 28.1623 42.3347C28.0086 42.3846 27.8383 42.4095 27.6514 42.4095ZM30.2378 42.3347V37.6178H31.054V39.6117L30.9419 39.4933C31.0208 39.2898 31.1496 39.1361 31.3282 39.0322C31.511 38.9242 31.7228 38.8702 31.9638 38.8702C32.213 38.8702 32.4332 38.9242 32.6243 39.0322C32.8195 39.1402 32.9712 39.2919 33.0792 39.4871C33.1872 39.6782 33.2412 39.9004 33.2412 40.1538V42.3347H32.4249V40.347C32.4249 40.1974 32.3958 40.0687 32.3377 39.9607C32.2795 39.8527 32.1985 39.7696 32.0946 39.7114C31.9949 39.6491 31.8765 39.618 31.7395 39.618C31.6065 39.618 31.4881 39.6491 31.3843 39.7114C31.2804 39.7696 31.1994 39.8527 31.1413 39.9607C31.0831 40.0687 31.054 40.1974 31.054 40.347V42.3347H30.2378Z" fill="#8F907E"/>
</svg>
