<svg width="46" height="50" viewBox="0 0 46 50" fill="none" xmlns="http://www.w3.org/2000/svg">
<rect x="0.266846" y="0.750122" width="45.3199" height="48.2917" rx="9.65834" fill="#8F907E"/>
<path fill-rule="evenodd" clip-rule="evenodd" d="M15.4446 12.9562C15.4446 13.8144 15.6251 14.5203 15.9759 15.0939H14.3758C13.1951 15.0939 12.238 16.051 12.238 17.2317V19.2376C12.238 19.6009 12.5288 19.8954 12.892 19.8954C14.9518 19.8954 21.2084 19.8954 21.8774 19.8954V16.5991H23.9762V19.8954H32.9576C33.3209 19.8954 33.6154 19.6009 33.6154 19.2376V17.2317C33.6154 16.051 32.6583 15.0939 31.4777 15.0939H29.8776C30.2283 14.5203 30.4088 13.8144 30.4088 12.9562C30.4088 11.2642 29.1365 9.74958 27.2022 9.74958C25.2654 9.74958 23.7035 11.0468 22.9267 13.0778C22.15 11.0468 20.5881 9.74958 18.6512 9.74958C16.717 9.74958 15.4446 11.2642 15.4446 12.9562ZM18.689 11.8873C18.0259 11.8873 17.6201 12.3704 17.6201 12.9562C17.6201 14.2957 18.7071 14.9326 21.2857 15.0666C20.9992 13.0755 19.9311 11.8873 18.689 11.8873ZM27.1645 11.8873C25.9223 11.8873 24.8544 13.0755 24.5678 15.0666C27.1463 14.9326 28.2333 14.2957 28.2333 12.9562C28.2333 12.3704 27.8275 11.8873 27.1645 11.8873Z" fill="white"/>
<path d="M14.3758 22.6519C14.3758 22.2886 14.6703 21.9941 15.0335 21.9941H21.8774V31.127H16.5135C15.3329 31.127 14.3758 30.1699 14.3758 28.9892V22.6519Z" fill="white"/>
<path d="M29.3399 31.127H23.9762V21.9941H30.8199C31.1832 21.9941 31.4777 22.2886 31.4777 22.6519V28.9892C31.4777 30.1699 30.5206 31.127 29.3399 31.127Z" fill="white"/>
<path d="M12.7508 42.6264V37.9842H13.5983V40.0093H15.5735V37.9842H16.4272V42.6264H15.5735V40.7571H13.5983V42.6264H12.7508ZM18.2803 42.7012C18.0436 42.7012 17.8379 42.6617 17.6635 42.5828C17.489 42.5039 17.354 42.3917 17.2584 42.2463C17.1629 42.0968 17.1151 41.9244 17.1151 41.7291C17.1151 41.5422 17.1567 41.376 17.2397 41.2306C17.3228 41.0811 17.4516 40.9565 17.6261 40.8568C17.8005 40.7571 18.0207 40.6865 18.2866 40.6449L19.3957 40.4642V41.0873L18.4423 41.2493C18.2803 41.2784 18.1599 41.3303 18.0809 41.4051C18.002 41.4799 17.9625 41.5775 17.9625 41.698C17.9625 41.8143 18.0062 41.9078 18.0934 41.9784C18.1848 42.0448 18.297 42.0781 18.4299 42.0781C18.6002 42.0781 18.7497 42.0428 18.8785 41.9721C19.0115 41.8974 19.1132 41.7956 19.1838 41.6668C19.2586 41.538 19.296 41.3968 19.296 41.2431V40.3707C19.296 40.2254 19.2379 40.1049 19.1215 40.0093C19.0094 39.9096 18.8598 39.8598 18.6729 39.8598C18.4984 39.8598 18.3426 39.9076 18.2056 40.0031C18.0726 40.0945 17.975 40.217 17.9127 40.3707L17.246 40.0467C17.3124 39.8681 17.4163 39.7144 17.5575 39.5856C17.7029 39.4527 17.8732 39.3488 18.0685 39.2741C18.2637 39.1993 18.4756 39.1619 18.7041 39.1619C18.9824 39.1619 19.2275 39.2138 19.4393 39.3177C19.6512 39.4174 19.8153 39.5586 19.9316 39.7414C20.0521 39.92 20.1123 40.1298 20.1123 40.3707V42.6264H19.3396V42.0469L19.5141 42.0345C19.4269 42.1799 19.323 42.3024 19.2025 42.4021C19.0821 42.4976 18.945 42.5724 18.7913 42.6264C18.6376 42.6763 18.4673 42.7012 18.2803 42.7012ZM22.4432 42.7012C22.115 42.7012 21.8222 42.6243 21.5646 42.4706C21.3071 42.3128 21.1035 42.0988 20.954 41.8288C20.8044 41.5588 20.7297 41.2597 20.7297 40.9315C20.7297 40.5992 20.8044 40.3001 20.954 40.0343C21.1035 39.7684 21.3071 39.5565 21.5646 39.3987C21.8263 39.2408 22.1171 39.1619 22.437 39.1619C22.6945 39.1619 22.923 39.2138 23.1224 39.3177C23.326 39.4174 23.4859 39.5586 23.6022 39.7414L23.4776 39.9096V37.9095H24.2939V42.6264H23.5212V41.9721L23.6084 42.1342C23.4921 42.3169 23.3301 42.4582 23.1224 42.5579C22.9147 42.6534 22.6883 42.7012 22.4432 42.7012ZM22.5304 41.9535C22.7174 41.9535 22.8815 41.9098 23.0227 41.8226C23.1639 41.7354 23.274 41.6149 23.353 41.4612C23.436 41.3075 23.4776 41.1309 23.4776 40.9315C23.4776 40.7363 23.436 40.5618 23.353 40.4081C23.274 40.2503 23.1639 40.1277 23.0227 40.0405C22.8815 39.9533 22.7174 39.9096 22.5304 39.9096C22.3477 39.9096 22.1836 39.9553 22.0382 40.0467C21.8928 40.134 21.7786 40.2544 21.6955 40.4081C21.6166 40.5577 21.5771 40.7322 21.5771 40.9315C21.5771 41.1309 21.6166 41.3075 21.6955 41.4612C21.7786 41.6149 21.8928 41.7354 22.0382 41.8226C22.1836 41.9098 22.3477 41.9535 22.5304 41.9535ZM25.0533 42.6264V39.2367H25.8696V42.6264H25.0533ZM25.0533 38.8566V37.9842H25.8696V38.8566H25.0533ZM27.6514 42.7012C27.4146 42.7012 27.209 42.6617 27.0345 42.5828C26.86 42.5039 26.725 42.3917 26.6295 42.2463C26.5339 42.0968 26.4861 41.9244 26.4861 41.7291C26.4861 41.5422 26.5277 41.376 26.6108 41.2306C26.6938 41.0811 26.8226 40.9565 26.9971 40.8568C27.1716 40.7571 27.3917 40.6865 27.6576 40.6449L28.7667 40.4642V41.0873L27.8134 41.2493C27.6514 41.2784 27.5309 41.3303 27.452 41.4051C27.373 41.4799 27.3336 41.5775 27.3336 41.698C27.3336 41.8143 27.3772 41.9078 27.4644 41.9784C27.5558 42.0448 27.668 42.0781 27.8009 42.0781C27.9712 42.0781 28.1208 42.0428 28.2495 41.9721C28.3825 41.8974 28.4843 41.7956 28.5549 41.6668C28.6296 41.538 28.667 41.3968 28.667 41.2431V40.3707C28.667 40.2254 28.6089 40.1049 28.4926 40.0093C28.3804 39.9096 28.2309 39.8598 28.0439 39.8598C27.8694 39.8598 27.7137 39.9076 27.5766 40.0031C27.4437 40.0945 27.346 40.217 27.2837 40.3707L26.617 40.0467C26.6835 39.8681 26.7873 39.7144 26.9286 39.5856C27.0739 39.4527 27.2443 39.3488 27.4395 39.2741C27.6347 39.1993 27.8466 39.1619 28.0751 39.1619C28.3534 39.1619 28.5985 39.2138 28.8103 39.3177C29.0222 39.4174 29.1863 39.5586 29.3026 39.7414C29.4231 39.92 29.4833 40.1298 29.4833 40.3707V42.6264H28.7107V42.0469L28.8851 42.0345C28.7979 42.1799 28.694 42.3024 28.5736 42.4021C28.4531 42.4976 28.316 42.5724 28.1623 42.6264C28.0086 42.6763 27.8383 42.7012 27.6514 42.7012ZM30.2378 42.6264V37.9095H31.054V39.9034L30.9419 39.785C31.0208 39.5815 31.1496 39.4278 31.3282 39.3239C31.511 39.2159 31.7228 39.1619 31.9638 39.1619C32.213 39.1619 32.4332 39.2159 32.6243 39.3239C32.8195 39.4319 32.9712 39.5835 33.0792 39.7788C33.1872 39.9699 33.2412 40.1921 33.2412 40.4455V42.6264H32.4249V40.6387C32.4249 40.4891 32.3958 40.3604 32.3377 40.2524C32.2795 40.1444 32.1985 40.0613 32.0946 40.0031C31.9949 39.9408 31.8765 39.9096 31.7395 39.9096C31.6065 39.9096 31.4881 39.9408 31.3843 40.0031C31.2804 40.0613 31.1994 40.1444 31.1413 40.2524C31.0831 40.3604 31.054 40.4891 31.054 40.6387V42.6264H30.2378Z" fill="white"/>
</svg>
