<svg width="32" height="33" viewBox="0 0 32 33" fill="none" xmlns="http://www.w3.org/2000/svg">
<path fill-rule="evenodd" clip-rule="evenodd" d="M22.5205 28.3828C22.0688 30.9533 19.8216 32.9067 17.1217 32.9067H6.14358C3.1141 32.9067 0.654541 30.4472 0.654541 27.4177V6.39579C0.654541 3.3663 3.1141 0.906738 6.14358 0.906738H17.1217C19.8216 0.906738 22.0688 2.86014 22.5205 5.43065L11.7651 15.4065C11.3474 15.7937 11.1103 16.3373 11.1103 16.9067C11.1103 17.4762 11.3474 18.0197 11.7651 18.407L22.5205 28.3828Z" fill="url(#paint0_linear_1142_758)"/>
<path d="M11.6328 29.3306C12.453 29.3306 13.118 28.6657 13.118 27.8455C13.118 27.0253 12.453 26.3604 11.6328 26.3604C10.8126 26.3604 10.1477 27.0253 10.1477 27.8455C10.1477 28.6657 10.8126 29.3306 11.6328 29.3306Z" fill="white"/>
<path fill-rule="evenodd" clip-rule="evenodd" d="M22.5208 5.43051L22.6109 5.34699C22.6109 5.34699 24.2334 4.63841 25.0235 4.53005C25.2963 4.50187 25.5648 4.48624 25.8283 4.48291C26.3701 4.48931 26.9028 4.53799 27.4234 4.62612C28.6933 4.8846 29.7785 5.49045 30.5737 6.44394C32.7557 9.05949 32.7557 14.2908 26.9638 16.9066C32.7557 19.5224 32.7557 24.7538 30.5737 27.3693C29.779 28.3223 28.6945 28.9282 27.4255 29.1866C26.9025 29.2753 26.3684 29.3242 25.8253 29.3304C25.5632 29.327 25.2963 29.3114 25.0254 29.2835C24.2348 29.1754 22.6109 28.4663 22.6109 28.4663L22.5208 28.3828C22.5816 28.07 22.6109 27.7472 22.6109 27.4175V6.39577C22.6109 6.06607 22.5816 5.7433 22.5208 5.43051Z" fill="url(#paint1_linear_1142_758)"/>
<path fill-rule="evenodd" clip-rule="evenodd" d="M22.5208 5.43066C22.5816 5.74345 22.6108 6.06622 22.6108 6.39592V27.4177C22.6108 27.7474 22.5816 28.0701 22.5208 28.3829L11.765 18.407C11.3477 18.0199 11.1105 17.4763 11.1105 16.9068C11.1105 16.3373 11.3477 15.7937 11.765 15.4066L22.5208 5.43066Z" fill="white"/>
<defs>
<linearGradient id="paint0_linear_1142_758" x1="14.0002" y1="25.7434" x2="14.0002" y2="-6.72374" gradientUnits="userSpaceOnUse">
<stop stop-color="#E3447A"/>
<stop offset="1" stop-color="#F2A8AC"/>
</linearGradient>
<linearGradient id="paint1_linear_1142_758" x1="35.7229" y1="19.9039" x2="3.48931" y2="19.9039" gradientUnits="userSpaceOnUse">
<stop stop-color="#F2A8AC"/>
<stop offset="1" stop-color="#FE1724"/>
</linearGradient>
</defs>
</svg>
