<svg width="674" height="138" viewBox="0 0 674 138" fill="none" xmlns="http://www.w3.org/2000/svg">
<path fill-rule="evenodd" clip-rule="evenodd" d="M93.8594 118.348C91.9254 129.353 82.3044 137.716 70.7454 137.716H23.7455C10.7755 137.716 0.245483 127.186 0.245483 114.216V24.2158C0.245483 11.2458 10.7755 0.71582 23.7455 0.71582H70.7454C82.3044 0.71582 91.9254 9.07884 93.8594 20.0839L47.8125 62.7929C46.0245 64.4509 45.0094 66.7779 45.0094 69.2159C45.0094 71.6539 46.0245 73.9809 47.8125 75.6389L93.8594 118.348Z" fill="url(#paint0_linear_1129_743)"/>
<path d="M47.2461 122.406C50.7577 122.406 53.6043 119.559 53.6043 116.048C53.6043 112.536 50.7577 109.689 47.2461 109.689C43.7346 109.689 40.8879 112.536 40.8879 116.048C40.8879 119.559 43.7346 122.406 47.2461 122.406Z" fill="white"/>
<path fill-rule="evenodd" clip-rule="evenodd" d="M93.8603 20.0828L94.2459 19.7252C94.2459 19.7252 101.192 16.6916 104.575 16.2277C105.743 16.1071 106.893 16.0401 108.02 16.0259C110.34 16.0533 112.621 16.2617 114.85 16.639C120.287 17.7456 124.932 20.3394 128.337 24.4215C137.678 35.6194 137.678 58.0161 112.882 69.215C137.678 80.414 137.678 102.811 128.337 114.009C124.934 118.088 120.291 120.682 114.859 121.789C112.62 122.168 110.333 122.378 108.008 122.404C106.886 122.39 105.743 122.323 104.583 122.203C101.198 121.741 94.2459 118.705 94.2459 118.705L93.8603 118.347C94.1207 117.008 94.2459 115.626 94.2459 114.215V24.2153C94.2459 22.8038 94.1207 21.4219 93.8603 20.0828Z" fill="url(#paint1_linear_1129_743)"/>
<path fill-rule="evenodd" clip-rule="evenodd" d="M93.8603 20.083C94.1206 21.4221 94.2458 22.804 94.2458 24.2155V114.215C94.2458 115.627 94.1206 117.008 93.8603 118.347L47.8122 75.6378C46.0254 73.9806 45.0098 71.6533 45.0098 69.2152C45.0098 66.7772 46.0254 64.4498 47.8122 62.7926L93.8603 20.083Z" fill="white"/>
<path d="M379.466 62.839L379.461 60.789C379.568 59.569 379.994 58.6989 380.74 58.1989C381.486 57.6889 382.631 57.4389 384.176 57.4389C385.615 57.4389 386.653 57.639 387.293 58.039C387.932 58.439 388.332 58.9989 388.491 59.7089C388.651 60.4289 388.731 61.2189 388.731 62.0689V94.439C388.731 97.369 388.225 99.979 387.213 102.269C386.201 104.559 384.815 106.489 383.057 108.059C381.299 109.629 379.288 110.829 377.024 111.659C374.759 112.489 372.349 112.899 369.791 112.899C367.873 112.899 366.035 112.669 364.277 112.219C362.519 111.769 360.934 111.169 359.522 110.419C358.11 109.669 356.992 108.879 356.166 108.019C355.34 107.169 354.927 106.369 354.927 105.619C354.927 104.879 355.047 104.239 355.287 103.709C355.527 103.169 355.886 102.639 356.366 102.109C357.005 101.469 357.524 100.989 357.924 100.669C358.324 100.349 358.87 100.189 359.562 100.189C360.148 100.189 360.721 100.399 361.28 100.829C361.84 101.259 362.492 101.739 363.238 102.269C363.984 102.799 364.89 103.279 365.955 103.709C367.021 104.129 368.38 104.349 370.031 104.349C371.416 104.349 372.695 104.109 373.867 103.629C375.039 103.149 376.038 102.439 376.864 101.509C377.69 100.579 378.342 99.469 378.822 98.189C379.301 96.909 379.541 95.479 379.541 93.879L379.534 90.779C378.754 91.869 377.851 92.7991 376.824 93.5591C374.746 95.0991 372.109 95.879 368.912 95.879C366.408 95.879 364.077 95.399 361.92 94.439C359.762 93.479 357.871 92.119 356.246 90.359C354.621 88.599 353.342 86.569 352.41 84.249C351.478 81.929 351.011 79.409 351.011 76.699C351.011 74.0289 351.478 71.559 352.41 69.259C353.342 66.969 354.621 64.9489 356.246 63.1889C357.871 61.4289 359.762 60.0589 361.92 59.0789C364.077 58.0889 366.382 57.599 368.832 57.599C371.23 57.599 373.321 58.059 375.106 58.999C376.853 59.909 378.306 61.1889 379.466 62.839ZM595.545 97.389C592.934 97.389 590.444 96.889 588.073 95.879C585.702 94.859 583.584 93.4591 581.72 91.6791C579.855 89.8991 578.39 87.799 577.324 85.409C576.259 83.009 575.726 80.399 575.726 77.579C575.726 74.809 576.232 72.229 577.244 69.859C578.257 67.489 579.669 65.399 581.48 63.589C583.291 61.779 585.382 60.3489 587.753 59.3189C590.124 58.2789 592.668 57.759 595.385 57.759C599.061 57.759 602.378 58.619 605.335 60.349C608.291 62.089 610.649 64.439 612.407 67.429C614.165 70.409 615.044 73.769 615.044 77.499C615.044 80.429 614.512 83.099 613.446 85.529C612.38 87.949 610.942 90.0391 609.131 91.7991C607.319 93.5591 605.241 94.9291 602.897 95.9191C600.553 96.8991 598.102 97.389 595.545 97.389ZM517.47 96.9091C516.458 96.9091 515.712 96.7591 515.233 96.4291C514.753 96.1191 514.433 95.6891 514.274 95.1591C514.114 94.6191 514.034 93.989 514.034 93.239V61.589C514.034 60.8489 514.114 60.229 514.274 59.749C514.433 59.279 514.766 58.899 515.272 58.629C515.779 58.369 516.538 58.239 517.55 58.239C518.722 58.239 519.561 58.459 520.067 58.909C520.574 59.369 520.827 60.149 520.827 61.269L520.507 64.709C520.88 63.9089 521.439 63.109 522.185 62.309C522.931 61.509 523.823 60.789 524.862 60.149C525.901 59.519 527.007 59.009 528.179 58.629C529.351 58.259 530.55 58.0789 531.775 58.0789C533.64 58.0789 535.305 58.4089 536.77 59.0789C538.235 59.7389 539.553 60.689 540.725 61.909C541.898 63.139 542.883 64.659 543.682 66.469C544.748 64.709 545.88 63.1989 547.079 61.9489C548.277 60.6989 549.649 59.7389 551.194 59.0789C552.739 58.4089 554.471 58.0789 556.389 58.0789C559.426 58.0789 561.969 58.839 564.021 60.349C566.072 61.869 567.617 63.999 568.656 66.749C569.695 69.489 570.214 72.779 570.214 76.619V93.319C570.214 94.059 570.147 94.699 570.014 95.239C569.881 95.769 569.561 96.179 569.055 96.469C568.549 96.769 567.763 96.9091 566.698 96.9091C565.686 96.9091 564.926 96.7591 564.42 96.4291C563.914 96.1191 563.581 95.6891 563.421 95.1591C563.261 94.6191 563.182 93.989 563.182 93.239V76.539C563.182 74.139 562.902 72.069 562.342 70.339C561.783 68.609 560.931 67.2691 559.785 66.309C558.64 65.349 557.161 64.869 555.35 64.869C553.432 64.869 551.74 65.339 550.275 66.269C548.81 67.199 547.678 68.549 546.879 70.299C546.08 72.059 545.68 74.139 545.68 76.539V93.399C545.68 94.199 545.52 94.889 545.201 95.479C544.881 96.059 544.402 96.469 543.762 96.709C543.123 96.949 542.35 96.999 541.445 96.839C540.592 96.729 539.953 96.519 539.527 96.199C539.1 95.879 538.834 95.459 538.728 94.959C538.621 94.449 538.568 93.879 538.568 93.239V76.539C538.568 74.139 538.288 72.069 537.729 70.339C537.169 68.609 536.317 67.2691 535.171 66.309C534.026 65.349 532.547 64.869 530.736 64.869C528.818 64.869 527.127 65.359 525.661 66.349C524.196 67.329 523.064 68.699 522.265 70.459C521.466 72.219 521.066 74.249 521.066 76.539V93.319C521.066 94.059 520.986 94.699 520.827 95.239C520.667 95.769 520.334 96.179 519.828 96.469C519.322 96.769 518.536 96.9091 517.47 96.9091ZM401.118 96.9091C400.106 96.9091 399.333 96.769 398.801 96.469C398.268 96.179 397.935 95.759 397.802 95.199C397.668 94.639 397.602 93.989 397.602 93.239V44.009C397.602 43.259 397.682 42.629 397.842 42.089C398.001 41.559 398.348 41.1489 398.88 40.8489C399.413 40.5589 400.186 40.4189 401.198 40.4189C402.264 40.4189 403.049 40.5589 403.555 40.8489C404.062 41.1489 404.381 41.559 404.514 42.089C404.648 42.629 404.714 43.289 404.714 44.089V63.8289C405.993 62.3389 407.551 61.0089 409.389 59.8289C411.227 58.6589 413.478 58.0789 416.142 58.0789C419.285 58.0789 422.096 58.809 424.573 60.269C427.051 61.739 429.022 63.799 430.487 66.469C431.952 69.129 432.685 72.299 432.685 75.979V93.319C432.685 94.059 432.605 94.699 432.445 95.239C432.285 95.769 431.965 96.179 431.486 96.469C431.006 96.769 430.234 96.9091 429.168 96.9091C428.156 96.9091 427.383 96.769 426.851 96.469C426.318 96.179 425.972 95.759 425.812 95.199C425.652 94.639 425.572 93.989 425.572 93.239V75.899C425.572 73.659 425.199 71.7091 424.453 70.0591C423.707 68.4091 422.602 67.129 421.137 66.229C419.672 65.319 417.82 64.869 415.583 64.869C412.546 64.869 410.055 65.739 408.111 67.469C406.166 69.199 405.034 71.499 404.714 74.379V93.319C404.714 94.059 404.634 94.699 404.475 95.239C404.315 95.769 403.982 96.179 403.476 96.469C402.969 96.769 402.184 96.9091 401.118 96.9091ZM472.642 96.839C471.47 96.839 470.631 96.599 470.125 96.119C469.619 95.639 469.312 94.889 469.206 93.879L469.525 89.879C468.993 90.739 468.167 91.7091 467.048 92.7991C465.929 93.8891 464.464 94.8491 462.653 95.6791C460.841 96.4991 458.63 96.9091 456.02 96.9091C453.462 96.9091 451.078 96.409 448.867 95.399C446.656 94.379 444.712 92.9691 443.034 91.159C441.355 89.349 440.05 87.2691 439.118 84.9291C438.185 82.5791 437.719 80.079 437.719 77.409C437.719 74.809 438.185 72.339 439.118 70.019C440.05 67.709 441.369 65.669 443.073 63.909C444.778 62.149 446.736 60.769 448.947 59.749C451.158 58.739 453.516 58.239 456.02 58.239C458.364 58.239 460.362 58.539 462.013 59.149C463.665 59.769 465.09 60.569 466.289 61.549C467.488 62.539 468.54 63.639 469.445 64.869L469.286 61.509C469.232 60.339 469.485 59.499 470.045 58.999C470.604 58.489 471.497 58.239 472.722 58.239C473.734 58.239 474.467 58.3989 474.92 58.7089C475.372 59.0389 475.679 59.4889 475.839 60.0689C475.998 60.6589 476.078 61.379 476.078 62.229V93.079C476.078 93.829 475.998 94.489 475.839 95.079C475.679 95.659 475.359 96.099 474.88 96.389C474.4 96.689 473.654 96.839 472.642 96.839ZM190.27 96.9091C188.725 96.9091 187.606 96.689 186.913 96.239C186.221 95.779 185.781 95.179 185.595 94.439C185.408 93.689 185.315 92.8891 185.315 92.0391V45.929C185.315 45.019 185.408 44.199 185.595 43.449C185.781 42.709 186.207 42.119 186.873 41.689C187.539 41.269 188.645 41.049 190.19 41.049C191.681 41.049 192.76 41.269 193.426 41.689C194.092 42.119 194.518 42.709 194.705 43.449C194.891 44.199 194.985 45.019 194.985 45.929V88.279H212.359C213.158 88.279 213.877 88.349 214.516 88.479C215.156 88.619 215.662 88.989 216.035 89.599C216.408 90.209 216.594 91.189 216.594 92.519C216.594 93.849 216.408 94.819 216.035 95.439C215.662 96.049 215.156 96.449 214.516 96.629C213.877 96.819 213.158 96.9091 212.359 96.9091H190.27ZM667.225 96.9091C666.212 96.9091 665.453 96.769 664.947 96.469C664.441 96.179 664.108 95.769 663.948 95.239C663.788 94.699 663.708 94.059 663.708 93.319V61.749C663.708 61.009 663.788 60.3689 663.948 59.8289C664.108 59.2989 664.441 58.899 664.947 58.629C665.453 58.369 666.239 58.239 667.304 58.239C668.317 58.239 669.063 58.379 669.542 58.669C670.022 58.969 670.341 59.379 670.501 59.909C670.661 60.449 670.741 61.109 670.741 61.909V93.399C670.741 94.139 670.661 94.779 670.501 95.319C670.341 95.849 670.008 96.249 669.502 96.519C668.996 96.779 668.237 96.9091 667.225 96.9091ZM488.105 96.9091C487.092 96.9091 486.333 96.769 485.827 96.469C485.321 96.179 485.001 95.759 484.868 95.199C484.735 94.639 484.668 93.989 484.668 93.239V61.749C484.668 60.949 484.748 60.289 484.908 59.749C485.068 59.219 485.387 58.839 485.867 58.599C486.346 58.359 487.119 58.239 488.184 58.239C489.143 58.239 489.876 58.359 490.382 58.599C490.888 58.839 491.235 59.179 491.421 59.629C491.607 60.089 491.701 60.6089 491.701 61.1889L491.381 63.589C491.754 62.899 492.194 62.199 492.7 61.509C493.206 60.819 493.845 60.189 494.618 59.629C495.39 59.079 496.322 58.609 497.415 58.239C498.507 57.859 499.852 57.679 501.45 57.679C502.25 57.679 503.009 57.739 503.728 57.879C504.447 58.009 505.14 58.209 505.806 58.479C506.472 58.739 507.044 59.049 507.524 59.389C508.003 59.739 508.39 60.109 508.683 60.509C508.976 60.909 509.122 61.379 509.122 61.909C509.122 63.079 508.749 64.079 508.003 64.909C507.258 65.739 506.485 66.149 505.686 66.149C504.993 66.149 504.487 66.049 504.167 65.869C503.848 65.679 503.541 65.479 503.248 65.269C502.955 65.059 502.543 64.859 502.01 64.669C501.477 64.479 500.625 64.389 499.452 64.389C498.653 64.389 497.814 64.549 496.935 64.869C496.056 65.189 495.217 65.649 494.418 66.269C493.619 66.879 492.966 67.669 492.46 68.619C491.954 69.579 491.701 70.699 491.701 71.979V93.399C491.701 94.139 491.621 94.779 491.461 95.319C491.301 95.849 490.968 96.249 490.462 96.519C489.956 96.779 489.17 96.9091 488.105 96.9091ZM251.118 96.759C249.573 96.759 248.427 96.459 247.681 95.879C246.935 95.289 246.562 94.489 246.562 93.479L247.122 90.839C246.696 91.529 245.976 92.349 244.964 93.279C243.952 94.209 242.62 95.039 240.968 95.759C239.317 96.469 237.319 96.839 234.975 96.839C232.471 96.839 230.113 96.319 227.902 95.279C225.691 94.239 223.747 92.799 222.068 90.959C220.39 89.119 219.058 87.019 218.073 84.649C217.087 82.279 216.594 79.729 216.594 77.019C216.594 74.399 217.087 71.939 218.073 69.619C219.058 67.309 220.404 65.239 222.108 63.429C223.813 61.619 225.771 60.189 227.982 59.149C230.193 58.119 232.524 57.599 234.975 57.599C237.159 57.599 239.01 57.889 240.529 58.479C242.047 59.059 243.339 59.789 244.405 60.669C245.47 61.549 246.349 62.469 247.042 63.429L246.562 61.109C246.562 59.939 246.935 59.0489 247.681 58.4389C248.427 57.8189 249.599 57.519 251.197 57.519C252.689 57.519 253.755 57.7389 254.394 58.1989C255.033 58.6489 255.433 59.259 255.593 60.029C255.753 60.809 255.833 61.669 255.833 62.629V91.879C255.833 92.789 255.753 93.609 255.593 94.359C255.433 95.099 255.02 95.689 254.354 96.119C253.688 96.539 252.609 96.759 251.118 96.759ZM624.312 96.839C623.3 96.839 622.541 96.689 622.035 96.389C621.529 96.099 621.209 95.6891 621.076 95.1591C620.943 94.6191 620.876 93.989 620.876 93.239V61.509C620.876 60.819 620.956 60.229 621.116 59.749C621.276 59.279 621.609 58.899 622.115 58.629C622.621 58.369 623.38 58.239 624.392 58.239C625.191 58.239 625.817 58.329 626.27 58.519C626.723 58.699 627.043 58.949 627.229 59.279C627.416 59.589 627.536 59.939 627.589 60.309C627.642 60.689 627.669 61.029 627.669 61.349L627.509 65.029C628.042 64.119 628.708 63.259 629.507 62.429C630.306 61.609 631.238 60.8589 632.304 60.1889C633.369 59.5289 634.528 59.009 635.78 58.629C637.032 58.259 638.377 58.0789 639.816 58.0789C642.16 58.0789 644.318 58.4889 646.289 59.3189C648.26 60.1389 649.952 61.339 651.364 62.909C652.775 64.479 653.868 66.359 654.64 68.549C655.413 70.729 655.799 73.209 655.799 75.979V93.319C655.799 94.059 655.732 94.699 655.599 95.239C655.466 95.769 655.146 96.1691 654.64 96.4291C654.134 96.6991 653.375 96.839 652.362 96.839C651.297 96.839 650.511 96.689 650.005 96.389C649.499 96.099 649.166 95.6891 649.006 95.1591C648.846 94.6191 648.766 93.989 648.766 93.239V75.899C648.766 73.659 648.393 71.7091 647.648 70.0591C646.902 68.4091 645.783 67.1189 644.291 66.1889C642.799 65.2589 640.908 64.789 638.617 64.789C636.433 64.789 634.528 65.2589 632.903 66.1889C631.278 67.1189 630.026 68.4091 629.147 70.0591C628.268 71.7091 627.829 73.659 627.829 75.899V93.319C627.829 94.059 627.749 94.699 627.589 95.239C627.429 95.769 627.096 96.1691 626.59 96.4291C626.084 96.6991 625.325 96.839 624.312 96.839ZM280.127 96.839C277.676 96.839 275.425 96.389 273.374 95.519C271.323 94.639 269.525 93.369 267.98 91.719C266.435 90.069 265.236 88.0991 264.383 85.8091C263.531 83.5191 263.105 80.989 263.105 78.209V62.309C263.105 61.409 263.185 60.589 263.345 59.869C263.504 59.149 263.931 58.579 264.623 58.159C265.316 57.729 266.381 57.519 267.82 57.519C269.365 57.519 270.47 57.729 271.136 58.159C271.802 58.579 272.215 59.169 272.375 59.909C272.535 60.659 272.615 61.489 272.615 62.389V78.209C272.615 80.129 272.948 81.779 273.614 83.1691C274.28 84.5591 275.252 85.629 276.531 86.409C277.809 87.179 279.381 87.569 281.246 87.569C283.163 87.569 284.802 87.179 286.16 86.409C287.519 85.629 288.571 84.539 289.317 83.129C290.063 81.719 290.436 80.079 290.436 78.209V62.229C290.436 61.329 290.516 60.509 290.675 59.789C290.835 59.079 291.262 58.519 291.954 58.119C292.647 57.719 293.739 57.519 295.231 57.519C296.722 57.519 297.788 57.729 298.427 58.159C299.067 58.579 299.479 59.169 299.666 59.909C299.852 60.659 299.946 61.459 299.946 62.309V92.279C299.946 93.079 299.852 93.829 299.666 94.519C299.479 95.209 299.053 95.769 298.387 96.199C297.721 96.619 296.642 96.839 295.151 96.839C294.085 96.839 293.246 96.709 292.633 96.469C292.021 96.239 291.568 95.919 291.275 95.519C290.982 95.119 290.795 94.6991 290.715 94.279C290.636 93.849 290.596 93.419 290.596 92.999L291.235 90.839C290.915 91.319 290.436 91.8891 289.796 92.5591C289.157 93.2191 288.371 93.8891 287.439 94.5591C286.507 95.2191 285.428 95.769 284.202 96.199C282.977 96.619 281.618 96.839 280.127 96.839ZM312.572 96.839C311.134 96.839 310.082 96.6091 309.416 96.1591C308.75 95.6991 308.337 95.119 308.177 94.399C308.017 93.679 307.937 92.869 307.937 91.959V62.0689C307.937 61.2189 308.017 60.449 308.177 59.749C308.337 59.059 308.763 58.519 309.456 58.119C310.148 57.719 311.214 57.519 312.652 57.519C313.931 57.519 314.89 57.679 315.529 57.999C316.168 58.319 316.595 58.7089 316.808 59.1889C317.021 59.6689 317.141 60.149 317.167 60.629C317.194 61.109 317.234 61.489 317.287 61.749L316.968 64.309C317.287 63.459 317.82 62.6289 318.566 61.8289C319.312 61.0289 320.217 60.299 321.283 59.629C322.348 58.969 323.507 58.439 324.759 58.039C326.011 57.639 327.303 57.4389 328.635 57.4389C331.139 57.4389 333.377 57.889 335.348 58.799C337.319 59.699 339.011 60.979 340.423 62.629C341.834 64.279 342.913 66.239 343.659 68.509C344.405 70.769 344.778 73.309 344.778 76.139V92.0391C344.778 92.9491 344.685 93.759 344.498 94.479C344.312 95.199 343.899 95.769 343.26 96.199C342.62 96.619 341.528 96.839 339.983 96.839C338.491 96.839 337.399 96.6091 336.707 96.1591C336.014 95.6991 335.588 95.119 335.428 94.399C335.268 93.679 335.188 92.869 335.188 91.959V76.0591C335.188 74.1391 334.855 72.489 334.189 71.099C333.523 69.719 332.564 68.649 331.312 67.909C330.06 67.159 328.475 66.789 326.557 66.789C324.693 66.789 323.068 67.1689 321.683 67.9489C320.297 68.7189 319.232 69.799 318.486 71.179C317.74 72.569 317.367 74.1891 317.367 76.0591V92.0391C317.367 92.9491 317.287 93.759 317.127 94.479C316.968 95.199 316.555 95.769 315.889 96.199C315.223 96.619 314.117 96.839 312.572 96.839ZM595.385 90.439C597.623 90.439 599.701 89.879 601.619 88.759C603.537 87.639 605.082 86.099 606.254 84.129C607.426 82.159 608.012 79.919 608.012 77.409C608.012 74.909 607.466 72.699 606.374 70.779C605.281 68.869 603.776 67.369 601.858 66.309C599.94 65.239 597.756 64.709 595.305 64.709C592.961 64.709 590.843 65.269 588.952 66.389C587.061 67.509 585.542 69.0189 584.397 70.9389C583.251 72.8589 582.679 75.049 582.679 77.499C582.679 80.049 583.265 82.299 584.437 84.249C585.609 86.189 587.167 87.7091 589.112 88.7991C591.056 89.8991 593.148 90.439 595.385 90.439ZM457.218 90.199C459.35 90.199 461.307 89.639 463.092 88.519C464.877 87.399 466.289 85.899 467.328 84.009C468.367 82.119 468.886 79.949 468.886 77.499C468.886 74.989 468.34 72.789 467.248 70.899C466.156 69.009 464.717 67.519 462.932 66.429C461.148 65.339 459.19 64.789 457.059 64.789C454.555 64.789 452.384 65.359 450.546 66.509C448.707 67.649 447.256 69.179 446.19 71.099C445.125 73.019 444.592 75.199 444.592 77.649C444.592 80.049 445.125 82.199 446.19 84.089C447.256 85.979 448.734 87.4691 450.625 88.5591C452.517 89.6591 454.714 90.199 457.218 90.199ZM236.413 87.489C238.225 87.489 239.85 87.029 241.288 86.129C242.726 85.219 243.885 83.979 244.764 82.409C245.643 80.839 246.083 79.0891 246.083 77.1791C246.083 75.0991 245.63 73.289 244.724 71.739C243.819 70.199 242.633 68.979 241.168 68.109C239.703 67.229 238.065 66.789 236.253 66.789C234.282 66.789 232.524 67.249 230.979 68.179C229.434 69.119 228.222 70.3689 227.343 71.9389C226.464 73.5089 226.024 75.279 226.024 77.259C226.024 79.169 226.477 80.899 227.383 82.449C228.288 83.999 229.527 85.219 231.099 86.129C232.67 87.029 234.442 87.489 236.413 87.489ZM369.791 86.849C371.603 86.849 373.214 86.409 374.626 85.529C376.038 84.649 377.157 83.439 377.983 81.889C378.808 80.349 379.221 78.609 379.221 76.699C379.221 74.719 378.808 72.979 377.983 71.459C377.157 69.939 376.025 68.759 374.586 67.909C373.148 67.049 371.523 66.629 369.711 66.629C367.9 66.629 366.288 67.0689 364.877 67.9489C363.465 68.8289 362.359 70.009 361.56 71.499C360.761 72.989 360.361 74.719 360.361 76.699C360.361 78.669 360.774 80.4091 361.6 81.9291C362.426 83.4491 363.545 84.649 364.957 85.529C366.368 86.409 367.98 86.849 369.791 86.849ZM667.225 48.649C666.052 48.649 665.173 48.469 664.587 48.129C664.001 47.779 663.615 47.289 663.429 46.649C663.242 46.009 663.149 45.2589 663.149 44.4089C663.149 43.5589 663.255 42.829 663.469 42.209C663.682 41.599 664.081 41.1489 664.667 40.8489C665.253 40.5589 666.132 40.4189 667.304 40.4189C668.423 40.4189 669.276 40.579 669.862 40.889C670.448 41.209 670.834 41.689 671.021 42.329C671.207 42.969 671.3 43.719 671.3 44.569C671.3 45.419 671.207 46.149 671.021 46.769C670.834 47.379 670.448 47.849 669.862 48.169C669.276 48.489 668.397 48.649 667.225 48.649Z" fill="white"/>
<defs>
<linearGradient id="paint0_linear_1129_743" x1="57.3814" y1="107.048" x2="57.3814" y2="-31.9522" gradientUnits="userSpaceOnUse">
<stop stop-color="#E3447A"/>
<stop offset="1" stop-color="#F2A8AC"/>
</linearGradient>
<linearGradient id="paint1_linear_1129_743" x1="150.382" y1="82.047" x2="12.3816" y2="82.047" gradientUnits="userSpaceOnUse">
<stop stop-color="#F2A8AC"/>
<stop offset="1" stop-color="#FE1724"/>
</linearGradient>
</defs>
</svg>
