<svg width="674" height="138" viewBox="0 0 674 138" fill="none" xmlns="http://www.w3.org/2000/svg">
<path fill-rule="evenodd" clip-rule="evenodd" d="M93.8594 118.35C91.9254 129.355 82.3044 137.718 70.7454 137.718H23.7455C10.7755 137.718 0.245483 127.188 0.245483 114.218V24.2183C0.245483 11.2483 10.7755 0.718262 23.7455 0.718262H70.7454C82.3044 0.718262 91.9254 9.08128 93.8594 20.0863L47.8125 62.7953C46.0245 64.4533 45.0094 66.7803 45.0094 69.2183C45.0094 71.6563 46.0245 73.9833 47.8125 75.6413L93.8594 118.35Z" fill="url(#paint0_linear_1129_727)"/>
<path d="M47.2461 122.408C50.7577 122.408 53.6043 119.561 53.6043 116.05C53.6043 112.538 50.7577 109.691 47.2461 109.691C43.7346 109.691 40.8879 112.538 40.8879 116.05C40.8879 119.561 43.7346 122.408 47.2461 122.408Z" fill="white"/>
<path fill-rule="evenodd" clip-rule="evenodd" d="M93.8603 20.0852L94.2459 19.7276C94.2459 19.7276 101.192 16.6941 104.575 16.2301C105.743 16.1095 106.893 16.0426 108.02 16.0283C110.34 16.0557 112.621 16.2641 114.85 16.6414C120.287 17.748 124.932 20.3419 128.337 24.424C137.678 35.6218 137.678 58.0185 112.882 69.2175C137.678 80.4164 137.678 102.813 128.337 114.011C124.934 118.091 120.291 120.685 114.859 121.791C112.62 122.171 110.333 122.38 108.008 122.407C106.886 122.392 105.743 122.325 104.583 122.206C101.198 121.743 94.2459 118.707 94.2459 118.707L93.8603 118.35C94.1207 117.011 94.2459 115.629 94.2459 114.217V24.2177C94.2459 22.8062 94.1207 21.4244 93.8603 20.0852Z" fill="url(#paint1_linear_1129_727)"/>
<path fill-rule="evenodd" clip-rule="evenodd" d="M93.8603 20.0854C94.1206 21.4246 94.2458 22.8064 94.2458 24.2179V114.217C94.2458 115.629 94.1206 117.011 93.8603 118.35L47.8122 75.6403C46.0254 73.9831 45.0098 71.6558 45.0098 69.2177C45.0098 66.7796 46.0254 64.4523 47.8122 62.7951L93.8603 20.0854Z" fill="white"/>
<path d="M379.466 62.8414L379.461 60.7915C379.568 59.5715 379.994 58.7014 380.74 58.2014C381.486 57.6914 382.631 57.4414 384.176 57.4414C385.615 57.4414 386.653 57.6415 387.293 58.0415C387.932 58.4415 388.332 59.0014 388.491 59.7114C388.651 60.4314 388.731 61.2214 388.731 62.0714V94.4414C388.731 97.3714 388.225 99.9815 387.213 102.271C386.201 104.561 384.815 106.492 383.057 108.062C381.299 109.632 379.288 110.832 377.024 111.662C374.759 112.492 372.349 112.902 369.791 112.902C367.873 112.902 366.035 112.671 364.277 112.221C362.519 111.771 360.934 111.172 359.522 110.422C358.11 109.672 356.992 108.882 356.166 108.021C355.34 107.171 354.927 106.371 354.927 105.621C354.927 104.881 355.047 104.241 355.287 103.711C355.527 103.171 355.886 102.641 356.366 102.111C357.005 101.471 357.524 100.992 357.924 100.672C358.324 100.352 358.87 100.191 359.562 100.191C360.148 100.191 360.721 100.401 361.28 100.831C361.84 101.261 362.492 101.741 363.238 102.271C363.984 102.801 364.89 103.281 365.955 103.711C367.021 104.131 368.38 104.351 370.031 104.351C371.416 104.351 372.695 104.111 373.867 103.631C375.039 103.151 376.038 102.441 376.864 101.511C377.69 100.581 378.342 99.4714 378.822 98.1914C379.301 96.9114 379.541 95.4815 379.541 93.8815L379.534 90.7815C378.754 91.8715 377.851 92.8015 376.824 93.5615C374.746 95.1015 372.109 95.8815 368.912 95.8815C366.408 95.8815 364.077 95.4014 361.92 94.4414C359.762 93.4814 357.871 92.1214 356.246 90.3614C354.621 88.6014 353.342 86.5715 352.41 84.2514C351.478 81.9314 351.011 79.4114 351.011 76.7014C351.011 74.0314 351.478 71.5614 352.41 69.2614C353.342 66.9714 354.621 64.9514 356.246 63.1914C357.871 61.4314 359.762 60.0614 361.92 59.0814C364.077 58.0914 366.382 57.6014 368.832 57.6014C371.23 57.6014 373.321 58.0614 375.106 59.0014C376.853 59.9114 378.306 61.1914 379.466 62.8414ZM595.545 97.3915C592.934 97.3915 590.444 96.8915 588.073 95.8815C585.702 94.8615 583.584 93.4615 581.72 91.6815C579.855 89.9015 578.39 87.8015 577.324 85.4115C576.259 83.0115 575.726 80.4014 575.726 77.5814C575.726 74.8114 576.232 72.2314 577.244 69.8614C578.257 67.4914 579.669 65.4014 581.48 63.5914C583.291 61.7814 585.382 60.3514 587.753 59.3214C590.124 58.2814 592.668 57.7614 595.385 57.7614C599.061 57.7614 602.378 58.6214 605.335 60.3514C608.291 62.0914 610.649 64.4415 612.407 67.4315C614.165 70.4115 615.044 73.7714 615.044 77.5014C615.044 80.4314 614.512 83.1015 613.446 85.5315C612.38 87.9515 610.942 90.0415 609.131 91.8015C607.319 93.5615 605.241 94.9315 602.897 95.9215C600.553 96.9015 598.102 97.3915 595.545 97.3915ZM517.47 96.9115C516.458 96.9115 515.712 96.7615 515.233 96.4315C514.753 96.1215 514.433 95.6915 514.274 95.1615C514.114 94.6215 514.034 93.9915 514.034 93.2415V61.5914C514.034 60.8514 514.114 60.2314 514.274 59.7514C514.433 59.2814 514.766 58.9014 515.272 58.6314C515.779 58.3714 516.538 58.2414 517.55 58.2414C518.722 58.2414 519.561 58.4615 520.067 58.9115C520.574 59.3715 520.827 60.1514 520.827 61.2714L520.507 64.7114C520.88 63.9114 521.439 63.1115 522.185 62.3115C522.931 61.5115 523.823 60.7915 524.862 60.1514C525.901 59.5214 527.007 59.0114 528.179 58.6314C529.351 58.2614 530.55 58.0814 531.775 58.0814C533.64 58.0814 535.305 58.4114 536.77 59.0814C538.235 59.7414 539.553 60.6915 540.725 61.9115C541.898 63.1415 542.883 64.6614 543.682 66.4714C544.748 64.7114 545.88 63.2014 547.079 61.9514C548.277 60.7014 549.649 59.7414 551.194 59.0814C552.739 58.4114 554.471 58.0814 556.389 58.0814C559.426 58.0814 561.969 58.8414 564.021 60.3514C566.072 61.8714 567.617 64.0014 568.656 66.7514C569.695 69.4914 570.214 72.7814 570.214 76.6214V93.3214C570.214 94.0614 570.147 94.7015 570.014 95.2415C569.881 95.7715 569.561 96.1814 569.055 96.4714C568.549 96.7714 567.763 96.9115 566.698 96.9115C565.686 96.9115 564.926 96.7615 564.42 96.4315C563.914 96.1215 563.581 95.6915 563.421 95.1615C563.261 94.6215 563.182 93.9915 563.182 93.2415V76.5415C563.182 74.1415 562.902 72.0714 562.342 70.3414C561.783 68.6114 560.931 67.2715 559.785 66.3115C558.64 65.3515 557.161 64.8714 555.35 64.8714C553.432 64.8714 551.74 65.3414 550.275 66.2715C548.81 67.2015 547.678 68.5515 546.879 70.3015C546.08 72.0615 545.68 74.1415 545.68 76.5415V93.4015C545.68 94.2015 545.52 94.8914 545.201 95.4814C544.881 96.0614 544.402 96.4714 543.762 96.7114C543.123 96.9514 542.35 97.0014 541.445 96.8414C540.592 96.7314 539.953 96.5214 539.527 96.2014C539.1 95.8814 538.834 95.4614 538.728 94.9614C538.621 94.4514 538.568 93.8815 538.568 93.2415V76.5415C538.568 74.1415 538.288 72.0714 537.729 70.3414C537.169 68.6114 536.317 67.2715 535.171 66.3115C534.026 65.3515 532.547 64.8714 530.736 64.8714C528.818 64.8714 527.127 65.3614 525.661 66.3514C524.196 67.3314 523.064 68.7014 522.265 70.4614C521.466 72.2214 521.066 74.2515 521.066 76.5415V93.3214C521.066 94.0614 520.986 94.7015 520.827 95.2415C520.667 95.7715 520.334 96.1814 519.828 96.4714C519.322 96.7714 518.536 96.9115 517.47 96.9115ZM401.118 96.9115C400.106 96.9115 399.333 96.7714 398.801 96.4714C398.268 96.1814 397.935 95.7614 397.802 95.2014C397.668 94.6414 397.602 93.9915 397.602 93.2415V44.0114C397.602 43.2614 397.682 42.6314 397.842 42.0914C398.001 41.5614 398.348 41.1514 398.88 40.8514C399.413 40.5614 400.186 40.4214 401.198 40.4214C402.264 40.4214 403.049 40.5614 403.555 40.8514C404.062 41.1514 404.381 41.5614 404.514 42.0914C404.648 42.6314 404.714 43.2914 404.714 44.0914V63.8314C405.993 62.3414 407.551 61.0114 409.389 59.8314C411.227 58.6614 413.478 58.0814 416.142 58.0814C419.285 58.0814 422.096 58.8114 424.573 60.2714C427.051 61.7414 429.022 63.8014 430.487 66.4714C431.952 69.1314 432.685 72.3014 432.685 75.9814V93.3214C432.685 94.0614 432.605 94.7015 432.445 95.2415C432.285 95.7715 431.965 96.1814 431.486 96.4714C431.006 96.7714 430.234 96.9115 429.168 96.9115C428.156 96.9115 427.383 96.7714 426.851 96.4714C426.318 96.1814 425.972 95.7614 425.812 95.2014C425.652 94.6414 425.572 93.9915 425.572 93.2415V75.9015C425.572 73.6615 425.199 71.7115 424.453 70.0615C423.707 68.4115 422.602 67.1314 421.137 66.2314C419.672 65.3214 417.82 64.8714 415.583 64.8714C412.546 64.8714 410.055 65.7414 408.111 67.4714C406.166 69.2014 405.034 71.5014 404.714 74.3814V93.3214C404.714 94.0614 404.634 94.7015 404.475 95.2415C404.315 95.7715 403.982 96.1814 403.476 96.4714C402.969 96.7714 402.184 96.9115 401.118 96.9115ZM472.642 96.8414C471.47 96.8414 470.631 96.6015 470.125 96.1215C469.619 95.6415 469.312 94.8915 469.206 93.8815L469.525 89.8815C468.993 90.7415 468.167 91.7115 467.048 92.8015C465.929 93.8915 464.464 94.8515 462.653 95.6815C460.841 96.5015 458.63 96.9115 456.02 96.9115C453.462 96.9115 451.078 96.4115 448.867 95.4015C446.656 94.3815 444.712 92.9715 443.034 91.1615C441.355 89.3515 440.05 87.2715 439.118 84.9315C438.185 82.5815 437.719 80.0815 437.719 77.4115C437.719 74.8115 438.185 72.3415 439.118 70.0215C440.05 67.7115 441.369 65.6715 443.073 63.9115C444.778 62.1515 446.736 60.7714 448.947 59.7514C451.158 58.7414 453.516 58.2414 456.02 58.2414C458.364 58.2414 460.362 58.5414 462.013 59.1514C463.665 59.7714 465.09 60.5715 466.289 61.5515C467.488 62.5415 468.54 63.6414 469.445 64.8714L469.286 61.5114C469.232 60.3414 469.485 59.5014 470.045 59.0014C470.604 58.4914 471.497 58.2414 472.722 58.2414C473.734 58.2414 474.467 58.4014 474.92 58.7114C475.372 59.0414 475.679 59.4914 475.839 60.0714C475.998 60.6614 476.078 61.3814 476.078 62.2314V93.0814C476.078 93.8314 475.998 94.4914 475.839 95.0814C475.679 95.6614 475.359 96.1015 474.88 96.3915C474.4 96.6915 473.654 96.8414 472.642 96.8414ZM190.27 96.9115C188.725 96.9115 187.606 96.6915 186.913 96.2415C186.221 95.7815 185.781 95.1814 185.595 94.4414C185.408 93.6914 185.315 92.8915 185.315 92.0415V45.9314C185.315 45.0214 185.408 44.2014 185.595 43.4514C185.781 42.7114 186.207 42.1214 186.873 41.6914C187.539 41.2714 188.645 41.0514 190.19 41.0514C191.681 41.0514 192.76 41.2714 193.426 41.6914C194.092 42.1214 194.518 42.7114 194.705 43.4514C194.891 44.2014 194.985 45.0214 194.985 45.9314V88.2815H212.359C213.158 88.2815 213.877 88.3514 214.516 88.4814C215.156 88.6214 215.662 88.9914 216.035 89.6014C216.408 90.2114 216.594 91.1915 216.594 92.5215C216.594 93.8515 216.408 94.8214 216.035 95.4414C215.662 96.0514 215.156 96.4515 214.516 96.6315C213.877 96.8215 213.158 96.9115 212.359 96.9115H190.27ZM667.225 96.9115C666.212 96.9115 665.453 96.7714 664.947 96.4714C664.441 96.1814 664.108 95.7715 663.948 95.2415C663.788 94.7015 663.708 94.0614 663.708 93.3214V61.7514C663.708 61.0114 663.788 60.3714 663.948 59.8314C664.108 59.3014 664.441 58.9014 664.947 58.6314C665.453 58.3714 666.239 58.2414 667.304 58.2414C668.317 58.2414 669.063 58.3815 669.542 58.6715C670.022 58.9715 670.341 59.3815 670.501 59.9115C670.661 60.4515 670.741 61.1115 670.741 61.9115V93.4015C670.741 94.1415 670.661 94.7814 670.501 95.3214C670.341 95.8514 670.008 96.2515 669.502 96.5215C668.996 96.7815 668.237 96.9115 667.225 96.9115ZM488.105 96.9115C487.092 96.9115 486.333 96.7714 485.827 96.4714C485.321 96.1814 485.001 95.7614 484.868 95.2014C484.735 94.6414 484.668 93.9915 484.668 93.2415V61.7514C484.668 60.9514 484.748 60.2914 484.908 59.7514C485.068 59.2214 485.387 58.8414 485.867 58.6014C486.346 58.3614 487.119 58.2414 488.184 58.2414C489.143 58.2414 489.876 58.3614 490.382 58.6014C490.888 58.8414 491.235 59.1814 491.421 59.6314C491.607 60.0914 491.701 60.6114 491.701 61.1914L491.381 63.5914C491.754 62.9014 492.194 62.2014 492.7 61.5114C493.206 60.8214 493.845 60.1914 494.618 59.6314C495.39 59.0814 496.322 58.6114 497.415 58.2414C498.507 57.8614 499.852 57.6815 501.45 57.6815C502.25 57.6815 503.009 57.7414 503.728 57.8814C504.447 58.0114 505.14 58.2114 505.806 58.4814C506.472 58.7414 507.044 59.0514 507.524 59.3914C508.003 59.7414 508.39 60.1114 508.683 60.5114C508.976 60.9114 509.122 61.3815 509.122 61.9115C509.122 63.0815 508.749 64.0815 508.003 64.9115C507.258 65.7415 506.485 66.1515 505.686 66.1515C504.993 66.1515 504.487 66.0514 504.167 65.8714C503.848 65.6814 503.541 65.4815 503.248 65.2715C502.955 65.0614 502.543 64.8615 502.01 64.6715C501.477 64.4815 500.625 64.3914 499.452 64.3914C498.653 64.3914 497.814 64.5514 496.935 64.8714C496.056 65.1914 495.217 65.6515 494.418 66.2715C493.619 66.8815 492.966 67.6714 492.46 68.6214C491.954 69.5814 491.701 70.7014 491.701 71.9814V93.4015C491.701 94.1415 491.621 94.7814 491.461 95.3214C491.301 95.8514 490.968 96.2515 490.462 96.5215C489.956 96.7815 489.17 96.9115 488.105 96.9115ZM251.118 96.7615C249.573 96.7615 248.427 96.4615 247.681 95.8815C246.935 95.2915 246.562 94.4914 246.562 93.4814L247.122 90.8414C246.696 91.5314 245.976 92.3515 244.964 93.2815C243.952 94.2115 242.62 95.0415 240.968 95.7615C239.317 96.4715 237.319 96.8414 234.975 96.8414C232.471 96.8414 230.113 96.3215 227.902 95.2815C225.691 94.2415 223.747 92.8014 222.068 90.9614C220.39 89.1214 219.058 87.0215 218.073 84.6515C217.087 82.2815 216.594 79.7315 216.594 77.0215C216.594 74.4015 217.087 71.9414 218.073 69.6214C219.058 67.3114 220.404 65.2415 222.108 63.4315C223.813 61.6215 225.771 60.1915 227.982 59.1514C230.193 58.1214 232.524 57.6014 234.975 57.6014C237.159 57.6014 239.01 57.8914 240.529 58.4814C242.047 59.0614 243.339 59.7915 244.405 60.6715C245.47 61.5515 246.349 62.4715 247.042 63.4315L246.562 61.1114C246.562 59.9414 246.935 59.0514 247.681 58.4414C248.427 57.8214 249.599 57.5214 251.197 57.5214C252.689 57.5214 253.755 57.7414 254.394 58.2014C255.033 58.6514 255.433 59.2615 255.593 60.0315C255.753 60.8115 255.833 61.6714 255.833 62.6314V91.8815C255.833 92.7915 255.753 93.6114 255.593 94.3614C255.433 95.1014 255.02 95.6915 254.354 96.1215C253.688 96.5415 252.609 96.7615 251.118 96.7615ZM624.312 96.8414C623.3 96.8414 622.541 96.6915 622.035 96.3915C621.529 96.1015 621.209 95.6915 621.076 95.1615C620.943 94.6215 620.876 93.9915 620.876 93.2415V61.5114C620.876 60.8214 620.956 60.2314 621.116 59.7514C621.276 59.2814 621.609 58.9014 622.115 58.6314C622.621 58.3714 623.38 58.2414 624.392 58.2414C625.191 58.2414 625.817 58.3314 626.27 58.5214C626.723 58.7014 627.043 58.9515 627.229 59.2815C627.416 59.5915 627.536 59.9415 627.589 60.3115C627.642 60.6915 627.669 61.0314 627.669 61.3514L627.509 65.0315C628.042 64.1215 628.708 63.2615 629.507 62.4315C630.306 61.6115 631.238 60.8614 632.304 60.1914C633.369 59.5314 634.528 59.0114 635.78 58.6314C637.032 58.2614 638.377 58.0814 639.816 58.0814C642.16 58.0814 644.318 58.4914 646.289 59.3214C648.26 60.1414 649.952 61.3415 651.364 62.9115C652.775 64.4815 653.868 66.3615 654.64 68.5515C655.413 70.7315 655.799 73.2114 655.799 75.9814V93.3214C655.799 94.0614 655.732 94.7015 655.599 95.2415C655.466 95.7715 655.146 96.1715 654.64 96.4315C654.134 96.7015 653.375 96.8414 652.362 96.8414C651.297 96.8414 650.511 96.6915 650.005 96.3915C649.499 96.1015 649.166 95.6915 649.006 95.1615C648.846 94.6215 648.766 93.9915 648.766 93.2415V75.9015C648.766 73.6615 648.393 71.7115 647.648 70.0615C646.902 68.4115 645.783 67.1214 644.291 66.1914C642.799 65.2614 640.908 64.7915 638.617 64.7915C636.433 64.7915 634.528 65.2614 632.903 66.1914C631.278 67.1214 630.026 68.4115 629.147 70.0615C628.268 71.7115 627.829 73.6615 627.829 75.9015V93.3214C627.829 94.0614 627.749 94.7015 627.589 95.2415C627.429 95.7715 627.096 96.1715 626.59 96.4315C626.084 96.7015 625.325 96.8414 624.312 96.8414ZM280.127 96.8414C277.676 96.8414 275.425 96.3915 273.374 95.5215C271.323 94.6415 269.525 93.3714 267.98 91.7214C266.435 90.0714 265.236 88.1015 264.383 85.8115C263.531 83.5215 263.105 80.9914 263.105 78.2114V62.3115C263.105 61.4115 263.185 60.5914 263.345 59.8714C263.504 59.1514 263.931 58.5815 264.623 58.1615C265.316 57.7315 266.381 57.5214 267.82 57.5214C269.365 57.5214 270.47 57.7315 271.136 58.1615C271.802 58.5815 272.215 59.1715 272.375 59.9115C272.535 60.6615 272.615 61.4914 272.615 62.3914V78.2114C272.615 80.1314 272.948 81.7815 273.614 83.1715C274.28 84.5615 275.252 85.6315 276.531 86.4115C277.809 87.1815 279.381 87.5714 281.246 87.5714C283.163 87.5714 284.802 87.1815 286.16 86.4115C287.519 85.6315 288.571 84.5415 289.317 83.1315C290.063 81.7215 290.436 80.0814 290.436 78.2114V62.2314C290.436 61.3314 290.516 60.5115 290.675 59.7915C290.835 59.0815 291.262 58.5214 291.954 58.1214C292.647 57.7214 293.739 57.5214 295.231 57.5214C296.722 57.5214 297.788 57.7315 298.427 58.1615C299.067 58.5815 299.479 59.1715 299.666 59.9115C299.852 60.6615 299.946 61.4615 299.946 62.3115V92.2815C299.946 93.0815 299.852 93.8315 299.666 94.5215C299.479 95.2115 299.053 95.7714 298.387 96.2014C297.721 96.6214 296.642 96.8414 295.151 96.8414C294.085 96.8414 293.246 96.7114 292.633 96.4714C292.021 96.2414 291.568 95.9215 291.275 95.5215C290.982 95.1215 290.795 94.7015 290.715 94.2815C290.636 93.8515 290.596 93.4215 290.596 93.0015L291.235 90.8414C290.915 91.3214 290.436 91.8915 289.796 92.5615C289.157 93.2215 288.371 93.8915 287.439 94.5615C286.507 95.2215 285.428 95.7714 284.202 96.2014C282.977 96.6214 281.618 96.8414 280.127 96.8414ZM312.572 96.8414C311.134 96.8414 310.082 96.6115 309.416 96.1615C308.75 95.7015 308.337 95.1215 308.177 94.4015C308.017 93.6815 307.937 92.8714 307.937 91.9614V62.0714C307.937 61.2214 308.017 60.4514 308.177 59.7514C308.337 59.0614 308.763 58.5214 309.456 58.1214C310.148 57.7214 311.214 57.5214 312.652 57.5214C313.931 57.5214 314.89 57.6814 315.529 58.0014C316.168 58.3214 316.595 58.7114 316.808 59.1914C317.021 59.6714 317.141 60.1514 317.167 60.6314C317.194 61.1114 317.234 61.4914 317.287 61.7514L316.968 64.3115C317.287 63.4615 317.82 62.6314 318.566 61.8314C319.312 61.0314 320.217 60.3014 321.283 59.6314C322.348 58.9714 323.507 58.4415 324.759 58.0415C326.011 57.6415 327.303 57.4414 328.635 57.4414C331.139 57.4414 333.377 57.8915 335.348 58.8015C337.319 59.7015 339.011 60.9814 340.423 62.6314C341.834 64.2814 342.913 66.2414 343.659 68.5114C344.405 70.7714 344.778 73.3115 344.778 76.1415V92.0415C344.778 92.9515 344.685 93.7614 344.498 94.4814C344.312 95.2014 343.899 95.7714 343.26 96.2014C342.62 96.6214 341.528 96.8414 339.983 96.8414C338.491 96.8414 337.399 96.6115 336.707 96.1615C336.014 95.7015 335.588 95.1215 335.428 94.4015C335.268 93.6815 335.188 92.8714 335.188 91.9614V76.0615C335.188 74.1415 334.855 72.4914 334.189 71.1014C333.523 69.7214 332.564 68.6515 331.312 67.9115C330.06 67.1615 328.475 66.7915 326.557 66.7915C324.693 66.7915 323.068 67.1714 321.683 67.9514C320.297 68.7214 319.232 69.8015 318.486 71.1815C317.74 72.5715 317.367 74.1915 317.367 76.0615V92.0415C317.367 92.9515 317.287 93.7614 317.127 94.4814C316.968 95.2014 316.555 95.7714 315.889 96.2014C315.223 96.6214 314.117 96.8414 312.572 96.8414ZM595.385 90.4414C597.623 90.4414 599.701 89.8815 601.619 88.7615C603.537 87.6415 605.082 86.1015 606.254 84.1315C607.426 82.1615 608.012 79.9215 608.012 77.4115C608.012 74.9115 607.466 72.7015 606.374 70.7815C605.281 68.8715 603.776 67.3715 601.858 66.3115C599.94 65.2415 597.756 64.7114 595.305 64.7114C592.961 64.7114 590.843 65.2714 588.952 66.3914C587.061 67.5114 585.542 69.0214 584.397 70.9414C583.251 72.8614 582.679 75.0514 582.679 77.5014C582.679 80.0514 583.265 82.3014 584.437 84.2514C585.609 86.1915 587.167 87.7115 589.112 88.8015C591.056 89.9015 593.148 90.4414 595.385 90.4414ZM457.218 90.2014C459.35 90.2014 461.307 89.6415 463.092 88.5215C464.877 87.4015 466.289 85.9015 467.328 84.0115C468.367 82.1215 468.886 79.9514 468.886 77.5014C468.886 74.9914 468.34 72.7915 467.248 70.9015C466.156 69.0115 464.717 67.5215 462.932 66.4315C461.148 65.3415 459.19 64.7915 457.059 64.7915C454.555 64.7915 452.384 65.3614 450.546 66.5114C448.707 67.6514 447.256 69.1814 446.19 71.1014C445.125 73.0214 444.592 75.2015 444.592 77.6515C444.592 80.0515 445.125 82.2014 446.19 84.0914C447.256 85.9814 448.734 87.4715 450.625 88.5615C452.517 89.6615 454.714 90.2014 457.218 90.2014ZM236.413 87.4914C238.225 87.4914 239.85 87.0315 241.288 86.1315C242.726 85.2215 243.885 83.9815 244.764 82.4115C245.643 80.8415 246.083 79.0915 246.083 77.1815C246.083 75.1015 245.63 73.2914 244.724 71.7414C243.819 70.2014 242.633 68.9814 241.168 68.1114C239.703 67.2314 238.065 66.7915 236.253 66.7915C234.282 66.7915 232.524 67.2515 230.979 68.1815C229.434 69.1215 228.222 70.3714 227.343 71.9414C226.464 73.5114 226.024 75.2815 226.024 77.2615C226.024 79.1715 226.477 80.9014 227.383 82.4514C228.288 84.0014 229.527 85.2215 231.099 86.1315C232.67 87.0315 234.442 87.4914 236.413 87.4914ZM369.791 86.8514C371.603 86.8514 373.214 86.4115 374.626 85.5315C376.038 84.6515 377.157 83.4415 377.983 81.8915C378.808 80.3515 379.221 78.6114 379.221 76.7014C379.221 74.7214 378.808 72.9814 377.983 71.4614C377.157 69.9414 376.025 68.7615 374.586 67.9115C373.148 67.0515 371.523 66.6314 369.711 66.6314C367.9 66.6314 366.288 67.0714 364.877 67.9514C363.465 68.8314 362.359 70.0114 361.56 71.5014C360.761 72.9914 360.361 74.7214 360.361 76.7014C360.361 78.6714 360.774 80.4115 361.6 81.9315C362.426 83.4515 363.545 84.6515 364.957 85.5315C366.368 86.4115 367.98 86.8514 369.791 86.8514ZM667.225 48.6514C666.052 48.6514 665.173 48.4714 664.587 48.1314C664.001 47.7814 663.615 47.2914 663.429 46.6514C663.242 46.0114 663.149 45.2614 663.149 44.4114C663.149 43.5614 663.255 42.8314 663.469 42.2114C663.682 41.6014 664.081 41.1514 664.667 40.8514C665.253 40.5614 666.132 40.4214 667.304 40.4214C668.423 40.4214 669.276 40.5814 669.862 40.8914C670.448 41.2114 670.834 41.6914 671.021 42.3314C671.207 42.9714 671.3 43.7214 671.3 44.5714C671.3 45.4214 671.207 46.1514 671.021 46.7714C670.834 47.3814 670.448 47.8514 669.862 48.1714C669.276 48.4914 668.397 48.6514 667.225 48.6514Z" fill="black"/>
<defs>
<linearGradient id="paint0_linear_1129_727" x1="57.3814" y1="107.05" x2="57.3814" y2="-31.9498" gradientUnits="userSpaceOnUse">
<stop stop-color="#E3447A"/>
<stop offset="1" stop-color="#F2A8AC"/>
</linearGradient>
<linearGradient id="paint1_linear_1129_727" x1="150.382" y1="82.0495" x2="12.3816" y2="82.0495" gradientUnits="userSpaceOnUse">
<stop stop-color="#F2A8AC"/>
<stop offset="1" stop-color="#FE1724"/>
</linearGradient>
</defs>
</svg>
