<svg width="30" height="29" viewBox="0 0 30 29" fill="none" xmlns="http://www.w3.org/2000/svg">
<g clip-path="url(#clip0_649_4937)">
<path fill-rule="evenodd" clip-rule="evenodd" d="M20.1589 23.3888C19.7882 25.488 17.9406 27.0833 15.7204 27.0833H6.69357C4.20256 27.0833 2.18018 25.0747 2.18018 22.6006V5.43288C2.18018 2.95882 4.20256 0.950195 6.69357 0.950195H15.7204C17.9406 0.950195 19.7882 2.54546 20.1589 4.64469L11.3164 12.7915C10.9727 13.1078 10.7767 13.5517 10.7767 14.0168C10.7767 14.4818 10.9727 14.9257 11.3164 15.242L20.1589 23.3888ZM11.207 21.7371C11.8811 21.7371 12.4285 22.2805 12.4285 22.9499C12.4285 23.6192 11.8811 24.1627 11.207 24.1627C10.5328 24.1627 9.98547 23.6192 9.98547 22.9499C9.98547 22.2805 10.5328 21.7371 11.207 21.7371Z" fill="white"/>
<path fill-rule="evenodd" clip-rule="evenodd" d="M20.1591 4.64447L20.2332 4.57626C20.2332 4.57626 21.5673 3.9976 22.217 3.9091C22.4412 3.88609 22.6621 3.87333 22.8787 3.87061C23.3242 3.87584 23.7622 3.91559 24.1903 3.98756C25.2345 4.19865 26.1268 4.69343 26.7807 5.4721C28.5748 7.60811 28.5748 11.8803 23.8124 14.0166C28.5748 16.1528 28.5748 20.425 26.7807 22.561C26.1272 23.3393 25.2354 23.8341 24.192 24.0452C23.762 24.1175 23.3228 24.1575 22.8762 24.1625C22.6607 24.1598 22.4412 24.1471 22.2185 24.1243C21.5684 24.036 20.2332 23.4569 20.2332 23.4569L20.1591 23.3887C20.2091 23.1332 20.2332 22.8696 20.2332 22.6004V5.43276C20.2332 5.16351 20.2091 4.89992 20.1591 4.64447Z" fill="white"/>
</g>
<defs>
<clipPath id="clip0_649_4937">
<rect width="28.0405" height="28.0405" fill="white" transform="translate(0.979736 -0.00585938)"/>
</clipPath>
</defs>
</svg>
