<svg width="46" height="49" viewBox="0 0 46 49" fill="none" xmlns="http://www.w3.org/2000/svg">
<rect x="0.0720215" y="0.291687" width="45.3199" height="48.2917" rx="9.65834" fill="white"/>
<path d="M31.3687 12.1719C30.2459 11.0489 28.7574 10.3661 27.1738 10.2477C25.5902 10.1293 24.0167 10.5832 22.7395 11.5269C21.394 10.5261 19.7193 10.0723 18.0526 10.2569C16.3859 10.4414 14.851 11.2506 13.7571 12.5215C12.6632 13.7924 12.0914 15.4306 12.1569 17.1062C12.2225 18.7818 12.9205 20.3704 14.1103 21.5519L21.9887 29.4303C22.087 29.5294 22.2039 29.6081 22.3328 29.6618C22.4617 29.7154 22.5999 29.7431 22.7395 29.7431C22.8791 29.7431 23.0173 29.7154 23.1462 29.6618C23.2751 29.6081 23.392 29.5294 23.4903 29.4303L31.3687 21.5519C31.9848 20.9362 32.4736 20.205 32.8071 19.4003C33.1406 18.5956 33.3122 17.733 33.3122 16.8619C33.3122 15.9908 33.1406 15.1283 32.8071 14.3236C32.4736 13.5188 31.9848 12.7877 31.3687 12.1719ZM29.8776 20.0609L22.7395 27.1884L15.6014 20.0609C14.9724 19.4292 14.5439 18.6259 14.3697 17.7516C14.1954 16.8774 14.2833 15.9712 14.6221 15.1467C14.961 14.3221 15.5357 13.616 16.2743 13.1169C17.0129 12.6178 17.8825 12.3479 18.7739 12.3411C19.9648 12.3441 21.1058 12.8195 21.9464 13.663C22.0447 13.7621 22.1616 13.8408 22.2905 13.8945C22.4194 13.9482 22.5576 13.9758 22.6972 13.9758C22.8368 13.9758 22.975 13.9482 23.1039 13.8945C23.2328 13.8408 23.3497 13.7621 23.448 13.663C24.3134 12.9131 25.4313 12.52 26.5756 12.5632C27.7199 12.6065 28.805 13.0828 29.6113 13.8959C30.4176 14.7089 30.885 15.7979 30.9187 16.9425C30.9524 18.0871 30.55 19.2017 29.793 20.0609H29.8776Z" fill="#8F907E"/>
<path d="M8.23562 42.168V37.5258H9.04566L10.7841 39.8874H10.3978L12.0989 37.5258H12.909V42.168H12.0553V38.4916L12.3855 38.5726L10.6221 40.9218H10.5224L8.80265 38.5726L9.08305 38.4916V42.168H8.23562ZM15.3365 42.2428C14.9875 42.2428 14.6822 42.1638 14.4205 42.006C14.1588 41.8481 13.9552 41.6342 13.8098 41.3642C13.6644 41.0942 13.5918 40.7951 13.5918 40.4669C13.5918 40.1263 13.6644 39.8251 13.8098 39.5634C13.9594 39.2975 14.1609 39.0877 14.4143 38.934C14.6718 38.7803 14.9584 38.7035 15.2742 38.7035C15.54 38.7035 15.7726 38.7471 15.972 38.8343C16.1756 38.9216 16.348 39.0421 16.4892 39.1958C16.6305 39.3495 16.7385 39.526 16.8132 39.7254C16.888 39.9206 16.9254 40.1325 16.9254 40.361C16.9254 40.4191 16.9212 40.4794 16.9129 40.5417C16.9088 40.604 16.8984 40.658 16.8818 40.7037H14.2647V40.0806H16.4207L16.0344 40.3734C16.0717 40.1823 16.0614 40.012 16.0032 39.8625C15.9492 39.7129 15.8578 39.5945 15.729 39.5073C15.6044 39.4201 15.4528 39.3765 15.2742 39.3765C15.1038 39.3765 14.9522 39.4201 14.8193 39.5073C14.6864 39.5904 14.5846 39.715 14.514 39.8812C14.4475 40.0432 14.4226 40.2405 14.4392 40.4731C14.4226 40.6808 14.4496 40.8657 14.5202 41.0277C14.595 41.1856 14.703 41.3081 14.8442 41.3953C14.9896 41.4826 15.1558 41.5262 15.3427 41.5262C15.5296 41.5262 15.6875 41.4867 15.8163 41.4078C15.9492 41.3289 16.053 41.2229 16.1278 41.09L16.7883 41.414C16.7219 41.576 16.618 41.7194 16.4768 41.844C16.3355 41.9686 16.1673 42.0662 15.972 42.1368C15.781 42.2075 15.5691 42.2428 15.3365 42.2428ZM17.5442 42.168V38.7783H18.3106V39.5634L18.2234 39.4325C18.2857 39.1874 18.4103 39.0047 18.5972 38.8842C18.7842 38.7637 19.0043 38.7035 19.2577 38.7035C19.5361 38.7035 19.7812 38.7762 19.993 38.9216C20.2049 39.067 20.342 39.2581 20.4043 39.4948L20.1737 39.5135C20.2776 39.2435 20.4333 39.0421 20.6411 38.9091C20.8488 38.772 21.0876 38.7035 21.3576 38.7035C21.5986 38.7035 21.8125 38.7575 21.9994 38.8655C22.1905 38.9735 22.3401 39.1251 22.4481 39.3204C22.5561 39.5115 22.6101 39.7337 22.6101 39.9871V42.168H21.7938V40.1803C21.7938 40.0307 21.7668 39.9019 21.7128 39.7939C21.6588 39.6859 21.584 39.6029 21.4885 39.5447C21.3929 39.4824 21.2766 39.4512 21.1395 39.4512C21.0108 39.4512 20.8965 39.4824 20.7968 39.5447C20.6971 39.6029 20.6203 39.6859 20.5663 39.7939C20.5123 39.9019 20.4853 40.0307 20.4853 40.1803V42.168H19.669V40.1803C19.669 40.0307 19.642 39.9019 19.588 39.7939C19.534 39.6859 19.4571 39.6029 19.3574 39.5447C19.2619 39.4824 19.1477 39.4512 19.0147 39.4512C18.886 39.4512 18.7717 39.4824 18.672 39.5447C18.5723 39.6029 18.4955 39.6859 18.4415 39.7939C18.3875 39.9019 18.3605 40.0307 18.3605 40.1803V42.168H17.5442ZM23.3007 43.4142V38.7783H24.0671V39.4512L23.9923 39.283C24.1086 39.1002 24.2665 38.959 24.4659 38.8593C24.6653 38.7554 24.8958 38.7035 25.1575 38.7035C25.4774 38.7035 25.7661 38.7824 26.0237 38.9403C26.2812 39.0981 26.4848 39.31 26.6343 39.5759C26.788 39.8417 26.8649 40.1408 26.8649 40.4731C26.8649 40.8013 26.7901 41.1004 26.6406 41.3704C26.491 41.6404 26.2875 41.8544 26.0299 42.0122C25.7723 42.1659 25.4795 42.2428 25.1513 42.2428C24.9062 42.2428 24.6798 42.195 24.4721 42.0995C24.2686 41.9998 24.1066 41.8585 23.9861 41.6757L24.1169 41.5137V43.4142H23.3007ZM25.0578 41.495C25.2448 41.495 25.4109 41.4514 25.5563 41.3642C25.7017 41.2769 25.8139 41.1565 25.8928 41.0028C25.9759 40.8491 26.0174 40.6725 26.0174 40.4731C26.0174 40.2737 25.9759 40.0993 25.8928 39.9497C25.8139 39.796 25.7017 39.6756 25.5563 39.5883C25.4109 39.4969 25.2448 39.4512 25.0578 39.4512C24.8792 39.4512 24.7172 39.4948 24.5718 39.5821C24.4306 39.6693 24.3184 39.7919 24.2353 39.9497C24.1564 40.1034 24.1169 40.2779 24.1169 40.4731C24.1169 40.6725 24.1564 40.8491 24.2353 41.0028C24.3184 41.1565 24.4306 41.2769 24.5718 41.3642C24.7172 41.4514 24.8792 41.495 25.0578 41.495ZM29.0948 42.2428C28.7459 42.2428 28.4406 42.1638 28.1789 42.006C27.9172 41.8481 27.7136 41.6342 27.5682 41.3642C27.4228 41.0942 27.3501 40.7951 27.3501 40.4669C27.3501 40.1263 27.4228 39.8251 27.5682 39.5634C27.7178 39.2975 27.9192 39.0877 28.1726 38.934C28.4302 38.7803 28.7168 38.7035 29.0325 38.7035C29.2984 38.7035 29.531 38.7471 29.7304 38.8343C29.934 38.9216 30.1064 39.0421 30.2476 39.1958C30.3888 39.3495 30.4968 39.526 30.5716 39.7254C30.6464 39.9206 30.6838 40.1325 30.6838 40.361C30.6838 40.4191 30.6796 40.4794 30.6713 40.5417C30.6672 40.604 30.6568 40.658 30.6402 40.7037H28.0231V40.0806H30.1791L29.7927 40.3734C29.8301 40.1823 29.8197 40.012 29.7616 39.8625C29.7076 39.7129 29.6162 39.5945 29.4874 39.5073C29.3628 39.4201 29.2111 39.3765 29.0325 39.3765C28.8622 39.3765 28.7106 39.4201 28.5777 39.5073C28.4447 39.5904 28.3429 39.715 28.2723 39.8812C28.2059 40.0432 28.1809 40.2405 28.1976 40.4731C28.1809 40.6808 28.2079 40.8657 28.2786 41.0277C28.3533 41.1856 28.4613 41.3081 28.6026 41.3953C28.748 41.4826 28.9141 41.5262 29.1011 41.5262C29.288 41.5262 29.4459 41.4867 29.5746 41.4078C29.7076 41.3289 29.8114 41.2229 29.8862 41.09L30.5467 41.414C30.4802 41.576 30.3764 41.7194 30.2351 41.844C30.0939 41.9686 29.9257 42.0662 29.7304 42.1368C29.5393 42.2075 29.3275 42.2428 29.0948 42.2428ZM31.3026 42.168V37.451H32.1188V42.168H31.3026ZM33.9006 42.2428C33.6639 42.2428 33.4582 42.2033 33.2838 42.1244C33.1093 42.0455 32.9743 41.9333 32.8787 41.7879C32.7832 41.6384 32.7354 41.466 32.7354 41.2707C32.7354 41.0838 32.777 40.9176 32.86 40.7722C32.9431 40.6227 33.0719 40.4981 33.2464 40.3984C33.4208 40.2987 33.641 40.228 33.9069 40.1865L35.016 40.0058V40.6289L34.0626 40.7909C33.9006 40.82 33.7802 40.8719 33.7012 40.9467C33.6223 41.0215 33.5828 41.1191 33.5828 41.2396C33.5828 41.3559 33.6265 41.4493 33.7137 41.52C33.8051 41.5864 33.9173 41.6197 34.0502 41.6197C34.2205 41.6197 34.37 41.5844 34.4988 41.5137C34.6318 41.439 34.7335 41.3372 34.8041 41.2084C34.8789 41.0796 34.9163 40.9384 34.9163 40.7847V39.9123C34.9163 39.7669 34.8582 39.6465 34.7418 39.5509C34.6297 39.4512 34.4801 39.4014 34.2932 39.4014C34.1187 39.4014 33.9629 39.4492 33.8259 39.5447C33.6929 39.6361 33.5953 39.7586 33.533 39.9123L32.8663 39.5883C32.9327 39.4097 33.0366 39.256 33.1778 39.1272C33.3232 38.9943 33.4935 38.8904 33.6888 38.8157C33.884 38.7409 34.0959 38.7035 34.3244 38.7035C34.6027 38.7035 34.8478 38.7554 35.0596 38.8593C35.2715 38.959 35.4356 39.1002 35.5519 39.283C35.6724 39.4616 35.7326 39.6714 35.7326 39.9123V42.168H34.9599V41.5885L35.1344 41.576C35.0472 41.7214 34.9433 41.844 34.8228 41.9437C34.7024 42.0392 34.5653 42.114 34.4116 42.168C34.2579 42.2178 34.0876 42.2428 33.9006 42.2428ZM36.487 42.168V38.7783H37.3033V42.168H36.487ZM36.487 38.3982V37.5258H37.3033V38.3982H36.487Z" fill="#8F907E"/>
</svg>
