<svg width="47" height="50" viewBox="0 0 47 50" fill="none" xmlns="http://www.w3.org/2000/svg">
<rect x="0.815674" y="0.750122" width="45.3199" height="48.2917" rx="9.65834" fill="white"/>
<path d="M19.2608 19.3803C19.0516 19.3803 18.8472 19.4424 18.6733 19.5586C18.4994 19.6748 18.3638 19.8399 18.2838 20.0331C18.2037 20.2264 18.1828 20.439 18.2236 20.6441C18.2644 20.8493 18.3651 21.0377 18.513 21.1856C18.6609 21.3335 18.8493 21.4342 19.0545 21.475C19.2596 21.5158 19.4722 21.4949 19.6655 21.4148C19.8587 21.3348 20.0238 21.1993 20.14 21.0253C20.2562 20.8514 20.3183 20.647 20.3183 20.4378C20.3183 20.1574 20.2069 19.8884 20.0085 19.6901C19.8102 19.4918 19.5412 19.3803 19.2608 19.3803ZM23.4908 19.3803C23.2816 19.3803 23.0771 19.4424 22.9032 19.5586C22.7293 19.6748 22.5938 19.8399 22.5138 20.0331C22.4337 20.2264 22.4128 20.439 22.4536 20.6441C22.4944 20.8493 22.5951 21.0377 22.743 21.1856C22.8909 21.3335 23.0793 21.4342 23.2844 21.475C23.4896 21.5158 23.7022 21.4949 23.8954 21.4148C24.0887 21.3348 24.2538 21.1993 24.37 21.0253C24.4862 20.8514 24.5483 20.647 24.5483 20.4378C24.5483 20.1574 24.4368 19.8884 24.2385 19.6901C24.0402 19.4918 23.7712 19.3803 23.4908 19.3803ZM27.7207 19.3803C27.5116 19.3803 27.3071 19.4424 27.1332 19.5586C26.9593 19.6748 26.8238 19.8399 26.7437 20.0331C26.6637 20.2264 26.6428 20.439 26.6836 20.6441C26.7244 20.8493 26.8251 21.0377 26.973 21.1856C27.1209 21.3335 27.3093 21.4342 27.5144 21.475C27.7196 21.5158 27.9322 21.4949 28.1254 21.4148C28.3187 21.3348 28.4838 21.1993 28.6 21.0253C28.7162 20.8514 28.7782 20.647 28.7782 20.4378C28.7782 20.1574 28.6668 19.8884 28.4685 19.6901C28.2702 19.4918 28.0012 19.3803 27.7207 19.3803ZM23.4908 9.86287C22.102 9.86287 20.7269 10.1364 19.4439 10.6678C18.1609 11.1993 16.9951 11.9782 16.0131 12.9602C14.0299 14.9434 12.9158 17.6332 12.9158 20.4378C12.9065 22.8797 13.7521 25.2479 15.3057 27.1318L13.1907 29.2468C13.044 29.3955 12.9446 29.5843 12.9051 29.7895C12.8656 29.9946 12.8877 30.2069 12.9687 30.3994C13.0565 30.5897 13.1989 30.7496 13.3778 30.8588C13.5566 30.968 13.7639 31.0216 13.9733 31.0128H23.4908C26.2954 31.0128 28.9852 29.8986 30.9684 27.9155C32.9516 25.9323 34.0657 23.2425 34.0657 20.4378C34.0657 17.6332 32.9516 14.9434 30.9684 12.9602C28.9852 10.977 26.2954 9.86287 23.4908 9.86287ZM23.4908 28.8978H16.5219L17.5053 27.9143C17.6052 27.8164 17.6847 27.6996 17.7392 27.5707C17.7937 27.4418 17.822 27.3034 17.8226 27.1635C17.8186 26.8846 17.7046 26.6185 17.5053 26.4233C16.1206 25.0401 15.2583 23.2196 15.0654 21.272C14.8724 19.3243 15.3607 17.37 16.447 15.742C17.5334 14.114 19.1506 12.9131 21.0231 12.3437C22.8956 11.7744 24.9076 11.8719 26.7163 12.6197C28.525 13.3674 30.0185 14.7192 30.9423 16.4446C31.8661 18.17 32.1631 20.1624 31.7827 22.0822C31.4023 24.0021 30.368 25.7306 28.856 26.9734C27.344 28.2162 25.4479 28.8963 23.4908 28.8978Z" fill="#8F907E"/>
<path d="M14.0322 42.7012C13.675 42.7012 13.3572 42.6264 13.0789 42.4769C12.8047 42.3273 12.5887 42.1217 12.4308 41.86C12.273 41.5983 12.1941 41.3013 12.1941 40.9689V37.9842H13.0415V40.9253C13.0415 41.1164 13.083 41.2888 13.1661 41.4425C13.2534 41.5962 13.3717 41.7167 13.5213 41.8039C13.6708 41.887 13.8412 41.9285 14.0322 41.9285C14.2275 41.9285 14.3978 41.887 14.5432 41.8039C14.6927 41.7167 14.8091 41.5962 14.8921 41.4425C14.9794 41.2888 15.023 41.1164 15.023 40.9253V37.9842H15.8704V40.9689C15.8704 41.3013 15.7915 41.5983 15.6336 41.86C15.4758 42.1217 15.2577 42.3273 14.9794 42.4769C14.7052 42.6264 14.3895 42.7012 14.0322 42.7012ZM18.2805 42.7012C17.944 42.7012 17.6407 42.6243 17.3707 42.4706C17.1049 42.3128 16.8951 42.1009 16.7414 41.8351C16.5877 41.565 16.5108 41.2618 16.5108 40.9253C16.5108 40.5888 16.5877 40.2877 16.7414 40.0218C16.8951 39.7559 17.1049 39.5462 17.3707 39.3925C17.6407 39.2388 17.944 39.1619 18.2805 39.1619C18.5214 39.1619 18.7457 39.2055 18.9534 39.2928C19.1611 39.3758 19.3398 39.4922 19.4893 39.6417C19.643 39.7871 19.7531 39.9616 19.8195 40.1651L19.103 40.4767C19.0407 40.3064 18.9347 40.1693 18.7852 40.0654C18.6398 39.9616 18.4715 39.9096 18.2805 39.9096C18.1018 39.9096 17.9419 39.9533 17.8007 40.0405C17.6636 40.1277 17.5556 40.2482 17.4766 40.4019C17.3977 40.5556 17.3583 40.7322 17.3583 40.9315C17.3583 41.1309 17.3977 41.3075 17.4766 41.4612C17.5556 41.6149 17.6636 41.7354 17.8007 41.8226C17.9419 41.9098 18.1018 41.9535 18.2805 41.9535C18.4757 41.9535 18.646 41.9015 18.7914 41.7977C18.9368 41.6938 19.0407 41.5547 19.103 41.3802L19.8195 41.7042C19.7531 41.8953 19.6451 42.0677 19.4955 42.2214C19.346 42.3709 19.1674 42.4893 18.9597 42.5766C18.7519 42.6596 18.5256 42.7012 18.2805 42.7012ZM21.4549 42.7012C21.2181 42.7012 21.0125 42.6617 20.838 42.5828C20.6635 42.5039 20.5285 42.3917 20.433 42.2463C20.3374 42.0968 20.2897 41.9244 20.2897 41.7291C20.2897 41.5422 20.3312 41.376 20.4143 41.2306C20.4974 41.0811 20.6261 40.9565 20.8006 40.8568C20.9751 40.7571 21.1952 40.6865 21.4611 40.6449L22.5702 40.4642V41.0873L21.6169 41.2493C21.4549 41.2784 21.3344 41.3303 21.2555 41.4051C21.1766 41.4799 21.1371 41.5775 21.1371 41.698C21.1371 41.8143 21.1807 41.9078 21.2679 41.9784C21.3593 42.0448 21.4715 42.0781 21.6044 42.0781C21.7747 42.0781 21.9243 42.0428 22.0531 41.9721C22.186 41.8974 22.2878 41.7956 22.3584 41.6668C22.4332 41.538 22.4706 41.3968 22.4706 41.2431V40.3707C22.4706 40.2254 22.4124 40.1049 22.2961 40.0093C22.1839 39.9096 22.0344 39.8598 21.8474 39.8598C21.673 39.8598 21.5172 39.9076 21.3801 40.0031C21.2472 40.0945 21.1496 40.217 21.0872 40.3707L20.4205 40.0467C20.487 39.8681 20.5908 39.7144 20.7321 39.5856C20.8775 39.4527 21.0478 39.3488 21.243 39.2741C21.4383 39.1993 21.6501 39.1619 21.8786 39.1619C22.1569 39.1619 22.402 39.2138 22.6139 39.3177C22.8257 39.4174 22.9898 39.5586 23.1061 39.7414C23.2266 39.92 23.2868 40.1298 23.2868 40.3707V42.6264H22.5142V42.0469L22.6886 42.0345C22.6014 42.1799 22.4976 42.3024 22.3771 42.4021C22.2566 42.4976 22.1195 42.5724 21.9658 42.6264C21.8121 42.6763 21.6418 42.7012 21.4549 42.7012ZM24.0413 43.8726V39.2367H24.8077V39.9096L24.7329 39.7414C24.8492 39.5586 25.0071 39.4174 25.2065 39.3177C25.4059 39.2138 25.6364 39.1619 25.8982 39.1619C26.218 39.1619 26.5067 39.2408 26.7643 39.3987C27.0218 39.5565 27.2254 39.7684 27.3749 40.0343C27.5286 40.3001 27.6055 40.5992 27.6055 40.9315C27.6055 41.2597 27.5307 41.5588 27.3812 41.8288C27.2316 42.0988 27.0281 42.3128 26.7705 42.4706C26.513 42.6243 26.2201 42.7012 25.8919 42.7012C25.6468 42.7012 25.4204 42.6534 25.2127 42.5579C25.0092 42.4582 24.8472 42.3169 24.7267 42.1342L24.8576 41.9721V43.8726H24.0413ZM25.7985 41.9535C25.9854 41.9535 26.1516 41.9098 26.2969 41.8226C26.4423 41.7354 26.5545 41.6149 26.6334 41.4612C26.7165 41.3075 26.758 41.1309 26.758 40.9315C26.758 40.7322 26.7165 40.5577 26.6334 40.4081C26.5545 40.2544 26.4423 40.134 26.2969 40.0467C26.1516 39.9553 25.9854 39.9096 25.7985 39.9096C25.6198 39.9096 25.4578 39.9533 25.3124 40.0405C25.1712 40.1277 25.059 40.2503 24.9759 40.4081C24.897 40.5618 24.8576 40.7363 24.8576 40.9315C24.8576 41.1309 24.897 41.3075 24.9759 41.4612C25.059 41.6149 25.1712 41.7354 25.3124 41.8226C25.4578 41.9098 25.6198 41.9535 25.7985 41.9535ZM29.256 42.7012C29.0192 42.7012 28.8135 42.6617 28.6391 42.5828C28.4646 42.5039 28.3296 42.3917 28.234 42.2463C28.1385 42.0968 28.0907 41.9244 28.0907 41.7291C28.0907 41.5422 28.1323 41.376 28.2154 41.2306C28.2984 41.0811 28.4272 40.9565 28.6017 40.8568C28.7762 40.7571 28.9963 40.6865 29.2622 40.6449L30.3713 40.4642V41.0873L29.418 41.2493C29.256 41.2784 29.1355 41.3303 29.0566 41.4051C28.9776 41.4799 28.9382 41.5775 28.9382 41.698C28.9382 41.8143 28.9818 41.9078 29.069 41.9784C29.1604 42.0448 29.2726 42.0781 29.4055 42.0781C29.5758 42.0781 29.7254 42.0428 29.8541 41.9721C29.9871 41.8974 30.0888 41.7956 30.1595 41.6668C30.2342 41.538 30.2716 41.3968 30.2716 41.2431V40.3707C30.2716 40.2254 30.2135 40.1049 30.0972 40.0093C29.985 39.9096 29.8354 39.8598 29.6485 39.8598C29.474 39.8598 29.3183 39.9076 29.1812 40.0031C29.0482 40.0945 28.9506 40.217 28.8883 40.3707L28.2216 40.0467C28.288 39.8681 28.3919 39.7144 28.5331 39.5856C28.6785 39.4527 28.8489 39.3488 29.0441 39.2741C29.2393 39.1993 29.4512 39.1619 29.6797 39.1619C29.958 39.1619 30.2031 39.2138 30.4149 39.3177C30.6268 39.4174 30.7909 39.5586 30.9072 39.7414C31.0277 39.92 31.0879 40.1298 31.0879 40.3707V42.6264H30.3152V42.0469L30.4897 42.0345C30.4025 42.1799 30.2986 42.3024 30.1782 42.4021C30.0577 42.4976 29.9206 42.5724 29.7669 42.6264C29.6132 42.6763 29.4429 42.7012 29.256 42.7012ZM31.8424 42.6264V39.2367H32.6088V39.9034L32.5465 39.785C32.6254 39.5815 32.7542 39.4278 32.9328 39.3239C33.1156 39.2159 33.3274 39.1619 33.5684 39.1619C33.8176 39.1619 34.0378 39.2159 34.2289 39.3239C34.4241 39.4319 34.5757 39.5835 34.6837 39.7788C34.7918 39.9699 34.8458 40.1921 34.8458 40.4455V42.6264H34.0295V40.6387C34.0295 40.4891 34.0004 40.3604 33.9422 40.2524C33.8841 40.1444 33.8031 40.0613 33.6992 40.0031C33.5995 39.9408 33.4811 39.9096 33.3441 39.9096C33.2111 39.9096 33.0927 39.9408 32.9889 40.0031C32.885 40.0613 32.804 40.1444 32.7459 40.2524C32.6877 40.3604 32.6586 40.4891 32.6586 40.6387V42.6264H31.8424Z" fill="#8F907E"/>
</svg>
