<svg width="46" height="49" viewBox="0 0 46 49" fill="none" xmlns="http://www.w3.org/2000/svg">
<rect x="0.620605" y="0.583374" width="45.3199" height="48.2917" rx="9.65834" fill="white"/>
<path d="M23.2808 27.6741C23.4899 27.6741 23.6944 27.612 23.8683 27.4958C24.0422 27.3796 24.1777 27.2145 24.2578 27.0212C24.3378 26.828 24.3588 26.6154 24.3179 26.4103C24.2771 26.2051 24.1764 26.0167 24.0285 25.8688C23.8806 25.7209 23.6922 25.6202 23.4871 25.5794C23.2819 25.5386 23.0693 25.5595 22.8761 25.6396C22.6829 25.7196 22.5177 25.8551 22.4015 26.0291C22.2853 26.203 22.2233 26.4074 22.2233 26.6166C22.2233 26.897 22.3347 27.166 22.533 27.3643C22.7313 27.5626 23.0003 27.6741 23.2808 27.6741ZM28.5683 27.6741C28.7774 27.6741 28.9819 27.612 29.1558 27.4958C29.3297 27.3796 29.4652 27.2145 29.5452 27.0212C29.6253 26.828 29.6462 26.6154 29.6054 26.4103C29.5646 26.2051 29.4639 26.0167 29.316 25.8688C29.1681 25.7209 28.9797 25.6202 28.7746 25.5794C28.5694 25.5386 28.3568 25.5595 28.1636 25.6396C27.9703 25.7196 27.8052 25.8551 27.689 26.0291C27.5728 26.203 27.5108 26.4074 27.5108 26.6166C27.5108 26.897 27.6222 27.166 27.8205 27.3643C28.0188 27.5626 28.2878 27.6741 28.5683 27.6741ZM28.5683 23.4441C28.7774 23.4441 28.9819 23.3821 29.1558 23.2659C29.3297 23.1497 29.4652 22.9845 29.5452 22.7913C29.6253 22.598 29.6462 22.3854 29.6054 22.1803C29.5646 21.9751 29.4639 21.7867 29.316 21.6388C29.1681 21.4909 28.9797 21.3902 28.7746 21.3494C28.5694 21.3086 28.3568 21.3295 28.1636 21.4096C27.9703 21.4896 27.8052 21.6252 27.689 21.7991C27.5728 21.973 27.5108 22.1774 27.5108 22.3866C27.5108 22.667 27.6222 22.936 27.8205 23.1343C28.0188 23.3327 28.2878 23.4441 28.5683 23.4441ZM23.2808 23.4441C23.4899 23.4441 23.6944 23.3821 23.8683 23.2659C24.0422 23.1497 24.1777 22.9845 24.2578 22.7913C24.3378 22.598 24.3588 22.3854 24.3179 22.1803C24.2771 21.9751 24.1764 21.7867 24.0285 21.6388C23.8806 21.4909 23.6922 21.3902 23.4871 21.3494C23.2819 21.3086 23.0693 21.3295 22.8761 21.4096C22.6829 21.4896 22.5177 21.6252 22.4015 21.7991C22.2853 21.973 22.2233 22.1774 22.2233 22.3866C22.2233 22.667 22.3347 22.936 22.533 23.1343C22.7313 23.3327 23.0003 23.4441 23.2808 23.4441ZM30.6832 10.7541H29.6257V9.69663C29.6257 9.41616 29.5143 9.14718 29.316 8.94886C29.1177 8.75054 28.8487 8.63913 28.5683 8.63913C28.2878 8.63913 28.0188 8.75054 27.8205 8.94886C27.6222 9.14718 27.5108 9.41616 27.5108 9.69663V10.7541H19.0508V9.69663C19.0508 9.41616 18.9394 9.14718 18.7411 8.94886C18.5427 8.75054 18.2738 8.63913 17.9933 8.63913C17.7128 8.63913 17.4438 8.75054 17.2455 8.94886C17.0472 9.14718 16.9358 9.41616 16.9358 9.69663V10.7541H15.8783C15.0369 10.7541 14.23 11.0884 13.635 11.6833C13.0401 12.2783 12.7058 13.0852 12.7058 13.9266V28.7316C12.7058 29.573 13.0401 30.3799 13.635 30.9748C14.23 31.5698 15.0369 31.904 15.8783 31.904H30.6832C31.5246 31.904 32.3316 31.5698 32.9265 30.9748C33.5215 30.3799 33.8557 29.573 33.8557 28.7316V13.9266C33.8557 13.0852 33.5215 12.2783 32.9265 11.6833C32.3316 11.0884 31.5246 10.7541 30.6832 10.7541ZM31.7407 28.7316C31.7407 29.012 31.6293 29.281 31.431 29.4793C31.2327 29.6776 30.9637 29.7891 30.6832 29.7891H15.8783C15.5978 29.7891 15.3289 29.6776 15.1305 29.4793C14.9322 29.281 14.8208 29.012 14.8208 28.7316V19.2141H31.7407V28.7316ZM31.7407 17.0991H14.8208V13.9266C14.8208 13.6461 14.9322 13.3772 15.1305 13.1788C15.3289 12.9805 15.5978 12.8691 15.8783 12.8691H16.9358V13.9266C16.9358 14.2071 17.0472 14.4761 17.2455 14.6744C17.4438 14.8727 17.7128 14.9841 17.9933 14.9841C18.2738 14.9841 18.5427 14.8727 18.7411 14.6744C18.9394 14.4761 19.0508 14.2071 19.0508 13.9266V12.8691H27.5108V13.9266C27.5108 14.2071 27.6222 14.4761 27.8205 14.6744C28.0188 14.8727 28.2878 14.9841 28.5683 14.9841C28.8487 14.9841 29.1177 14.8727 29.316 14.6744C29.5143 14.4761 29.6257 14.2071 29.6257 13.9266V12.8691H30.6832C30.9637 12.8691 31.2327 12.9805 31.431 13.1788C31.6293 13.3772 31.7407 13.6461 31.7407 13.9266V17.0991ZM17.9933 23.4441C18.2024 23.4441 18.4069 23.3821 18.5808 23.2659C18.7547 23.1497 18.8903 22.9845 18.9703 22.7913C19.0503 22.598 19.0713 22.3854 19.0305 22.1803C18.9897 21.9751 18.8889 21.7867 18.7411 21.6388C18.5932 21.4909 18.4047 21.3902 18.1996 21.3494C17.9945 21.3086 17.7818 21.3295 17.5886 21.4096C17.3954 21.4896 17.2302 21.6252 17.114 21.7991C16.9978 21.973 16.9358 22.1774 16.9358 22.3866C16.9358 22.667 17.0472 22.936 17.2455 23.1343C17.4438 23.3327 17.7128 23.4441 17.9933 23.4441ZM17.9933 27.6741C18.2024 27.6741 18.4069 27.612 18.5808 27.4958C18.7547 27.3796 18.8903 27.2145 18.9703 27.0212C19.0503 26.828 19.0713 26.6154 19.0305 26.4103C18.9897 26.2051 18.8889 26.0167 18.7411 25.8688C18.5932 25.7209 18.4047 25.6202 18.1996 25.5794C17.9945 25.5386 17.7818 25.5595 17.5886 25.6396C17.3954 25.7196 17.2302 25.8551 17.114 26.0291C16.9978 26.203 16.9358 26.4074 16.9358 26.6166C16.9358 26.897 17.0472 27.166 17.2455 27.3643C17.4438 27.5626 17.7128 27.6741 17.9933 27.6741Z" fill="#8F907E"/>
<path d="M14.8044 42.4597L13.5582 37.8175H14.4679L15.4462 41.7743H15.2094L16.2313 37.8175H17.1099L18.1256 41.7743H17.8888L18.8671 37.8175H19.7768L18.5306 42.4597H17.5585L16.5304 38.6089H16.8046L15.7764 42.4597H14.8044ZM21.0012 42.5345C20.7644 42.5345 20.5588 42.495 20.3843 42.4161C20.2098 42.3371 20.0748 42.225 19.9793 42.0796C19.8837 41.93 19.836 41.7576 19.836 41.5624C19.836 41.3755 19.8775 41.2093 19.9606 41.0639C20.0437 40.9144 20.1725 40.7897 20.3469 40.69C20.5214 40.5903 20.7416 40.5197 21.0074 40.4782L22.1166 40.2975V40.9206L21.1632 41.0826C21.0012 41.1117 20.8807 41.1636 20.8018 41.2384C20.7229 41.3132 20.6834 41.4108 20.6834 41.5312C20.6834 41.6476 20.727 41.741 20.8143 41.8116C20.9056 41.8781 21.0178 41.9113 21.1507 41.9113C21.3211 41.9113 21.4706 41.876 21.5994 41.8054C21.7323 41.7306 21.8341 41.6289 21.9047 41.5001C21.9795 41.3713 22.0169 41.2301 22.0169 41.0764V40.204C22.0169 40.0586 21.9587 39.9382 21.8424 39.8426C21.7302 39.7429 21.5807 39.6931 21.3938 39.6931C21.2193 39.6931 21.0635 39.7408 20.9264 39.8364C20.7935 39.9278 20.6959 40.0503 20.6336 40.204L19.9668 39.88C20.0333 39.7014 20.1371 39.5477 20.2784 39.4189C20.4238 39.286 20.5941 39.1821 20.7893 39.1073C20.9846 39.0326 21.1964 38.9952 21.4249 38.9952C21.7032 38.9952 21.9483 39.0471 22.1602 39.151C22.372 39.2507 22.5361 39.3919 22.6524 39.5747C22.7729 39.7533 22.8331 39.9631 22.8331 40.204V42.4597H22.0605V41.8802L22.235 41.8677C22.1477 42.0131 22.0439 42.1357 21.9234 42.2354C21.8029 42.3309 21.6658 42.4057 21.5121 42.4597C21.3584 42.5095 21.1881 42.5345 21.0012 42.5345ZM23.5876 42.4597V37.7427H24.4039V40.8334L24.0923 40.7399L25.6875 39.07H26.7032L25.4507 40.4346L26.7281 42.4597H25.7934L24.6843 40.7025L25.1703 40.6028L24.1484 41.6995L24.4039 41.201V42.4597H23.5876ZM28.7292 42.4971C28.347 42.4971 28.05 42.3932 27.8381 42.1855C27.6304 41.9737 27.5266 41.6766 27.5266 41.2945V39.799H26.9409V39.07H27.0032C27.1693 39.07 27.2981 39.0263 27.3895 38.9391C27.4809 38.8519 27.5266 38.7252 27.5266 38.559V38.2973H28.3429V39.07H29.1218V39.799H28.3429V41.2508C28.3429 41.363 28.3616 41.4586 28.3989 41.5375C28.4405 41.6164 28.5028 41.6766 28.5859 41.7182C28.6731 41.7597 28.7832 41.7805 28.9161 41.7805C28.9452 41.7805 28.9784 41.7784 29.0158 41.7743C29.0574 41.7701 29.0968 41.766 29.1342 41.7618V42.4597C29.0761 42.468 29.0096 42.4763 28.9348 42.4846C28.8601 42.4929 28.7915 42.4971 28.7292 42.4971ZM30.9667 42.5345C30.705 42.5345 30.4765 42.4763 30.2813 42.36C30.0902 42.2437 29.9427 42.0817 29.8389 41.874C29.7392 41.6663 29.6893 41.4232 29.6893 41.1449V39.07H30.5056V41.0764C30.5056 41.2176 30.5326 41.3422 30.5866 41.4502C30.6448 41.5541 30.7258 41.6372 30.8296 41.6995C30.9376 41.7576 31.0581 41.7867 31.191 41.7867C31.324 41.7867 31.4423 41.7576 31.5462 41.6995C31.6501 41.6372 31.7311 41.552 31.7892 41.444C31.8474 41.336 31.8764 41.2072 31.8764 41.0577V39.07H32.6927V42.4597H31.9201V41.793L31.9886 41.9113C31.9097 42.1191 31.7788 42.2748 31.596 42.3787C31.4174 42.4825 31.2076 42.5345 30.9667 42.5345Z" fill="#8F907E"/>
</svg>
