<svg width="46" height="49" viewBox="0 0 46 49" fill="none" xmlns="http://www.w3.org/2000/svg">
<rect x="0.322754" y="0.291679" width="45.3199" height="48.2917" rx="9.65834" fill="#BD9F91"/>
<path d="M25.0978 10.2001L31.4427 15.7625C31.7773 16.0617 32.0445 16.4285 32.2268 16.8387C32.4091 17.2489 32.5023 17.693 32.5002 18.1419V28.3386C32.5002 29.5696 31.5042 30.5674 30.2733 30.5674C29.7578 30.5674 29.1355 30.5674 28.3894 30.5674C27.1585 30.5674 26.1583 29.5696 26.1583 28.3386V23.1538C26.1583 21.9229 25.1604 20.925 23.9294 20.925H22.036C20.805 20.925 19.8071 21.9229 19.8071 23.1538V28.3386C19.8071 29.5696 18.8095 30.5674 17.5786 30.5674C16.9619 30.5674 16.3013 30.5674 15.694 30.5674C14.463 30.5674 13.4653 29.5696 13.4653 28.3386V18.1524C13.4617 17.7018 13.5542 17.2556 13.7365 16.8435C13.9189 16.4314 14.1869 16.0629 14.5228 15.7625L20.8678 10.2001C21.4494 9.67983 22.2024 9.39221 22.9828 9.39221C23.7631 9.39221 24.5161 9.67983 25.0978 10.2001Z" fill="white"/>
<path d="M10.6496 42.168V37.5258H12.6062C12.9136 37.5258 13.1753 37.5798 13.3913 37.6878C13.6115 37.7916 13.7797 37.9412 13.896 38.1364C14.0165 38.3275 14.0767 38.5602 14.0767 38.8343C14.0767 39.0462 14.0186 39.2456 13.9022 39.4325C13.7901 39.6153 13.6094 39.7669 13.3601 39.8874V39.4948C13.5886 39.5821 13.7693 39.6901 13.9022 39.8188C14.0352 39.9476 14.1286 40.0909 14.1826 40.2488C14.2366 40.4066 14.2636 40.5728 14.2636 40.7473C14.2636 41.1918 14.1162 41.5407 13.8212 41.7941C13.5305 42.0434 13.1254 42.168 12.6062 42.168H10.6496ZM11.497 41.4202H12.6934C12.9136 41.4202 13.088 41.36 13.2168 41.2395C13.3497 41.1149 13.4162 40.9508 13.4162 40.7473C13.4162 40.5437 13.3497 40.3796 13.2168 40.255C13.088 40.1304 12.9136 40.0681 12.6934 40.0681H11.497V41.4202ZM11.497 39.3266H12.6498C12.8243 39.3266 12.9634 39.2767 13.0673 39.177C13.1711 39.0732 13.223 38.9403 13.223 38.7782C13.223 38.6162 13.1711 38.4875 13.0673 38.3919C12.9634 38.2964 12.8243 38.2486 12.6498 38.2486H11.497V39.3266ZM16.4969 42.2427C16.148 42.2427 15.8427 42.1638 15.5809 42.006C15.3192 41.8481 15.1157 41.6342 14.9703 41.3642C14.8249 41.0941 14.7522 40.795 14.7522 40.4669C14.7522 40.1262 14.8249 39.8251 14.9703 39.5634C15.1198 39.2975 15.3213 39.0877 15.5747 38.934C15.8323 38.7803 16.1189 38.7035 16.4346 38.7035C16.7005 38.7035 16.9331 38.7471 17.1325 38.8343C17.336 38.9216 17.5084 39.042 17.6497 39.1957C17.7909 39.3494 17.8989 39.526 17.9737 39.7254C18.0485 39.9206 18.0859 40.1325 18.0859 40.3609C18.0859 40.4191 18.0817 40.4793 18.0734 40.5416C18.0692 40.604 18.0589 40.658 18.0422 40.7037H15.4252V40.0805H17.5811L17.1948 40.3734C17.2322 40.1823 17.2218 40.012 17.1636 39.8625C17.1096 39.7129 17.0183 39.5945 16.8895 39.5073C16.7649 39.42 16.6132 39.3764 16.4346 39.3764C16.2643 39.3764 16.1127 39.42 15.9797 39.5073C15.8468 39.5904 15.745 39.715 15.6744 39.8812C15.6079 40.0432 15.583 40.2405 15.5996 40.4731C15.583 40.6808 15.61 40.8657 15.6806 41.0277C15.7554 41.1855 15.8634 41.3081 16.0047 41.3953C16.1501 41.4825 16.3162 41.5262 16.5032 41.5262C16.6901 41.5262 16.8479 41.4867 16.9767 41.4078C17.1096 41.3288 17.2135 41.2229 17.2883 41.09L17.9488 41.414C17.8823 41.576 17.7785 41.7193 17.6372 41.844C17.496 41.9686 17.3277 42.0662 17.1325 42.1368C16.9414 42.2074 16.7295 42.2427 16.4969 42.2427ZM18.7046 42.168V38.7782H19.4711V39.5322L19.4088 39.42C19.4877 39.1666 19.6102 38.9901 19.7764 38.8904C19.9467 38.7907 20.1503 38.7409 20.387 38.7409H20.5864V39.4637H20.2936C20.0609 39.4637 19.874 39.5364 19.7328 39.6818C19.5915 39.823 19.5209 40.0224 19.5209 40.2799V42.168H18.7046ZM22.0634 42.2427C21.8266 42.2427 21.6209 42.2033 21.4465 42.1244C21.272 42.0454 21.137 41.9333 21.0415 41.7879C20.9459 41.6383 20.8981 41.4659 20.8981 41.2707C20.8981 41.0838 20.9397 40.9176 21.0228 40.7722C21.1058 40.6227 21.2346 40.498 21.4091 40.3983C21.5836 40.2986 21.8037 40.228 22.0696 40.1865L23.1787 40.0058V40.6289L22.2254 40.7909C22.0634 40.82 21.9429 40.8719 21.864 40.9467C21.785 41.0214 21.7456 41.1191 21.7456 41.2395C21.7456 41.3558 21.7892 41.4493 21.8764 41.5199C21.9678 41.5864 22.08 41.6196 22.2129 41.6196C22.3832 41.6196 22.5328 41.5843 22.6615 41.5137C22.7945 41.4389 22.8962 41.3372 22.9669 41.2084C23.0416 41.0796 23.079 40.9384 23.079 40.7847V39.9123C23.079 39.7669 23.0209 39.6464 22.9046 39.5509C22.7924 39.4512 22.6429 39.4014 22.4559 39.4014C22.2814 39.4014 22.1257 39.4491 21.9886 39.5447C21.8557 39.6361 21.758 39.7586 21.6957 39.9123L21.029 39.5883C21.0955 39.4097 21.1993 39.256 21.3405 39.1272C21.4859 38.9943 21.6563 38.8904 21.8515 38.8156C22.0467 38.7409 22.2586 38.7035 22.4871 38.7035C22.7654 38.7035 23.0105 38.7554 23.2223 38.8592C23.4342 38.9589 23.5983 39.1002 23.7146 39.283C23.8351 39.4616 23.8953 39.6714 23.8953 39.9123V42.168H23.1226V41.5885L23.2971 41.576C23.2099 41.7214 23.106 41.844 22.9856 41.9437C22.8651 42.0392 22.728 42.114 22.5743 42.168C22.4206 42.2178 22.2503 42.2427 22.0634 42.2427ZM24.6498 42.168V38.7782H25.4162V39.445L25.3539 39.3266C25.4328 39.123 25.5616 38.9693 25.7402 38.8655C25.923 38.7575 26.1348 38.7035 26.3758 38.7035C26.625 38.7035 26.8452 38.7575 27.0363 38.8655C27.2315 38.9735 27.3831 39.1251 27.4912 39.3203C27.5992 39.5114 27.6532 39.7337 27.6532 39.9871V42.168H26.8369V40.1802C26.8369 40.0307 26.8078 39.9019 26.7496 39.7939C26.6915 39.6859 26.6105 39.6028 26.5066 39.5447C26.4069 39.4824 26.2885 39.4512 26.1515 39.4512C26.0185 39.4512 25.9001 39.4824 25.7963 39.5447C25.6924 39.6028 25.6114 39.6859 25.5533 39.7939C25.4951 39.9019 25.466 40.0307 25.466 40.1802V42.168H24.6498ZM29.9199 42.2427C29.5917 42.2427 29.2988 42.1659 29.0413 42.0122C28.7837 41.8543 28.5802 41.6404 28.4306 41.3704C28.2811 41.1004 28.2063 40.8013 28.2063 40.4731C28.2063 40.1408 28.2811 39.8417 28.4306 39.5758C28.5802 39.31 28.7837 39.0981 29.0413 38.9403C29.303 38.7824 29.5938 38.7035 29.9136 38.7035C30.1712 38.7035 30.3997 38.7554 30.5991 38.8592C30.8026 38.9589 30.9626 39.1002 31.0789 39.283L30.9542 39.4512V37.451H31.7705V42.168H30.9979V41.5137L31.0851 41.6757C30.9688 41.8585 30.8068 41.9997 30.5991 42.0994C30.3914 42.195 30.165 42.2427 29.9199 42.2427ZM30.0071 41.495C30.194 41.495 30.3581 41.4514 30.4994 41.3642C30.6406 41.2769 30.7507 41.1565 30.8296 41.0028C30.9127 40.8491 30.9542 40.6725 30.9542 40.4731C30.9542 40.2779 30.9127 40.1034 30.8296 39.9497C30.7507 39.7918 30.6406 39.6693 30.4994 39.5821C30.3581 39.4948 30.194 39.4512 30.0071 39.4512C29.8243 39.4512 29.6602 39.4969 29.5149 39.5883C29.3695 39.6755 29.2552 39.796 29.1721 39.9497C29.0932 40.0992 29.0538 40.2737 29.0538 40.4731C29.0538 40.6725 29.0932 40.8491 29.1721 41.0028C29.2552 41.1565 29.3695 41.2769 29.5149 41.3642C29.6602 41.4514 29.8243 41.495 30.0071 41.495ZM33.5581 42.2427C33.3213 42.2427 33.1157 42.2033 32.9412 42.1244C32.7667 42.0454 32.6317 41.9333 32.5362 41.7879C32.4406 41.6383 32.3929 41.4659 32.3929 41.2707C32.3929 41.0838 32.4344 40.9176 32.5175 40.7722C32.6006 40.6227 32.7293 40.498 32.9038 40.3983C33.0783 40.2986 33.2984 40.228 33.5643 40.1865L34.6734 40.0058V40.6289L33.7201 40.7909C33.5581 40.82 33.4376 40.8719 33.3587 40.9467C33.2797 41.0214 33.2403 41.1191 33.2403 41.2395C33.2403 41.3558 33.2839 41.4493 33.3711 41.5199C33.4625 41.5864 33.5747 41.6196 33.7076 41.6196C33.8779 41.6196 34.0275 41.5843 34.1563 41.5137C34.2892 41.4389 34.391 41.3372 34.4616 41.2084C34.5364 41.0796 34.5737 40.9384 34.5737 40.7847V39.9123C34.5737 39.7669 34.5156 39.6464 34.3993 39.5509C34.2871 39.4512 34.1376 39.4014 33.9506 39.4014C33.7762 39.4014 33.6204 39.4491 33.4833 39.5447C33.3504 39.6361 33.2527 39.7586 33.1904 39.9123L32.5237 39.5883C32.5902 39.4097 32.694 39.256 32.8353 39.1272C32.9807 38.9943 33.151 38.8904 33.3462 38.8156C33.5415 38.7409 33.7533 38.7035 33.9818 38.7035C34.2601 38.7035 34.5052 38.7554 34.7171 38.8592C34.9289 38.9589 35.093 39.1002 35.2093 39.283C35.3298 39.4616 35.39 39.6714 35.39 39.9123V42.168H34.6174V41.5885L34.7918 41.576C34.7046 41.7214 34.6007 41.844 34.4803 41.9437C34.3598 42.0392 34.2227 42.114 34.069 42.168C33.9153 42.2178 33.745 42.2427 33.5581 42.2427Z" fill="white"/>
</svg>
