<svg width="46" height="50" viewBox="0 0 46 50" fill="none" xmlns="http://www.w3.org/2000/svg">
<rect x="0.5177" y="0.750122" width="45.3199" height="48.2917" rx="9.65834" fill="#BD9F91"/>
<path d="M21.3084 18.6091L21.3045 18.6052L21.2995 18.6088L21.3084 18.6091Z" fill="white"/>
<path fill-rule="evenodd" clip-rule="evenodd" d="M28.8881 13.776V23.2935C28.8881 24.0508 28.5873 24.777 28.0518 25.3125C27.5164 25.8479 26.7901 26.1487 26.0329 26.1487H16.5154C15.7581 26.1487 15.0319 25.8479 14.4964 25.3125C13.961 24.777 13.6602 24.0508 13.6602 23.2935V13.776C13.6602 13.0188 13.961 12.2925 14.4964 11.7571C15.0319 11.2216 15.7581 10.9208 16.5154 10.9208H26.0329C26.7901 10.9208 27.5164 11.2216 28.0518 11.7571C28.5873 12.2925 28.8881 13.0188 28.8881 13.776ZM15.5636 19.59V23.1308C15.5636 23.7463 16.0626 24.2453 16.6781 24.2453H26.0329C26.2853 24.2453 26.5274 24.145 26.7058 23.9665C26.8843 23.788 26.9846 23.5459 26.9846 23.2935V19.1237L24.6052 16.7538C24.5583 16.7022 24.5009 16.6611 24.437 16.6332C24.373 16.6054 24.3038 16.5913 24.2341 16.592C24.1643 16.5913 24.0951 16.6054 24.0312 16.6332C23.9672 16.6611 23.9098 16.7022 23.8629 16.7538L21.3045 18.6052L19.5324 16.849C19.452 16.7682 19.3563 16.704 19.2509 16.6602C19.1456 16.6164 19.0326 16.5939 18.9186 16.5939C18.8045 16.5939 18.6915 16.6164 18.5862 16.6602C18.4808 16.704 18.3852 16.7682 18.3047 16.849L15.5636 19.59Z" fill="white"/>
<path d="M31.0704 15.0066C31.2488 14.8281 31.4909 14.7278 31.7433 14.7278C31.9958 14.7278 32.2378 14.8281 32.4163 15.0066C32.5948 15.185 32.6951 15.4271 32.6951 15.6795V25.197C32.6951 26.4591 32.1937 27.6695 31.3013 28.5619C30.4089 29.4544 29.1984 29.9557 27.9364 29.9557H18.4189C18.1665 29.9557 17.9244 29.8555 17.7459 29.677C17.5674 29.4985 17.4671 29.2564 17.4671 29.004C17.4671 28.7516 17.5674 28.5095 17.7459 28.331C17.9244 28.1525 18.1665 28.0522 18.4189 28.0522H27.9364C28.6936 28.0522 29.4199 27.7514 29.9553 27.216C30.4908 26.6805 30.7916 25.9543 30.7916 25.197V15.6795C30.7916 15.4271 30.8919 15.185 31.0704 15.0066Z" fill="white"/>
<path d="M16.8595 42.7012C16.5271 42.7012 16.2197 42.641 15.9373 42.5205C15.6548 42.4 15.4076 42.2318 15.1958 42.0158C14.9839 41.7998 14.8177 41.5464 14.6973 41.2556C14.581 40.9648 14.5228 40.647 14.5228 40.3022C14.5228 39.9574 14.5789 39.6396 14.691 39.3489C14.8074 39.0539 14.9694 38.8005 15.1771 38.5887C15.3889 38.3727 15.6361 38.2065 15.9186 38.0902C16.2011 37.9697 16.5085 37.9095 16.8408 37.9095C17.1731 37.9095 17.4701 37.9656 17.7318 38.0777C17.9977 38.1899 18.222 38.3394 18.4048 38.5264C18.5876 38.7091 18.7184 38.9106 18.7974 39.1308L18.0434 39.4922C17.9562 39.2512 17.8087 39.056 17.601 38.9065C17.3933 38.7569 17.1399 38.6821 16.8408 38.6821C16.55 38.6821 16.2924 38.7507 16.0681 38.8878C15.848 39.0248 15.6756 39.2139 15.5509 39.4548C15.4305 39.6957 15.3702 39.9782 15.3702 40.3022C15.3702 40.6262 15.4325 40.9108 15.5572 41.1559C15.6859 41.3968 15.8625 41.5858 16.0868 41.7229C16.3111 41.86 16.5687 41.9285 16.8595 41.9285C17.0963 41.9285 17.3143 41.8829 17.5137 41.7915C17.7131 41.6959 17.8731 41.563 17.9935 41.3927C18.114 41.2182 18.1742 41.0126 18.1742 40.7758V40.4206L18.5606 40.7571H16.8408V40.0405H19.0217V40.5079C19.0217 40.8651 18.9614 41.1808 18.841 41.455C18.7205 41.7292 18.5564 41.9597 18.3487 42.1466C18.1452 42.3294 17.9146 42.4686 17.6571 42.5641C17.3995 42.6555 17.1336 42.7012 16.8595 42.7012ZM20.6518 42.7012C20.4151 42.7012 20.2094 42.6617 20.035 42.5828C19.8605 42.5039 19.7255 42.3917 19.6299 42.2463C19.5344 42.0968 19.4866 41.9244 19.4866 41.7292C19.4866 41.5422 19.5282 41.3761 19.6112 41.2307C19.6943 41.0811 19.8231 40.9565 19.9976 40.8568C20.172 40.7571 20.3922 40.6865 20.6581 40.6449L21.7672 40.4642V41.0873L20.8139 41.2494C20.6518 41.2784 20.5314 41.3304 20.4524 41.4051C20.3735 41.4799 20.3341 41.5775 20.3341 41.698C20.3341 41.8143 20.3777 41.9078 20.4649 41.9784C20.5563 42.0449 20.6685 42.0781 20.8014 42.0781C20.9717 42.0781 21.1213 42.0428 21.25 41.9722C21.383 41.8974 21.4847 41.7956 21.5554 41.6668C21.6301 41.5381 21.6675 41.3968 21.6675 41.2431V40.3708C21.6675 40.2254 21.6094 40.1049 21.493 40.0094C21.3809 39.9097 21.2313 39.8598 21.0444 39.8598C20.8699 39.8598 20.7142 39.9076 20.5771 40.0031C20.4441 40.0945 20.3465 40.2171 20.2842 40.3708L19.6175 40.0467C19.6839 39.8681 19.7878 39.7144 19.929 39.5856C20.0744 39.4527 20.2447 39.3489 20.44 39.2741C20.6352 39.1993 20.8471 39.1619 21.0756 39.1619C21.3539 39.1619 21.599 39.2139 21.8108 39.3177C22.0227 39.4174 22.1868 39.5586 22.3031 39.7414C22.4236 39.92 22.4838 40.1298 22.4838 40.3708V42.6264H21.7111V42.0469L21.8856 42.0345C21.7984 42.1799 21.6945 42.3024 21.574 42.4021C21.4536 42.4977 21.3165 42.5724 21.1628 42.6264C21.0091 42.6763 20.8388 42.7012 20.6518 42.7012ZM23.2382 42.6264V37.9095H24.0545V42.6264H23.2382ZM26.4158 42.7012C26.0669 42.7012 25.7616 42.6223 25.4998 42.4644C25.2381 42.3066 25.0346 42.0926 24.8892 41.8226C24.7438 41.5526 24.6711 41.2535 24.6711 40.9253C24.6711 40.5847 24.7438 40.2835 24.8892 40.0218C25.0387 39.756 25.2402 39.5462 25.4936 39.3925C25.7512 39.2388 26.0378 39.1619 26.3535 39.1619C26.6194 39.1619 26.852 39.2055 27.0514 39.2928C27.2549 39.38 27.4273 39.5005 27.5686 39.6542C27.7098 39.8079 27.8178 39.9844 27.8926 40.1838C27.9674 40.3791 28.0048 40.5909 28.0048 40.8194C28.0048 40.8776 28.0006 40.9378 27.9923 41.0001C27.9881 41.0624 27.9778 41.1164 27.9611 41.1621H25.3441V40.539H27.5L27.1137 40.8319C27.1511 40.6408 27.1407 40.4705 27.0826 40.3209C27.0286 40.1714 26.9372 40.053 26.8084 39.9657C26.6838 39.8785 26.5321 39.8349 26.3535 39.8349C26.1832 39.8349 26.0316 39.8785 25.8986 39.9657C25.7657 40.0488 25.6639 40.1734 25.5933 40.3396C25.5269 40.5016 25.5019 40.6989 25.5185 40.9316C25.5019 41.1393 25.5289 41.3241 25.5995 41.4861C25.6743 41.644 25.7823 41.7665 25.9236 41.8538C26.069 41.941 26.2351 41.9846 26.4221 41.9846C26.609 41.9846 26.7668 41.9452 26.8956 41.8662C27.0286 41.7873 27.1324 41.6814 27.2072 41.5485L27.8677 41.8725C27.8012 42.0345 27.6974 42.1778 27.5561 42.3024C27.4149 42.427 27.2466 42.5247 27.0514 42.5953C26.8603 42.6659 26.6485 42.7012 26.4158 42.7012ZM28.6235 42.6264V39.2367H29.39V39.9907L29.3277 39.8785C29.4066 39.6251 29.5291 39.4486 29.6953 39.3489C29.8656 39.2492 30.0692 39.1993 30.3059 39.1993H30.5053V39.9221H30.2125C29.9798 39.9221 29.7929 39.9948 29.6517 40.1402C29.5104 40.2815 29.4398 40.4809 29.4398 40.7384V42.6264H28.6235ZM30.9541 42.6264V39.2367H31.7704V42.6264H30.9541ZM30.9541 38.8566V37.9842H31.7704V38.8566H30.9541Z" fill="white"/>
</svg>
