<svg width="46" height="50" viewBox="0 0 46 50" fill="none" xmlns="http://www.w3.org/2000/svg">
<rect x="0.0664062" y="0.750122" width="45.3199" height="48.2917" rx="9.65834" fill="#BD9F91"/>
<path fill-rule="evenodd" clip-rule="evenodd" d="M15.2443 12.9562C15.2443 13.8144 15.4248 14.5203 15.7755 15.0939H14.1755C12.9948 15.0939 12.0377 16.051 12.0377 17.2317V19.2376C12.0377 19.6009 12.3284 19.8954 12.6917 19.8954C14.7515 19.8954 21.0081 19.8954 21.6771 19.8954V16.5991H23.7758V19.8954H32.7573C33.1206 19.8954 33.4151 19.6009 33.4151 19.2376V17.2317C33.4151 16.051 32.458 15.0939 31.2774 15.0939H29.6773C30.028 14.5203 30.2085 13.8144 30.2085 12.9562C30.2085 11.2642 28.9362 9.74957 27.0019 9.74957C25.065 9.74957 23.5032 11.0468 22.7264 13.0778C21.9496 11.0468 20.3878 9.74957 18.4509 9.74957C16.5167 9.74957 15.2443 11.2642 15.2443 12.9562ZM18.4887 11.8873C17.8256 11.8873 17.4198 12.3704 17.4198 12.9562C17.4198 14.2957 18.5068 14.9326 21.0854 15.0666C20.7989 13.0755 19.7308 11.8873 18.4887 11.8873ZM26.9641 11.8873C25.722 11.8873 24.6541 13.0755 24.3674 15.0666C26.946 14.9326 28.033 14.2957 28.033 12.9562C28.033 12.3704 27.6272 11.8873 26.9641 11.8873Z" fill="white"/>
<path d="M14.1755 22.6519C14.1755 22.2886 14.4699 21.9941 14.8332 21.9941H21.6771V31.1269H16.3132C15.1326 31.1269 14.1755 30.1698 14.1755 28.9892V22.6519Z" fill="white"/>
<path d="M29.1396 31.1269H23.7758V21.9941H30.6196C30.9829 21.9941 31.2774 22.2886 31.2774 22.6519V28.9892C31.2774 30.1698 30.3203 31.1269 29.1396 31.1269Z" fill="white"/>
<path d="M12.5504 42.6264V37.9842H13.3978V40.0094H15.3731V37.9842H16.2268V42.6264H15.3731V40.7571H13.3978V42.6264H12.5504ZM18.0799 42.7012C17.8431 42.7012 17.6375 42.6617 17.463 42.5828C17.2885 42.5039 17.1535 42.3917 17.058 42.2463C16.9624 42.0968 16.9147 41.9244 16.9147 41.7292C16.9147 41.5422 16.9562 41.3761 17.0393 41.2307C17.1224 41.0811 17.2512 40.9565 17.4256 40.8568C17.6001 40.7571 17.8203 40.6865 18.0861 40.6449L19.1953 40.4642V41.0873L18.2419 41.2494C18.0799 41.2784 17.9594 41.3304 17.8805 41.4051C17.8016 41.4799 17.7621 41.5775 17.7621 41.698C17.7621 41.8143 17.8057 41.9078 17.893 41.9784C17.9844 42.0449 18.0965 42.0781 18.2294 42.0781C18.3998 42.0781 18.5493 42.0428 18.6781 41.9722C18.811 41.8974 18.9128 41.7956 18.9834 41.6668C19.0582 41.5381 19.0956 41.3968 19.0956 41.2431V40.3708C19.0956 40.2254 19.0374 40.1049 18.9211 40.0094C18.8089 39.9097 18.6594 39.8598 18.4725 39.8598C18.298 39.8598 18.1422 39.9076 18.0051 40.0031C17.8722 40.0945 17.7746 40.2171 17.7123 40.3708L17.0455 40.0467C17.112 39.8681 17.2158 39.7144 17.3571 39.5856C17.5025 39.4527 17.6728 39.3489 17.868 39.2741C18.0633 39.1993 18.2751 39.1619 18.5036 39.1619C18.7819 39.1619 19.027 39.2139 19.2389 39.3177C19.4507 39.4174 19.6148 39.5586 19.7311 39.7414C19.8516 39.92 19.9118 40.1298 19.9118 40.3708V42.6264H19.1392V42.0469L19.3137 42.0345C19.2264 42.1799 19.1226 42.3024 19.0021 42.4021C18.8816 42.4977 18.7445 42.5724 18.5908 42.6264C18.4371 42.6763 18.2668 42.7012 18.0799 42.7012ZM22.2428 42.7012C21.9146 42.7012 21.6217 42.6244 21.3642 42.4707C21.1066 42.3128 20.9031 42.0989 20.7535 41.8289C20.604 41.5588 20.5292 41.2597 20.5292 40.9316C20.5292 40.5992 20.604 40.3001 20.7535 40.0343C20.9031 39.7684 21.1066 39.5566 21.3642 39.3987C21.6259 39.2409 21.9167 39.1619 22.2365 39.1619C22.4941 39.1619 22.7226 39.2139 22.922 39.3177C23.1255 39.4174 23.2854 39.5586 23.4018 39.7414L23.2771 39.9097V37.9095H24.0934V42.6264H23.3208V41.9722L23.408 42.1342C23.2917 42.317 23.1297 42.4582 22.922 42.5579C22.7143 42.6534 22.4879 42.7012 22.2428 42.7012ZM22.33 41.9535C22.5169 41.9535 22.681 41.9099 22.8223 41.8226C22.9635 41.7354 23.0736 41.6149 23.1525 41.4612C23.2356 41.3075 23.2771 41.131 23.2771 40.9316C23.2771 40.7363 23.2356 40.5619 23.1525 40.4082C23.0736 40.2503 22.9635 40.1278 22.8223 40.0405C22.681 39.9533 22.5169 39.9097 22.33 39.9097C22.1472 39.9097 21.9831 39.9554 21.8378 40.0467C21.6924 40.134 21.5781 40.2545 21.495 40.4082C21.4161 40.5577 21.3766 40.7322 21.3766 40.9316C21.3766 41.131 21.4161 41.3075 21.495 41.4612C21.5781 41.6149 21.6924 41.7354 21.8378 41.8226C21.9831 41.9099 22.1472 41.9535 22.33 41.9535ZM24.8528 42.6264V39.2367H25.6691V42.6264H24.8528ZM24.8528 38.8566V37.9842H25.6691V38.8566H24.8528ZM27.4509 42.7012C27.2141 42.7012 27.0085 42.6617 26.834 42.5828C26.6596 42.5039 26.5246 42.3917 26.429 42.2463C26.3335 42.0968 26.2857 41.9244 26.2857 41.7292C26.2857 41.5422 26.3272 41.3761 26.4103 41.2307C26.4934 41.0811 26.6222 40.9565 26.7967 40.8568C26.9711 40.7571 27.1913 40.6865 27.4572 40.6449L28.5663 40.4642V41.0873L27.6129 41.2494C27.4509 41.2784 27.3305 41.3304 27.2515 41.4051C27.1726 41.4799 27.1331 41.5775 27.1331 41.698C27.1331 41.8143 27.1768 41.9078 27.264 41.9784C27.3554 42.0449 27.4675 42.0781 27.6005 42.0781C27.7708 42.0781 27.9203 42.0428 28.0491 41.9722C28.182 41.8974 28.2838 41.7956 28.3544 41.6668C28.4292 41.5381 28.4666 41.3968 28.4666 41.2431V40.3708C28.4666 40.2254 28.4084 40.1049 28.2921 40.0094C28.18 39.9097 28.0304 39.8598 27.8435 39.8598C27.669 39.8598 27.5132 39.9076 27.3761 40.0031C27.2432 40.0945 27.1456 40.2171 27.0833 40.3708L26.4166 40.0467C26.483 39.8681 26.5869 39.7144 26.7281 39.5856C26.8735 39.4527 27.0438 39.3489 27.2391 39.2741C27.4343 39.1993 27.6462 39.1619 27.8746 39.1619C28.153 39.1619 28.3981 39.2139 28.6099 39.3177C28.8218 39.4174 28.9859 39.5586 29.1022 39.7414C29.2226 39.92 29.2829 40.1298 29.2829 40.3708V42.6264H28.5102V42.0469L28.6847 42.0345C28.5974 42.1799 28.4936 42.3024 28.3731 42.4021C28.2527 42.4977 28.1156 42.5724 27.9619 42.6264C27.8082 42.6763 27.6379 42.7012 27.4509 42.7012ZM30.0373 42.6264V37.9095H30.8536V39.9034L30.7414 39.785C30.8204 39.5815 30.9491 39.4278 31.1278 39.3239C31.3106 39.2159 31.5224 39.1619 31.7633 39.1619C32.0126 39.1619 32.2328 39.2159 32.4238 39.3239C32.6191 39.4319 32.7707 39.5836 32.8787 39.7788C32.9867 39.9699 33.0407 40.1921 33.0407 40.4455V42.6264H32.2244V40.6387C32.2244 40.4892 32.1954 40.3604 32.1372 40.2524C32.0791 40.1444 31.9981 40.0613 31.8942 40.0031C31.7945 39.9408 31.6761 39.9097 31.539 39.9097C31.4061 39.9097 31.2877 39.9408 31.1839 40.0031C31.08 40.0613 30.999 40.1444 30.9408 40.2524C30.8827 40.3604 30.8536 40.4892 30.8536 40.6387V42.6264H30.0373Z" fill="white"/>
</svg>
