<svg width="47" height="50" viewBox="0 0 47 50" fill="none" xmlns="http://www.w3.org/2000/svg">
<rect x="0.968994" y="0.875061" width="45.3199" height="48.2917" rx="9.65834" fill="white"/>
<path d="M29.9794 12.5841C28.2966 10.9013 26.0142 9.95595 23.6344 9.95595C21.2546 9.95595 18.9722 10.9013 17.2894 12.5841C15.6066 14.2669 14.6613 16.5493 14.6613 18.9291C14.6613 21.3089 15.6066 23.5913 17.2894 25.2741L22.8624 30.8577C22.9607 30.9568 23.0777 31.0354 23.2066 31.0891C23.3354 31.1428 23.4737 31.1705 23.6133 31.1705C23.7529 31.1705 23.8911 31.1428 24.0199 31.0891C24.1488 31.0354 24.2658 30.9568 24.3641 30.8577L29.9794 25.2212C31.6551 23.5454 32.5966 21.2726 32.5966 18.9027C32.5966 16.5328 31.6551 14.2599 29.9794 12.5841ZM28.4672 23.709L23.6344 28.5629L18.8016 23.709C17.8469 22.7533 17.1969 21.5361 16.9338 20.2111C16.6707 18.8861 16.8064 17.5128 17.3236 16.2649C17.8408 15.017 18.7164 13.9505 19.8397 13.2001C20.963 12.4497 22.2835 12.0492 23.6344 12.0492C24.9853 12.0492 26.3058 12.4497 27.4291 13.2001C28.5524 13.9505 29.428 15.017 29.9452 16.2649C30.4625 17.5128 30.5981 18.8861 30.335 20.2111C30.0719 21.5361 29.4219 22.7533 28.4672 23.709Z" fill="#BD9F91"/>
<path fill-rule="evenodd" clip-rule="evenodd" d="M23.6291 21.0451C24.7727 21.0451 25.6997 20.1181 25.6997 18.9745C25.6997 17.8308 24.7727 16.9038 23.6291 16.9038C22.4855 16.9038 21.5584 17.8308 21.5584 18.9745C21.5584 20.1181 22.4855 21.0451 23.6291 21.0451ZM23.6291 23.274C26.0036 23.274 27.9286 21.349 27.9286 18.9745C27.9286 16.5999 26.0036 14.6749 23.6291 14.6749C21.2545 14.6749 19.3295 16.5999 19.3295 18.9745C19.3295 21.349 21.2545 23.274 23.6291 23.274Z" fill="#BD9F91"/>
<path d="M14.3627 42.7514V38.1092H15.2101V42.0036H17.1979V42.7514H14.3627ZM19.335 42.8261C19.0026 42.8261 18.6994 42.7493 18.4252 42.5956C18.1552 42.4419 17.9392 42.2321 17.7772 41.9662C17.6193 41.7004 17.5404 41.3971 17.5404 41.0565C17.5404 40.7159 17.6193 40.4126 17.7772 40.1467C17.9392 39.8809 18.1552 39.6711 18.4252 39.5174C18.6952 39.3637 18.9985 39.2869 19.335 39.2869C19.6673 39.2869 19.9685 39.3637 20.2385 39.5174C20.5085 39.6711 20.7224 39.8809 20.8803 40.1467C21.0423 40.4085 21.1233 40.7117 21.1233 41.0565C21.1233 41.3971 21.0423 41.7004 20.8803 41.9662C20.7183 42.2321 20.5023 42.4419 20.2322 42.5956C19.9622 42.7493 19.6631 42.8261 19.335 42.8261ZM19.335 42.0784C19.5177 42.0784 19.6777 42.0348 19.8148 41.9475C19.956 41.8603 20.0661 41.7398 20.145 41.5861C20.2281 41.4283 20.2696 41.2517 20.2696 41.0565C20.2696 40.8571 20.2281 40.6826 20.145 40.5331C20.0661 40.3794 19.956 40.2589 19.8148 40.1717C19.6777 40.0803 19.5177 40.0346 19.335 40.0346C19.148 40.0346 18.9839 40.0803 18.8427 40.1717C18.7015 40.2589 18.5893 40.3794 18.5062 40.5331C18.4273 40.6826 18.3878 40.8571 18.3878 41.0565C18.3878 41.2517 18.4273 41.4283 18.5062 41.5861C18.5893 41.7398 18.7015 41.8603 18.8427 41.9475C18.9839 42.0348 19.148 42.0784 19.335 42.0784ZM21.7423 42.7514V38.0344H22.5586V41.125L22.247 41.0316L23.8422 39.3616H24.8579L23.6054 40.7262L24.8828 42.7514H23.9481L22.839 40.9942L23.325 40.8945L22.3031 41.9912L22.5586 41.4927V42.7514H21.7423ZM26.3667 42.8261C26.1299 42.8261 25.9243 42.7867 25.7498 42.7077C25.5754 42.6288 25.4404 42.5167 25.3448 42.3713C25.2493 42.2217 25.2015 42.0493 25.2015 41.8541C25.2015 41.6671 25.2431 41.501 25.3261 41.3556C25.4092 41.206 25.538 41.0814 25.7125 40.9817C25.8869 40.882 26.1071 40.8114 26.373 40.7699L27.4821 40.5892V41.2123L26.5287 41.3743C26.3667 41.4034 26.2463 41.4553 26.1673 41.5301C26.0884 41.6048 26.0489 41.7025 26.0489 41.8229C26.0489 41.9392 26.0926 42.0327 26.1798 42.1033C26.2712 42.1698 26.3833 42.203 26.5163 42.203C26.6866 42.203 26.8361 42.1677 26.9649 42.0971C27.0978 42.0223 27.1996 41.9205 27.2702 41.7918C27.345 41.663 27.3824 41.5217 27.3824 41.368V40.4957C27.3824 40.3503 27.3242 40.2298 27.2079 40.1343C27.0958 40.0346 26.9462 39.9847 26.7593 39.9847C26.5848 39.9847 26.429 40.0325 26.292 40.1281C26.159 40.2194 26.0614 40.342 25.9991 40.4957L25.3324 40.1717C25.3988 39.993 25.5027 39.8393 25.6439 39.7106C25.7893 39.5776 25.9596 39.4738 26.1549 39.399C26.3501 39.3242 26.562 39.2869 26.7904 39.2869C27.0688 39.2869 27.3139 39.3388 27.5257 39.4426C27.7376 39.5423 27.9017 39.6836 28.018 39.8663C28.1384 40.045 28.1987 40.2548 28.1987 40.4957V42.7514H27.426V42.1719L27.6005 42.1594C27.5133 42.3048 27.4094 42.4273 27.2889 42.527C27.1685 42.6226 27.0314 42.6974 26.8777 42.7514C26.724 42.8012 26.5537 42.8261 26.3667 42.8261ZM30.243 42.8261C29.8816 42.8261 29.5659 42.741 29.2958 42.5707C29.03 42.3962 28.8472 42.1615 28.7475 41.8665L29.3582 41.5737C29.4454 41.7648 29.5659 41.9143 29.7196 42.0223C29.8774 42.1303 30.0519 42.1843 30.243 42.1843C30.3925 42.1843 30.5109 42.1511 30.5981 42.0846C30.6854 42.0182 30.729 41.9309 30.729 41.8229C30.729 41.7565 30.7103 41.7025 30.6729 41.6609C30.6397 41.6152 30.5919 41.5778 30.5296 41.5488C30.4714 41.5155 30.4071 41.4885 30.3364 41.4677L29.7819 41.312C29.4952 41.2289 29.2772 41.1022 29.1276 40.9319C28.9822 40.7616 28.9095 40.5601 28.9095 40.3275C28.9095 40.1197 28.9614 39.939 29.0653 39.7853C29.1733 39.6275 29.3208 39.5049 29.5077 39.4177C29.6988 39.3305 29.9169 39.2869 30.162 39.2869C30.4818 39.2869 30.7643 39.3637 31.0094 39.5174C31.2545 39.6711 31.429 39.8871 31.5328 40.1654L30.9097 40.4583C30.8515 40.3046 30.7539 40.1821 30.6168 40.0907C30.4798 39.9993 30.3261 39.9536 30.1557 39.9536C30.0187 39.9536 29.9106 39.9847 29.8317 40.0471C29.7528 40.1094 29.7133 40.1904 29.7133 40.2901C29.7133 40.3524 29.7299 40.4064 29.7632 40.4521C29.7964 40.4978 29.8421 40.5352 29.9003 40.5642C29.9626 40.5933 30.0332 40.6203 30.1121 40.6452L30.6542 40.8072C30.9326 40.8903 31.1465 41.015 31.296 41.1811C31.4497 41.3473 31.5266 41.5508 31.5266 41.7918C31.5266 41.9953 31.4726 42.176 31.3646 42.3339C31.2566 42.4876 31.107 42.608 30.9159 42.6953C30.7248 42.7825 30.5005 42.8261 30.243 42.8261ZM32.1539 42.7514V39.3616H32.9702V42.7514H32.1539ZM32.1539 38.9815V38.1092H32.9702V38.9815H32.1539Z" fill="#BD9F91"/>
</svg>
