<svg width="47" height="49" viewBox="0 0 47 49" fill="none" xmlns="http://www.w3.org/2000/svg">
<rect x="0.968994" y="0.458435" width="45.3199" height="48.2917" rx="9.65834" fill="#BD9F91"/>
<path fill-rule="evenodd" clip-rule="evenodd" d="M23.6344 9.53934C26.0142 9.53934 28.2966 10.4847 29.9794 12.1675C31.6551 13.8433 32.5966 16.1161 32.5966 18.4861C32.5966 20.856 31.6551 23.1288 29.9794 24.8046L24.3641 30.441C24.2658 30.5402 24.1488 30.6188 24.0199 30.6725C23.8911 30.7262 23.7529 30.7539 23.6133 30.7539C23.4737 30.7539 23.3354 30.7262 23.2066 30.6725C23.0777 30.6188 22.9607 30.5402 22.8624 30.441L17.2894 24.8575C15.6066 23.1747 14.6613 20.8923 14.6613 18.5125C14.6613 16.1327 15.6066 13.8503 17.2894 12.1675C18.9722 10.4847 21.2546 9.53934 23.6344 9.53934ZM23.629 21.9605C25.5861 21.9605 27.1727 20.3739 27.1727 18.4168C27.1727 16.4597 25.5861 14.8731 23.629 14.8731C21.6718 14.8731 20.0853 16.4597 20.0853 18.4168C20.0853 20.3739 21.6718 21.9605 23.629 21.9605Z" fill="white"/>
<path d="M14.3627 42.3347V37.6926H15.2101V41.587H17.1979V42.3347H14.3627ZM19.335 42.4095C19.0026 42.4095 18.6994 42.3327 18.4252 42.179C18.1552 42.0253 17.9392 41.8155 17.7772 41.5496C17.6193 41.2838 17.5404 40.9805 17.5404 40.6399C17.5404 40.2992 17.6193 39.996 17.7772 39.7301C17.9392 39.4643 18.1552 39.2545 18.4252 39.1008C18.6952 38.9471 18.9985 38.8702 19.335 38.8702C19.6673 38.8702 19.9685 38.9471 20.2385 39.1008C20.5085 39.2545 20.7224 39.4643 20.8803 39.7301C21.0423 39.9918 21.1233 40.2951 21.1233 40.6399C21.1233 40.9805 21.0423 41.2838 20.8803 41.5496C20.7183 41.8155 20.5023 42.0253 20.2322 42.179C19.9622 42.3327 19.6631 42.4095 19.335 42.4095ZM19.335 41.6618C19.5177 41.6618 19.6777 41.6182 19.8148 41.5309C19.956 41.4437 20.0661 41.3232 20.145 41.1695C20.2281 41.0117 20.2696 40.8351 20.2696 40.6399C20.2696 40.4405 20.2281 40.266 20.145 40.1165C20.0661 39.9628 19.956 39.8423 19.8148 39.7551C19.6777 39.6637 19.5177 39.618 19.335 39.618C19.148 39.618 18.9839 39.6637 18.8427 39.7551C18.7015 39.8423 18.5893 39.9628 18.5062 40.1165C18.4273 40.266 18.3878 40.4405 18.3878 40.6399C18.3878 40.8351 18.4273 41.0117 18.5062 41.1695C18.5893 41.3232 18.7015 41.4437 18.8427 41.5309C18.9839 41.6182 19.148 41.6618 19.335 41.6618ZM21.7423 42.3347V37.6178H22.5586V40.7084L22.247 40.615L23.8422 38.945H24.8579L23.6054 40.3096L24.8828 42.3347H23.9481L22.839 40.5776L23.325 40.4779L22.3031 41.5746L22.5586 41.0761V42.3347H21.7423ZM26.3667 42.4095C26.1299 42.4095 25.9243 42.3701 25.7498 42.2911C25.5754 42.2122 25.4404 42.1 25.3448 41.9546C25.2493 41.8051 25.2015 41.6327 25.2015 41.4375C25.2015 41.2505 25.2431 41.0844 25.3261 40.939C25.4092 40.7894 25.538 40.6648 25.7125 40.5651C25.8869 40.4654 26.1071 40.3948 26.373 40.3533L27.4821 40.1725V40.7957L26.5287 40.9577C26.3667 40.9867 26.2463 41.0387 26.1673 41.1134C26.0884 41.1882 26.0489 41.2858 26.0489 41.4063C26.0489 41.5226 26.0926 41.6161 26.1798 41.6867C26.2712 41.7532 26.3833 41.7864 26.5163 41.7864C26.6866 41.7864 26.8361 41.7511 26.9649 41.6805C27.0978 41.6057 27.1996 41.5039 27.2702 41.3752C27.345 41.2464 27.3824 41.1051 27.3824 40.9514V40.0791C27.3824 39.9337 27.3242 39.8132 27.2079 39.7177C27.0958 39.618 26.9462 39.5681 26.7593 39.5681C26.5848 39.5681 26.429 39.6159 26.292 39.7114C26.159 39.8028 26.0614 39.9254 25.9991 40.0791L25.3324 39.7551C25.3988 39.5764 25.5027 39.4227 25.6439 39.294C25.7893 39.161 25.9596 39.0572 26.1549 38.9824C26.3501 38.9076 26.562 38.8702 26.7904 38.8702C27.0688 38.8702 27.3139 38.9222 27.5257 39.026C27.7376 39.1257 27.9017 39.267 28.018 39.4497C28.1384 39.6284 28.1987 39.8381 28.1987 40.0791V42.3347H27.426V41.7553L27.6005 41.7428C27.5133 41.8882 27.4094 42.0107 27.2889 42.1104C27.1685 42.206 27.0314 42.2807 26.8777 42.3347C26.724 42.3846 26.5537 42.4095 26.3667 42.4095ZM30.243 42.4095C29.8816 42.4095 29.5659 42.3244 29.2958 42.154C29.03 41.9796 28.8472 41.7449 28.7475 41.4499L29.3582 41.1571C29.4454 41.3482 29.5659 41.4977 29.7196 41.6057C29.8774 41.7137 30.0519 41.7677 30.243 41.7677C30.3925 41.7677 30.5109 41.7345 30.5981 41.668C30.6854 41.6016 30.729 41.5143 30.729 41.4063C30.729 41.3398 30.7103 41.2858 30.6729 41.2443C30.6397 41.1986 30.5919 41.1612 30.5296 41.1321C30.4714 41.0989 30.4071 41.0719 30.3364 41.0511L29.7819 40.8954C29.4952 40.8123 29.2772 40.6856 29.1276 40.5153C28.9822 40.3449 28.9095 40.1435 28.9095 39.9108C28.9095 39.7031 28.9614 39.5224 29.0653 39.3687C29.1733 39.2109 29.3208 39.0883 29.5077 39.0011C29.6988 38.9139 29.9169 38.8702 30.162 38.8702C30.4818 38.8702 30.7643 38.9471 31.0094 39.1008C31.2545 39.2545 31.429 39.4705 31.5328 39.7488L30.9097 40.0417C30.8515 39.888 30.7539 39.7654 30.6168 39.6741C30.4798 39.5827 30.3261 39.537 30.1557 39.537C30.0187 39.537 29.9106 39.5681 29.8317 39.6304C29.7528 39.6928 29.7133 39.7738 29.7133 39.8735C29.7133 39.9358 29.7299 39.9898 29.7632 40.0355C29.7964 40.0812 29.8421 40.1185 29.9003 40.1476C29.9626 40.1767 30.0332 40.2037 30.1121 40.2286L30.6542 40.3906C30.9326 40.4737 31.1465 40.5983 31.296 40.7645C31.4497 40.9307 31.5266 41.1342 31.5266 41.3752C31.5266 41.5787 31.4726 41.7594 31.3646 41.9173C31.2566 42.071 31.107 42.1914 30.9159 42.2787C30.7248 42.3659 30.5005 42.4095 30.243 42.4095ZM32.1539 42.3347V38.945H32.9702V42.3347H32.1539ZM32.1539 38.5649V37.6926H32.9702V38.5649H32.1539Z" fill="white"/>
</svg>
