<svg width="46" height="49" viewBox="0 0 46 49" fill="none" xmlns="http://www.w3.org/2000/svg">
<rect x="0.0664062" y="0.458435" width="45.3199" height="48.2917" rx="9.65834" fill="white"/>
<path fill-rule="evenodd" clip-rule="evenodd" d="M15.7756 14.8022C15.4248 14.2286 15.2443 13.5226 15.2443 12.6645C15.2443 10.9726 16.5167 9.45789 18.4509 9.45789C20.3877 9.45789 21.9496 10.7551 22.7264 12.7862C23.5032 10.7551 25.0651 9.45789 27.0019 9.45789C28.9362 9.45789 30.2085 10.9726 30.2085 12.6645C30.2085 13.5226 30.028 14.2286 29.6772 14.8022H31.2774C32.458 14.8022 33.4151 15.7593 33.4151 16.94V19.0777C33.4151 20.2583 32.458 21.2154 31.2774 21.2154V28.6975C31.2774 29.8782 30.3203 30.8353 29.1396 30.8353H16.3132C15.1326 30.8353 14.1755 29.8782 14.1755 28.6975V21.2154C12.9948 21.2154 12.0377 20.2583 12.0377 19.0777V16.94C12.0377 15.7593 12.9948 14.8022 14.1755 14.8022H15.7756ZM21.6575 16.94H14.1755V19.0777H21.6575V16.94ZM23.7953 19.0777H31.2774V16.94H23.7953V19.0777ZM21.6575 28.6975V21.2154H16.3132V28.6975H21.6575ZM23.7953 28.6975H29.1396V21.2154H23.7953V28.6975ZM18.4509 11.5956C17.7879 11.5956 17.3821 12.0787 17.3821 12.6645C17.3821 14.004 18.4691 14.641 21.0477 14.775C20.7611 12.7838 19.6931 11.5956 18.4509 11.5956ZM26.9264 11.5956C25.6842 11.5956 24.6163 12.7838 24.3297 14.775C26.9083 14.641 27.9953 14.004 27.9953 12.6645C27.9953 12.0787 27.5895 11.5956 26.9264 11.5956Z" fill="#BD9F91"/>
<path d="M12.5504 42.3347V37.6926H13.3978V39.7177H15.3731V37.6926H16.2268V42.3347H15.3731V40.4654H13.3978V42.3347H12.5504ZM18.0799 42.4095C17.8431 42.4095 17.6375 42.3701 17.463 42.2911C17.2885 42.2122 17.1535 42.1 17.058 41.9546C16.9624 41.8051 16.9147 41.6327 16.9147 41.4375C16.9147 41.2505 16.9562 41.0844 17.0393 40.939C17.1224 40.7894 17.2512 40.6648 17.4256 40.5651C17.6001 40.4654 17.8203 40.3948 18.0861 40.3533L19.1953 40.1725V40.7957L18.2419 40.9577C18.0799 40.9867 17.9594 41.0387 17.8805 41.1134C17.8016 41.1882 17.7621 41.2858 17.7621 41.4063C17.7621 41.5226 17.8057 41.6161 17.893 41.6867C17.9844 41.7532 18.0965 41.7864 18.2294 41.7864C18.3998 41.7864 18.5493 41.7511 18.6781 41.6805C18.811 41.6057 18.9128 41.5039 18.9834 41.3752C19.0582 41.2464 19.0956 41.1051 19.0956 40.9514V40.0791C19.0956 39.9337 19.0374 39.8132 18.9211 39.7177C18.8089 39.618 18.6594 39.5681 18.4725 39.5681C18.298 39.5681 18.1422 39.6159 18.0051 39.7114C17.8722 39.8028 17.7746 39.9254 17.7123 40.0791L17.0455 39.7551C17.112 39.5764 17.2158 39.4227 17.3571 39.294C17.5025 39.161 17.6728 39.0572 17.868 38.9824C18.0633 38.9076 18.2751 38.8702 18.5036 38.8702C18.7819 38.8702 19.027 38.9222 19.2389 39.026C19.4507 39.1257 19.6148 39.267 19.7311 39.4497C19.8516 39.6284 19.9118 39.8381 19.9118 40.0791V42.3347H19.1392V41.7553L19.3137 41.7428C19.2264 41.8882 19.1226 42.0107 19.0021 42.1104C18.8816 42.206 18.7445 42.2807 18.5908 42.3347C18.4371 42.3846 18.2668 42.4095 18.0799 42.4095ZM22.2428 42.4095C21.9146 42.4095 21.6217 42.3327 21.3642 42.179C21.1066 42.0211 20.9031 41.8072 20.7535 41.5372C20.604 41.2671 20.5292 40.9681 20.5292 40.6399C20.5292 40.3076 20.604 40.0085 20.7535 39.7426C20.9031 39.4767 21.1066 39.2649 21.3642 39.107C21.6259 38.9492 21.9167 38.8702 22.2365 38.8702C22.4941 38.8702 22.7226 38.9222 22.922 39.026C23.1255 39.1257 23.2854 39.267 23.4018 39.4497L23.2771 39.618V37.6178H24.0934V42.3347H23.3208V41.6805L23.408 41.8425C23.2917 42.0253 23.1297 42.1665 22.922 42.2662C22.7143 42.3617 22.4879 42.4095 22.2428 42.4095ZM22.33 41.6618C22.5169 41.6618 22.681 41.6182 22.8223 41.5309C22.9635 41.4437 23.0736 41.3232 23.1525 41.1695C23.2356 41.0158 23.2771 40.8393 23.2771 40.6399C23.2771 40.4446 23.2356 40.2702 23.1525 40.1165C23.0736 39.9586 22.9635 39.8361 22.8223 39.7488C22.681 39.6616 22.5169 39.618 22.33 39.618C22.1472 39.618 21.9831 39.6637 21.8378 39.7551C21.6924 39.8423 21.5781 39.9628 21.495 40.1165C21.4161 40.266 21.3766 40.4405 21.3766 40.6399C21.3766 40.8393 21.4161 41.0158 21.495 41.1695C21.5781 41.3232 21.6924 41.4437 21.8378 41.5309C21.9831 41.6182 22.1472 41.6618 22.33 41.6618ZM24.8528 42.3347V38.945H25.6691V42.3347H24.8528ZM24.8528 38.5649V37.6926H25.6691V38.5649H24.8528ZM27.4509 42.4095C27.2141 42.4095 27.0085 42.3701 26.834 42.2911C26.6596 42.2122 26.5246 42.1 26.429 41.9546C26.3335 41.8051 26.2857 41.6327 26.2857 41.4375C26.2857 41.2505 26.3272 41.0844 26.4103 40.939C26.4934 40.7894 26.6222 40.6648 26.7967 40.5651C26.9711 40.4654 27.1913 40.3948 27.4572 40.3533L28.5663 40.1725V40.7957L27.6129 40.9577C27.4509 40.9867 27.3305 41.0387 27.2515 41.1134C27.1726 41.1882 27.1331 41.2858 27.1331 41.4063C27.1331 41.5226 27.1768 41.6161 27.264 41.6867C27.3554 41.7532 27.4675 41.7864 27.6005 41.7864C27.7708 41.7864 27.9203 41.7511 28.0491 41.6805C28.182 41.6057 28.2838 41.5039 28.3544 41.3752C28.4292 41.2464 28.4666 41.1051 28.4666 40.9514V40.0791C28.4666 39.9337 28.4084 39.8132 28.2921 39.7177C28.18 39.618 28.0304 39.5681 27.8435 39.5681C27.669 39.5681 27.5132 39.6159 27.3761 39.7114C27.2432 39.8028 27.1456 39.9254 27.0833 40.0791L26.4166 39.7551C26.483 39.5764 26.5869 39.4227 26.7281 39.294C26.8735 39.161 27.0438 39.0572 27.2391 38.9824C27.4343 38.9076 27.6462 38.8702 27.8746 38.8702C28.153 38.8702 28.3981 38.9222 28.6099 39.026C28.8218 39.1257 28.9859 39.267 29.1022 39.4497C29.2226 39.6284 29.2829 39.8381 29.2829 40.0791V42.3347H28.5102V41.7553L28.6847 41.7428C28.5974 41.8882 28.4936 42.0107 28.3731 42.1104C28.2527 42.206 28.1156 42.2807 27.9619 42.3347C27.8082 42.3846 27.6379 42.4095 27.4509 42.4095ZM30.0373 42.3347V37.6178H30.8536V39.6117L30.7414 39.4934C30.8204 39.2898 30.9491 39.1361 31.1278 39.0323C31.3106 38.9242 31.5224 38.8702 31.7633 38.8702C32.0126 38.8702 32.2328 38.9242 32.4238 39.0323C32.6191 39.1403 32.7707 39.2919 32.8787 39.4871C32.9867 39.6782 33.0407 39.9005 33.0407 40.1539V42.3347H32.2244V40.347C32.2244 40.1975 32.1954 40.0687 32.1372 39.9607C32.0791 39.8527 31.9981 39.7696 31.8942 39.7114C31.7945 39.6491 31.6761 39.618 31.539 39.618C31.4061 39.618 31.2877 39.6491 31.1839 39.7114C31.08 39.7696 30.999 39.8527 30.9408 39.9607C30.8827 40.0687 30.8536 40.1975 30.8536 40.347V42.3347H30.0373Z" fill="#BD9F91"/>
</svg>
