<svg width="47" height="49" viewBox="0 0 47 49" fill="none" xmlns="http://www.w3.org/2000/svg">
<rect x="0.87146" y="0.583374" width="45.3199" height="48.2917" rx="9.65834" fill="#BD9F91"/>
<path d="M32.168 12.4596C31.0452 11.3365 29.5567 10.6537 27.9731 10.5354C26.3895 10.417 24.3117 10.8607 23.5388 12.5908C22.7208 10.9589 20.5186 10.36 18.8519 10.5445C17.1852 10.7291 15.6504 11.5383 14.5564 12.8092C13.4625 14.0801 12.8907 15.7183 12.9562 17.3939C13.0218 19.0695 13.7198 20.658 14.9096 21.8396L22.788 29.7179C22.8863 29.8171 23.0033 29.8957 23.1321 29.9494C23.261 30.0031 23.3992 30.0307 23.5388 30.0307C23.6784 30.0307 23.8166 30.0031 23.9455 29.9494C24.0744 29.8957 24.1913 29.8171 24.2896 29.7179L32.168 21.8396C32.7841 21.2238 33.2729 20.4927 33.6064 19.688C33.9399 18.8832 34.1115 18.0207 34.1115 17.1496C34.1115 16.2785 33.9399 15.4159 33.6064 14.6112C33.2729 13.8065 32.7841 13.0754 32.168 12.4596Z" fill="white"/>
<path d="M9.03506 42.4597V37.8175H9.8451L11.5836 40.1791H11.1973L12.8984 37.8175H13.7084V42.4597H12.8547V38.7833L13.185 38.8643L11.4216 41.2134H11.3219L9.60209 38.8643L9.88249 38.7833V42.4597H9.03506ZM16.1359 42.5344C15.787 42.5344 15.4816 42.4555 15.2199 42.2977C14.9582 42.1398 14.7547 41.9259 14.6093 41.6559C14.4639 41.3858 14.3912 41.0867 14.3912 40.7586C14.3912 40.4179 14.4639 40.1168 14.6093 39.8551C14.7588 39.5892 14.9603 39.3794 15.2137 39.2257C15.4713 39.072 15.7579 38.9952 16.0736 38.9952C16.3395 38.9952 16.5721 39.0388 16.7715 39.126C16.975 39.2133 17.1474 39.3337 17.2887 39.4874C17.4299 39.6411 17.5379 39.8177 17.6127 40.0171C17.6875 40.2123 17.7248 40.4242 17.7248 40.6526C17.7248 40.7108 17.7207 40.771 17.7124 40.8333C17.7082 40.8957 17.6978 40.9497 17.6812 40.9954H15.0642V40.3722H17.2201L16.8338 40.6651C16.8712 40.474 16.8608 40.3037 16.8026 40.1542C16.7486 40.0046 16.6572 39.8862 16.5285 39.799C16.4038 39.7117 16.2522 39.6681 16.0736 39.6681C15.9033 39.6681 15.7517 39.7117 15.6187 39.799C15.4858 39.8821 15.384 40.0067 15.3134 40.1728C15.2469 40.3349 15.222 40.5322 15.2386 40.7648C15.222 40.9725 15.249 41.1574 15.3196 41.3194C15.3944 41.4772 15.5024 41.5998 15.6436 41.687C15.789 41.7742 15.9552 41.8179 16.1421 41.8179C16.3291 41.8179 16.4869 41.7784 16.6157 41.6995C16.7486 41.6205 16.8525 41.5146 16.9273 41.3817L17.5878 41.7057C17.5213 41.8677 17.4174 42.011 17.2762 42.1356C17.135 42.2603 16.9667 42.3579 16.7715 42.4285C16.5804 42.4991 16.3685 42.5344 16.1359 42.5344ZM18.3436 42.4597V39.0699H19.1101V39.8551L19.0228 39.7242C19.0851 39.4791 19.2097 39.2963 19.3967 39.1759C19.5836 39.0554 19.8038 38.9952 20.0572 38.9952C20.3355 38.9952 20.5806 39.0679 20.7925 39.2133C21.0043 39.3586 21.1414 39.5497 21.2037 39.7865L20.9732 39.8052C21.077 39.5352 21.2328 39.3337 21.4405 39.2008C21.6482 39.0637 21.8871 38.9952 22.1571 38.9952C22.398 38.9952 22.6119 39.0492 22.7989 39.1572C22.99 39.2652 23.1395 39.4168 23.2475 39.612C23.3555 39.8031 23.4095 40.0254 23.4095 40.2788V42.4597H22.5932V40.4719C22.5932 40.3224 22.5662 40.1936 22.5122 40.0856C22.4582 39.9776 22.3835 39.8945 22.2879 39.8364C22.1924 39.7741 22.0761 39.7429 21.939 39.7429C21.8102 39.7429 21.696 39.7741 21.5963 39.8364C21.4966 39.8945 21.4197 39.9776 21.3657 40.0856C21.3117 40.1936 21.2847 40.3224 21.2847 40.4719V42.4597H20.4684V40.4719C20.4684 40.3224 20.4414 40.1936 20.3874 40.0856C20.3334 39.9776 20.2566 39.8945 20.1569 39.8364C20.0613 39.7741 19.9471 39.7429 19.8142 39.7429C19.6854 39.7429 19.5712 39.7741 19.4715 39.8364C19.3718 39.8945 19.2949 39.9776 19.2409 40.0856C19.1869 40.1936 19.1599 40.3224 19.1599 40.4719V42.4597H18.3436ZM24.1001 43.7059V39.0699H24.8665V39.7429L24.7918 39.5747C24.9081 39.3919 25.0659 39.2506 25.2653 39.1509C25.4647 39.0471 25.6953 38.9952 25.957 38.9952C26.2768 38.9952 26.5656 39.0741 26.8231 39.2319C27.0807 39.3898 27.2842 39.6017 27.4338 39.8675C27.5875 40.1334 27.6643 40.4325 27.6643 40.7648C27.6643 41.093 27.5895 41.3921 27.44 41.6621C27.2904 41.9321 27.0869 42.146 26.8293 42.3039C26.5718 42.4576 26.2789 42.5344 25.9508 42.5344C25.7057 42.5344 25.4793 42.4867 25.2716 42.3911C25.068 42.2914 24.906 42.1502 24.7855 41.9674L24.9164 41.8054V43.7059H24.1001ZM25.8573 41.7867C26.0442 41.7867 26.2104 41.7431 26.3558 41.6559C26.5012 41.5686 26.6133 41.4481 26.6923 41.2944C26.7753 41.1407 26.8169 40.9642 26.8169 40.7648C26.8169 40.5654 26.7753 40.3909 26.6923 40.2414C26.6133 40.0877 26.5012 39.9672 26.3558 39.88C26.2104 39.7886 26.0442 39.7429 25.8573 39.7429C25.6787 39.7429 25.5167 39.7865 25.3713 39.8738C25.23 39.961 25.1179 40.0835 25.0348 40.2414C24.9558 40.3951 24.9164 40.5696 24.9164 40.7648C24.9164 40.9642 24.9558 41.1407 25.0348 41.2944C25.1179 41.4481 25.23 41.5686 25.3713 41.6559C25.5167 41.7431 25.6787 41.7867 25.8573 41.7867ZM29.8943 42.5344C29.5453 42.5344 29.24 42.4555 28.9783 42.2977C28.7166 42.1398 28.513 41.9259 28.3676 41.6559C28.2223 41.3858 28.1496 41.0867 28.1496 40.7586C28.1496 40.4179 28.2223 40.1168 28.3676 39.8551C28.5172 39.5892 28.7187 39.3794 28.9721 39.2257C29.2296 39.072 29.5163 38.9952 29.832 38.9952C30.0978 38.9952 30.3305 39.0388 30.5298 39.126C30.7334 39.2133 30.9058 39.3337 31.047 39.4874C31.1883 39.6411 31.2963 39.8177 31.3711 40.0171C31.4458 40.2123 31.4832 40.4242 31.4832 40.6526C31.4832 40.7108 31.4791 40.771 31.4707 40.8333C31.4666 40.8957 31.4562 40.9497 31.4396 40.9954H28.8225V40.3722H30.9785L30.5922 40.6651C30.6295 40.474 30.6192 40.3037 30.561 40.1542C30.507 40.0046 30.4156 39.8862 30.2868 39.799C30.1622 39.7117 30.0106 39.6681 29.832 39.6681C29.6616 39.6681 29.51 39.7117 29.3771 39.799C29.2442 39.8821 29.1424 40.0067 29.0718 40.1728C29.0053 40.3349 28.9804 40.5322 28.997 40.7648C28.9804 40.9725 29.0074 41.1574 29.078 41.3194C29.1528 41.4772 29.2608 41.5998 29.402 41.687C29.5474 41.7742 29.7136 41.8179 29.9005 41.8179C30.0874 41.8179 30.2453 41.7784 30.3741 41.6995C30.507 41.6205 30.6109 41.5146 30.6856 41.3817L31.3461 41.7057C31.2797 41.8677 31.1758 42.011 31.0346 42.1356C30.8933 42.2603 30.7251 42.3579 30.5298 42.4285C30.3388 42.4991 30.1269 42.5344 29.8943 42.5344ZM32.102 42.4597V37.7427H32.9183V42.4597H32.102ZM34.7001 42.5344C34.4633 42.5344 34.2577 42.495 34.0832 42.416C33.9087 42.3371 33.7737 42.225 33.6782 42.0796C33.5826 41.93 33.5349 41.7576 33.5349 41.5624C33.5349 41.3755 33.5764 41.2093 33.6595 41.0639C33.7426 40.9143 33.8713 40.7897 34.0458 40.69C34.2203 40.5903 34.4404 40.5197 34.7063 40.4782L35.8154 40.2975V40.9206L34.8621 41.0826C34.7001 41.1117 34.5796 41.1636 34.5007 41.2384C34.4218 41.3131 34.3823 41.4108 34.3823 41.5312C34.3823 41.6475 34.4259 41.741 34.5131 41.8116C34.6045 41.8781 34.7167 41.9113 34.8496 41.9113C35.0199 41.9113 35.1695 41.876 35.2983 41.8054C35.4312 41.7306 35.533 41.6289 35.6036 41.5001C35.6784 41.3713 35.7157 41.2301 35.7157 41.0764V40.204C35.7157 40.0586 35.6576 39.9381 35.5413 39.8426C35.4291 39.7429 35.2796 39.693 35.0926 39.693C34.9182 39.693 34.7624 39.7408 34.6253 39.8364C34.4924 39.9278 34.3948 40.0503 34.3324 40.204L33.6657 39.88C33.7322 39.7014 33.836 39.5477 33.9773 39.4189C34.1227 39.2859 34.293 39.1821 34.4882 39.1073C34.6835 39.0325 34.8953 38.9952 35.1238 38.9952C35.4021 38.9952 35.6472 39.0471 35.8591 39.1509C36.0709 39.2506 36.235 39.3919 36.3513 39.5747C36.4718 39.7533 36.532 39.9631 36.532 40.204V42.4597H35.7594V41.8802L35.9338 41.8677C35.8466 42.0131 35.7427 42.1356 35.6223 42.2353C35.5018 42.3309 35.3647 42.4057 35.211 42.4597C35.0573 42.5095 34.887 42.5344 34.7001 42.5344ZM37.2865 42.4597V39.0699H38.1028V42.4597H37.2865ZM37.2865 38.6898V37.8175H38.1028V38.6898H37.2865Z" fill="white"/>
</svg>
