<svg width="46" height="49" viewBox="0 0 46 49" fill="none" xmlns="http://www.w3.org/2000/svg">
<rect x="0.615234" width="45.3199" height="48.2917" rx="9.65834" fill="#BD9F91"/>
<path fill-rule="evenodd" clip-rule="evenodd" d="M19.2432 9.91769C20.5262 9.38625 21.9013 9.11272 23.2901 9.11272C26.0947 9.11272 28.7845 10.2269 30.7677 12.2101C32.7509 14.1932 33.865 16.883 33.865 19.6877C33.865 22.4923 32.7509 25.1821 30.7677 27.1653C28.7845 29.1485 26.0947 30.2626 23.2901 30.2626H13.7726C13.5632 30.2715 13.3559 30.2179 13.1771 30.1087C12.9982 29.9995 12.8558 29.8396 12.768 29.6493C12.687 29.4567 12.6649 29.2445 12.7044 29.0393C12.7439 28.8342 12.8433 28.6453 12.9901 28.4966L15.1051 26.3816C13.5514 24.4977 12.7059 22.1296 12.7151 19.6877C12.7151 16.883 13.8293 14.1932 15.8124 12.2101C16.7944 11.2281 17.9602 10.4491 19.2432 9.91769ZM18.4726 18.8084C18.6465 18.6922 18.8509 18.6302 19.0601 18.6302C19.3405 18.6302 19.6095 18.7416 19.8078 18.9399C20.0062 19.1383 20.1176 19.4072 20.1176 19.6877C20.1176 19.8969 20.0555 20.1013 19.9393 20.2752C19.8231 20.4491 19.658 20.5847 19.4648 20.6647C19.2715 20.7447 19.0589 20.7657 18.8538 20.7249C18.6486 20.6841 18.4602 20.5834 18.3123 20.4355C18.1644 20.2876 18.0637 20.0991 18.0229 19.894C17.9821 19.6889 18.003 19.4762 18.0831 19.283C18.1631 19.0898 18.2987 18.9246 18.4726 18.8084ZM22.7025 18.8084C22.8764 18.6922 23.0809 18.6302 23.2901 18.6302C23.5705 18.6302 23.8395 18.7416 24.0378 18.9399C24.2361 19.1383 24.3476 19.4072 24.3476 19.6877C24.3476 19.8969 24.2855 20.1013 24.1693 20.2752C24.0531 20.4491 23.888 20.5847 23.6947 20.6647C23.5015 20.7447 23.2889 20.7657 23.0837 20.7249C22.8786 20.6841 22.6902 20.5834 22.5423 20.4355C22.3944 20.2876 22.2937 20.0991 22.2529 19.894C22.2121 19.6889 22.233 19.4762 22.3131 19.283C22.3931 19.0898 22.5286 18.9246 22.7025 18.8084ZM27.52 18.6302C27.3109 18.6302 27.1064 18.6922 26.9325 18.8084C26.7586 18.9246 26.6231 19.0898 26.543 19.283C26.463 19.4762 26.4421 19.6889 26.4829 19.894C26.5237 20.0991 26.6244 20.2876 26.7723 20.4355C26.9202 20.5834 27.1086 20.6841 27.3137 20.7249C27.5189 20.7657 27.7315 20.7447 27.9247 20.6647C28.118 20.5847 28.2831 20.4491 28.3993 20.2752C28.5155 20.1013 28.5775 19.8969 28.5775 19.6877C28.5775 19.4072 28.4661 19.1383 28.2678 18.9399C28.0695 18.7416 27.8005 18.6302 27.52 18.6302Z" fill="white"/>
<path d="M13.8318 41.9511C13.4746 41.9511 13.1568 41.8763 12.8784 41.7268C12.6043 41.5772 12.3883 41.3716 12.2304 41.1099C12.0726 40.8482 11.9936 40.5511 11.9936 40.2188V37.2341H12.8411V40.1752C12.8411 40.3663 12.8826 40.5387 12.9657 40.6924C13.0529 40.8461 13.1713 40.9666 13.3209 41.0538C13.4704 41.1369 13.6407 41.1784 13.8318 41.1784C14.027 41.1784 14.1974 41.1369 14.3428 41.0538C14.4923 40.9666 14.6086 40.8461 14.6917 40.6924C14.7789 40.5387 14.8226 40.3663 14.8226 40.1752V37.2341H15.67V40.2188C15.67 40.5511 15.5911 40.8482 15.4332 41.1099C15.2754 41.3716 15.0573 41.5772 14.7789 41.7268C14.5048 41.8763 14.1891 41.9511 13.8318 41.9511ZM18.08 41.9511C17.7435 41.9511 17.4403 41.8742 17.1703 41.7205C16.9044 41.5627 16.6946 41.3508 16.5409 41.0849C16.3872 40.8149 16.3104 40.5117 16.3104 40.1752C16.3104 39.8387 16.3872 39.5375 16.5409 39.2717C16.6946 39.0058 16.9044 38.796 17.1703 38.6423C17.4403 38.4886 17.7435 38.4118 18.08 38.4118C18.321 38.4118 18.5453 38.4554 18.753 38.5426C18.9607 38.6257 19.1393 38.742 19.2889 38.8916C19.4426 39.037 19.5526 39.2115 19.6191 39.415L18.9025 39.7266C18.8402 39.5562 18.7343 39.4192 18.5847 39.3153C18.4393 39.2115 18.2711 39.1595 18.08 39.1595C17.9014 39.1595 17.7415 39.2031 17.6002 39.2904C17.4631 39.3776 17.3551 39.4981 17.2762 39.6518C17.1973 39.8055 17.1578 39.982 17.1578 40.1814C17.1578 40.3808 17.1973 40.5574 17.2762 40.7111C17.3551 40.8648 17.4631 40.9852 17.6002 41.0725C17.7415 41.1597 17.9014 41.2033 18.08 41.2033C18.2753 41.2033 18.4456 41.1514 18.591 41.0476C18.7364 40.9437 18.8402 40.8045 18.9025 40.6301L19.6191 40.9541C19.5526 41.1452 19.4446 41.3176 19.2951 41.4713C19.1455 41.6208 18.9669 41.7392 18.7592 41.8264C18.5515 41.9095 18.3251 41.9511 18.08 41.9511ZM21.2544 41.9511C21.0177 41.9511 20.812 41.9116 20.6376 41.8327C20.4631 41.7538 20.3281 41.6416 20.2325 41.4962C20.137 41.3467 20.0892 41.1743 20.0892 40.979C20.0892 40.7921 20.1308 40.6259 20.2138 40.4805C20.2969 40.331 20.4257 40.2064 20.6002 40.1067C20.7746 40.007 20.9948 39.9363 21.2607 39.8948L22.3698 39.7141V40.3372L21.4164 40.4992C21.2544 40.5283 21.134 40.5802 21.055 40.655C20.9761 40.7298 20.9367 40.8274 20.9367 40.9479C20.9367 41.0642 20.9803 41.1576 21.0675 41.2283C21.1589 41.2947 21.2711 41.328 21.404 41.328C21.5743 41.328 21.7238 41.2926 21.8526 41.222C21.9856 41.1473 22.0873 41.0455 22.158 40.9167C22.2327 40.7879 22.2701 40.6467 22.2701 40.493V39.6206C22.2701 39.4752 22.212 39.3548 22.0956 39.2592C21.9835 39.1595 21.8339 39.1097 21.647 39.1097C21.4725 39.1097 21.3167 39.1575 21.1797 39.253C21.0467 39.3444 20.9491 39.4669 20.8868 39.6206L20.2201 39.2966C20.2865 39.118 20.3904 38.9643 20.5316 38.8355C20.677 38.7026 20.8473 38.5987 21.0426 38.524C21.2378 38.4492 21.4497 38.4118 21.6782 38.4118C21.9565 38.4118 22.2016 38.4637 22.4134 38.5676C22.6253 38.6673 22.7894 38.8085 22.9057 38.9913C23.0262 39.1699 23.0864 39.3797 23.0864 39.6206V41.8763H22.3137V41.2968L22.4882 41.2843C22.401 41.4297 22.2971 41.5523 22.1766 41.652C22.0562 41.7475 21.9191 41.8223 21.7654 41.8763C21.6117 41.9261 21.4414 41.9511 21.2544 41.9511ZM23.8408 43.1225V38.4866H24.6073V39.1595L24.5325 38.9913C24.6488 38.8085 24.8067 38.6673 25.0061 38.5676C25.2055 38.4637 25.436 38.4118 25.6977 38.4118C26.0176 38.4118 26.3063 38.4907 26.5638 38.6486C26.8214 38.8064 27.0249 39.0183 27.1745 39.2841C27.3282 39.55 27.405 39.8491 27.405 40.1814C27.405 40.5096 27.3303 40.8087 27.1807 41.0787C27.0312 41.3487 26.8276 41.5627 26.5701 41.7205C26.3125 41.8742 26.0197 41.9511 25.6915 41.9511C25.4464 41.9511 25.22 41.9033 25.0123 41.8078C24.8087 41.7081 24.6467 41.5668 24.5263 41.384L24.6571 41.222V43.1225H23.8408ZM25.598 41.2033C25.785 41.2033 25.9511 41.1597 26.0965 41.0725C26.2419 40.9852 26.3541 40.8648 26.433 40.7111C26.5161 40.5574 26.5576 40.3808 26.5576 40.1814C26.5576 39.982 26.5161 39.8076 26.433 39.658C26.3541 39.5043 26.2419 39.3838 26.0965 39.2966C25.9511 39.2052 25.785 39.1595 25.598 39.1595C25.4194 39.1595 25.2574 39.2031 25.112 39.2904C24.9708 39.3776 24.8586 39.5002 24.7755 39.658C24.6966 39.8117 24.6571 39.9862 24.6571 40.1814C24.6571 40.3808 24.6966 40.5574 24.7755 40.7111C24.8586 40.8648 24.9708 40.9852 25.112 41.0725C25.2574 41.1597 25.4194 41.2033 25.598 41.2033ZM29.0555 41.9511C28.8187 41.9511 28.6131 41.9116 28.4386 41.8327C28.2642 41.7538 28.1292 41.6416 28.0336 41.4962C27.9381 41.3467 27.8903 41.1743 27.8903 40.979C27.8903 40.7921 27.9318 40.6259 28.0149 40.4805C28.098 40.331 28.2268 40.2064 28.4012 40.1067C28.5757 40.007 28.7959 39.9363 29.0617 39.8948L30.1709 39.7141V40.3372L29.2175 40.4992C29.0555 40.5283 28.935 40.5802 28.8561 40.655C28.7772 40.7298 28.7377 40.8274 28.7377 40.9479C28.7377 41.0642 28.7813 41.1576 28.8686 41.2283C28.96 41.2947 29.0721 41.328 29.2051 41.328C29.3754 41.328 29.5249 41.2926 29.6537 41.222C29.7866 41.1473 29.8884 41.0455 29.959 40.9167C30.0338 40.7879 30.0712 40.6467 30.0712 40.493V39.6206C30.0712 39.4752 30.013 39.3548 29.8967 39.2592C29.7846 39.1595 29.635 39.1097 29.4481 39.1097C29.2736 39.1097 29.1178 39.1575 28.9807 39.253C28.8478 39.3444 28.7502 39.4669 28.6879 39.6206L28.0211 39.2966C28.0876 39.118 28.1915 38.9643 28.3327 38.8355C28.4781 38.7026 28.6484 38.5987 28.8437 38.524C29.0389 38.4492 29.2508 38.4118 29.4792 38.4118C29.7576 38.4118 30.0026 38.4637 30.2145 38.5676C30.4264 38.6673 30.5904 38.8085 30.7068 38.9913C30.8272 39.1699 30.8875 39.3797 30.8875 39.6206V41.8763H30.1148V41.2968L30.2893 41.2843C30.202 41.4297 30.0982 41.5523 29.9777 41.652C29.8572 41.7475 29.7202 41.8223 29.5665 41.8763C29.4128 41.9261 29.2424 41.9511 29.0555 41.9511ZM31.6419 41.8763V38.4866H32.4083V39.1533L32.346 39.0349C32.425 38.8314 32.5537 38.6777 32.7324 38.5738C32.9151 38.4658 33.127 38.4118 33.3679 38.4118C33.6172 38.4118 33.8373 38.4658 34.0284 38.5738C34.2237 38.6818 34.3753 38.8334 34.4833 39.0287C34.5913 39.2198 34.6453 39.442 34.6453 39.6954V41.8763H33.829V39.8886C33.829 39.739 33.8 39.6102 33.7418 39.5022C33.6836 39.3942 33.6026 39.3112 33.4988 39.253C33.3991 39.1907 33.2807 39.1595 33.1436 39.1595C33.0107 39.1595 32.8923 39.1907 32.7884 39.253C32.6846 39.3112 32.6036 39.3942 32.5454 39.5022C32.4873 39.6102 32.4582 39.739 32.4582 39.8886V41.8763H31.6419Z" fill="white"/>
</svg>
