<svg width="46" height="49" viewBox="0 0 46 49" fill="none" xmlns="http://www.w3.org/2000/svg">
<rect x="0.322754" width="45.3199" height="48.2917" rx="9.65834" fill="white"/>
<path fill-rule="evenodd" clip-rule="evenodd" d="M25.0978 9.9084L31.4427 15.4708C31.7773 15.77 32.0446 16.1369 32.2268 16.547C32.4091 16.9572 32.5023 17.4014 32.5002 17.8502V27.1033C32.5002 27.9447 32.166 28.7516 31.571 29.3466C30.9761 29.9415 30.1691 30.2758 29.3278 30.2758H27.3264C26.0954 30.2758 25.0975 29.2778 25.0975 28.0468L25.0978 22.8733C25.0978 22.5928 24.9864 22.3239 24.788 22.1255C24.5897 21.9272 24.3207 21.8158 24.0403 21.8158H21.9253C21.6448 21.8158 21.3758 21.9272 21.1775 22.1255C20.9792 22.3239 20.8678 22.5928 20.8678 22.8733V27.5763V28.0469C20.8678 29.2779 19.8699 30.2758 18.6389 30.2758H17.1198H16.6378C15.7964 30.2758 14.9895 29.9415 14.3945 29.3466C13.7996 28.7516 13.4653 27.9447 13.4653 27.1033V17.8608C13.4617 17.4101 13.5542 16.9639 13.7365 16.5518C13.9189 16.1398 14.1869 15.7712 14.5228 15.4708L20.8678 9.9084C21.4494 9.38815 22.2024 9.10054 22.9828 9.10054C23.7631 9.10054 24.5161 9.38815 25.0978 9.9084ZM30.0755 27.851C30.2738 27.6527 30.3852 27.3837 30.3852 27.1033V17.8502C30.3851 17.7 30.3529 17.5517 30.2909 17.4149C30.2289 17.2782 30.1385 17.1562 30.0257 17.0571L23.6807 11.5052C23.4877 11.3357 23.2396 11.2422 22.9828 11.2422C22.7259 11.2422 22.4778 11.3357 22.2848 11.5052L15.9399 17.0571C15.827 17.1562 15.7366 17.2782 15.6746 17.4149C15.6127 17.5517 15.5805 17.7 15.5803 17.8502V27.1033C15.5803 27.3837 15.6917 27.6527 15.89 27.851C16.0884 28.0494 16.3573 28.1608 16.6378 28.1608H18.0098C18.4202 28.1608 18.7528 27.8281 18.7528 27.4178V22.8733C18.7528 22.0319 19.087 21.225 19.682 20.63C20.2769 20.0351 21.0839 19.7008 21.9253 19.7008H24.0403C24.8817 19.7008 25.6886 20.0351 26.2836 20.63C26.8785 21.225 27.2128 22.0319 27.2128 22.8733V27.4178C27.2128 27.8281 27.5454 28.1608 27.9557 28.1608H29.3278C29.6082 28.1608 29.8772 28.0494 30.0755 27.851Z" fill="#BD9F91"/>
<path d="M10.6496 41.8763V37.2341H12.6062C12.9136 37.2341 13.1753 37.2881 13.3913 37.3961C13.6115 37.5 13.7797 37.6495 13.896 37.8448C14.0165 38.0358 14.0767 38.2685 14.0767 38.5426C14.0767 38.7545 14.0186 38.9539 13.9022 39.1408C13.7901 39.3236 13.6094 39.4752 13.3601 39.5957V39.2031C13.5886 39.2904 13.7693 39.3984 13.9022 39.5272C14.0352 39.6559 14.1286 39.7993 14.1826 39.9571C14.2366 40.115 14.2636 40.2811 14.2636 40.4556C14.2636 40.9001 14.1162 41.249 13.8212 41.5024C13.5305 41.7517 13.1254 41.8763 12.6062 41.8763H10.6496ZM11.497 41.1286H12.6934C12.9136 41.1286 13.088 41.0683 13.2168 40.9479C13.3497 40.8232 13.4162 40.6592 13.4162 40.4556C13.4162 40.2521 13.3497 40.088 13.2168 39.9633C13.088 39.8387 12.9136 39.7764 12.6934 39.7764H11.497V41.1286ZM11.497 39.0349H12.6498C12.8243 39.0349 12.9634 38.9851 13.0673 38.8854C13.1711 38.7815 13.223 38.6486 13.223 38.4866C13.223 38.3246 13.1711 38.1958 13.0673 38.1002C12.9634 38.0047 12.8243 37.9569 12.6498 37.9569H11.497V39.0349ZM16.4969 41.9511C16.148 41.9511 15.8427 41.8721 15.5809 41.7143C15.3192 41.5564 15.1157 41.3425 14.9703 41.0725C14.8249 40.8025 14.7522 40.5034 14.7522 40.1752C14.7522 39.8346 14.8249 39.5334 14.9703 39.2717C15.1198 39.0058 15.3213 38.796 15.5747 38.6423C15.8323 38.4886 16.1189 38.4118 16.4346 38.4118C16.7005 38.4118 16.9331 38.4554 17.1325 38.5426C17.336 38.6299 17.5084 38.7504 17.6497 38.9041C17.7909 39.0578 17.8989 39.2343 17.9737 39.4337C18.0485 39.6289 18.0859 39.8408 18.0859 40.0693C18.0859 40.1274 18.0817 40.1877 18.0734 40.25C18.0692 40.3123 18.0589 40.3663 18.0422 40.412H15.4252V39.7889H17.5811L17.1948 40.0817C17.2322 39.8906 17.2218 39.7203 17.1636 39.5708C17.1096 39.4212 17.0183 39.3028 16.8895 39.2156C16.7649 39.1284 16.6132 39.0848 16.4346 39.0848C16.2643 39.0848 16.1127 39.1284 15.9797 39.2156C15.8468 39.2987 15.745 39.4233 15.6744 39.5895C15.6079 39.7515 15.583 39.9488 15.5996 40.1814C15.583 40.3891 15.61 40.574 15.6806 40.736C15.7554 40.8939 15.8634 41.0164 16.0047 41.1036C16.1501 41.1909 16.3162 41.2345 16.5032 41.2345C16.6901 41.2345 16.8479 41.195 16.9767 41.1161C17.1096 41.0372 17.2135 40.9312 17.2883 40.7983L17.9488 41.1223C17.8823 41.2843 17.7785 41.4277 17.6372 41.5523C17.496 41.6769 17.3277 41.7745 17.1325 41.8451C16.9414 41.9158 16.7295 41.9511 16.4969 41.9511ZM18.7046 41.8763V38.4866H19.4711V39.2405L19.4088 39.1284C19.4877 38.875 19.6102 38.6984 19.7764 38.5987C19.9467 38.499 20.1503 38.4492 20.387 38.4492H20.5864V39.172H20.2936C20.0609 39.172 19.874 39.2447 19.7328 39.3901C19.5915 39.5313 19.5209 39.7307 19.5209 39.9883V41.8763H18.7046ZM22.0634 41.9511C21.8266 41.9511 21.6209 41.9116 21.4465 41.8327C21.272 41.7538 21.137 41.6416 21.0415 41.4962C20.9459 41.3467 20.8981 41.1743 20.8981 40.979C20.8981 40.7921 20.9397 40.6259 21.0228 40.4805C21.1058 40.331 21.2346 40.2064 21.4091 40.1067C21.5836 40.007 21.8037 39.9363 22.0696 39.8948L23.1787 39.7141V40.3372L22.2254 40.4992C22.0634 40.5283 21.9429 40.5802 21.864 40.655C21.785 40.7298 21.7456 40.8274 21.7456 40.9479C21.7456 41.0642 21.7892 41.1576 21.8764 41.2283C21.9678 41.2947 22.08 41.328 22.2129 41.328C22.3832 41.328 22.5328 41.2926 22.6615 41.222C22.7945 41.1473 22.8962 41.0455 22.9669 40.9167C23.0416 40.7879 23.079 40.6467 23.079 40.493V39.6206C23.079 39.4752 23.0209 39.3548 22.9046 39.2592C22.7924 39.1595 22.6429 39.1097 22.4559 39.1097C22.2814 39.1097 22.1257 39.1575 21.9886 39.253C21.8557 39.3444 21.758 39.4669 21.6957 39.6206L21.029 39.2966C21.0955 39.118 21.1993 38.9643 21.3405 38.8355C21.4859 38.7026 21.6563 38.5987 21.8515 38.524C22.0467 38.4492 22.2586 38.4118 22.4871 38.4118C22.7654 38.4118 23.0105 38.4637 23.2223 38.5676C23.4342 38.6673 23.5983 38.8085 23.7146 38.9913C23.8351 39.1699 23.8953 39.3797 23.8953 39.6206V41.8763H23.1226V41.2968L23.2971 41.2843C23.2099 41.4297 23.106 41.5523 22.9856 41.652C22.8651 41.7475 22.728 41.8223 22.5743 41.8763C22.4206 41.9261 22.2503 41.9511 22.0634 41.9511ZM24.6498 41.8763V38.4866H25.4162V39.1533L25.3539 39.0349C25.4328 38.8314 25.5616 38.6777 25.7402 38.5738C25.923 38.4658 26.1348 38.4118 26.3758 38.4118C26.625 38.4118 26.8452 38.4658 27.0363 38.5738C27.2315 38.6818 27.3831 38.8334 27.4912 39.0287C27.5992 39.2198 27.6532 39.442 27.6532 39.6954V41.8763H26.8369V39.8886C26.8369 39.739 26.8078 39.6102 26.7496 39.5022C26.6915 39.3942 26.6105 39.3112 26.5066 39.253C26.4069 39.1907 26.2885 39.1595 26.1515 39.1595C26.0185 39.1595 25.9001 39.1907 25.7963 39.253C25.6924 39.3112 25.6114 39.3942 25.5533 39.5022C25.4951 39.6102 25.466 39.739 25.466 39.8886V41.8763H24.6498ZM29.9199 41.9511C29.5917 41.9511 29.2988 41.8742 29.0413 41.7205C28.7837 41.5627 28.5802 41.3487 28.4306 41.0787C28.2811 40.8087 28.2063 40.5096 28.2063 40.1814C28.2063 39.8491 28.2811 39.55 28.4306 39.2841C28.5802 39.0183 28.7837 38.8064 29.0413 38.6486C29.303 38.4907 29.5938 38.4118 29.9136 38.4118C30.1712 38.4118 30.3997 38.4637 30.5991 38.5676C30.8026 38.6673 30.9626 38.8085 31.0789 38.9913L30.9542 39.1595V37.1593H31.7705V41.8763H30.9979V41.222L31.0851 41.384C30.9688 41.5668 30.8068 41.7081 30.5991 41.8078C30.3914 41.9033 30.165 41.9511 29.9199 41.9511ZM30.0071 41.2033C30.194 41.2033 30.3581 41.1597 30.4994 41.0725C30.6406 40.9852 30.7507 40.8648 30.8296 40.7111C30.9127 40.5574 30.9542 40.3808 30.9542 40.1814C30.9542 39.9862 30.9127 39.8117 30.8296 39.658C30.7507 39.5002 30.6406 39.3776 30.4994 39.2904C30.3581 39.2031 30.194 39.1595 30.0071 39.1595C29.8243 39.1595 29.6602 39.2052 29.5149 39.2966C29.3695 39.3838 29.2552 39.5043 29.1721 39.658C29.0932 39.8076 29.0538 39.982 29.0538 40.1814C29.0538 40.3808 29.0932 40.5574 29.1721 40.7111C29.2552 40.8648 29.3695 40.9852 29.5149 41.0725C29.6602 41.1597 29.8243 41.2033 30.0071 41.2033ZM33.5581 41.9511C33.3213 41.9511 33.1157 41.9116 32.9412 41.8327C32.7667 41.7538 32.6317 41.6416 32.5362 41.4962C32.4406 41.3467 32.3929 41.1743 32.3929 40.979C32.3929 40.7921 32.4344 40.6259 32.5175 40.4805C32.6006 40.331 32.7293 40.2064 32.9038 40.1067C33.0783 40.007 33.2984 39.9363 33.5643 39.8948L34.6734 39.7141V40.3372L33.7201 40.4992C33.5581 40.5283 33.4376 40.5802 33.3587 40.655C33.2797 40.7298 33.2403 40.8274 33.2403 40.9479C33.2403 41.0642 33.2839 41.1576 33.3711 41.2283C33.4625 41.2947 33.5747 41.328 33.7076 41.328C33.8779 41.328 34.0275 41.2926 34.1563 41.222C34.2892 41.1473 34.391 41.0455 34.4616 40.9167C34.5364 40.7879 34.5737 40.6467 34.5737 40.493V39.6206C34.5737 39.4752 34.5156 39.3548 34.3993 39.2592C34.2871 39.1595 34.1376 39.1097 33.9506 39.1097C33.7762 39.1097 33.6204 39.1575 33.4833 39.253C33.3504 39.3444 33.2527 39.4669 33.1904 39.6206L32.5237 39.2966C32.5902 39.118 32.694 38.9643 32.8353 38.8355C32.9807 38.7026 33.151 38.5987 33.3462 38.524C33.5415 38.4492 33.7533 38.4118 33.9818 38.4118C34.2601 38.4118 34.5052 38.4637 34.7171 38.5676C34.9289 38.6673 35.093 38.8085 35.2093 38.9913C35.3298 39.1699 35.39 39.3797 35.39 39.6206V41.8763H34.6174V41.2968L34.7918 41.2843C34.7046 41.4297 34.6007 41.5523 34.4803 41.652C34.3598 41.7475 34.2227 41.8223 34.069 41.8763C33.9153 41.9261 33.745 41.9511 33.5581 41.9511Z" fill="#BD9F91"/>
</svg>
