<svg width="46" height="50" viewBox="0 0 46 50" fill="none" xmlns="http://www.w3.org/2000/svg">
<rect x="0.420288" y="0.875061" width="45.3199" height="48.2917" rx="9.65834" fill="#BD9F91"/>
<path fill-rule="evenodd" clip-rule="evenodd" d="M29.4252 11.0457H30.4827C31.3241 11.0457 32.131 11.38 32.726 11.9749C33.3209 12.5699 33.6552 13.3768 33.6552 14.2182V29.0232C33.6552 29.8646 33.3209 30.6715 32.726 31.2665C32.131 31.8614 31.3241 32.1957 30.4827 32.1957H15.6777C14.8363 32.1957 14.0294 31.8614 13.4344 31.2665C12.8395 30.6715 12.5052 29.8646 12.5052 29.0232V14.2182C12.5052 13.3768 12.8395 12.5699 13.4344 11.9749C14.0294 11.38 14.8363 11.0457 15.6777 11.0457H16.7352V9.98825C16.7352 9.70778 16.8466 9.4388 17.045 9.24048C17.2433 9.04216 17.5123 8.93075 17.7927 8.93075C18.0732 8.93075 18.3422 9.04216 18.5405 9.24048C18.7388 9.4388 18.8502 9.70778 18.8502 9.98825V11.0457H27.3102V9.98825C27.3102 9.70778 27.4216 9.4388 27.6199 9.24048C27.8182 9.04216 28.0872 8.93075 28.3677 8.93075C28.6482 8.93075 28.9171 9.04216 29.1155 9.24048C29.3138 9.4388 29.4252 9.70778 29.4252 9.98825V11.0457ZM18.3803 23.5575C18.2064 23.6737 18.0019 23.7357 17.7928 23.7357C17.5123 23.7357 17.2433 23.6243 17.045 23.426C16.8467 23.2276 16.7353 22.9587 16.7353 22.6782C16.7353 22.469 16.7973 22.2646 16.9135 22.0907C17.0297 21.9168 17.1949 21.7812 17.3881 21.7012C17.5813 21.6212 17.794 21.6002 17.9991 21.641C18.2042 21.6818 18.3927 21.7825 18.5405 21.9304C18.6884 22.0783 18.7892 22.2667 18.83 22.4719C18.8708 22.677 18.8498 22.8896 18.7698 23.0829C18.6897 23.2761 18.5542 23.4413 18.3803 23.5575ZM28.9553 23.5575C28.7814 23.6737 28.5769 23.7357 28.3677 23.7357C28.0873 23.7357 27.8183 23.6243 27.62 23.426C27.4217 23.2276 27.3103 22.9587 27.3103 22.6782C27.3103 22.469 27.3723 22.2646 27.4885 22.0907C27.6047 21.9168 27.7698 21.7812 27.9631 21.7012C28.1563 21.6212 28.3689 21.6002 28.5741 21.641C28.7792 21.6818 28.9676 21.7825 29.1155 21.9304C29.2634 22.0783 29.3641 22.2667 29.4049 22.4719C29.4457 22.677 29.4248 22.8896 29.3447 23.0829C29.2647 23.2761 29.1292 23.4413 28.9553 23.5575ZM23.0803 27.9657C23.2894 27.9657 23.4939 27.9037 23.6678 27.7875C23.8417 27.6713 23.9772 27.5061 24.0573 27.3129C24.1373 27.1196 24.1582 26.907 24.1174 26.7019C24.0766 26.4967 23.9759 26.3083 23.828 26.1604C23.6801 26.0125 23.4917 25.9118 23.2866 25.871C23.0814 25.8302 22.8688 25.8511 22.6756 25.9312C22.4824 26.0112 22.3172 26.1468 22.201 26.3207C22.0848 26.4946 22.0228 26.699 22.0228 26.9082C22.0228 27.1886 22.1342 27.4576 22.3325 27.6559C22.5308 27.8543 22.7998 27.9657 23.0803 27.9657ZM28.3677 27.9657C28.5769 27.9657 28.7814 27.9037 28.9553 27.7875C29.1292 27.6713 29.2647 27.5061 29.3447 27.3129C29.4248 27.1196 29.4457 26.907 29.4049 26.7019C29.3641 26.4967 29.2634 26.3083 29.1155 26.1604C28.9676 26.0125 28.7792 25.9118 28.5741 25.871C28.3689 25.8302 28.1563 25.8511 27.9631 25.9312C27.7698 26.0112 27.6047 26.1468 27.4885 26.3207C27.3723 26.4946 27.3103 26.699 27.3103 26.9082C27.3103 27.1886 27.4217 27.4576 27.62 27.6559C27.8183 27.8543 28.0873 27.9657 28.3677 27.9657ZM23.0803 23.7357C23.2894 23.7357 23.4939 23.6737 23.6678 23.5575C23.8417 23.4413 23.9772 23.2761 24.0573 23.0829C24.1373 22.8896 24.1582 22.677 24.1174 22.4719C24.0766 22.2667 23.9759 22.0783 23.828 21.9304C23.6801 21.7825 23.4917 21.6818 23.2866 21.641C23.0814 21.6002 22.8688 21.6212 22.6756 21.7012C22.4824 21.7812 22.3172 21.9168 22.201 22.0907C22.0848 22.2646 22.0228 22.469 22.0228 22.6782C22.0228 22.9587 22.1342 23.2276 22.3325 23.426C22.5308 23.6243 22.7998 23.7357 23.0803 23.7357ZM17.7928 27.9657C18.0019 27.9657 18.2064 27.9037 18.3803 27.7875C18.5542 27.6713 18.6897 27.5061 18.7698 27.3129C18.8498 27.1196 18.8708 26.907 18.83 26.7019C18.7892 26.4967 18.6884 26.3083 18.5405 26.1604C18.3927 26.0125 18.2042 25.9118 17.9991 25.871C17.794 25.8302 17.5813 25.8511 17.3881 25.9312C17.1949 26.0112 17.0297 26.1468 16.9135 26.3207C16.7973 26.4946 16.7353 26.699 16.7353 26.9082C16.7353 27.1886 16.8467 27.4576 17.045 27.6559C17.2433 27.8543 17.5123 27.9657 17.7928 27.9657Z" fill="white"/>
<path d="M14.6041 42.7514L13.3578 38.1092H14.2676L15.2459 42.0659H15.0091L16.031 38.1092H16.9096L17.9253 42.0659H17.6885L18.6668 38.1092H19.5765L18.3303 42.7514H17.3582L16.3301 38.9005H16.6043L15.5761 42.7514H14.6041ZM20.8009 42.8261C20.5641 42.8261 20.3585 42.7867 20.184 42.7077C20.0095 42.6288 19.8745 42.5167 19.779 42.3713C19.6834 42.2217 19.6357 42.0493 19.6357 41.8541C19.6357 41.6671 19.6772 41.501 19.7603 41.3556C19.8434 41.206 19.9721 41.0814 20.1466 40.9817C20.3211 40.882 20.5412 40.8114 20.8071 40.7699L21.9162 40.5892V41.2123L20.9629 41.3743C20.8009 41.4034 20.6804 41.4553 20.6015 41.5301C20.5226 41.6048 20.4831 41.7025 20.4831 41.8229C20.4831 41.9392 20.5267 42.0327 20.6139 42.1033C20.7053 42.1698 20.8175 42.203 20.9504 42.203C21.1207 42.203 21.2703 42.1677 21.3991 42.0971C21.532 42.0223 21.6338 41.9205 21.7044 41.7918C21.7792 41.663 21.8165 41.5217 21.8165 41.368V40.4957C21.8165 40.3503 21.7584 40.2298 21.6421 40.1343C21.5299 40.0346 21.3804 39.9847 21.1934 39.9847C21.019 39.9847 20.8632 40.0325 20.7261 40.1281C20.5932 40.2194 20.4956 40.342 20.4332 40.4957L19.7665 40.1717C19.833 39.993 19.9368 39.8393 20.0781 39.7106C20.2235 39.5776 20.3938 39.4738 20.589 39.399C20.7843 39.3242 20.9961 39.2869 21.2246 39.2869C21.5029 39.2869 21.748 39.3388 21.9599 39.4426C22.1717 39.5423 22.3358 39.6836 22.4521 39.8663C22.5726 40.045 22.6328 40.2548 22.6328 40.4957V42.7514H21.8602V42.1719L22.0346 42.1594C21.9474 42.3048 21.8435 42.4273 21.7231 42.527C21.6026 42.6226 21.4655 42.6974 21.3118 42.7514C21.1581 42.8012 20.9878 42.8261 20.8009 42.8261ZM23.3873 42.7514V38.0344H24.2036V41.125L23.892 41.0316L25.4872 39.3616H26.5028L25.2504 40.7262L26.5278 42.7514H25.5931L24.484 40.9942L24.97 40.8945L23.9481 41.9912L24.2036 41.4927V42.7514H23.3873ZM28.5289 42.7887C28.1467 42.7887 27.8497 42.6849 27.6378 42.4772C27.4301 42.2653 27.3263 41.9683 27.3263 41.5861V40.0907H26.7405V39.3616H26.8029C26.969 39.3616 27.0978 39.318 27.1892 39.2308C27.2806 39.1435 27.3263 39.0168 27.3263 38.8507V38.589H28.1425V39.3616H28.9214V40.0907H28.1425V41.5425C28.1425 41.6547 28.1612 41.7502 28.1986 41.8292C28.2402 41.9081 28.3025 41.9683 28.3856 42.0099C28.4728 42.0514 28.5829 42.0722 28.7158 42.0722C28.7449 42.0722 28.7781 42.0701 28.8155 42.0659C28.8571 42.0618 28.8965 42.0576 28.9339 42.0535V42.7514C28.8757 42.7597 28.8093 42.768 28.7345 42.7763C28.6597 42.7846 28.5912 42.7887 28.5289 42.7887ZM30.7664 42.8261C30.5047 42.8261 30.2762 42.768 30.081 42.6517C29.8899 42.5353 29.7424 42.3733 29.6386 42.1656C29.5389 41.9579 29.489 41.7149 29.489 41.4366V39.3616H30.3053V41.368C30.3053 41.5093 30.3323 41.6339 30.3863 41.7419C30.4444 41.8458 30.5255 41.9288 30.6293 41.9912C30.7373 42.0493 30.8578 42.0784 30.9907 42.0784C31.1236 42.0784 31.242 42.0493 31.3459 41.9912C31.4497 41.9288 31.5307 41.8437 31.5889 41.7357C31.6471 41.6277 31.6761 41.4989 31.6761 41.3494V39.3616H32.4924V42.7514H31.7198V42.0846L31.7883 42.203C31.7094 42.4107 31.5785 42.5665 31.3957 42.6704C31.2171 42.7742 31.0073 42.8261 30.7664 42.8261Z" fill="white"/>
</svg>
