<svg width="46" height="49" viewBox="0 0 46 49" fill="none" xmlns="http://www.w3.org/2000/svg">
<rect x="0.5177" y="0.166748" width="45.3199" height="48.2917" rx="9.65834" fill="white"/>
<path d="M28.8881 22.7101V13.1927C28.8881 12.4354 28.5873 11.7092 28.0518 11.1737C27.5164 10.6383 26.7901 10.3374 26.0329 10.3374H16.5154C15.7581 10.3374 15.0319 10.6383 14.4964 11.1737C13.961 11.7092 13.6602 12.4354 13.6602 13.1927V22.7101C13.6602 23.4674 13.961 24.1936 14.4964 24.7291C15.0319 25.2646 15.7581 25.5654 16.5154 25.5654H26.0329C26.7901 25.5654 27.5164 25.2646 28.0518 24.7291C28.5873 24.1936 28.8881 23.4674 28.8881 22.7101ZM15.5636 13.1927C15.5636 12.9403 15.6639 12.6982 15.8424 12.5197C16.0209 12.3412 16.263 12.2409 16.5154 12.2409H26.0329C26.2853 12.2409 26.5274 12.3412 26.7058 12.5197C26.8843 12.6982 26.9846 12.9403 26.9846 13.1927V17.3423L25.9567 16.3049C25.4999 15.8479 24.8802 15.5912 24.2341 15.5911C23.5883 15.5932 22.9694 15.8497 22.5114 16.3049L21.6453 17.171L20.8744 16.4001C20.3528 15.8868 19.6503 15.5992 18.9186 15.5992C18.1868 15.5992 17.4843 15.8868 16.9627 16.4001L15.5636 17.8086V13.1927ZM15.6779 23.1384C15.6045 23.0075 15.5652 22.8602 15.5636 22.7101V20.4926L18.3047 17.7515C18.3852 17.6707 18.4808 17.6065 18.5862 17.5627C18.6915 17.5189 18.8045 17.4964 18.9186 17.4964C19.0326 17.4964 19.1456 17.5189 19.2509 17.5627C19.3563 17.6065 19.452 17.6707 19.5324 17.7515L20.3224 18.5225L15.6779 23.1384ZM23.8629 17.6564C23.9098 17.6047 23.9672 17.5637 24.0312 17.5358C24.0951 17.5079 24.1643 17.4938 24.2341 17.4946C24.3038 17.4938 24.373 17.5079 24.437 17.5358C24.5009 17.5637 24.5583 17.6047 24.6052 17.6564L26.9846 20.0262V22.7101C26.9846 22.9626 26.8843 23.2046 26.7058 23.3831C26.5274 23.5616 26.2853 23.6619 26.0329 23.6619H17.8478L23.8629 17.6564ZM31.7433 14.1444C31.4909 14.1444 31.2488 14.2447 31.0704 14.4232C30.8919 14.6017 30.7916 14.8437 30.7916 15.0962V24.6136C30.7916 25.3709 30.4908 26.0971 29.9553 26.6326C29.4199 27.1681 28.6936 27.4689 27.9364 27.4689H18.4189C18.1665 27.4689 17.9244 27.5691 17.7459 27.7476C17.5674 27.9261 17.4671 28.1682 17.4671 28.4206C17.4671 28.673 17.5674 28.9151 17.7459 29.0936C17.9244 29.2721 18.1665 29.3724 18.4189 29.3724H27.9364C29.1984 29.3724 30.4088 28.871 31.3013 27.9786C32.1937 27.0861 32.6951 25.8757 32.6951 24.6136V15.0962C32.6951 14.8437 32.5948 14.6017 32.4163 14.4232C32.2378 14.2447 31.9958 14.1444 31.7433 14.1444Z" fill="#BD9F91"/>
<path d="M16.8595 42.1178C16.5271 42.1178 16.2197 42.0576 15.9373 41.9371C15.6548 41.8166 15.4076 41.6484 15.1958 41.4324C14.9839 41.2164 14.8177 40.963 14.6973 40.6722C14.581 40.3814 14.5228 40.0636 14.5228 39.7188C14.5228 39.374 14.5789 39.0563 14.691 38.7655C14.8074 38.4705 14.9694 38.2171 15.1771 38.0053C15.3889 37.7893 15.6361 37.6231 15.9186 37.5068C16.2011 37.3863 16.5085 37.3261 16.8408 37.3261C17.1731 37.3261 17.4701 37.3822 17.7318 37.4943C17.9977 37.6065 18.222 37.756 18.4048 37.943C18.5876 38.1257 18.7184 38.3272 18.7974 38.5474L18.0434 38.9088C17.9562 38.6679 17.8087 38.4726 17.601 38.3231C17.3933 38.1735 17.1399 38.0987 16.8408 38.0987C16.55 38.0987 16.2924 38.1673 16.0681 38.3044C15.848 38.4415 15.6756 38.6305 15.5509 38.8714C15.4305 39.1123 15.3702 39.3948 15.3702 39.7188C15.3702 40.0429 15.4325 40.3274 15.5572 40.5725C15.6859 40.8134 15.8625 41.0024 16.0868 41.1395C16.3111 41.2766 16.5687 41.3452 16.8595 41.3452C17.0963 41.3452 17.3143 41.2995 17.5137 41.2081C17.7131 41.1125 17.8731 40.9796 17.9935 40.8093C18.114 40.6348 18.1742 40.4292 18.1742 40.1924V39.8372L18.5606 40.1737H16.8408V39.4571H19.0217V39.9245C19.0217 40.2817 18.9614 40.5974 18.841 40.8716C18.7205 41.1458 18.5564 41.3763 18.3487 41.5632C18.1452 41.746 17.9146 41.8852 17.6571 41.9807C17.3995 42.0721 17.1336 42.1178 16.8595 42.1178ZM20.6518 42.1178C20.4151 42.1178 20.2094 42.0784 20.035 41.9994C19.8605 41.9205 19.7255 41.8083 19.6299 41.6629C19.5344 41.5134 19.4866 41.341 19.4866 41.1458C19.4866 40.9588 19.5282 40.7927 19.6112 40.6473C19.6943 40.4977 19.8231 40.3731 19.9976 40.2734C20.172 40.1737 20.3922 40.1031 20.6581 40.0615L21.7672 39.8808V40.504L20.8139 40.666C20.6518 40.695 20.5314 40.747 20.4524 40.8217C20.3735 40.8965 20.3341 40.9941 20.3341 41.1146C20.3341 41.2309 20.3777 41.3244 20.4649 41.395C20.5563 41.4615 20.6685 41.4947 20.8014 41.4947C20.9717 41.4947 21.1213 41.4594 21.25 41.3888C21.383 41.314 21.4847 41.2122 21.5554 41.0835C21.6301 40.9547 21.6675 40.8134 21.6675 40.6597V39.7874C21.6675 39.642 21.6094 39.5215 21.493 39.426C21.3809 39.3263 21.2313 39.2764 21.0444 39.2764C20.8699 39.2764 20.7142 39.3242 20.5771 39.4197C20.4441 39.5111 20.3465 39.6337 20.2842 39.7874L19.6175 39.4634C19.6839 39.2847 19.7878 39.131 19.929 39.0023C20.0744 38.8693 20.2447 38.7655 20.44 38.6907C20.6352 38.6159 20.8471 38.5785 21.0756 38.5785C21.3539 38.5785 21.599 38.6305 21.8108 38.7343C22.0227 38.834 22.1868 38.9753 22.3031 39.158C22.4236 39.3367 22.4838 39.5464 22.4838 39.7874V42.043H21.7111V41.4636L21.8856 41.4511C21.7984 41.5965 21.6945 41.719 21.574 41.8187C21.4536 41.9143 21.3165 41.989 21.1628 42.043C21.0091 42.0929 20.8388 42.1178 20.6518 42.1178ZM23.2382 42.043V37.3261H24.0545V42.043H23.2382ZM26.4158 42.1178C26.0669 42.1178 25.7616 42.0389 25.4998 41.881C25.2381 41.7232 25.0346 41.5092 24.8892 41.2392C24.7438 40.9692 24.6711 40.6701 24.6711 40.3419C24.6711 40.0013 24.7438 39.7001 24.8892 39.4384C25.0387 39.1726 25.2402 38.9628 25.4936 38.8091C25.7512 38.6554 26.0378 38.5785 26.3535 38.5785C26.6194 38.5785 26.852 38.6222 27.0514 38.7094C27.2549 38.7966 27.4273 38.9171 27.5686 39.0708C27.7098 39.2245 27.8178 39.401 27.8926 39.6004C27.9674 39.7957 28.0048 40.0075 28.0048 40.236C28.0048 40.2942 28.0006 40.3544 27.9923 40.4167C27.9881 40.479 27.9778 40.533 27.9611 40.5787H25.3441V39.9556H27.5L27.1137 40.2485C27.1511 40.0574 27.1407 39.8871 27.0826 39.7375C27.0286 39.588 26.9372 39.4696 26.8084 39.3824C26.6838 39.2951 26.5321 39.2515 26.3535 39.2515C26.1832 39.2515 26.0316 39.2951 25.8986 39.3824C25.7657 39.4654 25.6639 39.5901 25.5933 39.7562C25.5269 39.9182 25.5019 40.1156 25.5185 40.3482C25.5019 40.5559 25.5289 40.7407 25.5995 40.9027C25.6743 41.0606 25.7823 41.1832 25.9236 41.2704C26.069 41.3576 26.2351 41.4012 26.4221 41.4012C26.609 41.4012 26.7668 41.3618 26.8956 41.2828C27.0286 41.2039 27.1324 41.098 27.2072 40.9651L27.8677 41.2891C27.8012 41.4511 27.6974 41.5944 27.5561 41.719C27.4149 41.8436 27.2466 41.9413 27.0514 42.0119C26.8603 42.0825 26.6485 42.1178 26.4158 42.1178ZM28.6235 42.043V38.6533H29.39V39.4073L29.3277 39.2951C29.4066 39.0417 29.5291 38.8652 29.6953 38.7655C29.8656 38.6658 30.0692 38.6159 30.3059 38.6159H30.5053V39.3387H30.2125C29.9798 39.3387 29.7929 39.4114 29.6517 39.5568C29.5104 39.6981 29.4398 39.8975 29.4398 40.155V42.043H28.6235ZM30.9541 42.043V38.6533H31.7704V42.043H30.9541ZM30.9541 38.2732V37.4009H31.7704V38.2732H30.9541Z" fill="#BD9F91"/>
</svg>
