<svg width="47" height="49" viewBox="0 0 47 49" fill="none" xmlns="http://www.w3.org/2000/svg">
<rect x="0.693848" width="45.3199" height="48.2917" rx="9.65834" fill="white"/>
<path fill-rule="evenodd" clip-rule="evenodd" d="M25.4689 9.90844L31.8138 15.4709C32.1484 15.7701 32.4156 16.1369 32.5979 16.5471C32.7802 16.9572 32.8734 17.4014 32.8713 17.8502V27.1033C32.8713 27.9447 32.5371 28.7517 31.9421 29.3466C31.3472 29.9416 30.5402 30.2758 29.6988 30.2758H27.6975C26.4665 30.2758 25.4686 29.2779 25.4686 28.0469L25.4689 22.8733C25.4689 22.5929 25.3574 22.3239 25.1591 22.1256C24.9608 21.9273 24.6918 21.8158 24.4114 21.8158H22.2964C22.0159 21.8158 21.7469 21.9273 21.5486 22.1256C21.3503 22.3239 21.2389 22.5929 21.2389 22.8733V27.5763V28.047C21.2389 29.2779 20.241 30.2758 19.01 30.2758H17.4909H17.0089C16.1675 30.2758 15.3606 29.9416 14.7656 29.3466C14.1706 28.7517 13.8364 27.9447 13.8364 27.1033V17.8608C13.8328 17.4102 13.9253 16.964 14.1076 16.5519C14.29 16.1398 14.558 15.7713 14.8939 15.4709L21.2389 9.90844C21.8205 9.3882 22.5735 9.10059 23.3539 9.10059C24.1342 9.10059 24.8872 9.3882 25.4689 9.90844ZM30.4466 27.8511C30.6449 27.6528 30.7563 27.3838 30.7563 27.1033V17.8502C30.7562 17.7001 30.724 17.5517 30.662 17.4149C30.6 17.2782 30.5096 17.1562 30.3968 17.0571L24.0518 11.5053C23.8588 11.3357 23.6107 11.2422 23.3539 11.2422C23.097 11.2422 22.8489 11.3357 22.6559 11.5053L16.3109 17.0571C16.1981 17.1562 16.1077 17.2782 16.0457 17.4149C15.9837 17.5517 15.9516 17.7001 15.9514 17.8502V27.1033C15.9514 27.3838 16.0628 27.6528 16.2611 27.8511C16.4594 28.0494 16.7284 28.1608 17.0089 28.1608H18.3809C18.7913 28.1608 19.1239 27.8282 19.1239 27.4179V22.8733C19.1239 22.0319 19.4581 21.225 20.0531 20.6301C20.648 20.0351 21.455 19.7009 22.2964 19.7009H24.4114C25.2528 19.7009 26.0597 20.0351 26.6547 20.6301C27.2496 21.225 27.5839 22.0319 27.5839 22.8733V27.4179C27.5839 27.8282 27.9165 28.1608 28.3268 28.1608H29.6988C29.9793 28.1608 30.2483 28.0494 30.4466 27.8511Z" fill="#686868"/>
<path d="M11.0207 41.876V37.2338H12.9773C13.2847 37.2338 13.5464 37.2878 13.7624 37.3958C13.9825 37.4997 14.1508 37.6492 14.2671 37.8444C14.3876 38.0355 14.4478 38.2682 14.4478 38.5423C14.4478 38.7542 14.3896 38.9536 14.2733 39.1405C14.1612 39.3233 13.9805 39.4749 13.7312 39.5954V39.2028C13.9597 39.2901 14.1404 39.3981 14.2733 39.5268C14.4063 39.6556 14.4997 39.7989 14.5537 39.9568C14.6077 40.1146 14.6347 40.2808 14.6347 40.4553C14.6347 40.8998 14.4873 41.2487 14.1923 41.5021C13.9015 41.7514 13.4965 41.876 12.9773 41.876H11.0207ZM11.8681 41.1282H13.0645C13.2847 41.1282 13.4591 41.068 13.5879 40.9475C13.7208 40.8229 13.7873 40.6588 13.7873 40.4553C13.7873 40.2517 13.7208 40.0876 13.5879 39.963C13.4591 39.8384 13.2847 39.7761 13.0645 39.7761H11.8681V41.1282ZM11.8681 39.0346H13.0209C13.1954 39.0346 13.3345 38.9847 13.4384 38.885C13.5422 38.7812 13.5941 38.6483 13.5941 38.4862C13.5941 38.3242 13.5422 38.1955 13.4384 38.0999C13.3345 38.0044 13.1954 37.9566 13.0209 37.9566H11.8681V39.0346ZM16.868 41.9508C16.5191 41.9508 16.2137 41.8718 15.952 41.714C15.6903 41.5561 15.4868 41.3422 15.3414 41.0722C15.196 40.8021 15.1233 40.5031 15.1233 40.1749C15.1233 39.8342 15.196 39.5331 15.3414 39.2714C15.4909 39.0055 15.6924 38.7957 15.9458 38.642C16.2034 38.4883 16.49 38.4115 16.8057 38.4115C17.0716 38.4115 17.3042 38.4551 17.5036 38.5423C17.7071 38.6296 17.8795 38.75 18.0208 38.9037C18.162 39.0574 18.27 39.234 18.3448 39.4334C18.4196 39.6286 18.4569 39.8405 18.4569 40.069C18.4569 40.1271 18.4528 40.1873 18.4445 40.2497C18.4403 40.312 18.4299 40.366 18.4133 40.4117H15.7963V39.7886H17.9522L17.5659 40.0814C17.6033 39.8903 17.5929 39.72 17.5347 39.5705C17.4807 39.4209 17.3894 39.3025 17.2606 39.2153C17.136 39.1281 16.9843 39.0844 16.8057 39.0844C16.6354 39.0844 16.4838 39.1281 16.3508 39.2153C16.2179 39.2984 16.1161 39.423 16.0455 39.5892C15.979 39.7512 15.9541 39.9485 15.9707 40.1811C15.9541 40.3888 15.9811 40.5737 16.0517 40.7357C16.1265 40.8935 16.2345 41.0161 16.3758 41.1033C16.5211 41.1906 16.6873 41.2342 16.8742 41.2342C17.0612 41.2342 17.219 41.1947 17.3478 41.1158C17.4807 41.0369 17.5846 40.9309 17.6594 40.798L18.3199 41.122C18.2534 41.284 18.1495 41.4273 18.0083 41.552C17.8671 41.6766 17.6988 41.7742 17.5036 41.8448C17.3125 41.9154 17.1006 41.9508 16.868 41.9508ZM19.0757 41.876V38.4862H19.8422V39.2402L19.7798 39.1281C19.8588 38.8747 19.9813 38.6981 20.1475 38.5984C20.3178 38.4987 20.5214 38.4489 20.7581 38.4489H20.9575V39.1717H20.6647C20.432 39.1717 20.2451 39.2444 20.1039 39.3898C19.9626 39.531 19.892 39.7304 19.892 39.9879V41.876H19.0757ZM22.4345 41.9508C22.1977 41.9508 21.992 41.9113 21.8176 41.8324C21.6431 41.7534 21.5081 41.6413 21.4125 41.4959C21.317 41.3463 21.2692 41.1739 21.2692 40.9787C21.2692 40.7918 21.3108 40.6256 21.3939 40.4802C21.4769 40.3307 21.6057 40.206 21.7802 40.1063C21.9547 40.0066 22.1748 39.936 22.4407 39.8945L23.5498 39.7138V40.3369L22.5965 40.4989C22.4345 40.528 22.314 40.5799 22.2351 40.6547C22.1561 40.7294 22.1167 40.8271 22.1167 40.9475C22.1167 41.0639 22.1603 41.1573 22.2475 41.2279C22.3389 41.2944 22.4511 41.3276 22.584 41.3276C22.7543 41.3276 22.9039 41.2923 23.0326 41.2217C23.1656 41.1469 23.2673 41.0452 23.338 40.9164C23.4127 40.7876 23.4501 40.6464 23.4501 40.4927V39.6203C23.4501 39.4749 23.392 39.3544 23.2757 39.2589C23.1635 39.1592 23.0139 39.1094 22.827 39.1094C22.6525 39.1094 22.4968 39.1571 22.3597 39.2527C22.2267 39.3441 22.1291 39.4666 22.0668 39.6203L21.4001 39.2963C21.4665 39.1177 21.5704 38.964 21.7116 38.8352C21.857 38.7023 22.0274 38.5984 22.2226 38.5236C22.4178 38.4489 22.6297 38.4115 22.8582 38.4115C23.1365 38.4115 23.3816 38.4634 23.5934 38.5673C23.8053 38.6669 23.9694 38.8082 24.0857 38.991C24.2062 39.1696 24.2664 39.3794 24.2664 39.6203V41.876H23.4937V41.2965L23.6682 41.284C23.581 41.4294 23.4771 41.552 23.3567 41.6517C23.2362 41.7472 23.0991 41.822 22.9454 41.876C22.7917 41.9258 22.6214 41.9508 22.4345 41.9508ZM25.0209 41.876V38.4862H25.7873V39.153L25.725 39.0346C25.8039 38.831 25.9327 38.6773 26.1113 38.5735C26.2941 38.4655 26.5059 38.4115 26.7469 38.4115C26.9961 38.4115 27.2163 38.4655 27.4074 38.5735C27.6026 38.6815 27.7542 38.8331 27.8622 39.0284C27.9703 39.2194 28.0243 39.4417 28.0243 39.6951V41.876H27.208V39.8882C27.208 39.7387 27.1789 39.6099 27.1207 39.5019C27.0626 39.3939 26.9816 39.3108 26.8777 39.2527C26.778 39.1904 26.6596 39.1592 26.5226 39.1592C26.3896 39.1592 26.2712 39.1904 26.1674 39.2527C26.0635 39.3108 25.9825 39.3939 25.9244 39.5019C25.8662 39.6099 25.8371 39.7387 25.8371 39.8882V41.876H25.0209ZM30.291 41.9508C29.9628 41.9508 29.6699 41.8739 29.4124 41.7202C29.1548 41.5623 28.9513 41.3484 28.8017 41.0784C28.6522 40.8084 28.5774 40.5093 28.5774 40.1811C28.5774 39.8488 28.6522 39.5497 28.8017 39.2838C28.9513 39.018 29.1548 38.8061 29.4124 38.6483C29.6741 38.4904 29.9649 38.4115 30.2847 38.4115C30.5423 38.4115 30.7708 38.4634 30.9702 38.5673C31.1737 38.6669 31.3336 38.8082 31.45 38.991L31.3253 39.1592V37.159H32.1416V41.876H31.369V41.2217L31.4562 41.3837C31.3399 41.5665 31.1779 41.7077 30.9702 41.8074C30.7625 41.903 30.5361 41.9508 30.291 41.9508ZM30.3782 41.203C30.5651 41.203 30.7292 41.1594 30.8705 41.0722C31.0117 40.9849 31.1218 40.8645 31.2007 40.7108C31.2838 40.5571 31.3253 40.3805 31.3253 40.1811C31.3253 39.9859 31.2838 39.8114 31.2007 39.6577C31.1218 39.4998 31.0117 39.3773 30.8705 39.2901C30.7292 39.2028 30.5651 39.1592 30.3782 39.1592C30.1954 39.1592 30.0313 39.2049 29.8859 39.2963C29.7406 39.3835 29.6263 39.504 29.5432 39.6577C29.4643 39.8072 29.4248 39.9817 29.4248 40.1811C29.4248 40.3805 29.4643 40.5571 29.5432 40.7108C29.6263 40.8645 29.7406 40.9849 29.8859 41.0722C30.0313 41.1594 30.1954 41.203 30.3782 41.203ZM33.9292 41.9508C33.6924 41.9508 33.4868 41.9113 33.3123 41.8324C33.1378 41.7534 33.0028 41.6413 32.9073 41.4959C32.8117 41.3463 32.7639 41.1739 32.7639 40.9787C32.7639 40.7918 32.8055 40.6256 32.8886 40.4802C32.9717 40.3307 33.1004 40.206 33.2749 40.1063C33.4494 40.0066 33.6695 39.936 33.9354 39.8945L35.0445 39.7138V40.3369L34.0912 40.4989C33.9292 40.528 33.8087 40.5799 33.7298 40.6547C33.6508 40.7294 33.6114 40.8271 33.6114 40.9475C33.6114 41.0639 33.655 41.1573 33.7422 41.2279C33.8336 41.2944 33.9458 41.3276 34.0787 41.3276C34.249 41.3276 34.3986 41.2923 34.5274 41.2217C34.6603 41.1469 34.7621 41.0452 34.8327 40.9164C34.9075 40.7876 34.9448 40.6464 34.9448 40.4927V39.6203C34.9448 39.4749 34.8867 39.3544 34.7704 39.2589C34.6582 39.1592 34.5087 39.1094 34.3217 39.1094C34.1473 39.1094 33.9915 39.1571 33.8544 39.2527C33.7215 39.3441 33.6238 39.4666 33.5615 39.6203L32.8948 39.2963C32.9613 39.1177 33.0651 38.964 33.2064 38.8352C33.3517 38.7023 33.5221 38.5984 33.7173 38.5236C33.9126 38.4489 34.1244 38.4115 34.3529 38.4115C34.6312 38.4115 34.8763 38.4634 35.0882 38.5673C35.3 38.6669 35.4641 38.8082 35.5804 38.991C35.7009 39.1696 35.7611 39.3794 35.7611 39.6203V41.876H34.9885V41.2965L35.1629 41.284C35.0757 41.4294 34.9718 41.552 34.8514 41.6517C34.7309 41.7472 34.5938 41.822 34.4401 41.876C34.2864 41.9258 34.1161 41.9508 33.9292 41.9508Z" fill="#686868"/>
</svg>
