<svg width="47" height="49" viewBox="0 0 47 49" fill="none" xmlns="http://www.w3.org/2000/svg">
<rect x="0.888794" width="45.3199" height="48.2917" rx="9.65834" fill="#686868"/>
<path d="M21.6795 17.8592L21.6756 17.8553L21.6706 17.8589L21.6795 17.8592Z" fill="white"/>
<path fill-rule="evenodd" clip-rule="evenodd" d="M29.2592 13.0261V22.5436C29.2592 23.3009 28.9584 24.0271 28.4229 24.5626C27.8875 25.098 27.1612 25.3988 26.404 25.3988H16.8865C16.1292 25.3988 15.403 25.098 14.8675 24.5626C14.3321 24.0271 14.0312 23.3009 14.0312 22.5436V13.0261C14.0312 12.2689 14.3321 11.5426 14.8675 11.0072C15.403 10.4717 16.1292 10.1709 16.8865 10.1709H26.404C27.1612 10.1709 27.8875 10.4717 28.4229 11.0072C28.9584 11.5426 29.2592 12.2689 29.2592 13.0261ZM15.9347 18.8401V22.3809C15.9347 22.9964 16.4337 23.4953 17.0492 23.4953H26.404C26.6564 23.4953 26.8985 23.3951 27.0769 23.2166C27.2554 23.0381 27.3557 22.796 27.3557 22.5436V18.3738L24.9763 16.0039C24.9294 15.9523 24.872 15.9112 24.808 15.8833C24.7441 15.8554 24.6749 15.8414 24.6052 15.8421C24.5354 15.8414 24.4662 15.8554 24.4023 15.8833C24.3383 15.9112 24.2809 15.9523 24.234 16.0039L21.6756 17.8553L19.9035 16.0991C19.823 16.0182 19.7274 15.9541 19.622 15.9103C19.5167 15.8665 19.4037 15.844 19.2896 15.844C19.1756 15.844 19.0626 15.8665 18.9573 15.9103C18.8519 15.9541 18.7563 16.0182 18.6758 16.0991L15.9347 18.8401Z" fill="white"/>
<path d="M31.4414 14.2566C31.6199 14.0782 31.862 13.9779 32.1144 13.9779C32.3668 13.9779 32.6089 14.0782 32.7874 14.2566C32.9659 14.4351 33.0662 14.6772 33.0662 14.9296V24.4471C33.0662 25.7092 32.5648 26.9196 31.6724 27.812C30.7799 28.7045 29.5695 29.2058 28.3074 29.2058H18.79C18.5376 29.2058 18.2955 29.1056 18.117 28.9271C17.9385 28.7486 17.8382 28.5065 17.8382 28.2541C17.8382 28.0017 17.9385 27.7596 18.117 27.5811C18.2955 27.4026 18.5376 27.3023 18.79 27.3023H28.3074C29.0647 27.3023 29.7909 27.0015 30.3264 26.4661C30.8619 25.9306 31.1627 25.2044 31.1627 24.4471V14.9296C31.1627 14.6772 31.263 14.4351 31.4414 14.2566Z" fill="white"/>
<path d="M17.2306 41.9508C16.8982 41.9508 16.5908 41.8905 16.3084 41.77C16.0259 41.6496 15.7787 41.4813 15.5669 41.2653C15.355 41.0493 15.1888 40.7959 15.0684 40.5051C14.9521 40.2143 14.8939 39.8966 14.8939 39.5518C14.8939 39.207 14.95 38.8892 15.0621 38.5984C15.1785 38.3035 15.3405 38.0501 15.5482 37.8382C15.76 37.6222 16.0072 37.456 16.2897 37.3397C16.5721 37.2193 16.8795 37.159 17.2119 37.159C17.5442 37.159 17.8412 37.2151 18.1029 37.3273C18.3688 37.4394 18.5931 37.589 18.7759 37.7759C18.9587 37.9587 19.0895 38.1602 19.1684 38.3803L18.4145 38.7417C18.3272 38.5008 18.1798 38.3055 17.9721 38.156C17.7644 38.0064 17.511 37.9317 17.2119 37.9317C16.9211 37.9317 16.6635 38.0002 16.4392 38.1373C16.219 38.2744 16.0467 38.4634 15.922 38.7043C15.8016 38.9453 15.7413 39.2277 15.7413 39.5518C15.7413 39.8758 15.8036 40.1603 15.9283 40.4054C16.057 40.6464 16.2336 40.8354 16.4579 40.9725C16.6822 41.1095 16.9398 41.1781 17.2306 41.1781C17.4674 41.1781 17.6854 41.1324 17.8848 41.041C18.0842 40.9455 18.2442 40.8125 18.3646 40.6422C18.4851 40.4677 18.5453 40.2621 18.5453 40.0253V39.6702L18.9317 40.0066H17.2119V39.2901H19.3928V39.7574C19.3928 40.1146 19.3325 40.4304 19.2121 40.7045C19.0916 40.9787 18.9275 41.2092 18.7198 41.3962C18.5163 41.579 18.2857 41.7181 18.0282 41.8137C17.7706 41.9051 17.5047 41.9508 17.2306 41.9508ZM21.0229 41.9508C20.7862 41.9508 20.5805 41.9113 20.4061 41.8324C20.2316 41.7534 20.0966 41.6413 20.001 41.4959C19.9055 41.3463 19.8577 41.1739 19.8577 40.9787C19.8577 40.7918 19.8993 40.6256 19.9823 40.4802C20.0654 40.3307 20.1942 40.206 20.3687 40.1063C20.5431 40.0066 20.7633 39.936 21.0292 39.8945L22.1383 39.7138V40.3369L21.1849 40.4989C21.0229 40.528 20.9025 40.5799 20.8235 40.6547C20.7446 40.7294 20.7051 40.8271 20.7051 40.9475C20.7051 41.0639 20.7488 41.1573 20.836 41.2279C20.9274 41.2944 21.0396 41.3276 21.1725 41.3276C21.3428 41.3276 21.4923 41.2923 21.6211 41.2217C21.7541 41.1469 21.8558 41.0452 21.9264 40.9164C22.0012 40.7876 22.0386 40.6464 22.0386 40.4927V39.6203C22.0386 39.4749 21.9805 39.3544 21.8641 39.2589C21.752 39.1592 21.6024 39.1094 21.4155 39.1094C21.241 39.1094 21.0852 39.1571 20.9482 39.2527C20.8152 39.3441 20.7176 39.4666 20.6553 39.6203L19.9886 39.2963C20.055 39.1177 20.1589 38.964 20.3001 38.8352C20.4455 38.7023 20.6158 38.5984 20.8111 38.5236C21.0063 38.4489 21.2182 38.4115 21.4467 38.4115C21.725 38.4115 21.9701 38.4634 22.1819 38.5673C22.3938 38.6669 22.5579 38.8082 22.6742 38.991C22.7947 39.1696 22.8549 39.3794 22.8549 39.6203V41.876H22.0822V41.2965L22.2567 41.284C22.1695 41.4294 22.0656 41.552 21.9451 41.6517C21.8247 41.7472 21.6876 41.822 21.5339 41.876C21.3802 41.9258 21.2099 41.9508 21.0229 41.9508ZM23.6093 41.876V37.159H24.4256V41.876H23.6093ZM26.7869 41.9508C26.438 41.9508 26.1327 41.8718 25.8709 41.714C25.6092 41.5561 25.4057 41.3422 25.2603 41.0722C25.1149 40.8021 25.0422 40.5031 25.0422 40.1749C25.0422 39.8342 25.1149 39.5331 25.2603 39.2714C25.4098 39.0055 25.6113 38.7957 25.8647 38.642C26.1223 38.4883 26.4089 38.4115 26.7246 38.4115C26.9905 38.4115 27.2231 38.4551 27.4225 38.5423C27.626 38.6296 27.7984 38.75 27.9397 38.9037C28.0809 39.0574 28.1889 39.234 28.2637 39.4334C28.3385 39.6286 28.3759 39.8405 28.3759 40.069C28.3759 40.1271 28.3717 40.1873 28.3634 40.2497C28.3592 40.312 28.3489 40.366 28.3322 40.4117H25.7152V39.7886H27.8711L27.4848 40.0814C27.5222 39.8903 27.5118 39.72 27.4536 39.5705C27.3996 39.4209 27.3083 39.3025 27.1795 39.2153C27.0549 39.1281 26.9032 39.0844 26.7246 39.0844C26.5543 39.0844 26.4027 39.1281 26.2697 39.2153C26.1368 39.2984 26.035 39.423 25.9644 39.5892C25.8979 39.7512 25.873 39.9485 25.8896 40.1811C25.873 40.3888 25.9 40.5737 25.9706 40.7357C26.0454 40.8935 26.1534 41.0161 26.2947 41.1033C26.4401 41.1906 26.6062 41.2342 26.7931 41.2342C26.9801 41.2342 27.1379 41.1947 27.2667 41.1158C27.3996 41.0369 27.5035 40.9309 27.5783 40.798L28.2388 41.122C28.1723 41.284 28.0685 41.4273 27.9272 41.552C27.786 41.6766 27.6177 41.7742 27.4225 41.8448C27.2314 41.9154 27.0195 41.9508 26.7869 41.9508ZM28.9946 41.876V38.4862H29.7611V39.2402L29.6988 39.1281C29.7777 38.8747 29.9002 38.6981 30.0664 38.5984C30.2367 38.4987 30.4403 38.4489 30.677 38.4489H30.8764V39.1717H30.5836C30.3509 39.1717 30.164 39.2444 30.0228 39.3898C29.8815 39.531 29.8109 39.7304 29.8109 39.9879V41.876H28.9946ZM31.3252 41.876V38.4862H32.1415V41.876H31.3252ZM31.3252 38.1061V37.2338H32.1415V38.1061H31.3252Z" fill="white"/>
</svg>
