<svg width="46" height="49" viewBox="0 0 46 49" fill="none" xmlns="http://www.w3.org/2000/svg">
<rect x="0.420288" y="0.583374" width="45.3199" height="48.2917" rx="9.65834" fill="white"/>
<path d="M23.0802 27.674C23.2894 27.674 23.4938 27.612 23.6677 27.4958C23.8416 27.3796 23.9772 27.2144 24.0572 27.0212C24.1372 26.828 24.1582 26.6153 24.1174 26.4102C24.0766 26.2051 23.9759 26.0166 23.828 25.8687C23.6801 25.7208 23.4917 25.6201 23.2865 25.5793C23.0814 25.5385 22.8688 25.5595 22.6755 25.6395C22.4823 25.7195 22.3171 25.8551 22.2009 26.029C22.0847 26.2029 22.0227 26.4073 22.0227 26.6165C22.0227 26.897 22.1341 27.1659 22.3324 27.3643C22.5308 27.5626 22.7997 27.674 23.0802 27.674ZM28.3677 27.674C28.5768 27.674 28.7813 27.612 28.9552 27.4958C29.1291 27.3796 29.2647 27.2144 29.3447 27.0212C29.4247 26.828 29.4457 26.6153 29.4049 26.4102C29.3641 26.2051 29.2633 26.0166 29.1155 25.8687C28.9676 25.7208 28.7791 25.6201 28.574 25.5793C28.3689 25.5385 28.1562 25.5595 27.963 25.6395C27.7698 25.7195 27.6046 25.8551 27.4884 26.029C27.3722 26.2029 27.3102 26.4073 27.3102 26.6165C27.3102 26.897 27.4216 27.1659 27.6199 27.3643C27.8182 27.5626 28.0872 27.674 28.3677 27.674ZM28.3677 23.444C28.5768 23.444 28.7813 23.382 28.9552 23.2658C29.1291 23.1496 29.2647 22.9844 29.3447 22.7912C29.4247 22.598 29.4457 22.3853 29.4049 22.1802C29.3641 21.9751 29.2633 21.7866 29.1155 21.6388C28.9676 21.4909 28.7791 21.3901 28.574 21.3493C28.3689 21.3085 28.1562 21.3295 27.963 21.4095C27.7698 21.4896 27.6046 21.6251 27.4884 21.799C27.3722 21.9729 27.3102 22.1774 27.3102 22.3865C27.3102 22.667 27.4216 22.936 27.6199 23.1343C27.8182 23.3326 28.0872 23.444 28.3677 23.444ZM23.0802 23.444C23.2894 23.444 23.4938 23.382 23.6677 23.2658C23.8416 23.1496 23.9772 22.9844 24.0572 22.7912C24.1372 22.598 24.1582 22.3853 24.1174 22.1802C24.0766 21.9751 23.9759 21.7866 23.828 21.6388C23.6801 21.4909 23.4917 21.3901 23.2865 21.3493C23.0814 21.3085 22.8688 21.3295 22.6755 21.4095C22.4823 21.4896 22.3171 21.6251 22.2009 21.799C22.0847 21.9729 22.0227 22.1774 22.0227 22.3865C22.0227 22.667 22.1341 22.936 22.3324 23.1343C22.5308 23.3326 22.7997 23.444 23.0802 23.444ZM30.4827 10.7541H29.4252V9.69656C29.4252 9.41609 29.3138 9.14712 29.1155 8.9488C28.9171 8.75048 28.6482 8.63906 28.3677 8.63906C28.0872 8.63906 27.8182 8.75048 27.6199 8.9488C27.4216 9.14712 27.3102 9.41609 27.3102 9.69656V10.7541H18.8502V9.69656C18.8502 9.41609 18.7388 9.14712 18.5405 8.9488C18.3422 8.75048 18.0732 8.63906 17.7927 8.63906C17.5123 8.63906 17.2433 8.75048 17.045 8.9488C16.8466 9.14712 16.7352 9.41609 16.7352 9.69656V10.7541H15.6777C14.8363 10.7541 14.0294 11.0883 13.4344 11.6833C12.8395 12.2782 12.5052 13.0851 12.5052 13.9265V28.7315C12.5052 29.5729 12.8395 30.3798 13.4344 30.9748C14.0294 31.5697 14.8363 31.904 15.6777 31.904H30.4827C31.3241 31.904 32.131 31.5697 32.726 30.9748C33.3209 30.3798 33.6552 29.5729 33.6552 28.7315V13.9265C33.6552 13.0851 33.3209 12.2782 32.726 11.6833C32.131 11.0883 31.3241 10.7541 30.4827 10.7541ZM31.5402 28.7315C31.5402 29.012 31.4288 29.2809 31.2304 29.4793C31.0321 29.6776 30.7631 29.789 30.4827 29.789H15.6777C15.3973 29.789 15.1283 29.6776 14.93 29.4793C14.7317 29.2809 14.6202 29.012 14.6202 28.7315V19.214H31.5402V28.7315ZM31.5402 17.099H14.6202V13.9265C14.6202 13.6461 14.7317 13.3771 14.93 13.1788C15.1283 12.9805 15.3973 12.869 15.6777 12.869H16.7352V13.9265C16.7352 14.207 16.8466 14.476 17.045 14.6743C17.2433 14.8726 17.5123 14.984 17.7927 14.984C18.0732 14.984 18.3422 14.8726 18.5405 14.6743C18.7388 14.476 18.8502 14.207 18.8502 13.9265V12.869H27.3102V13.9265C27.3102 14.207 27.4216 14.476 27.6199 14.6743C27.8182 14.8726 28.0872 14.984 28.3677 14.984C28.6482 14.984 28.9171 14.8726 29.1155 14.6743C29.3138 14.476 29.4252 14.207 29.4252 13.9265V12.869H30.4827C30.7631 12.869 31.0321 12.9805 31.2304 13.1788C31.4288 13.3771 31.5402 13.6461 31.5402 13.9265V17.099ZM17.7927 23.444C18.0019 23.444 18.2063 23.382 18.3802 23.2658C18.5541 23.1496 18.6897 22.9844 18.7697 22.7912C18.8498 22.598 18.8707 22.3853 18.8299 22.1802C18.7891 21.9751 18.6884 21.7866 18.5405 21.6388C18.3926 21.4909 18.2042 21.3901 17.999 21.3493C17.7939 21.3085 17.5813 21.3295 17.388 21.4095C17.1948 21.4896 17.0297 21.6251 16.9135 21.799C16.7973 21.9729 16.7352 22.1774 16.7352 22.3865C16.7352 22.667 16.8466 22.936 17.045 23.1343C17.2433 23.3326 17.5123 23.444 17.7927 23.444ZM17.7927 27.674C18.0019 27.674 18.2063 27.612 18.3802 27.4958C18.5541 27.3796 18.6897 27.2144 18.7697 27.0212C18.8498 26.828 18.8707 26.6153 18.8299 26.4102C18.7891 26.2051 18.6884 26.0166 18.5405 25.8687C18.3926 25.7208 18.2042 25.6201 17.999 25.5793C17.7939 25.5385 17.5813 25.5595 17.388 25.6395C17.1948 25.7195 17.0297 25.8551 16.9135 26.029C16.7973 26.2029 16.7352 26.4073 16.7352 26.6165C16.7352 26.897 16.8466 27.1659 17.045 27.3643C17.2433 27.5626 17.5123 27.674 17.7927 27.674Z" fill="#686868"/>
<path d="M14.6041 42.4597L13.3578 37.8175H14.2676L15.2459 41.7742H15.0091L16.031 37.8175H16.9096L17.9253 41.7742H17.6885L18.6668 37.8175H19.5765L18.3303 42.4597H17.3582L16.3301 38.6088H16.6043L15.5761 42.4597H14.6041ZM20.8009 42.5344C20.5641 42.5344 20.3585 42.495 20.184 42.416C20.0095 42.3371 19.8745 42.225 19.779 42.0796C19.6834 41.93 19.6357 41.7576 19.6357 41.5624C19.6357 41.3755 19.6772 41.2093 19.7603 41.0639C19.8434 40.9143 19.9721 40.7897 20.1466 40.69C20.3211 40.5903 20.5412 40.5197 20.8071 40.4782L21.9162 40.2975V40.9206L20.9629 41.0826C20.8009 41.1117 20.6804 41.1636 20.6015 41.2384C20.5226 41.3131 20.4831 41.4108 20.4831 41.5312C20.4831 41.6475 20.5267 41.741 20.6139 41.8116C20.7053 41.8781 20.8175 41.9113 20.9504 41.9113C21.1207 41.9113 21.2703 41.876 21.3991 41.8054C21.532 41.7306 21.6338 41.6289 21.7044 41.5001C21.7792 41.3713 21.8165 41.2301 21.8165 41.0764V40.204C21.8165 40.0586 21.7584 39.9381 21.6421 39.8426C21.5299 39.7429 21.3804 39.693 21.1934 39.693C21.019 39.693 20.8632 39.7408 20.7261 39.8364C20.5932 39.9278 20.4956 40.0503 20.4332 40.204L19.7665 39.88C19.833 39.7014 19.9368 39.5477 20.0781 39.4189C20.2235 39.2859 20.3938 39.1821 20.589 39.1073C20.7843 39.0325 20.9961 38.9952 21.2246 38.9952C21.5029 38.9952 21.748 39.0471 21.9599 39.1509C22.1717 39.2506 22.3358 39.3919 22.4521 39.5747C22.5726 39.7533 22.6328 39.9631 22.6328 40.204V42.4597H21.8602V41.8802L22.0346 41.8677C21.9474 42.0131 21.8435 42.1356 21.7231 42.2353C21.6026 42.3309 21.4655 42.4057 21.3118 42.4597C21.1581 42.5095 20.9878 42.5344 20.8009 42.5344ZM23.3873 42.4597V37.7427H24.2036V40.8333L23.892 40.7399L25.4872 39.0699H26.5028L25.2504 40.4346L26.5278 42.4597H25.5931L24.484 40.7025L24.97 40.6028L23.9481 41.6995L24.2036 41.201V42.4597H23.3873ZM28.5289 42.4971C28.1467 42.4971 27.8497 42.3932 27.6378 42.1855C27.4301 41.9736 27.3263 41.6766 27.3263 41.2944V39.799H26.7405V39.0699H26.8029C26.969 39.0699 27.0978 39.0263 27.1892 38.9391C27.2806 38.8518 27.3263 38.7251 27.3263 38.559V38.2973H28.1425V39.0699H28.9214V39.799H28.1425V41.2508C28.1425 41.363 28.1612 41.4585 28.1986 41.5375C28.2402 41.6164 28.3025 41.6766 28.3856 41.7182C28.4728 41.7597 28.5829 41.7805 28.7158 41.7805C28.7449 41.7805 28.7781 41.7784 28.8155 41.7742C28.8571 41.7701 28.8965 41.7659 28.9339 41.7618V42.4597C28.8757 42.468 28.8093 42.4763 28.7345 42.4846C28.6597 42.4929 28.5912 42.4971 28.5289 42.4971ZM30.7664 42.5344C30.5047 42.5344 30.2762 42.4763 30.081 42.36C29.8899 42.2437 29.7424 42.0816 29.6386 41.8739C29.5389 41.6662 29.489 41.4232 29.489 41.1449V39.0699H30.3053V41.0764C30.3053 41.2176 30.3323 41.3422 30.3863 41.4502C30.4444 41.5541 30.5255 41.6372 30.6293 41.6995C30.7373 41.7576 30.8578 41.7867 30.9907 41.7867C31.1236 41.7867 31.242 41.7576 31.3459 41.6995C31.4497 41.6372 31.5307 41.552 31.5889 41.444C31.6471 41.336 31.6761 41.2072 31.6761 41.0577V39.0699H32.4924V42.4597H31.7198V41.7929L31.7883 41.9113C31.7094 42.119 31.5785 42.2748 31.3957 42.3787C31.2171 42.4825 31.0073 42.5344 30.7664 42.5344Z" fill="#686868"/>
</svg>
