<svg width="46" height="49" viewBox="0 0 46 49" fill="none" xmlns="http://www.w3.org/2000/svg">
<rect x="0.4375" width="45.3199" height="48.2917" rx="9.65834" fill="#686868"/>
<path fill-rule="evenodd" clip-rule="evenodd" d="M15.6154 12.2056C15.6154 13.0638 15.7959 13.7697 16.1466 14.3434H14.5466C13.3659 14.3434 12.4088 15.3005 12.4088 16.4811V18.4871C12.4088 18.8504 12.6995 19.1448 13.0628 19.1448C15.1226 19.1448 21.3792 19.1448 22.0482 19.1448V15.8486H24.1469V19.1448H33.1284C33.4917 19.1448 33.7862 18.8504 33.7862 18.4871V16.4811C33.7862 15.3005 32.8291 14.3434 31.6485 14.3434H30.0484C30.3991 13.7697 30.5796 13.0638 30.5796 12.2056C30.5796 10.5137 29.3072 8.99902 27.373 8.99902C25.4361 8.99902 23.8743 10.2962 23.0975 12.3273C22.3207 10.2962 20.7589 8.99902 18.822 8.99902C16.8878 8.99902 15.6154 10.5137 15.6154 12.2056ZM18.8598 11.1368C18.1967 11.1368 17.7909 11.6199 17.7909 12.2056C17.7909 13.5452 18.8779 14.1821 21.4565 14.3161C21.17 12.3249 20.1019 11.1368 18.8598 11.1368ZM27.3352 11.1368C26.0931 11.1368 25.0252 12.3249 24.7385 14.3161C27.3171 14.1821 28.4041 13.5452 28.4041 12.2056C28.4041 11.6199 27.9983 11.1368 27.3352 11.1368Z" fill="white"/>
<path d="M14.5466 21.9013C14.5466 21.5381 14.841 21.2436 15.2043 21.2436H22.0482V30.3764H16.6843C15.5037 30.3764 14.5466 29.4193 14.5466 28.2387V21.9013Z" fill="white"/>
<path d="M29.5107 30.3764H24.1469V21.2436H30.9907C31.354 21.2436 31.6485 21.5381 31.6485 21.9013V28.2387C31.6485 29.4193 30.6914 30.3764 29.5107 30.3764Z" fill="white"/>
<path d="M12.9215 41.876V37.2338H13.7689V39.2589H15.7442V37.2338H16.5979V41.876H15.7442V40.0066H13.7689V41.876H12.9215ZM18.451 41.9508C18.2142 41.9508 18.0086 41.9113 17.8341 41.8324C17.6596 41.7534 17.5246 41.6413 17.4291 41.4959C17.3335 41.3463 17.2858 41.1739 17.2858 40.9787C17.2858 40.7918 17.3273 40.6256 17.4104 40.4802C17.4935 40.3307 17.6223 40.206 17.7967 40.1063C17.9712 40.0066 18.1914 39.936 18.4572 39.8945L19.5664 39.7138V40.3369L18.613 40.4989C18.451 40.528 18.3305 40.5799 18.2516 40.6547C18.1727 40.7294 18.1332 40.8271 18.1332 40.9475C18.1332 41.0639 18.1768 41.1573 18.2641 41.2279C18.3554 41.2944 18.4676 41.3276 18.6005 41.3276C18.7709 41.3276 18.9204 41.2923 19.0492 41.2217C19.1821 41.1469 19.2839 41.0452 19.3545 40.9164C19.4293 40.7876 19.4667 40.6464 19.4667 40.4927V39.6203C19.4667 39.4749 19.4085 39.3544 19.2922 39.2589C19.18 39.1592 19.0305 39.1094 18.8436 39.1094C18.6691 39.1094 18.5133 39.1571 18.3762 39.2527C18.2433 39.3441 18.1457 39.4666 18.0834 39.6203L17.4166 39.2963C17.4831 39.1177 17.5869 38.964 17.7282 38.8352C17.8736 38.7023 18.0439 38.5984 18.2391 38.5236C18.4344 38.4489 18.6462 38.4115 18.8747 38.4115C19.153 38.4115 19.3981 38.4634 19.61 38.5673C19.8218 38.6669 19.9859 38.8082 20.1022 38.991C20.2227 39.1696 20.2829 39.3794 20.2829 39.6203V41.876H19.5103V41.2965L19.6848 41.284C19.5975 41.4294 19.4937 41.552 19.3732 41.6517C19.2527 41.7472 19.1156 41.822 18.9619 41.876C18.8082 41.9258 18.6379 41.9508 18.451 41.9508ZM22.6139 41.9508C22.2857 41.9508 21.9928 41.8739 21.7353 41.7202C21.4777 41.5623 21.2742 41.3484 21.1246 41.0784C20.9751 40.8084 20.9003 40.5093 20.9003 40.1811C20.9003 39.8488 20.9751 39.5497 21.1246 39.2838C21.2742 39.018 21.4777 38.8061 21.7353 38.6483C21.997 38.4904 22.2878 38.4115 22.6076 38.4115C22.8652 38.4115 23.0937 38.4634 23.2931 38.5673C23.4966 38.6669 23.6565 38.8082 23.7729 38.991L23.6482 39.1592V37.159H24.4645V41.876H23.6919V41.2217L23.7791 41.3837C23.6628 41.5665 23.5008 41.7077 23.2931 41.8074C23.0854 41.903 22.859 41.9508 22.6139 41.9508ZM22.7011 41.203C22.888 41.203 23.0521 41.1594 23.1934 41.0722C23.3346 40.9849 23.4447 40.8645 23.5236 40.7108C23.6067 40.5571 23.6482 40.3805 23.6482 40.1811C23.6482 39.9859 23.6067 39.8114 23.5236 39.6577C23.4447 39.4998 23.3346 39.3773 23.1934 39.2901C23.0521 39.2028 22.888 39.1592 22.7011 39.1592C22.5183 39.1592 22.3542 39.2049 22.2088 39.2963C22.0635 39.3835 21.9492 39.504 21.8661 39.6577C21.7872 39.8072 21.7477 39.9817 21.7477 40.1811C21.7477 40.3805 21.7872 40.5571 21.8661 40.7108C21.9492 40.8645 22.0635 40.9849 22.2088 41.0722C22.3542 41.1594 22.5183 41.203 22.7011 41.203ZM25.2239 41.876V38.4862H26.0402V41.876H25.2239ZM25.2239 38.1061V37.2338H26.0402V38.1061H25.2239ZM27.822 41.9508C27.5852 41.9508 27.3796 41.9113 27.2051 41.8324C27.0307 41.7534 26.8957 41.6413 26.8001 41.4959C26.7046 41.3463 26.6568 41.1739 26.6568 40.9787C26.6568 40.7918 26.6983 40.6256 26.7814 40.4802C26.8645 40.3307 26.9933 40.206 27.1677 40.1063C27.3422 40.0066 27.5624 39.936 27.8282 39.8945L28.9374 39.7138V40.3369L27.984 40.4989C27.822 40.528 27.7015 40.5799 27.6226 40.6547C27.5437 40.7294 27.5042 40.8271 27.5042 40.9475C27.5042 41.0639 27.5478 41.1573 27.6351 41.2279C27.7265 41.2944 27.8386 41.3276 27.9716 41.3276C28.1419 41.3276 28.2914 41.2923 28.4202 41.2217C28.5531 41.1469 28.6549 41.0452 28.7255 40.9164C28.8003 40.7876 28.8377 40.6464 28.8377 40.4927V39.6203C28.8377 39.4749 28.7795 39.3544 28.6632 39.2589C28.5511 39.1592 28.4015 39.1094 28.2146 39.1094C28.0401 39.1094 27.8843 39.1571 27.7472 39.2527C27.6143 39.3441 27.5167 39.4666 27.4544 39.6203L26.7876 39.2963C26.8541 39.1177 26.958 38.964 27.0992 38.8352C27.2446 38.7023 27.4149 38.5984 27.6102 38.5236C27.8054 38.4489 28.0173 38.4115 28.2457 38.4115C28.5241 38.4115 28.7691 38.4634 28.981 38.5673C29.1929 38.6669 29.3569 38.8082 29.4733 38.991C29.5937 39.1696 29.654 39.3794 29.654 39.6203V41.876H28.8813V41.2965L29.0558 41.284C28.9685 41.4294 28.8647 41.552 28.7442 41.6517C28.6238 41.7472 28.4867 41.822 28.333 41.876C28.1793 41.9258 28.0089 41.9508 27.822 41.9508ZM30.4084 41.876V37.159H31.2247V39.153L31.1125 39.0346C31.1915 38.831 31.3202 38.6773 31.4989 38.5735C31.6816 38.4655 31.8935 38.4115 32.1344 38.4115C32.3837 38.4115 32.6039 38.4655 32.7949 38.5735C32.9902 38.6815 33.1418 38.8331 33.2498 39.0284C33.3578 39.2194 33.4118 39.4417 33.4118 39.6951V41.876H32.5955V39.8882C32.5955 39.7387 32.5665 39.6099 32.5083 39.5019C32.4502 39.3939 32.3691 39.3108 32.2653 39.2527C32.1656 39.1904 32.0472 39.1592 31.9101 39.1592C31.7772 39.1592 31.6588 39.1904 31.5549 39.2527C31.4511 39.3108 31.3701 39.3939 31.3119 39.5019C31.2538 39.6099 31.2247 39.7387 31.2247 39.8882V41.876H30.4084Z" fill="white"/>
</svg>
