<svg width="47" height="49" viewBox="0 0 47 49" fill="none" xmlns="http://www.w3.org/2000/svg">
<rect x="0.791382" width="45.3199" height="48.2917" rx="9.65834" fill="#686868"/>
<path fill-rule="evenodd" clip-rule="evenodd" d="M29.7963 10.1707H30.8538C31.6952 10.1707 32.5021 10.5049 33.0971 11.0999C33.692 11.6948 34.0263 12.5017 34.0263 13.3431V28.1481C34.0263 28.9895 33.692 29.7964 33.0971 30.3914C32.5021 30.9863 31.6952 31.3206 30.8538 31.3206H16.0488C15.2074 31.3206 14.4005 30.9863 13.8055 30.3914C13.2106 29.7964 12.8763 28.9895 12.8763 28.1481V13.3431C12.8763 12.5017 13.2106 11.6948 13.8055 11.0999C14.4005 10.5049 15.2074 10.1707 16.0488 10.1707H17.1063V9.11316C17.1063 8.8327 17.2177 8.56372 17.4161 8.3654C17.6144 8.16708 17.8834 8.05566 18.1638 8.05566C18.4443 8.05566 18.7133 8.16708 18.9116 8.3654C19.1099 8.56372 19.2213 8.8327 19.2213 9.11316V10.1707H27.6813V9.11316C27.6813 8.8327 27.7927 8.56372 27.991 8.3654C28.1893 8.16708 28.4583 8.05566 28.7388 8.05566C29.0193 8.05566 29.2882 8.16708 29.4865 8.3654C29.6849 8.56372 29.7963 8.8327 29.7963 9.11316V10.1707ZM18.7514 22.6824C18.5775 22.7986 18.373 22.8606 18.1639 22.8606C17.8834 22.8606 17.6144 22.7492 17.4161 22.5509C17.2178 22.3525 17.1064 22.0836 17.1064 21.8031C17.1064 21.5939 17.1684 21.3895 17.2846 21.2156C17.4008 21.0417 17.566 20.9061 17.7592 20.8261C17.9524 20.7461 18.1651 20.7251 18.3702 20.7659C18.5753 20.8067 18.7638 20.9074 18.9116 21.0553C19.0595 21.2032 19.1603 21.3917 19.2011 21.5968C19.2419 21.8019 19.2209 22.0146 19.1409 22.2078C19.0608 22.401 18.9253 22.5662 18.7514 22.6824ZM29.3264 22.6824C29.1525 22.7986 28.948 22.8606 28.7388 22.8606C28.4584 22.8606 28.1894 22.7492 27.9911 22.5509C27.7928 22.3525 27.6813 22.0836 27.6813 21.8031C27.6813 21.5939 27.7434 21.3895 27.8596 21.2156C27.9758 21.0417 28.1409 20.9061 28.3342 20.8261C28.5274 20.7461 28.74 20.7251 28.9452 20.7659C29.1503 20.8067 29.3387 20.9074 29.4866 21.0553C29.6345 21.2032 29.7352 21.3917 29.776 21.5968C29.8168 21.8019 29.7959 22.0146 29.7158 22.2078C29.6358 22.401 29.5003 22.5662 29.3264 22.6824ZM23.4514 27.0906C23.6605 27.0906 23.865 27.0286 24.0389 26.9124C24.2128 26.7962 24.3483 26.631 24.4284 26.4378C24.5084 26.2445 24.5293 26.0319 24.4885 25.8268C24.4477 25.6216 24.347 25.4332 24.1991 25.2853C24.0512 25.1374 23.8628 25.0367 23.6577 24.9959C23.4525 24.9551 23.2399 24.976 23.0467 25.0561C22.8534 25.1361 22.6883 25.2717 22.5721 25.4456C22.4559 25.6195 22.3939 25.8239 22.3939 26.0331C22.3939 26.3136 22.5053 26.5825 22.7036 26.7809C22.9019 26.9792 23.1709 27.0906 23.4514 27.0906ZM28.7388 27.0906C28.948 27.0906 29.1525 27.0286 29.3264 26.9124C29.5003 26.7962 29.6358 26.631 29.7158 26.4378C29.7959 26.2445 29.8168 26.0319 29.776 25.8268C29.7352 25.6216 29.6345 25.4332 29.4866 25.2853C29.3387 25.1374 29.1503 25.0367 28.9452 24.9959C28.74 24.9551 28.5274 24.976 28.3342 25.0561C28.1409 25.1361 27.9758 25.2717 27.8596 25.4456C27.7434 25.6195 27.6813 25.8239 27.6813 26.0331C27.6813 26.3136 27.7928 26.5825 27.9911 26.7809C28.1894 26.9792 28.4584 27.0906 28.7388 27.0906ZM23.4514 22.8606C23.6605 22.8606 23.865 22.7986 24.0389 22.6824C24.2128 22.5662 24.3483 22.401 24.4284 22.2078C24.5084 22.0146 24.5293 21.8019 24.4885 21.5968C24.4477 21.3917 24.347 21.2032 24.1991 21.0553C24.0512 20.9074 23.8628 20.8067 23.6577 20.7659C23.4525 20.7251 23.2399 20.7461 23.0467 20.8261C22.8534 20.9061 22.6883 21.0417 22.5721 21.2156C22.4559 21.3895 22.3939 21.5939 22.3939 21.8031C22.3939 22.0836 22.5053 22.3525 22.7036 22.5509C22.9019 22.7492 23.1709 22.8606 23.4514 22.8606ZM18.1639 27.0906C18.373 27.0906 18.5775 27.0286 18.7514 26.9124C18.9253 26.7962 19.0608 26.631 19.1409 26.4378C19.2209 26.2445 19.2419 26.0319 19.2011 25.8268C19.1603 25.6216 19.0595 25.4332 18.9116 25.2853C18.7638 25.1374 18.5753 25.0367 18.3702 24.9959C18.1651 24.9551 17.9524 24.976 17.7592 25.0561C17.566 25.1361 17.4008 25.2717 17.2846 25.4456C17.1684 25.6195 17.1064 25.8239 17.1064 26.0331C17.1064 26.3136 17.2178 26.5825 17.4161 26.7809C17.6144 26.9792 17.8834 27.0906 18.1639 27.0906Z" fill="white"/>
<path d="M14.9752 41.876L13.7289 37.2338H14.6387L15.617 41.1906H15.3802L16.4021 37.2338H17.2807L18.2964 41.1906H18.0596L19.0379 37.2338H19.9476L18.7014 41.876H17.7293L16.7012 38.0251H16.9754L15.9472 41.876H14.9752ZM21.172 41.9508C20.9352 41.9508 20.7296 41.9113 20.5551 41.8324C20.3806 41.7534 20.2456 41.6413 20.1501 41.4959C20.0545 41.3463 20.0067 41.1739 20.0067 40.9787C20.0067 40.7918 20.0483 40.6256 20.1314 40.4802C20.2145 40.3307 20.3432 40.206 20.5177 40.1063C20.6922 40.0066 20.9123 39.936 21.1782 39.8945L22.2873 39.7138V40.3369L21.334 40.4989C21.172 40.528 21.0515 40.5799 20.9726 40.6547C20.8936 40.7294 20.8542 40.8271 20.8542 40.9475C20.8542 41.0639 20.8978 41.1573 20.985 41.2279C21.0764 41.2944 21.1886 41.3276 21.3215 41.3276C21.4918 41.3276 21.6414 41.2923 21.7702 41.2217C21.9031 41.1469 22.0049 41.0452 22.0755 40.9164C22.1503 40.7876 22.1876 40.6464 22.1876 40.4927V39.6203C22.1876 39.4749 22.1295 39.3544 22.0132 39.2589C21.901 39.1592 21.7515 39.1094 21.5645 39.1094C21.3901 39.1094 21.2343 39.1571 21.0972 39.2527C20.9643 39.3441 20.8666 39.4666 20.8043 39.6203L20.1376 39.2963C20.2041 39.1177 20.3079 38.964 20.4492 38.8352C20.5946 38.7023 20.7649 38.5984 20.9601 38.5236C21.1554 38.4489 21.3672 38.4115 21.5957 38.4115C21.874 38.4115 22.1191 38.4634 22.331 38.5673C22.5428 38.6669 22.7069 38.8082 22.8232 38.991C22.9437 39.1696 23.0039 39.3794 23.0039 39.6203V41.876H22.2313V41.2965L22.4057 41.284C22.3185 41.4294 22.2146 41.552 22.0942 41.6517C21.9737 41.7472 21.8366 41.822 21.6829 41.876C21.5292 41.9258 21.3589 41.9508 21.172 41.9508ZM23.7584 41.876V37.159H24.5746V40.2497L24.2631 40.1562L25.8583 38.4862H26.8739L25.6215 39.8509L26.8989 41.876H25.9642L24.855 40.1188L25.3411 40.0191L24.3192 41.1158L24.5746 40.6173V41.876H23.7584ZM28.9 41.9134C28.5178 41.9134 28.2208 41.8095 28.0089 41.6018C27.8012 41.3899 27.6974 41.0929 27.6974 40.7108V39.2153H27.1116V38.4862H27.174C27.3401 38.4862 27.4689 38.4426 27.5603 38.3554C27.6517 38.2682 27.6974 38.1415 27.6974 37.9753V37.7136H28.5136V38.4862H29.2925V39.2153H28.5136V40.6671C28.5136 40.7793 28.5323 40.8748 28.5697 40.9538C28.6113 41.0327 28.6736 41.0929 28.7567 41.1345C28.8439 41.176 28.954 41.1968 29.0869 41.1968C29.116 41.1968 29.1492 41.1947 29.1866 41.1906C29.2281 41.1864 29.2676 41.1822 29.305 41.1781V41.876C29.2468 41.8843 29.1804 41.8926 29.1056 41.9009C29.0308 41.9092 28.9623 41.9134 28.9 41.9134ZM31.1375 41.9508C30.8758 41.9508 30.6473 41.8926 30.4521 41.7763C30.261 41.66 30.1135 41.498 30.0096 41.2903C29.91 41.0825 29.8601 40.8395 29.8601 40.5612V38.4862H30.6764V40.4927C30.6764 40.6339 30.7034 40.7585 30.7574 40.8665C30.8155 40.9704 30.8965 41.0535 31.0004 41.1158C31.1084 41.1739 31.2289 41.203 31.3618 41.203C31.4947 41.203 31.6131 41.1739 31.717 41.1158C31.8208 41.0535 31.9018 40.9683 31.96 40.8603C32.0181 40.7523 32.0472 40.6235 32.0472 40.474V38.4862H32.8635V41.876H32.0908V41.2092L32.1594 41.3276C32.0805 41.5353 31.9496 41.6911 31.7668 41.795C31.5882 41.8988 31.3784 41.9508 31.1375 41.9508Z" fill="white"/>
</svg>
