<svg width="47" height="49" viewBox="0 0 47 49" fill="none" xmlns="http://www.w3.org/2000/svg">
<rect x="0.87146" y="0.291679" width="45.3199" height="48.2917" rx="9.65834" fill="white"/>
<path d="M32.168 12.172C31.0452 11.0489 29.5567 10.3661 27.9731 10.2477C26.3895 10.1293 24.8161 10.5832 23.5388 11.5269C22.1933 10.5261 20.5186 10.0723 18.8519 10.2569C17.1852 10.4414 15.6504 11.2506 14.5564 12.5215C13.4625 13.7925 12.8907 15.4307 12.9562 17.1062C13.0218 18.7818 13.7198 20.3704 14.9096 21.5519L22.788 29.4303C22.8863 29.5294 23.0033 29.6081 23.1321 29.6618C23.261 29.7155 23.3992 29.7431 23.5388 29.7431C23.6784 29.7431 23.8166 29.7155 23.9455 29.6618C24.0744 29.6081 24.1913 29.5294 24.2896 29.4303L32.168 21.5519C32.7841 20.9362 33.2729 20.2051 33.6064 19.4003C33.9399 18.5956 34.1115 17.733 34.1115 16.8619C34.1115 15.9909 33.9399 15.1283 33.6064 14.3236C33.2729 13.5188 32.7841 12.7877 32.168 12.172ZM30.6769 20.0609L23.5388 27.1884L16.4007 20.0609C15.7717 19.4292 15.3432 18.6259 15.169 17.7517C14.9948 16.8774 15.0826 15.9712 15.4214 15.1467C15.7603 14.3222 16.335 13.6161 17.0737 13.117C17.8123 12.6178 18.6818 12.348 19.5732 12.3412C20.7641 12.3441 21.9051 12.8195 22.7457 13.663C22.844 13.7621 22.961 13.8408 23.0898 13.8945C23.2187 13.9482 23.3569 13.9758 23.4965 13.9758C23.6361 13.9758 23.7743 13.9482 23.9032 13.8945C24.0321 13.8408 24.149 13.7621 24.2473 13.663C25.1127 12.9131 26.2307 12.52 27.3749 12.5633C28.5192 12.6065 29.6043 13.0828 30.4106 13.8959C31.2169 14.7089 31.6843 15.7979 31.718 16.9425C31.7517 18.0871 31.3494 19.2018 30.5923 20.0609H30.6769Z" fill="#686868"/>
<path d="M9.03506 42.168V37.5258H9.8451L11.5836 39.8874H11.1973L12.8984 37.5258H13.7084V42.168H12.8547V38.4916L13.185 38.5726L11.4216 40.9217H11.3219L9.60209 38.5726L9.88249 38.4916V42.168H9.03506ZM16.1359 42.2427C15.787 42.2427 15.4816 42.1638 15.2199 42.006C14.9582 41.8481 14.7547 41.6342 14.6093 41.3642C14.4639 41.0941 14.3912 40.795 14.3912 40.4669C14.3912 40.1262 14.4639 39.8251 14.6093 39.5634C14.7588 39.2975 14.9603 39.0877 15.2137 38.934C15.4713 38.7803 15.7579 38.7035 16.0736 38.7035C16.3395 38.7035 16.5721 38.7471 16.7715 38.8343C16.975 38.9216 17.1474 39.042 17.2887 39.1957C17.4299 39.3494 17.5379 39.526 17.6127 39.7254C17.6875 39.9206 17.7248 40.1325 17.7248 40.3609C17.7248 40.4191 17.7207 40.4793 17.7124 40.5416C17.7082 40.604 17.6978 40.658 17.6812 40.7037H15.0642V40.0805H17.2201L16.8338 40.3734C16.8712 40.1823 16.8608 40.012 16.8026 39.8625C16.7486 39.7129 16.6572 39.5945 16.5285 39.5073C16.4038 39.42 16.2522 39.3764 16.0736 39.3764C15.9033 39.3764 15.7517 39.42 15.6187 39.5073C15.4858 39.5904 15.384 39.715 15.3134 39.8812C15.2469 40.0432 15.222 40.2405 15.2386 40.4731C15.222 40.6808 15.249 40.8657 15.3196 41.0277C15.3944 41.1855 15.5024 41.3081 15.6436 41.3953C15.789 41.4825 15.9552 41.5262 16.1421 41.5262C16.3291 41.5262 16.4869 41.4867 16.6157 41.4078C16.7486 41.3288 16.8525 41.2229 16.9273 41.09L17.5878 41.414C17.5213 41.576 17.4174 41.7193 17.2762 41.844C17.135 41.9686 16.9667 42.0662 16.7715 42.1368C16.5804 42.2074 16.3685 42.2427 16.1359 42.2427ZM18.3436 42.168V38.7782H19.1101V39.5634L19.0228 39.4325C19.0851 39.1874 19.2097 39.0046 19.3967 38.8842C19.5836 38.7637 19.8038 38.7035 20.0572 38.7035C20.3355 38.7035 20.5806 38.7762 20.7925 38.9216C21.0043 39.067 21.1414 39.258 21.2037 39.4948L20.9732 39.5135C21.077 39.2435 21.2328 39.042 21.4405 38.9091C21.6482 38.772 21.8871 38.7035 22.1571 38.7035C22.398 38.7035 22.6119 38.7575 22.7989 38.8655C22.99 38.9735 23.1395 39.1251 23.2475 39.3203C23.3555 39.5114 23.4095 39.7337 23.4095 39.9871V42.168H22.5932V40.1802C22.5932 40.0307 22.5662 39.9019 22.5122 39.7939C22.4582 39.6859 22.3835 39.6028 22.2879 39.5447C22.1924 39.4824 22.0761 39.4512 21.939 39.4512C21.8102 39.4512 21.696 39.4824 21.5963 39.5447C21.4966 39.6028 21.4197 39.6859 21.3657 39.7939C21.3117 39.9019 21.2847 40.0307 21.2847 40.1802V42.168H20.4684V40.1802C20.4684 40.0307 20.4414 39.9019 20.3874 39.7939C20.3334 39.6859 20.2566 39.6028 20.1569 39.5447C20.0613 39.4824 19.9471 39.4512 19.8142 39.4512C19.6854 39.4512 19.5712 39.4824 19.4715 39.5447C19.3718 39.6028 19.2949 39.6859 19.2409 39.7939C19.1869 39.9019 19.1599 40.0307 19.1599 40.1802V42.168H18.3436ZM24.1001 43.4142V38.7782H24.8665V39.4512L24.7918 39.283C24.9081 39.1002 25.0659 38.9589 25.2653 38.8592C25.4647 38.7554 25.6953 38.7035 25.957 38.7035C26.2768 38.7035 26.5656 38.7824 26.8231 38.9403C27.0807 39.0981 27.2842 39.31 27.4338 39.5758C27.5875 39.8417 27.6643 40.1408 27.6643 40.4731C27.6643 40.8013 27.5895 41.1004 27.44 41.3704C27.2904 41.6404 27.0869 41.8543 26.8293 42.0122C26.5718 42.1659 26.2789 42.2427 25.9508 42.2427C25.7057 42.2427 25.4793 42.195 25.2716 42.0994C25.068 41.9997 24.906 41.8585 24.7855 41.6757L24.9164 41.5137V43.4142H24.1001ZM25.8573 41.495C26.0442 41.495 26.2104 41.4514 26.3558 41.3642C26.5012 41.2769 26.6133 41.1565 26.6923 41.0028C26.7753 40.8491 26.8169 40.6725 26.8169 40.4731C26.8169 40.2737 26.7753 40.0992 26.6923 39.9497C26.6133 39.796 26.5012 39.6755 26.3558 39.5883C26.2104 39.4969 26.0442 39.4512 25.8573 39.4512C25.6787 39.4512 25.5167 39.4948 25.3713 39.5821C25.23 39.6693 25.1179 39.7918 25.0348 39.9497C24.9558 40.1034 24.9164 40.2779 24.9164 40.4731C24.9164 40.6725 24.9558 40.8491 25.0348 41.0028C25.1179 41.1565 25.23 41.2769 25.3713 41.3642C25.5167 41.4514 25.6787 41.495 25.8573 41.495ZM29.8943 42.2427C29.5453 42.2427 29.24 42.1638 28.9783 42.006C28.7166 41.8481 28.513 41.6342 28.3676 41.3642C28.2223 41.0941 28.1496 40.795 28.1496 40.4669C28.1496 40.1262 28.2223 39.8251 28.3676 39.5634C28.5172 39.2975 28.7187 39.0877 28.9721 38.934C29.2296 38.7803 29.5163 38.7035 29.832 38.7035C30.0978 38.7035 30.3305 38.7471 30.5298 38.8343C30.7334 38.9216 30.9058 39.042 31.047 39.1957C31.1883 39.3494 31.2963 39.526 31.3711 39.7254C31.4458 39.9206 31.4832 40.1325 31.4832 40.3609C31.4832 40.4191 31.4791 40.4793 31.4707 40.5416C31.4666 40.604 31.4562 40.658 31.4396 40.7037H28.8225V40.0805H30.9785L30.5922 40.3734C30.6295 40.1823 30.6192 40.012 30.561 39.8625C30.507 39.7129 30.4156 39.5945 30.2868 39.5073C30.1622 39.42 30.0106 39.3764 29.832 39.3764C29.6616 39.3764 29.51 39.42 29.3771 39.5073C29.2442 39.5904 29.1424 39.715 29.0718 39.8812C29.0053 40.0432 28.9804 40.2405 28.997 40.4731C28.9804 40.6808 29.0074 40.8657 29.078 41.0277C29.1528 41.1855 29.2608 41.3081 29.402 41.3953C29.5474 41.4825 29.7136 41.5262 29.9005 41.5262C30.0874 41.5262 30.2453 41.4867 30.3741 41.4078C30.507 41.3288 30.6109 41.2229 30.6856 41.09L31.3461 41.414C31.2797 41.576 31.1758 41.7193 31.0346 41.844C30.8933 41.9686 30.7251 42.0662 30.5298 42.1368C30.3388 42.2074 30.1269 42.2427 29.8943 42.2427ZM32.102 42.168V37.451H32.9183V42.168H32.102ZM34.7001 42.2427C34.4633 42.2427 34.2577 42.2033 34.0832 42.1244C33.9087 42.0454 33.7737 41.9333 33.6782 41.7879C33.5826 41.6383 33.5349 41.4659 33.5349 41.2707C33.5349 41.0838 33.5764 40.9176 33.6595 40.7722C33.7426 40.6227 33.8713 40.498 34.0458 40.3983C34.2203 40.2986 34.4404 40.228 34.7063 40.1865L35.8154 40.0058V40.6289L34.8621 40.7909C34.7001 40.82 34.5796 40.8719 34.5007 40.9467C34.4218 41.0214 34.3823 41.1191 34.3823 41.2395C34.3823 41.3558 34.4259 41.4493 34.5131 41.5199C34.6045 41.5864 34.7167 41.6196 34.8496 41.6196C35.0199 41.6196 35.1695 41.5843 35.2983 41.5137C35.4312 41.4389 35.533 41.3372 35.6036 41.2084C35.6784 41.0796 35.7157 40.9384 35.7157 40.7847V39.9123C35.7157 39.7669 35.6576 39.6464 35.5413 39.5509C35.4291 39.4512 35.2796 39.4014 35.0926 39.4014C34.9182 39.4014 34.7624 39.4491 34.6253 39.5447C34.4924 39.6361 34.3948 39.7586 34.3324 39.9123L33.6657 39.5883C33.7322 39.4097 33.836 39.256 33.9773 39.1272C34.1227 38.9943 34.293 38.8904 34.4882 38.8156C34.6835 38.7409 34.8953 38.7035 35.1238 38.7035C35.4021 38.7035 35.6472 38.7554 35.8591 38.8592C36.0709 38.9589 36.235 39.1002 36.3513 39.283C36.4718 39.4616 36.532 39.6714 36.532 39.9123V42.168H35.7594V41.5885L35.9338 41.576C35.8466 41.7214 35.7427 41.844 35.6223 41.9437C35.5018 42.0392 35.3647 42.114 35.211 42.168C35.0573 42.2178 34.887 42.2427 34.7001 42.2427ZM37.2865 42.168V38.7782H38.1028V42.168H37.2865ZM37.2865 38.3981V37.5258H38.1028V38.3981H37.2865Z" fill="#686868"/>
</svg>
