<svg width="46" height="49" viewBox="0 0 46 49" fill="none" xmlns="http://www.w3.org/2000/svg">
<rect x="0.242554" width="45.3199" height="48.2917" rx="9.65834" fill="#686868"/>
<path d="M31.5391 11.876C30.4163 10.753 28.9278 10.0701 27.3442 9.95177C25.7606 9.83339 23.6828 10.2771 22.9099 12.0072C22.0919 10.3753 19.8897 9.77636 18.223 9.96092C16.5563 10.1455 15.0215 10.9547 13.9275 12.2256C12.8336 13.4965 12.2618 15.1347 12.3273 16.8103C12.3929 18.4859 13.0909 20.0744 14.2807 21.256L22.1591 29.1343C22.2574 29.2335 22.3744 29.3121 22.5032 29.3658C22.6321 29.4195 22.7703 29.4472 22.9099 29.4472C23.0495 29.4472 23.1877 29.4195 23.3166 29.3658C23.4455 29.3121 23.5624 29.2335 23.6607 29.1343L31.5391 21.256C32.1552 20.6402 32.644 19.9091 32.9775 19.1044C33.311 18.2997 33.4826 17.4371 33.4826 16.566C33.4826 15.6949 33.311 14.8324 32.9775 14.0276C32.644 13.2229 32.1552 12.4918 31.5391 11.876Z" fill="white"/>
<path d="M8.40615 41.876V37.2338H9.21619L10.9547 39.5954H10.5683L12.2694 37.2338H13.0795V41.876H12.2258V38.1996L12.5561 38.2806L10.7927 40.6298H10.693L8.97318 38.2806L9.25358 38.1996V41.876H8.40615ZM15.507 41.9508C15.1581 41.9508 14.8527 41.8718 14.591 41.714C14.3293 41.5561 14.1258 41.3422 13.9804 41.0722C13.835 40.8021 13.7623 40.5031 13.7623 40.1749C13.7623 39.8342 13.835 39.5331 13.9804 39.2714C14.1299 39.0055 14.3314 38.7957 14.5848 38.642C14.8423 38.4883 15.129 38.4115 15.4447 38.4115C15.7106 38.4115 15.9432 38.4551 16.1426 38.5423C16.3461 38.6296 16.5185 38.75 16.6598 38.9037C16.801 39.0574 16.909 39.234 16.9838 39.4334C17.0585 39.6286 17.0959 39.8405 17.0959 40.069C17.0959 40.1271 17.0918 40.1873 17.0835 40.2497C17.0793 40.312 17.0689 40.366 17.0523 40.4117H14.4352V39.7886H16.5912L16.2049 40.0814C16.2423 39.8903 16.2319 39.72 16.1737 39.5705C16.1197 39.4209 16.0283 39.3025 15.8996 39.2153C15.7749 39.1281 15.6233 39.0844 15.4447 39.0844C15.2744 39.0844 15.1227 39.1281 14.9898 39.2153C14.8569 39.2984 14.7551 39.423 14.6845 39.5892C14.618 39.7512 14.5931 39.9485 14.6097 40.1811C14.5931 40.3888 14.6201 40.5737 14.6907 40.7357C14.7655 40.8935 14.8735 41.0161 15.0147 41.1033C15.1601 41.1906 15.3263 41.2342 15.5132 41.2342C15.7002 41.2342 15.858 41.1947 15.9868 41.1158C16.1197 41.0369 16.2236 40.9309 16.2984 40.798L16.9589 41.122C16.8924 41.284 16.7885 41.4273 16.6473 41.552C16.5061 41.6766 16.3378 41.7742 16.1426 41.8448C15.9515 41.9154 15.7396 41.9508 15.507 41.9508ZM17.7147 41.876V38.4862H18.4811V39.2714L18.3939 39.1405C18.4562 38.8954 18.5808 38.7126 18.7678 38.5922C18.9547 38.4717 19.1749 38.4115 19.4283 38.4115C19.7066 38.4115 19.9517 38.4842 20.1635 38.6296C20.3754 38.775 20.5125 38.966 20.5748 39.2028L20.3442 39.2215C20.4481 38.9515 20.6039 38.75 20.8116 38.6171C21.0193 38.48 21.2581 38.4115 21.5282 38.4115C21.7691 38.4115 21.983 38.4655 22.17 38.5735C22.3611 38.6815 22.5106 38.8331 22.6186 39.0284C22.7266 39.2194 22.7806 39.4417 22.7806 39.6951V41.876H21.9643V39.8882C21.9643 39.7387 21.9373 39.6099 21.8833 39.5019C21.8293 39.3939 21.7546 39.3108 21.659 39.2527C21.5635 39.1904 21.4472 39.1592 21.3101 39.1592C21.1813 39.1592 21.0671 39.1904 20.9674 39.2527C20.8677 39.3108 20.7908 39.3939 20.7368 39.5019C20.6828 39.6099 20.6558 39.7387 20.6558 39.8882V41.876H19.8395V39.8882C19.8395 39.7387 19.8125 39.6099 19.7585 39.5019C19.7045 39.3939 19.6277 39.3108 19.528 39.2527C19.4324 39.1904 19.3182 39.1592 19.1853 39.1592C19.0565 39.1592 18.9422 39.1904 18.8425 39.2527C18.7429 39.3108 18.666 39.3939 18.612 39.5019C18.558 39.6099 18.531 39.7387 18.531 39.8882V41.876H17.7147ZM23.4712 43.1222V38.4862H24.2376V39.1592L24.1629 38.991C24.2792 38.8082 24.437 38.6669 24.6364 38.5673C24.8358 38.4634 25.0664 38.4115 25.3281 38.4115C25.6479 38.4115 25.9366 38.4904 26.1942 38.6483C26.4518 38.8061 26.6553 39.018 26.8049 39.2838C26.9586 39.5497 27.0354 39.8488 27.0354 40.1811C27.0354 40.5093 26.9606 40.8084 26.8111 41.0784C26.6615 41.3484 26.458 41.5623 26.2004 41.7202C25.9429 41.8739 25.65 41.9508 25.3218 41.9508C25.0768 41.9508 24.8504 41.903 24.6427 41.8074C24.4391 41.7077 24.2771 41.5665 24.1566 41.3837L24.2875 41.2217V43.1222H23.4712ZM25.2284 41.203C25.4153 41.203 25.5815 41.1594 25.7269 41.0722C25.8723 40.9849 25.9844 40.8645 26.0633 40.7108C26.1464 40.5571 26.188 40.3805 26.188 40.1811C26.188 39.9817 26.1464 39.8072 26.0633 39.6577C25.9844 39.504 25.8723 39.3835 25.7269 39.2963C25.5815 39.2049 25.4153 39.1592 25.2284 39.1592C25.0498 39.1592 24.8877 39.2028 24.7424 39.2901C24.6011 39.3773 24.489 39.4998 24.4059 39.6577C24.3269 39.8114 24.2875 39.9859 24.2875 40.1811C24.2875 40.3805 24.3269 40.5571 24.4059 40.7108C24.489 40.8645 24.6011 40.9849 24.7424 41.0722C24.8877 41.1594 25.0498 41.203 25.2284 41.203ZM29.2654 41.9508C28.9164 41.9508 28.6111 41.8718 28.3494 41.714C28.0877 41.5561 27.8841 41.3422 27.7387 41.0722C27.5933 40.8021 27.5207 40.5031 27.5207 40.1749C27.5207 39.8342 27.5933 39.5331 27.7387 39.2714C27.8883 39.0055 28.0898 38.7957 28.3432 38.642C28.6007 38.4883 28.8873 38.4115 29.2031 38.4115C29.4689 38.4115 29.7015 38.4551 29.9009 38.5423C30.1045 38.6296 30.2769 38.75 30.4181 38.9037C30.5594 39.0574 30.6674 39.234 30.7421 39.4334C30.8169 39.6286 30.8543 39.8405 30.8543 40.069C30.8543 40.1271 30.8501 40.1873 30.8418 40.2497C30.8377 40.312 30.8273 40.366 30.8107 40.4117H28.1936V39.7886H30.3496L29.9633 40.0814C30.0006 39.8903 29.9903 39.72 29.9321 39.5705C29.8781 39.4209 29.7867 39.3025 29.6579 39.2153C29.5333 39.1281 29.3817 39.0844 29.2031 39.0844C29.0327 39.0844 28.8811 39.1281 28.7482 39.2153C28.6153 39.2984 28.5135 39.423 28.4429 39.5892C28.3764 39.7512 28.3515 39.9485 28.3681 40.1811C28.3515 40.3888 28.3785 40.5737 28.4491 40.7357C28.5239 40.8935 28.6319 41.0161 28.7731 41.1033C28.9185 41.1906 29.0847 41.2342 29.2716 41.2342C29.4585 41.2342 29.6164 41.1947 29.7452 41.1158C29.8781 41.0369 29.9819 40.9309 30.0567 40.798L30.7172 41.122C30.6508 41.284 30.5469 41.4273 30.4057 41.552C30.2644 41.6766 30.0962 41.7742 29.9009 41.8448C29.7099 41.9154 29.498 41.9508 29.2654 41.9508ZM31.4731 41.876V37.159H32.2894V41.876H31.4731ZM34.0712 41.9508C33.8344 41.9508 33.6288 41.9113 33.4543 41.8324C33.2798 41.7534 33.1448 41.6413 33.0493 41.4959C32.9537 41.3463 32.9059 41.1739 32.9059 40.9787C32.9059 40.7918 32.9475 40.6256 33.0306 40.4802C33.1137 40.3307 33.2424 40.206 33.4169 40.1063C33.5914 40.0066 33.8115 39.936 34.0774 39.8945L35.1865 39.7138V40.3369L34.2332 40.4989C34.0712 40.528 33.9507 40.5799 33.8718 40.6547C33.7928 40.7294 33.7534 40.8271 33.7534 40.9475C33.7534 41.0639 33.797 41.1573 33.8842 41.2279C33.9756 41.2944 34.0878 41.3276 34.2207 41.3276C34.391 41.3276 34.5406 41.2923 34.6694 41.2217C34.8023 41.1469 34.9041 41.0452 34.9747 40.9164C35.0495 40.7876 35.0868 40.6464 35.0868 40.4927V39.6203C35.0868 39.4749 35.0287 39.3544 34.9124 39.2589C34.8002 39.1592 34.6507 39.1094 34.4637 39.1094C34.2893 39.1094 34.1335 39.1571 33.9964 39.2527C33.8635 39.3441 33.7658 39.4666 33.7035 39.6203L33.0368 39.2963C33.1033 39.1177 33.2071 38.964 33.3484 38.8352C33.4938 38.7023 33.6641 38.5984 33.8593 38.5236C34.0546 38.4489 34.2664 38.4115 34.4949 38.4115C34.7732 38.4115 35.0183 38.4634 35.2302 38.5673C35.442 38.6669 35.6061 38.8082 35.7224 38.991C35.8429 39.1696 35.9031 39.3794 35.9031 39.6203V41.876H35.1305V41.2965L35.3049 41.284C35.2177 41.4294 35.1138 41.552 34.9934 41.6517C34.8729 41.7472 34.7358 41.822 34.5821 41.876C34.4284 41.9258 34.2581 41.9508 34.0712 41.9508ZM36.6576 41.876V38.4862H37.4738V41.876H36.6576ZM36.6576 38.1061V37.2338H37.4738V38.1061H36.6576Z" fill="white"/>
</svg>
