<svg width="47" height="49" viewBox="0 0 47 49" fill="none" xmlns="http://www.w3.org/2000/svg">
<rect x="0.986328" width="45.3199" height="48.2917" rx="9.65834" fill="#686868"/>
<path fill-rule="evenodd" clip-rule="evenodd" d="M19.6143 9.91728C20.8973 9.38583 22.2724 9.1123 23.6612 9.1123C26.4658 9.1123 29.1556 10.2264 31.1388 12.2096C33.122 14.1928 34.2361 16.8826 34.2361 19.6873C34.2361 22.4919 33.122 25.1817 31.1388 27.1649C29.1556 29.1481 26.4658 30.2622 23.6612 30.2622H14.1437C13.9343 30.271 13.727 30.2174 13.5482 30.1082C13.3693 29.999 13.2269 29.8392 13.1391 29.6489C13.0581 29.4563 13.036 29.244 13.0755 29.0389C13.115 28.8338 13.2144 28.6449 13.3612 28.4962L15.4761 26.3812C13.9225 24.4973 13.077 22.1292 13.0862 19.6873C13.0862 16.8826 14.2003 14.1928 16.1835 12.2096C17.1655 11.2277 18.3313 10.4487 19.6143 9.91728ZM18.8437 18.808C19.0176 18.6918 19.222 18.6298 19.4312 18.6298C19.7116 18.6298 19.9806 18.7412 20.1789 18.9395C20.3772 19.1378 20.4887 19.4068 20.4887 19.6873C20.4887 19.8964 20.4266 20.1009 20.3104 20.2748C20.1942 20.4487 20.0291 20.5843 19.8359 20.6643C19.6426 20.7443 19.43 20.7653 19.2249 20.7245C19.0197 20.6837 18.8313 20.5829 18.6834 20.4351C18.5355 20.2872 18.4348 20.0987 18.394 19.8936C18.3532 19.6885 18.3741 19.4758 18.4542 19.2826C18.5342 19.0894 18.6697 18.9242 18.8437 18.808ZM23.0736 18.808C23.2475 18.6918 23.452 18.6298 23.6611 18.6298C23.9416 18.6298 24.2106 18.7412 24.4089 18.9395C24.6072 19.1378 24.7186 19.4068 24.7186 19.6873C24.7186 19.8964 24.6566 20.1009 24.5404 20.2748C24.4242 20.4487 24.2591 20.5843 24.0658 20.6643C23.8726 20.7443 23.66 20.7653 23.4548 20.7245C23.2497 20.6837 23.0613 20.5829 22.9134 20.4351C22.7655 20.2872 22.6648 20.0987 22.624 19.8936C22.5832 19.6885 22.6041 19.4758 22.6842 19.2826C22.7642 19.0894 22.8997 18.9242 23.0736 18.808ZM27.8911 18.6298C27.682 18.6298 27.4775 18.6918 27.3036 18.808C27.1297 18.9242 26.9942 19.0894 26.9141 19.2826C26.8341 19.4758 26.8132 19.6885 26.854 19.8936C26.8948 20.0987 26.9955 20.2872 27.1434 20.4351C27.2913 20.5829 27.4797 20.6837 27.6848 20.7245C27.89 20.7653 28.1026 20.7443 28.2958 20.6643C28.4891 20.5843 28.6542 20.4487 28.7704 20.2748C28.8866 20.1009 28.9486 19.8964 28.9486 19.6873C28.9486 19.4068 28.8372 19.1378 28.6389 18.9395C28.4406 18.7412 28.1716 18.6298 27.8911 18.6298Z" fill="white"/>
<path d="M14.2029 41.9508C13.8457 41.9508 13.5279 41.876 13.2495 41.7264C12.9754 41.5769 12.7594 41.3713 12.6015 41.1095C12.4436 40.8478 12.3647 40.5508 12.3647 40.2185V37.2338H13.2122V40.1749C13.2122 40.366 13.2537 40.5384 13.3368 40.6921C13.424 40.8458 13.5424 40.9662 13.6919 41.0535C13.8415 41.1366 14.0118 41.1781 14.2029 41.1781C14.3981 41.1781 14.5685 41.1366 14.7139 41.0535C14.8634 40.9662 14.9797 40.8458 15.0628 40.6921C15.15 40.5384 15.1936 40.366 15.1936 40.1749V37.2338H16.0411V40.2185C16.0411 40.5508 15.9622 40.8478 15.8043 41.1095C15.6464 41.3713 15.4284 41.5769 15.15 41.7264C14.8759 41.876 14.5602 41.9508 14.2029 41.9508ZM18.4511 41.9508C18.1146 41.9508 17.8114 41.8739 17.5414 41.7202C17.2755 41.5623 17.0657 41.3505 16.912 41.0846C16.7583 40.8146 16.6815 40.5114 16.6815 40.1749C16.6815 39.8384 16.7583 39.5372 16.912 39.2714C17.0657 39.0055 17.2755 38.7957 17.5414 38.642C17.8114 38.4883 18.1146 38.4115 18.4511 38.4115C18.6921 38.4115 18.9164 38.4551 19.1241 38.5423C19.3318 38.6254 19.5104 38.7417 19.66 38.8913C19.8137 39.0367 19.9237 39.2111 19.9902 39.4147L19.2736 39.7262C19.2113 39.5559 19.1054 39.4188 18.9558 39.315C18.8104 39.2111 18.6422 39.1592 18.4511 39.1592C18.2725 39.1592 18.1126 39.2028 17.9713 39.2901C17.8342 39.3773 17.7262 39.4978 17.6473 39.6515C17.5684 39.8052 17.5289 39.9817 17.5289 40.1811C17.5289 40.3805 17.5684 40.5571 17.6473 40.7108C17.7262 40.8645 17.8342 40.9849 17.9713 41.0722C18.1126 41.1594 18.2725 41.203 18.4511 41.203C18.6464 41.203 18.8167 41.1511 18.9621 41.0472C19.1075 40.9434 19.2113 40.8042 19.2736 40.6298L19.9902 40.9538C19.9237 41.1449 19.8157 41.3173 19.6662 41.471C19.5166 41.6205 19.338 41.7389 19.1303 41.8261C18.9226 41.9092 18.6962 41.9508 18.4511 41.9508ZM21.6255 41.9508C21.3887 41.9508 21.1831 41.9113 21.0087 41.8324C20.8342 41.7534 20.6992 41.6413 20.6036 41.4959C20.5081 41.3463 20.4603 41.1739 20.4603 40.9787C20.4603 40.7918 20.5019 40.6256 20.5849 40.4802C20.668 40.3307 20.7968 40.206 20.9713 40.1063C21.1457 40.0066 21.3659 39.936 21.6318 39.8945L22.7409 39.7138V40.3369L21.7875 40.4989C21.6255 40.528 21.5051 40.5799 21.4261 40.6547C21.3472 40.7294 21.3077 40.8271 21.3077 40.9475C21.3077 41.0639 21.3514 41.1573 21.4386 41.2279C21.53 41.2944 21.6421 41.3276 21.7751 41.3276C21.9454 41.3276 22.0949 41.2923 22.2237 41.2217C22.3566 41.1469 22.4584 41.0452 22.529 40.9164C22.6038 40.7876 22.6412 40.6464 22.6412 40.4927V39.6203C22.6412 39.4749 22.583 39.3544 22.4667 39.2589C22.3546 39.1592 22.205 39.1094 22.0181 39.1094C21.8436 39.1094 21.6878 39.1571 21.5508 39.2527C21.4178 39.3441 21.3202 39.4666 21.2579 39.6203L20.5912 39.2963C20.6576 39.1177 20.7615 38.964 20.9027 38.8352C21.0481 38.7023 21.2184 38.5984 21.4137 38.5236C21.6089 38.4489 21.8208 38.4115 22.0492 38.4115C22.3276 38.4115 22.5727 38.4634 22.7845 38.5673C22.9964 38.6669 23.1605 38.8082 23.2768 38.991C23.3972 39.1696 23.4575 39.3794 23.4575 39.6203V41.876H22.6848V41.2965L22.8593 41.284C22.7721 41.4294 22.6682 41.552 22.5477 41.6517C22.4273 41.7472 22.2902 41.822 22.1365 41.876C21.9828 41.9258 21.8125 41.9508 21.6255 41.9508ZM24.2119 43.1222V38.4862H24.9784V39.1592L24.9036 38.991C25.0199 38.8082 25.1778 38.6669 25.3772 38.5673C25.5766 38.4634 25.8071 38.4115 26.0688 38.4115C26.3887 38.4115 26.6774 38.4904 26.9349 38.6483C27.1925 38.8061 27.396 39.018 27.5456 39.2838C27.6993 39.5497 27.7761 39.8488 27.7761 40.1811C27.7761 40.5093 27.7014 40.8084 27.5518 41.0784C27.4023 41.3484 27.1987 41.5623 26.9412 41.7202C26.6836 41.8739 26.3908 41.9508 26.0626 41.9508C25.8175 41.9508 25.5911 41.903 25.3834 41.8074C25.1798 41.7077 25.0178 41.5665 24.8974 41.3837L25.0282 41.2217V43.1222H24.2119ZM25.9691 41.203C26.156 41.203 26.3222 41.1594 26.4676 41.0722C26.613 40.9849 26.7252 40.8645 26.8041 40.7108C26.8872 40.5571 26.9287 40.3805 26.9287 40.1811C26.9287 39.9817 26.8872 39.8072 26.8041 39.6577C26.7252 39.504 26.613 39.3835 26.4676 39.2963C26.3222 39.2049 26.156 39.1592 25.9691 39.1592C25.7905 39.1592 25.6285 39.2028 25.4831 39.2901C25.3418 39.3773 25.2297 39.4998 25.1466 39.6577C25.0677 39.8114 25.0282 39.9859 25.0282 40.1811C25.0282 40.3805 25.0677 40.5571 25.1466 40.7108C25.2297 40.8645 25.3418 40.9849 25.4831 41.0722C25.6285 41.1594 25.7905 41.203 25.9691 41.203ZM29.4266 41.9508C29.1898 41.9508 28.9842 41.9113 28.8097 41.8324C28.6353 41.7534 28.5002 41.6413 28.4047 41.4959C28.3092 41.3463 28.2614 41.1739 28.2614 40.9787C28.2614 40.7918 28.3029 40.6256 28.386 40.4802C28.4691 40.3307 28.5979 40.206 28.7723 40.1063C28.9468 40.0066 29.167 39.936 29.4328 39.8945L30.542 39.7138V40.3369L29.5886 40.4989C29.4266 40.528 29.3061 40.5799 29.2272 40.6547C29.1483 40.7294 29.1088 40.8271 29.1088 40.9475C29.1088 41.0639 29.1524 41.1573 29.2397 41.2279C29.3311 41.2944 29.4432 41.3276 29.5762 41.3276C29.7465 41.3276 29.896 41.2923 30.0248 41.2217C30.1577 41.1469 30.2595 41.0452 30.3301 40.9164C30.4049 40.7876 30.4423 40.6464 30.4423 40.4927V39.6203C30.4423 39.4749 30.3841 39.3544 30.2678 39.2589C30.1556 39.1592 30.0061 39.1094 29.8192 39.1094C29.6447 39.1094 29.4889 39.1571 29.3518 39.2527C29.2189 39.3441 29.1213 39.4666 29.059 39.6203L28.3922 39.2963C28.4587 39.1177 28.5626 38.964 28.7038 38.8352C28.8492 38.7023 29.0195 38.5984 29.2147 38.5236C29.41 38.4489 29.6218 38.4115 29.8503 38.4115C30.1286 38.4115 30.3737 38.4634 30.5856 38.5673C30.7975 38.6669 30.9615 38.8082 31.0779 38.991C31.1983 39.1696 31.2586 39.3794 31.2586 39.6203V41.876H30.4859V41.2965L30.6604 41.284C30.5731 41.4294 30.4693 41.552 30.3488 41.6517C30.2283 41.7472 30.0913 41.822 29.9376 41.876C29.7839 41.9258 29.6135 41.9508 29.4266 41.9508ZM32.013 41.876V38.4862H32.7794V39.153L32.7171 39.0346C32.7961 38.831 32.9248 38.6773 33.1035 38.5735C33.2862 38.4655 33.4981 38.4115 33.739 38.4115C33.9883 38.4115 34.2084 38.4655 34.3995 38.5735C34.5948 38.6815 34.7464 38.8331 34.8544 39.0284C34.9624 39.2194 35.0164 39.4417 35.0164 39.6951V41.876H34.2001V39.8882C34.2001 39.7387 34.1711 39.6099 34.1129 39.5019C34.0547 39.3939 33.9737 39.3108 33.8699 39.2527C33.7702 39.1904 33.6518 39.1592 33.5147 39.1592C33.3818 39.1592 33.2634 39.1904 33.1595 39.2527C33.0557 39.3108 32.9747 39.3939 32.9165 39.5019C32.8584 39.6099 32.8293 39.7387 32.8293 39.8882V41.876H32.013Z" fill="white"/>
</svg>
