<svg width="46" height="50" viewBox="0 0 46 50" fill="none" xmlns="http://www.w3.org/2000/svg">
<rect x="0.615234" y="0.750122" width="45.3199" height="48.2917" rx="9.65834" fill="white"/>
<path d="M19.0601 19.3803C18.8509 19.3803 18.6465 19.4423 18.4726 19.5585C18.2987 19.6747 18.1631 19.8399 18.0831 20.0331C18.003 20.2263 17.9821 20.439 18.0229 20.6441C18.0637 20.8492 18.1644 21.0377 18.3123 21.1855C18.4602 21.3334 18.6486 21.4342 18.8538 21.475C19.0589 21.5158 19.2715 21.4948 19.4648 21.4148C19.658 21.3347 19.8232 21.1992 19.9394 21.0253C20.0556 20.8514 20.1176 20.6469 20.1176 20.4378C20.1176 20.1573 20.0062 19.8883 19.8078 19.69C19.6095 19.4917 19.3406 19.3803 19.0601 19.3803ZM23.2901 19.3803C23.0809 19.3803 22.8765 19.4423 22.7026 19.5585C22.5287 19.6747 22.3931 19.8399 22.3131 20.0331C22.233 20.2263 22.2121 20.439 22.2529 20.6441C22.2937 20.8492 22.3944 21.0377 22.5423 21.1855C22.6902 21.3334 22.8786 21.4342 23.0838 21.475C23.2889 21.5158 23.5015 21.4948 23.6948 21.4148C23.888 21.3347 24.0531 21.1992 24.1693 21.0253C24.2855 20.8514 24.3476 20.6469 24.3476 20.4378C24.3476 20.1573 24.2362 19.8883 24.0378 19.69C23.8395 19.4917 23.5705 19.3803 23.2901 19.3803ZM27.5201 19.3803C27.3109 19.3803 27.1064 19.4423 26.9325 19.5585C26.7586 19.6747 26.6231 19.8399 26.5431 20.0331C26.463 20.2263 26.4421 20.439 26.4829 20.6441C26.5237 20.8492 26.6244 21.0377 26.7723 21.1855C26.9202 21.3334 27.1086 21.4342 27.3137 21.475C27.5189 21.5158 27.7315 21.4948 27.9247 21.4148C28.118 21.3347 28.2831 21.1992 28.3993 21.0253C28.5155 20.8514 28.5776 20.6469 28.5776 20.4378C28.5776 20.1573 28.4661 19.8883 28.2678 19.69C28.0695 19.4917 27.8005 19.3803 27.5201 19.3803ZM23.2901 9.86282C21.9013 9.86282 20.5262 10.1364 19.2432 10.6678C17.9602 11.1992 16.7944 11.9782 15.8124 12.9602C13.8293 14.9433 12.7151 17.6331 12.7151 20.4378C12.7059 22.8797 13.5514 25.2478 15.1051 27.1317L12.9901 29.2467C12.8433 29.3954 12.7439 29.5843 12.7044 29.7894C12.6649 29.9946 12.687 30.2068 12.768 30.3994C12.8558 30.5897 12.9982 30.7496 13.1771 30.8588C13.3559 30.968 13.5632 31.0216 13.7726 31.0127H23.2901C26.0947 31.0127 28.7845 29.8986 30.7677 27.9154C32.7509 25.9322 33.865 23.2424 33.865 20.4378C33.865 17.6331 32.7509 14.9433 30.7677 12.9602C28.7845 10.977 26.0947 9.86282 23.2901 9.86282ZM23.2901 28.8978H16.3212L17.3046 27.9143C17.4046 27.8163 17.4841 27.6995 17.5385 27.5707C17.593 27.4418 17.6213 27.3034 17.6219 27.1635C17.6179 26.8845 17.5039 26.6185 17.3046 26.4232C15.9199 25.04 15.0576 23.2196 14.8647 21.2719C14.6717 19.3243 15.16 17.37 16.2463 15.742C17.3327 14.114 18.9499 12.913 20.8224 12.3437C22.695 11.7743 24.707 11.8719 26.5157 12.6196C28.3244 13.3674 29.8178 14.7191 30.7417 16.4446C31.6655 18.17 31.9625 20.1624 31.582 22.0822C31.2016 24.002 30.1673 25.7306 28.6553 26.9734C27.1433 28.2161 25.2472 28.8962 23.2901 28.8978Z" fill="#686868"/>
<path d="M13.8318 42.7012C13.4746 42.7012 13.1568 42.6264 12.8784 42.4769C12.6043 42.3273 12.3883 42.1217 12.2304 41.86C12.0726 41.5983 11.9936 41.3013 11.9936 40.969V37.9842H12.8411V40.9253C12.8411 41.1164 12.8826 41.2888 12.9657 41.4425C13.0529 41.5962 13.1713 41.7167 13.3209 41.8039C13.4704 41.887 13.6407 41.9285 13.8318 41.9285C14.027 41.9285 14.1974 41.887 14.3428 41.8039C14.4923 41.7167 14.6086 41.5962 14.6917 41.4425C14.7789 41.2888 14.8226 41.1164 14.8226 40.9253V37.9842H15.67V40.969C15.67 41.3013 15.5911 41.5983 15.4332 41.86C15.2754 42.1217 15.0573 42.3273 14.7789 42.4769C14.5048 42.6264 14.1891 42.7012 13.8318 42.7012ZM18.08 42.7012C17.7435 42.7012 17.4403 42.6244 17.1703 42.4707C16.9044 42.3128 16.6946 42.1009 16.5409 41.8351C16.3872 41.5651 16.3104 41.2618 16.3104 40.9253C16.3104 40.5889 16.3872 40.2877 16.5409 40.0218C16.6946 39.756 16.9044 39.5462 17.1703 39.3925C17.4403 39.2388 17.7435 39.1619 18.08 39.1619C18.321 39.1619 18.5453 39.2055 18.753 39.2928C18.9607 39.3759 19.1393 39.4922 19.2889 39.6417C19.4426 39.7871 19.5526 39.9616 19.6191 40.1651L18.9025 40.4767C18.8402 40.3064 18.7343 40.1693 18.5847 40.0654C18.4393 39.9616 18.2711 39.9097 18.08 39.9097C17.9014 39.9097 17.7415 39.9533 17.6002 40.0405C17.4631 40.1278 17.3551 40.2482 17.2762 40.4019C17.1973 40.5556 17.1578 40.7322 17.1578 40.9316C17.1578 41.131 17.1973 41.3075 17.2762 41.4612C17.3551 41.6149 17.4631 41.7354 17.6002 41.8226C17.7415 41.9099 17.9014 41.9535 18.08 41.9535C18.2753 41.9535 18.4456 41.9015 18.591 41.7977C18.7364 41.6938 18.8402 41.5547 18.9025 41.3802L19.6191 41.7042C19.5526 41.8953 19.4446 42.0677 19.2951 42.2214C19.1455 42.371 18.9669 42.4893 18.7592 42.5766C18.5515 42.6597 18.3251 42.7012 18.08 42.7012ZM21.2544 42.7012C21.0177 42.7012 20.812 42.6617 20.6376 42.5828C20.4631 42.5039 20.3281 42.3917 20.2325 42.2463C20.137 42.0968 20.0892 41.9244 20.0892 41.7292C20.0892 41.5422 20.1308 41.3761 20.2138 41.2307C20.2969 41.0811 20.4257 40.9565 20.6002 40.8568C20.7746 40.7571 20.9948 40.6865 21.2607 40.6449L22.3698 40.4642V41.0873L21.4164 41.2494C21.2544 41.2784 21.134 41.3304 21.055 41.4051C20.9761 41.4799 20.9367 41.5775 20.9367 41.698C20.9367 41.8143 20.9803 41.9078 21.0675 41.9784C21.1589 42.0449 21.2711 42.0781 21.404 42.0781C21.5743 42.0781 21.7238 42.0428 21.8526 41.9722C21.9856 41.8974 22.0873 41.7956 22.158 41.6668C22.2327 41.5381 22.2701 41.3968 22.2701 41.2431V40.3708C22.2701 40.2254 22.212 40.1049 22.0956 40.0094C21.9835 39.9097 21.8339 39.8598 21.647 39.8598C21.4725 39.8598 21.3167 39.9076 21.1797 40.0031C21.0467 40.0945 20.9491 40.2171 20.8868 40.3708L20.2201 40.0467C20.2865 39.8681 20.3904 39.7144 20.5316 39.5856C20.677 39.4527 20.8473 39.3489 21.0426 39.2741C21.2378 39.1993 21.4497 39.1619 21.6782 39.1619C21.9565 39.1619 22.2016 39.2139 22.4134 39.3177C22.6253 39.4174 22.7894 39.5586 22.9057 39.7414C23.0262 39.92 23.0864 40.1298 23.0864 40.3708V42.6264H22.3137V42.0469L22.4882 42.0345C22.401 42.1799 22.2971 42.3024 22.1766 42.4021C22.0562 42.4977 21.9191 42.5724 21.7654 42.6264C21.6117 42.6763 21.4414 42.7012 21.2544 42.7012ZM23.8408 43.8727V39.2367H24.6073V39.9097L24.5325 39.7414C24.6488 39.5586 24.8067 39.4174 25.0061 39.3177C25.2055 39.2139 25.436 39.1619 25.6977 39.1619C26.0176 39.1619 26.3063 39.2409 26.5638 39.3987C26.8214 39.5566 27.0249 39.7684 27.1745 40.0343C27.3282 40.3001 27.405 40.5992 27.405 40.9316C27.405 41.2597 27.3303 41.5588 27.1807 41.8289C27.0312 42.0989 26.8276 42.3128 26.5701 42.4707C26.3125 42.6244 26.0197 42.7012 25.6915 42.7012C25.4464 42.7012 25.22 42.6534 25.0123 42.5579C24.8087 42.4582 24.6467 42.317 24.5263 42.1342L24.6571 41.9722V43.8727H23.8408ZM25.598 41.9535C25.785 41.9535 25.9511 41.9099 26.0965 41.8226C26.2419 41.7354 26.3541 41.6149 26.433 41.4612C26.5161 41.3075 26.5576 41.131 26.5576 40.9316C26.5576 40.7322 26.5161 40.5577 26.433 40.4082C26.3541 40.2545 26.2419 40.134 26.0965 40.0467C25.9511 39.9554 25.785 39.9097 25.598 39.9097C25.4194 39.9097 25.2574 39.9533 25.112 40.0405C24.9708 40.1278 24.8586 40.2503 24.7755 40.4082C24.6966 40.5619 24.6571 40.7363 24.6571 40.9316C24.6571 41.131 24.6966 41.3075 24.7755 41.4612C24.8586 41.6149 24.9708 41.7354 25.112 41.8226C25.2574 41.9099 25.4194 41.9535 25.598 41.9535ZM29.0555 42.7012C28.8187 42.7012 28.6131 42.6617 28.4386 42.5828C28.2642 42.5039 28.1292 42.3917 28.0336 42.2463C27.9381 42.0968 27.8903 41.9244 27.8903 41.7292C27.8903 41.5422 27.9318 41.3761 28.0149 41.2307C28.098 41.0811 28.2268 40.9565 28.4012 40.8568C28.5757 40.7571 28.7959 40.6865 29.0617 40.6449L30.1709 40.4642V41.0873L29.2175 41.2494C29.0555 41.2784 28.935 41.3304 28.8561 41.4051C28.7772 41.4799 28.7377 41.5775 28.7377 41.698C28.7377 41.8143 28.7813 41.9078 28.8686 41.9784C28.96 42.0449 29.0721 42.0781 29.2051 42.0781C29.3754 42.0781 29.5249 42.0428 29.6537 41.9722C29.7866 41.8974 29.8884 41.7956 29.959 41.6668C30.0338 41.5381 30.0712 41.3968 30.0712 41.2431V40.3708C30.0712 40.2254 30.013 40.1049 29.8967 40.0094C29.7846 39.9097 29.635 39.8598 29.4481 39.8598C29.2736 39.8598 29.1178 39.9076 28.9807 40.0031C28.8478 40.0945 28.7502 40.2171 28.6879 40.3708L28.0211 40.0467C28.0876 39.8681 28.1915 39.7144 28.3327 39.5856C28.4781 39.4527 28.6484 39.3489 28.8437 39.2741C29.0389 39.1993 29.2508 39.1619 29.4792 39.1619C29.7576 39.1619 30.0026 39.2139 30.2145 39.3177C30.4264 39.4174 30.5904 39.5586 30.7068 39.7414C30.8272 39.92 30.8875 40.1298 30.8875 40.3708V42.6264H30.1148V42.0469L30.2893 42.0345C30.202 42.1799 30.0982 42.3024 29.9777 42.4021C29.8572 42.4977 29.7202 42.5724 29.5665 42.6264C29.4128 42.6763 29.2424 42.7012 29.0555 42.7012ZM31.6419 42.6264V39.2367H32.4083V39.9034L32.346 39.785C32.425 39.5815 32.5537 39.4278 32.7324 39.3239C32.9151 39.2159 33.127 39.1619 33.3679 39.1619C33.6172 39.1619 33.8373 39.2159 34.0284 39.3239C34.2237 39.4319 34.3753 39.5836 34.4833 39.7788C34.5913 39.9699 34.6453 40.1921 34.6453 40.4455V42.6264H33.829V40.6387C33.829 40.4892 33.8 40.3604 33.7418 40.2524C33.6836 40.1444 33.6026 40.0613 33.4988 40.0031C33.3991 39.9408 33.2807 39.9097 33.1436 39.9097C33.0107 39.9097 32.8923 39.9408 32.7884 40.0031C32.6846 40.0613 32.6036 40.1444 32.5454 40.2524C32.4873 40.3604 32.4582 40.4892 32.4582 40.6387V42.6264H31.6419Z" fill="#686868"/>
</svg>
