<svg width="43" height="24" viewBox="0 0 43 24" fill="none" xmlns="http://www.w3.org/2000/svg">
<g filter="url(#filter0_d_649_5447)">
<rect x="3.37158" y="3.82178" width="35.0288" height="15.7119" rx="6.14813" fill="white" shape-rendering="crispEdges"/>
<path d="M10.7341 14.137H8.30517C8.0636 14.137 7.83192 14.0398 7.66111 13.8668C7.49029 13.6939 7.39433 13.4593 7.39433 13.2147V10.1407C7.39433 10.0591 7.36234 9.98095 7.30541 9.9233C7.24847 9.86565 7.17124 9.83326 7.09072 9.83326C7.0102 9.83326 6.93297 9.86565 6.87604 9.9233C6.8191 9.98095 6.78711 10.0591 6.78711 10.1407V13.2147C6.78711 13.6224 6.94705 14.0133 7.23174 14.3016C7.51643 14.5898 7.90255 14.7518 8.30517 14.7518H10.7341C10.8146 14.7518 10.8918 14.7194 10.9487 14.6617C11.0057 14.6041 11.0377 14.5259 11.0377 14.4444C11.0377 14.3628 11.0057 14.2846 10.9487 14.227C10.8918 14.1693 10.8146 14.137 10.7341 14.137ZM12.2521 10.737C12.2489 10.7088 12.2428 10.681 12.2339 10.654V10.6264C12.2193 10.5948 12.1998 10.5657 12.1762 10.5403L10.3545 8.69586C10.3294 8.67195 10.3007 8.65223 10.2695 8.63745H10.2422L10.145 8.60364H8.91239C8.67082 8.60364 8.43915 8.7008 8.26833 8.87375C8.09752 9.0467 8.00155 9.28127 8.00155 9.52586V12.5999C8.00155 12.8445 8.09752 13.0791 8.26833 13.252C8.43915 13.425 8.67082 13.5221 8.91239 13.5221H11.3413C11.5828 13.5221 11.8145 13.425 11.9853 13.252C12.1561 13.0791 12.2521 12.8445 12.2521 12.5999V10.7555C12.2521 10.7555 12.2521 10.7555 12.2521 10.737ZM10.4304 9.65189L11.2168 10.4481H10.7341C10.6535 10.4481 10.5763 10.4157 10.5194 10.358C10.4624 10.3004 10.4304 10.2222 10.4304 10.1407V9.65189ZM11.6449 12.5999C11.6449 12.6814 11.6129 12.7596 11.556 12.8173C11.499 12.8749 11.4218 12.9073 11.3413 12.9073H8.91239C8.83186 12.9073 8.75464 12.8749 8.6977 12.8173C8.64076 12.7596 8.60878 12.6814 8.60878 12.5999V9.52586C8.60878 9.44433 8.64076 9.36614 8.6977 9.30849C8.75464 9.25084 8.83186 9.21845 8.91239 9.21845H9.82322V10.1407C9.82322 10.3853 9.91918 10.6198 10.09 10.7928C10.2608 10.9657 10.4925 11.0629 10.7341 11.0629H11.6449V12.5999Z" fill="black"/>
<path d="M18.9833 9.33849C19.0927 9.33849 19.1701 9.3585 19.2155 9.39853C19.2608 9.43855 19.2835 9.50527 19.2835 9.59866V10.9195C19.2835 11.0129 19.2608 11.0797 19.2155 11.1197C19.1701 11.1597 19.0927 11.1797 18.9833 11.1797C18.8739 11.1797 18.7965 11.1597 18.7511 11.1197C18.7058 11.0797 18.6831 11.0129 18.6831 10.9195C18.6831 10.7381 18.6417 10.5726 18.559 10.4232C18.479 10.2738 18.3549 10.155 18.1868 10.067C18.0187 9.97625 17.8105 9.93088 17.5623 9.93088C17.2742 9.93088 17.018 10.0069 16.7938 10.159C16.5724 10.3111 16.3989 10.5286 16.2735 10.8115C16.1507 11.0943 16.0894 11.4252 16.0894 11.8041C16.0894 12.1831 16.1481 12.514 16.2655 12.7968C16.3829 13.077 16.5497 13.2931 16.7658 13.4452C16.982 13.5973 17.2341 13.6734 17.5223 13.6734C17.7865 13.6734 18.0387 13.6347 18.2788 13.5573C18.519 13.4799 18.7351 13.3679 18.9273 13.2211C18.9726 13.1837 19.022 13.1651 19.0754 13.1651C19.1554 13.1651 19.2261 13.2171 19.2875 13.3212C19.3355 13.4012 19.3596 13.4719 19.3596 13.5333C19.3596 13.6134 19.3182 13.6827 19.2355 13.7414C18.9873 13.9149 18.7165 14.0456 18.4229 14.1337C18.1321 14.2218 17.8319 14.2658 17.5223 14.2658C17.106 14.2658 16.7418 14.1644 16.4296 13.9616C16.12 13.7561 15.8799 13.4679 15.7091 13.097C15.541 12.7261 15.4569 12.2951 15.4569 11.8041C15.4569 11.3158 15.5437 10.8862 15.7171 10.5153C15.8906 10.1417 16.1334 9.85216 16.4456 9.64669C16.7605 9.44122 17.1194 9.33849 17.5223 9.33849C17.7732 9.33849 17.996 9.38118 18.1908 9.46657C18.3856 9.55196 18.5497 9.67338 18.6831 9.83082V9.59866C18.6831 9.50527 18.7058 9.43855 18.7511 9.39853C18.7965 9.3585 18.8739 9.33849 18.9833 9.33849ZM22.4395 10.3912C22.8051 10.3912 23.1347 10.4739 23.4282 10.6394C23.7217 10.8048 23.9512 11.0356 24.1167 11.3318C24.2848 11.6254 24.3688 11.9576 24.3688 12.3285C24.3688 12.6994 24.2848 13.033 24.1167 13.3292C23.9512 13.6227 23.7217 13.8522 23.4282 14.0176C23.1347 14.1831 22.8051 14.2658 22.4395 14.2658C22.074 14.2658 21.7444 14.1831 21.4509 14.0176C21.1573 13.8522 20.9265 13.6227 20.7584 13.3292C20.593 13.033 20.5102 12.6994 20.5102 12.3285C20.5102 11.9576 20.593 11.6254 20.7584 11.3318C20.9265 11.0356 21.1573 10.8048 21.4509 10.6394C21.7444 10.4739 22.074 10.3912 22.4395 10.3912ZM22.4395 10.9836C22.1807 10.9836 21.9525 11.041 21.7551 11.1557C21.5603 11.2678 21.4095 11.4266 21.3028 11.632C21.196 11.8348 21.1427 12.067 21.1427 12.3285C21.1427 12.59 21.196 12.8235 21.3028 13.029C21.4095 13.2318 21.5603 13.3905 21.7551 13.5053C21.9525 13.6174 22.1807 13.6734 22.4395 13.6734C22.6984 13.6734 22.9252 13.6174 23.12 13.5053C23.3175 13.3905 23.4696 13.2318 23.5763 13.029C23.683 12.8235 23.7364 12.59 23.7364 12.3285C23.7364 12.067 23.683 11.8348 23.5763 11.632C23.4696 11.4266 23.3175 11.2678 23.12 11.1557C22.9252 11.041 22.6984 10.9836 22.4395 10.9836ZM27.657 10.3912C27.9879 10.3912 28.2841 10.4699 28.5456 10.6274C28.8071 10.7821 29.0125 11.0063 29.162 11.2998C29.3114 11.5907 29.3861 11.9336 29.3861 12.3285C29.3861 12.7234 29.3114 13.0677 29.162 13.3612C29.0125 13.652 28.8071 13.8762 28.5456 14.0336C28.2841 14.1884 27.9879 14.2658 27.657 14.2658C27.1553 14.2658 26.7323 14.0456 26.3881 13.6054V15.1864H27.0766C27.1673 15.1864 27.2313 15.2064 27.2687 15.2465C27.3087 15.2891 27.3287 15.3599 27.3287 15.4586C27.3287 15.5573 27.3087 15.6267 27.2687 15.6667C27.2313 15.7094 27.1673 15.7308 27.0766 15.7308H25.3794C25.2887 15.7308 25.2233 15.7094 25.1833 15.6667C25.1459 15.6267 25.1273 15.5573 25.1273 15.4586C25.1273 15.3599 25.1459 15.2891 25.1833 15.2465C25.2233 15.2064 25.2887 15.1864 25.3794 15.1864H25.7877V11.0236H25.4595C25.3688 11.0236 25.3034 11.0036 25.2634 10.9636C25.226 10.9209 25.2073 10.8502 25.2073 10.7514C25.2073 10.6527 25.226 10.5833 25.2634 10.5433C25.3034 10.5006 25.3688 10.4793 25.4595 10.4793H26.0959C26.1866 10.4793 26.2507 10.5006 26.288 10.5433C26.3281 10.5833 26.3481 10.6527 26.3481 10.7514V11.0716C26.5162 10.8528 26.711 10.6847 26.9325 10.5673C27.154 10.4499 27.3955 10.3912 27.657 10.3912ZM27.6169 10.9836C27.3794 10.9836 27.1673 11.037 26.9805 11.1437C26.7964 11.2504 26.651 11.4052 26.5442 11.608C26.4401 11.8108 26.3881 12.051 26.3881 12.3285C26.3881 12.606 26.4401 12.8462 26.5442 13.049C26.651 13.2518 26.7964 13.4066 26.9805 13.5133C27.1673 13.62 27.3794 13.6734 27.6169 13.6734C27.8544 13.6734 28.0586 13.6174 28.2293 13.5053C28.4001 13.3905 28.5295 13.2318 28.6176 13.029C28.7083 12.8262 28.7537 12.5927 28.7537 12.3285C28.7537 12.0643 28.7083 11.8308 28.6176 11.628C28.5295 11.4252 28.4001 11.2678 28.2293 11.1557C28.0586 11.041 27.8544 10.9836 27.6169 10.9836ZM34.4394 10.4793C34.5302 10.4793 34.5942 10.5006 34.6316 10.5433C34.6716 10.5833 34.6916 10.6527 34.6916 10.7514C34.6916 10.8502 34.6716 10.9209 34.6316 10.9636C34.5942 11.0036 34.5302 11.0236 34.4394 11.0236H34.1913L32.5542 14.3779C32.3807 14.7328 32.2113 15.0116 32.0458 15.2144C31.8804 15.4172 31.6936 15.5653 31.4855 15.6587C31.28 15.7548 31.0291 15.8082 30.7329 15.8188C30.6396 15.8215 30.5675 15.7975 30.5168 15.7468C30.4661 15.6988 30.4408 15.612 30.4408 15.4866C30.4408 15.3132 30.5115 15.2224 30.6529 15.2144C30.9091 15.2011 31.1119 15.1584 31.2613 15.0863C31.4134 15.0143 31.5522 14.8902 31.6776 14.7141C31.8057 14.5406 31.9618 14.2685 32.1459 13.8975L30.6809 11.0236H30.4287C30.338 11.0236 30.2726 11.0036 30.2326 10.9636C30.1953 10.9209 30.1766 10.8502 30.1766 10.7514C30.1766 10.6527 30.1953 10.5833 30.2326 10.5433C30.2726 10.5006 30.338 10.4793 30.4287 10.4793H31.8457C31.9364 10.4793 32.0005 10.5006 32.0378 10.5433C32.0778 10.5833 32.0979 10.6527 32.0979 10.7514C32.0979 10.8502 32.0778 10.9209 32.0378 10.9636C32.0005 11.0036 31.9364 11.0236 31.8457 11.0236H31.3334L32.4621 13.2731L33.5388 11.0236H33.1826C33.0919 11.0236 33.0265 11.0036 32.9865 10.9636C32.9491 10.9209 32.9304 10.8502 32.9304 10.7514C32.9304 10.6527 32.9491 10.5833 32.9865 10.5433C33.0265 10.5006 33.0919 10.4793 33.1826 10.4793H34.4394Z" fill="black"/>
</g>
<defs>
<filter id="filter0_d_649_5447" x="0.365832" y="0.816027" width="42.4066" height="23.0896" filterUnits="userSpaceOnUse" color-interpolation-filters="sRGB">
<feFlood flood-opacity="0" result="BackgroundImageFix"/>
<feColorMatrix in="SourceAlpha" type="matrix" values="0 0 0 0 0 0 0 0 0 0 0 0 0 0 0 0 0 0 127 0" result="hardAlpha"/>
<feOffset dx="0.683125" dy="0.683125"/>
<feGaussianBlur stdDeviation="1.84444"/>
<feComposite in2="hardAlpha" operator="out"/>
<feColorMatrix type="matrix" values="0 0 0 0 0 0 0 0 0 0 0 0 0 0 0 0 0 0 0.2 0"/>
<feBlend mode="normal" in2="BackgroundImageFix" result="effect1_dropShadow_649_5447"/>
<feBlend mode="normal" in="SourceGraphic" in2="effect1_dropShadow_649_5447" result="shape"/>
</filter>
</defs>
</svg>
