<svg width="132" height="134" viewBox="0 0 132 134" fill="none" xmlns="http://www.w3.org/2000/svg">
<path d="M101.117 18.2835C101.117 19.2143 100.859 20.0003 100.342 20.6415C99.8452 21.2827 99.0798 21.8205 98.0456 22.2549L96.4012 22.9065L94.7878 23.527C95.9461 23.8373 96.7839 24.375 97.301 25.1404C97.8181 25.9057 98.0766 26.7124 98.0766 27.5605C98.0766 28.8636 97.694 30.0633 96.9286 31.1595C96.184 32.2351 95.0877 33.0935 93.6398 33.7348C92.1919 34.376 90.4751 34.6966 88.4894 34.6966C86.7312 34.6966 85.1075 34.438 83.6182 33.9209C82.1496 33.3831 80.9706 32.6281 80.0812 31.656C79.2124 30.6631 78.7781 29.5151 78.7781 28.212C78.7781 26.9089 79.078 25.8126 79.6778 24.9232C80.2984 24.0338 80.9913 23.3512 81.7566 22.8754C82.5426 22.3997 83.2562 22.0791 83.8975 21.9136C82.8839 21.5826 82.1082 21.1276 81.5705 20.5484C81.0327 19.9693 80.7638 19.297 80.7638 18.5317C80.7638 17.5182 81.2292 16.6701 82.16 15.9875C83.0908 15.3049 84.3835 14.9636 86.0383 14.9636C87.3621 14.9636 88.4273 15.2739 89.234 15.8944C89.6064 16.2047 89.8856 16.5563 90.0718 16.9493C90.2786 17.3217 90.382 17.6836 90.382 18.0353C90.382 18.5317 90.2062 18.935 89.8546 19.2453C89.5029 19.5349 89.0996 19.6797 88.6445 19.6797C88.1895 19.6797 87.8068 19.5452 87.4965 19.2763C87.1863 19.0074 87.0311 18.6248 87.0311 18.1283C87.0311 17.6733 87.1863 17.2803 87.4965 16.9493C87.8068 16.6184 88.1998 16.4426 88.6756 16.4219C88.5721 16.153 88.3032 15.9255 87.8689 15.7393C87.4552 15.5325 86.9587 15.429 86.3796 15.429C85.304 15.429 84.4249 15.729 83.7423 16.3288C83.0597 16.9287 82.7184 17.694 82.7184 18.6248C82.7184 19.328 82.8322 19.9176 83.0597 20.3933C83.2873 20.869 83.701 21.3138 84.3008 21.7274C85.0041 21.6033 85.6453 21.5413 86.2245 21.5413C86.5968 21.5413 86.8967 21.6137 87.1242 21.7585C87.3518 21.8826 87.4655 22.048 87.4655 22.2549C87.4655 22.6479 87.1759 22.8444 86.5968 22.8444C86.2658 22.8444 85.9245 22.7823 85.5729 22.6582C85.2213 22.5341 84.8076 22.3687 84.3318 22.1618C82.0565 22.9271 80.9189 24.5095 80.9189 26.9089C80.9189 28.0672 81.2602 29.0808 81.9428 29.9495C82.646 30.7976 83.6079 31.4491 84.8283 31.9042C86.0486 32.3592 87.4241 32.5868 88.9548 32.5868C90.6302 32.5868 92.0988 32.3696 93.3606 31.9352C94.643 31.5008 95.6255 30.901 96.3081 30.1357C97.0114 29.3497 97.363 28.4395 97.363 27.4053C97.363 26.6814 97.1458 25.9677 96.7115 25.2645C96.2978 24.5612 95.4601 24.0544 94.1983 23.7442L91.0026 24.9542C90.0718 25.3058 89.3375 25.6989 88.7997 26.1332C88.2619 26.5469 87.993 27.0744 87.993 27.7156C87.993 28.3568 88.2102 28.8739 88.6445 29.2669C89.0789 29.6392 89.596 29.8254 90.1959 29.8254C90.6302 29.8254 91.0336 29.7633 91.4059 29.6392C91.7782 29.5151 91.9954 29.3497 92.0575 29.1428C91.6438 29.0601 91.2921 28.8946 91.0026 28.6464C90.7337 28.3982 90.5992 28.0362 90.5992 27.5605C90.5992 27.064 90.7543 26.671 91.0646 26.3814C91.3956 26.0919 91.8092 25.9471 92.3057 25.9471C92.8021 25.9471 93.1951 26.1022 93.4847 26.4125C93.795 26.7227 93.9501 27.1261 93.9501 27.6225C93.9501 28.4499 93.5571 29.1014 92.7711 29.5772C92.0058 30.0529 91.1784 30.2908 90.2889 30.2908C89.3788 30.2908 88.6549 30.0426 88.1171 29.5462C87.6 29.0497 87.3414 28.3361 87.3414 27.4053C87.3414 25.2955 88.7686 23.7338 91.6231 22.7203L92.74 22.3169C95.1601 21.5103 96.8976 20.838 97.9525 20.3002C98.8213 19.8658 99.4315 19.4418 99.7831 19.0281C100.135 18.6144 100.311 18.1594 100.311 17.6629C100.311 17.001 100.042 16.4633 99.5039 16.0496C98.9867 15.6152 98.3352 15.398 97.5492 15.398C97.3423 15.398 97.1562 15.429 96.9907 15.4911C96.8459 15.5531 96.7528 15.6255 96.7115 15.7083C96.9804 15.8324 97.1872 16.0392 97.332 16.3288C97.4975 16.5977 97.5802 16.8666 97.5802 17.1355C97.5802 17.5492 97.4044 17.9112 97.0528 18.2214C96.7218 18.511 96.3288 18.6558 95.8737 18.6558C95.398 18.6558 94.9947 18.5214 94.6637 18.2525C94.3534 17.9836 94.1983 17.6216 94.1983 17.1665C94.1983 16.3805 94.5396 15.822 95.2222 15.4911C95.9255 15.1394 96.7425 14.9636 97.6733 14.9636C98.6661 14.9636 99.4832 15.2636 100.124 15.8634C100.786 16.4426 101.117 17.2493 101.117 18.2835Z" fill="white"/>
<path d="M123.059 116.833H125.827L125.346 118.398C123.901 123.454 122.055 127.186 119.808 129.594C117.641 131.921 114.712 133.085 111.02 133.085C107.248 133.085 104.439 131.961 102.593 129.714C100.747 127.467 99.9449 124.738 100.186 121.528L101.149 108.045C101.229 107.082 101.269 105.798 101.269 104.193C101.269 100.822 100.667 98.214 99.4634 96.3681C98.2595 94.5222 96.0525 93.198 92.8423 92.3954C89.7123 91.5126 85.1377 91.0311 79.1186 90.9508L71.7752 118.639C71.0529 121.047 70.6917 123.013 70.6917 124.538C70.6917 126.143 71.2535 127.266 72.3771 127.909C73.5809 128.551 75.7478 128.912 78.8778 128.992L78.3963 131.4C74.7045 131.159 69.7286 131.039 63.4687 131.039C56.4062 131.039 51.1896 131.159 47.8189 131.4L48.3004 128.992C51.1896 128.831 53.3565 128.51 54.8011 128.029C56.2457 127.547 57.3693 126.624 58.1718 125.26C59.0547 123.896 59.8973 121.689 60.6999 118.639L76.5905 58.9288C77.3128 56.2001 77.674 54.3141 77.674 53.2708C77.674 51.5855 77.072 50.4217 75.8682 49.7797C74.6644 49.0574 72.5376 48.6561 69.4879 48.5759L70.0898 46.1682C73.3 46.409 78.2357 46.5293 84.897 46.5293C88.7492 46.5293 91.6384 46.4892 93.5646 46.409L102.473 46.2886C110.338 46.2886 116.277 47.8134 120.29 50.8631C124.383 53.8326 126.429 57.9658 126.429 63.2626C126.429 69.8436 123.58 75.5418 117.882 80.3571C112.184 85.1724 104.56 88.3826 95.0092 89.9878C96.0525 90.068 97.457 90.2687 99.2226 90.5897C103.958 91.4725 107.369 92.877 109.455 94.8031C111.542 96.7292 112.585 99.8191 112.585 104.073C112.585 105.116 112.545 105.918 112.465 106.48L111.502 118.759C111.421 119.321 111.381 120.164 111.381 121.287C111.381 126.183 112.665 128.631 115.234 128.631C116.598 128.631 117.842 127.828 118.965 126.223C120.089 124.538 121.253 121.97 122.457 118.519L123.059 116.833ZM79.8409 88.5432H83.4524C94.2869 88.5432 102.112 86.1756 106.927 81.4405C111.823 76.7055 114.271 70.4054 114.271 62.5403C114.271 57.8053 113.067 54.3141 110.659 52.067C108.251 49.7396 104.359 48.5759 98.9818 48.5759C96.5742 48.5759 94.6881 48.8969 93.3238 49.5389C91.9595 50.1007 90.8359 51.1039 89.9531 52.5485C89.1505 53.9931 88.3881 56.1199 87.6658 58.9288L79.8409 88.5432Z" fill="white"/>
<path d="M71.7784 1.5262C68.8892 8.82946 66.5217 17.0155 64.6758 26.0844H62.2681C62.7496 23.757 62.9904 21.4697 62.9904 19.2226C62.9904 14.4875 61.5859 10.5951 58.777 7.54537C55.968 4.49566 51.6744 2.9708 45.896 2.9708C40.8399 2.9708 36.7468 4.25489 33.6169 6.82307C30.5671 9.39124 29.0423 13.2034 29.0423 18.2595C29.0423 22.192 30.2461 25.8035 32.6538 29.094C35.1417 32.3845 38.8335 36.2769 43.7291 40.7712C47.1801 43.9012 49.9489 46.6299 52.0355 48.9573C54.1222 51.2847 55.8878 53.8529 57.3324 56.6618C58.777 59.4707 59.4993 62.4803 59.4993 65.6906C59.4993 70.9072 57.9744 75.3212 54.9247 78.9327C51.9553 82.464 48.1431 85.0723 43.4883 86.7577C38.8335 88.443 34.0181 89.2857 29.0423 89.2857C24.7887 89.2857 21.3779 88.764 18.8097 87.7207C16.3218 86.6774 14.0345 85.3532 11.9478 83.7481C10.423 82.5442 8.97838 81.9423 7.61404 81.9423C6.65097 81.9423 5.84841 82.4239 5.20637 83.3869C4.56432 84.35 3.72164 86.0354 2.67832 88.443H0.270648C1.55474 85.3933 2.7987 81.7417 4.00253 77.4881C5.28662 73.1543 6.77135 67.1753 8.45672 59.551H10.8644C10.1421 63.323 9.78094 66.2925 9.78094 68.4594C9.78094 74.318 11.3861 78.8525 14.5963 82.0627C17.8065 85.2729 22.7422 86.878 29.4034 86.878C34.8608 86.878 39.1545 85.6341 42.2845 83.1462C45.4947 80.6582 47.0998 76.8862 47.0998 71.8301C47.0998 68.7804 46.4979 65.9715 45.294 63.4033C44.0902 60.8351 42.6055 58.5879 40.8399 56.6618C39.1545 54.6554 36.787 52.1675 33.7372 49.198C30.527 46.1483 27.9588 43.54 26.0327 41.3731C24.1868 39.2062 22.5817 36.6782 21.2174 33.789C19.9333 30.8998 19.2912 27.6895 19.2912 24.1583C19.2912 19.1824 20.5352 14.9289 23.0231 11.3976C25.5913 7.86639 28.8818 5.21795 32.8946 3.45233C36.9876 1.60645 41.2813 0.683508 45.7756 0.683508C49.0661 0.683508 51.9151 1.08479 54.3228 1.88735C56.7305 2.6899 59.098 3.97399 61.4254 5.73962C63.3516 7.18422 64.6758 7.90651 65.3981 7.90651C66.0401 7.90651 66.642 7.42498 67.2038 6.46192C67.8459 5.41859 68.5682 3.77335 69.3707 1.5262H71.7784Z" fill="white"/>
</svg>
