<svg width="101" height="101" viewBox="0 0 101 101" fill="none" xmlns="http://www.w3.org/2000/svg">
<g filter="url(#filter0_d_494_620)">
<circle cx="50.2896" cy="49.2662" r="39.3092" fill="white"/>
<path fill-rule="evenodd" clip-rule="evenodd" d="M63.0563 36.4247C59.6689 33.0335 55.1643 31.1651 50.3648 31.1631C40.4759 31.1631 32.4273 39.211 32.4234 49.103C32.422 52.2652 33.2482 55.3517 34.8183 58.0725L32.2729 67.3695L41.7839 64.8746C44.4044 66.304 47.3549 67.0574 50.3577 67.0584H50.365C50.3644 67.0584 50.3656 67.0584 50.365 67.0584C60.2529 67.0584 68.3022 59.0096 68.3063 49.1174C68.3081 44.3234 66.4436 39.8158 63.0563 36.4247ZM50.3649 64.0284H50.3589C47.6832 64.0273 45.0586 63.3084 42.7691 61.9498L42.2246 61.6266L36.5807 63.1071L38.0872 57.6043L37.7326 57.0401C36.2399 54.6659 35.4515 51.9217 35.4527 49.1041C35.4559 40.8822 42.1456 34.1932 50.3709 34.1932C54.3539 34.1945 58.0981 35.7477 60.9135 38.5664C63.7289 41.385 65.2786 45.1317 65.277 49.1162C65.2736 57.3387 58.5841 64.0284 50.3649 64.0284Z" fill="#25D366"/>
<path fill-rule="evenodd" clip-rule="evenodd" d="M58.5446 52.8595C58.0963 52.6351 55.8922 51.5508 55.4813 51.4011C55.0704 51.2515 54.7715 51.1767 54.4727 51.6254C54.1739 52.0741 53.3148 53.084 53.0532 53.3832C52.7918 53.6822 52.5302 53.7199 52.082 53.4953C51.6337 53.2709 50.1893 52.7976 48.477 51.2703C47.1443 50.0816 46.2446 48.6136 45.983 48.1647C45.7216 47.716 45.9552 47.4734 46.1797 47.2499C46.3813 47.0489 46.628 46.7263 46.8521 46.4645C47.0762 46.2028 47.151 46.0156 47.3004 45.7167C47.4498 45.4174 47.3752 45.1556 47.263 44.9313C47.151 44.7069 46.2544 42.5004 45.8809 41.6026C45.5169 40.7286 45.1474 40.847 44.8722 40.8331C44.6111 40.8201 44.3118 40.8174 44.013 40.8174C43.7142 40.8174 43.2284 40.9296 42.8176 41.3783C42.4067 41.8271 41.2485 42.9118 41.2485 45.1181C41.2485 47.3247 42.8549 49.4564 43.0791 49.7555C43.3032 50.0548 46.2402 54.5827 50.7372 56.5245C51.8067 56.9865 52.6418 57.2623 53.2928 57.4688C54.3667 57.8101 55.344 57.7619 56.1164 57.6464C56.9777 57.5177 58.7687 56.562 59.1423 55.515C59.5159 54.4677 59.5159 53.57 59.4037 53.3831C59.2917 53.1962 58.9928 53.084 58.5446 52.8595Z" fill="#25D366"/>
</g>
<defs>
<filter id="filter0_d_494_620" x="0.101196" y="0.610051" width="100.377" height="100.377" filterUnits="userSpaceOnUse" color-interpolation-filters="sRGB">
<feFlood flood-opacity="0" result="BackgroundImageFix"/>
<feColorMatrix in="SourceAlpha" type="matrix" values="0 0 0 0 0 0 0 0 0 0 0 0 0 0 0 0 0 0 127 0" result="hardAlpha"/>
<feOffset dy="1.53229"/>
<feGaussianBlur stdDeviation="5.43964"/>
<feComposite in2="hardAlpha" operator="out"/>
<feColorMatrix type="matrix" values="0 0 0 0 0 0 0 0 0 0 0 0 0 0 0 0 0 0 0.15 0"/>
<feBlend mode="normal" in2="BackgroundImageFix" result="effect1_dropShadow_494_620"/>
<feBlend mode="normal" in="SourceGraphic" in2="effect1_dropShadow_494_620" result="shape"/>
</filter>
</defs>
</svg>
