<svg width="61" height="61" viewBox="0 0 61 61" fill="none" xmlns="http://www.w3.org/2000/svg">
<g filter="url(#filter0_i_200_251)">
<rect y="0.245361" width="60.4277" height="60.4277" rx="9" fill="#FC7B91"/>
<path fill-rule="evenodd" clip-rule="evenodd" d="M16.5319 18.2772C17.3758 17.4333 18.5204 16.9592 19.7139 16.9592H40.7139C41.9073 16.9592 43.0519 17.4333 43.8958 18.2772C44.7398 19.1212 45.2139 20.2658 45.2139 21.4592V23.7092C45.2139 24.5377 44.5423 25.2092 43.7139 25.2092C42.8854 25.2092 42.2139 24.5377 42.2139 23.7092V21.4592C42.2139 21.0614 42.0558 20.6799 41.7745 20.3986C41.4932 20.1173 41.1117 19.9592 40.7139 19.9592H19.7139C19.316 19.9592 18.9345 20.1173 18.6532 20.3986C18.3719 20.6799 18.2139 21.0614 18.2139 21.4592V42.4592C18.2139 42.8571 18.3719 43.2386 18.6532 43.5199C18.9345 43.8012 19.316 43.9592 19.7139 43.9592H24.9639C25.7923 43.9592 26.4639 44.6308 26.4639 45.4592C26.4639 46.2877 25.7923 46.9592 24.9639 46.9592H19.7139C18.5204 46.9592 17.3758 46.4851 16.5319 45.6412C15.688 44.7973 15.2139 43.6527 15.2139 42.4592V21.4592C15.2139 20.2658 15.688 19.1212 16.5319 18.2772Z" fill="white"/>
<path fill-rule="evenodd" clip-rule="evenodd" d="M36.2139 13.9592C37.0423 13.9592 37.7139 14.6308 37.7139 15.4592V21.4592C37.7139 22.2877 37.0423 22.9592 36.2139 22.9592C35.3854 22.9592 34.7139 22.2877 34.7139 21.4592V15.4592C34.7139 14.6308 35.3854 13.9592 36.2139 13.9592Z" fill="white"/>
<path fill-rule="evenodd" clip-rule="evenodd" d="M24.2139 13.9592C25.0423 13.9592 25.7139 14.6308 25.7139 15.4592V21.4592C25.7139 22.2877 25.0423 22.9592 24.2139 22.9592C23.3854 22.9592 22.7139 22.2877 22.7139 21.4592V15.4592C22.7139 14.6308 23.3854 13.9592 24.2139 13.9592Z" fill="white"/>
<path fill-rule="evenodd" clip-rule="evenodd" d="M15.2139 27.4592C15.2139 26.6308 15.8854 25.9592 16.7139 25.9592H24.2139C25.0423 25.9592 25.7139 26.6308 25.7139 27.4592C25.7139 28.2877 25.0423 28.9592 24.2139 28.9592H16.7139C15.8854 28.9592 15.2139 28.2877 15.2139 27.4592Z" fill="white"/>
<path fill-rule="evenodd" clip-rule="evenodd" d="M36.2139 31.9592C37.0423 31.9592 37.7139 32.6308 37.7139 33.4592V36.1883L39.4009 37.5379C40.0478 38.0554 40.1527 38.9994 39.6352 39.6463C39.1177 40.2932 38.1737 40.398 37.5268 39.8805L35.2768 38.0805C34.921 37.7959 34.7139 37.3649 34.7139 36.9092V33.4592C34.7139 32.6308 35.3854 31.9592 36.2139 31.9592Z" fill="white"/>
<path fill-rule="evenodd" clip-rule="evenodd" d="M36.2139 28.9592C32.0717 28.9592 28.7139 32.3171 28.7139 36.4592C28.7139 40.6014 32.0717 43.9592 36.2139 43.9592C40.356 43.9592 43.7139 40.6014 43.7139 36.4592C43.7139 32.3171 40.356 28.9592 36.2139 28.9592ZM25.7139 36.4592C25.7139 30.6602 30.4149 25.9592 36.2139 25.9592C42.0129 25.9592 46.7139 30.6602 46.7139 36.4592C46.7139 42.2582 42.0129 46.9592 36.2139 46.9592C30.4149 46.9592 25.7139 42.2582 25.7139 36.4592Z" fill="white"/>
</g>
<defs>
<filter id="filter0_i_200_251" x="-2" y="0.245361" width="62.4277" height="64.4277" filterUnits="userSpaceOnUse" color-interpolation-filters="sRGB">
<feFlood flood-opacity="0" result="BackgroundImageFix"/>
<feBlend mode="normal" in="SourceGraphic" in2="BackgroundImageFix" result="shape"/>
<feColorMatrix in="SourceAlpha" type="matrix" values="0 0 0 0 0 0 0 0 0 0 0 0 0 0 0 0 0 0 127 0" result="hardAlpha"/>
<feOffset dx="-2" dy="4"/>
<feGaussianBlur stdDeviation="7.05"/>
<feComposite in2="hardAlpha" operator="arithmetic" k2="-1" k3="1"/>
<feColorMatrix type="matrix" values="0 0 0 0 0.890196 0 0 0 0 0.270588 0 0 0 0 0.482353 0 0 0 1 0"/>
<feBlend mode="normal" in2="shape" result="effect1_innerShadow_200_251"/>
</filter>
</defs>
</svg>
