<svg width="61" height="61" viewBox="0 0 61 61" fill="none" xmlns="http://www.w3.org/2000/svg">
<g filter="url(#filter0_i_200_282)">
<rect y="0.245361" width="60.4277" height="60.4277" rx="9" fill="#FC7B91"/>
<path fill-rule="evenodd" clip-rule="evenodd" d="M15.2139 19.9592C16.0423 19.9592 16.7139 20.6308 16.7139 21.4592V42.4592C16.7139 42.8571 16.8719 43.2386 17.1532 43.5199C17.4345 43.8012 17.816 43.9592 18.2139 43.9592H39.2139C40.0423 43.9592 40.7139 44.6308 40.7139 45.4592C40.7139 46.2877 40.0423 46.9592 39.2139 46.9592H18.2139C17.0204 46.9592 15.8758 46.4851 15.0319 45.6412C14.188 44.7973 13.7139 43.6527 13.7139 42.4592V21.4592C13.7139 20.6308 14.3854 19.9592 15.2139 19.9592Z" fill="white"/>
<path fill-rule="evenodd" clip-rule="evenodd" d="M37.0973 28.9544C38.0565 27.9953 39.3574 27.4565 40.7139 27.4565C42.0703 27.4565 43.3712 27.9953 44.3304 28.9544L44.3305 28.9545L46.2745 30.8985C46.8603 31.4843 46.8603 32.434 46.2745 33.0198C45.6887 33.6056 44.739 33.6056 44.1532 33.0198L42.2093 31.0759C41.8127 30.6793 41.2747 30.4565 40.7139 30.4565C40.153 30.4565 39.6151 30.6793 39.2184 31.0759L29.7745 40.5198C29.1887 41.1056 28.239 41.1056 27.6532 40.5198C27.0674 39.934 27.0674 38.9843 27.6532 38.3985L37.0972 28.9545L37.0973 28.9544Z" fill="white"/>
<path fill-rule="evenodd" clip-rule="evenodd" d="M30.2139 22.9592C29.3854 22.9592 28.7139 23.6308 28.7139 24.4592C28.7139 25.2877 29.3854 25.9592 30.2139 25.9592C31.0423 25.9592 31.7139 25.2877 31.7139 24.4592C31.7139 23.6308 31.0423 22.9592 30.2139 22.9592ZM25.7139 24.4592C25.7139 21.9739 27.7286 19.9592 30.2139 19.9592C32.6991 19.9592 34.7139 21.9739 34.7139 24.4592C34.7139 26.9445 32.6991 28.9592 30.2139 28.9592C27.7286 28.9592 25.7139 26.9445 25.7139 24.4592Z" fill="white"/>
<path fill-rule="evenodd" clip-rule="evenodd" d="M24.2139 16.9592C23.3854 16.9592 22.7139 17.6308 22.7139 18.4592V36.4592C22.7139 37.2877 23.3854 37.9592 24.2139 37.9592H42.2139C43.0423 37.9592 43.7139 37.2877 43.7139 36.4592V18.4592C43.7139 17.6308 43.0423 16.9592 42.2139 16.9592H24.2139ZM19.7139 18.4592C19.7139 15.9739 21.7286 13.9592 24.2139 13.9592H42.2139C44.6992 13.9592 46.7139 15.9739 46.7139 18.4592V36.4592C46.7139 38.9445 44.6992 40.9592 42.2139 40.9592H24.2139C21.7286 40.9592 19.7139 38.9445 19.7139 36.4592V18.4592Z" fill="white"/>
</g>
<defs>
<filter id="filter0_i_200_282" x="-2" y="0.245361" width="62.4277" height="64.4277" filterUnits="userSpaceOnUse" color-interpolation-filters="sRGB">
<feFlood flood-opacity="0" result="BackgroundImageFix"/>
<feBlend mode="normal" in="SourceGraphic" in2="BackgroundImageFix" result="shape"/>
<feColorMatrix in="SourceAlpha" type="matrix" values="0 0 0 0 0 0 0 0 0 0 0 0 0 0 0 0 0 0 127 0" result="hardAlpha"/>
<feOffset dx="-2" dy="4"/>
<feGaussianBlur stdDeviation="7.05"/>
<feComposite in2="hardAlpha" operator="arithmetic" k2="-1" k3="1"/>
<feColorMatrix type="matrix" values="0 0 0 0 0.890196 0 0 0 0 0.270588 0 0 0 0 0.482353 0 0 0 1 0"/>
<feBlend mode="normal" in2="shape" result="effect1_innerShadow_200_282"/>
</filter>
</defs>
</svg>
