<svg width="30" height="31" viewBox="0 0 30 31" fill="none" xmlns="http://www.w3.org/2000/svg">
<rect y="0.120117" width="30" height="30" rx="5" fill="white"/>
<path d="M24.6714 11.5273L22.3686 12.7938L20.0659 14.9814V22.4883H23.2897C24.0529 22.4883 24.6714 21.8698 24.6714 21.1067V11.5273Z" fill="#4CAF50"/>
<path d="M5.32861 11.5273L6.99303 12.3149L9.93407 14.9814V22.4883H6.71025C5.94713 22.4883 5.32861 21.8698 5.32861 21.1067V11.5273Z" fill="#1E88E5"/>
<path d="M20.0659 9.22559L14.9999 13.0251L9.93393 9.22559L9.47339 11.8968L9.93393 14.9824L14.9999 18.7819L20.0659 14.9824L20.5265 11.8968L20.0659 9.22559Z" fill="#E53935"/>
<path d="M5.32861 9.73138V11.5284L9.93407 14.9825V9.2257L8.49533 8.14756C8.15268 7.89058 7.73635 7.75195 7.30804 7.75195C6.2147 7.75195 5.32861 8.63804 5.32861 9.73138Z" fill="#C62828"/>
<path d="M24.6714 9.73138V11.5284L20.0659 14.9825V9.2257L21.5047 8.14756C21.8473 7.89058 22.2636 7.75195 22.6919 7.75195C23.7853 7.75195 24.6714 8.63804 24.6714 9.73138Z" fill="#FBC02D"/>
</svg>
