<svg width="37" height="37" viewBox="0 0 37 37" fill="none" xmlns="http://www.w3.org/2000/svg">
<path fill-rule="evenodd" clip-rule="evenodd" d="M30.8297 5.46754C27.4423 2.0763 22.9377 0.207899 18.1383 0.205933C8.24931 0.205933 0.200709 8.25387 0.196849 18.1459C0.195466 21.3081 1.02163 24.3945 2.59173 27.1153L0.0463867 36.4123L9.55737 33.9175C12.1779 35.3468 15.1284 36.1002 18.1311 36.1012H18.1384C18.1378 36.1012 18.139 36.1012 18.1384 36.1012C28.0264 36.1012 36.0756 28.0525 36.0798 18.1602C36.0815 13.3663 34.217 8.85864 30.8297 5.46754ZM18.1383 33.0712H18.1323C15.4566 33.0702 12.8321 32.3512 10.5425 30.9926L9.99805 30.6695L4.3541 32.1499L5.86062 26.6472L5.50602 26.0829C4.01333 23.7087 3.22497 20.9646 3.22613 18.1469C3.22934 9.92506 9.91903 3.23609 18.1444 3.23609C22.1274 3.23733 25.8715 4.79053 28.687 7.6092C31.5024 10.4279 33.052 14.1745 33.0504 18.159C33.0471 26.3815 26.3576 33.0712 18.1383 33.0712Z" fill="#25D366"/>
<path fill-rule="evenodd" clip-rule="evenodd" d="M26.318 21.9027C25.8697 21.6783 23.6657 20.594 23.2548 20.4443C22.8439 20.2947 22.545 20.2199 22.2462 20.6686C21.9474 21.1173 21.0882 22.1272 20.8267 22.4264C20.5652 22.7255 20.3036 22.7631 19.8554 22.5385C19.4072 22.3141 17.9627 21.8408 16.2505 20.3135C14.9177 19.1248 14.0181 17.6568 13.7565 17.2079C13.495 16.7592 13.7286 16.5166 13.9531 16.2931C14.1548 16.0921 14.4014 15.7695 14.6256 15.5077C14.8497 15.246 14.9244 15.0588 15.0738 14.7599C15.2233 14.4606 15.1486 14.1988 15.0365 13.9745C14.9244 13.7501 14.0279 11.5436 13.6543 10.6458C13.2904 9.77182 12.9208 9.89024 12.6456 9.87633C12.3845 9.86329 12.0853 9.8606 11.7865 9.8606C11.4876 9.8606 11.0019 9.97282 10.5911 10.4215C10.1802 10.8704 9.02197 11.955 9.02197 14.1613C9.02197 16.3679 10.6283 18.4996 10.8525 18.7987C11.0766 19.098 14.0136 23.6259 18.5106 25.5677C19.5802 26.0297 20.4152 26.3055 21.0662 26.512C22.1401 26.8533 23.1174 26.8051 23.8898 26.6896C24.7512 26.561 26.5422 25.6052 26.9157 24.5582C27.2893 23.5109 27.2893 22.6132 27.1771 22.4264C27.0651 22.2394 26.7662 22.1272 26.318 21.9027Z" fill="#25D366"/>
</svg>
