<svg width="61" height="61" viewBox="0 0 61 61" fill="none" xmlns="http://www.w3.org/2000/svg">
<g filter="url(#filter0_i_200_307)">
<rect y="0.245361" width="60.4277" height="60.4277" rx="9" fill="#FC7B91"/>
<path fill-rule="evenodd" clip-rule="evenodd" d="M15.2139 25.9592C15.2139 24.3024 16.557 22.9592 18.2139 22.9592H42.2139C43.8707 22.9592 45.2139 24.3024 45.2139 25.9592V28.9592C45.2139 30.6161 43.8707 31.9592 42.2139 31.9592H18.2139C16.557 31.9592 15.2139 30.6161 15.2139 28.9592V25.9592ZM42.2139 25.9592H18.2139V28.9592H42.2139V25.9592Z" fill="white"/>
<path fill-rule="evenodd" clip-rule="evenodd" d="M30.2139 22.9592C31.0423 22.9592 31.7139 23.6308 31.7139 24.4592V43.9592C31.7139 44.7877 31.0423 45.4592 30.2139 45.4592C29.3854 45.4592 28.7139 44.7877 28.7139 43.9592V24.4592C28.7139 23.6308 29.3854 22.9592 30.2139 22.9592Z" fill="white"/>
<path fill-rule="evenodd" clip-rule="evenodd" d="M19.7139 28.9592C20.5423 28.9592 21.2139 29.6308 21.2139 30.4592V40.9592C21.2139 41.3571 21.3719 41.7386 21.6532 42.0199C21.9345 42.3012 22.316 42.4592 22.7139 42.4592H37.7139C38.1117 42.4592 38.4932 42.3012 38.7745 42.0199C39.0558 41.7386 39.2139 41.3571 39.2139 40.9592V30.4592C39.2139 29.6308 39.8854 28.9592 40.7139 28.9592C41.5423 28.9592 42.2139 29.6308 42.2139 30.4592V40.9592C42.2139 42.1527 41.7398 43.2973 40.8958 44.1412C40.0519 44.9851 38.9073 45.4592 37.7139 45.4592H22.7139C21.5204 45.4592 20.3758 44.9851 19.5319 44.1412C18.688 43.2973 18.2139 42.1527 18.2139 40.9592V30.4592C18.2139 29.6308 18.8854 28.9592 19.7139 28.9592Z" fill="white"/>
<path fill-rule="evenodd" clip-rule="evenodd" d="M26.418 19.9774C25.4279 18.8772 24.4 18.4431 23.49 18.4589L23.4639 18.4592C22.8671 18.4592 22.2948 18.6962 21.8729 19.1182C21.4509 19.5401 21.2139 20.1124 21.2139 20.7092C21.2139 21.3059 21.4509 21.8782 21.8729 22.3002C22.2948 22.7221 22.8671 22.9592 23.4639 22.9592C24.2923 22.9592 24.9639 23.6307 24.9639 24.4592C24.9639 25.2876 24.2923 25.9592 23.4639 25.9592C22.0715 25.9592 20.7361 25.406 19.7516 24.4215C18.767 23.4369 18.2139 22.1015 18.2139 20.7092C18.2139 19.3168 18.767 17.9814 19.7516 16.9969C20.733 16.0154 22.063 15.4627 23.4507 15.4592C25.4297 15.429 27.233 16.3983 28.6479 17.9705C29.2384 18.6266 29.7619 19.3859 30.2139 20.224C30.6659 19.3859 31.1893 18.6266 31.7798 17.9705C33.1947 16.3983 34.9981 15.429 36.9771 15.4592C38.3647 15.4627 39.6947 16.0154 40.6762 16.9969C41.6607 17.9814 42.2139 19.3168 42.2139 20.7092C42.2139 22.1015 41.6607 23.4369 40.6762 24.4215C39.6916 25.406 38.3563 25.9592 36.9639 25.9592C36.1354 25.9592 35.4639 25.2876 35.4639 24.4592C35.4639 23.6307 36.1354 22.9592 36.9639 22.9592C37.5606 22.9592 38.1329 22.7221 38.5549 22.3002C38.9768 21.8782 39.2139 21.3059 39.2139 20.7092C39.2139 20.1124 38.9768 19.5401 38.5549 19.1182C38.1329 18.6962 37.5606 18.4592 36.9639 18.4592L36.9377 18.4589C36.0278 18.4431 34.9999 18.8772 34.0097 19.9774C33.0119 21.086 32.1714 22.7531 31.6716 24.8129C31.5083 25.4855 30.906 25.9592 30.2139 25.9592C29.5217 25.9592 28.9194 25.4855 28.7562 24.8129C28.2563 22.7531 27.4158 21.086 26.418 19.9774Z" fill="white"/>
</g>
<defs>
<filter id="filter0_i_200_307" x="-2" y="0.245361" width="62.4277" height="64.4277" filterUnits="userSpaceOnUse" color-interpolation-filters="sRGB">
<feFlood flood-opacity="0" result="BackgroundImageFix"/>
<feBlend mode="normal" in="SourceGraphic" in2="BackgroundImageFix" result="shape"/>
<feColorMatrix in="SourceAlpha" type="matrix" values="0 0 0 0 0 0 0 0 0 0 0 0 0 0 0 0 0 0 127 0" result="hardAlpha"/>
<feOffset dx="-2" dy="4"/>
<feGaussianBlur stdDeviation="7.05"/>
<feComposite in2="hardAlpha" operator="arithmetic" k2="-1" k3="1"/>
<feColorMatrix type="matrix" values="0 0 0 0 0.890196 0 0 0 0 0.270588 0 0 0 0 0.482353 0 0 0 1 0"/>
<feBlend mode="normal" in2="shape" result="effect1_innerShadow_200_307"/>
</filter>
</defs>
</svg>
