<svg width="30" height="31" viewBox="0 0 30 31" fill="none" xmlns="http://www.w3.org/2000/svg">
<g clip-path="url(#clip0_403_255)">
<path d="M23.0829 0.120117H6.91736C3.09714 0.120117 0.000244141 3.21701 0.000244141 7.03723V23.2027C0.000244141 27.023 3.09714 30.1199 6.91736 30.1199H23.0829C26.9031 30.1199 30 27.023 30 23.2027V7.03723C30 3.21701 26.9031 0.120117 23.0829 0.120117Z" fill="url(#paint0_linear_403_255)"/>
<path d="M19.3946 6.87168C20.4291 6.87584 21.42 7.28863 22.1515 8.02011C22.883 8.75159 23.2957 9.74249 23.2999 10.777V19.4641C23.2957 20.4985 22.883 21.4894 22.1515 22.2209C21.42 22.9524 20.4291 23.3652 19.3946 23.3693H10.6056C9.57111 23.3652 8.5802 22.9524 7.84872 22.2209C7.11724 21.4894 6.70446 20.4985 6.70029 19.4641V10.777C6.70446 9.74249 7.11724 8.75159 7.84872 8.02011C8.5802 7.28863 9.57111 6.87584 10.6056 6.87168H19.3946ZM19.3946 5.05527H10.6056C7.4585 5.05527 4.8833 7.6334 4.8833 10.7775V19.4641C4.8833 22.6111 7.46143 25.1863 10.6056 25.1863H19.3946C22.5417 25.1863 25.1169 22.6082 25.1169 19.4641V10.777C25.1169 7.62988 22.5417 5.05469 19.3946 5.05469V5.05527Z" fill="white"/>
<path d="M15 11.7295C15.6706 11.7295 16.3262 11.9284 16.8838 12.3009C17.4414 12.6735 17.876 13.2031 18.1327 13.8227C18.3893 14.4423 18.4565 15.1241 18.3256 15.7818C18.1948 16.4396 17.8718 17.0438 17.3976 17.518C16.9234 17.9922 16.3192 18.3151 15.6615 18.446C15.0037 18.5768 14.3219 18.5097 13.7023 18.253C13.0828 17.9964 12.5532 17.5618 12.1806 17.0042C11.808 16.4465 11.6091 15.791 11.6091 15.1203C11.6102 14.2213 11.9678 13.3595 12.6035 12.7238C13.2391 12.0882 14.101 11.7306 15 11.7295ZM15 9.91309C13.9701 9.91309 12.9633 10.2185 12.107 10.7907C11.2506 11.3628 10.5832 12.1761 10.1891 13.1276C9.79498 14.0791 9.69186 15.1261 9.89278 16.1362C10.0937 17.1463 10.5896 18.0741 11.3179 18.8024C12.0461 19.5306 12.974 20.0266 13.9841 20.2275C14.9942 20.4284 16.0412 20.3253 16.9927 19.9312C17.9442 19.537 18.7574 18.8696 19.3296 18.0133C19.9018 17.157 20.2072 16.1502 20.2072 15.1203C20.2072 13.7393 19.6586 12.4148 18.682 11.4382C17.7055 10.4617 16.381 9.91309 15 9.91309Z" fill="white"/>
<path d="M20.321 10.9193C21.0028 10.9193 21.5556 10.3666 21.5556 9.68477C21.5556 9.00293 21.0028 8.4502 20.321 8.4502C19.6392 8.4502 19.0864 9.00293 19.0864 9.68477C19.0864 10.3666 19.6392 10.9193 20.321 10.9193Z" fill="white"/>
</g>
<defs>
<linearGradient id="paint0_linear_403_255" x1="6.51549" y1="27.8023" x2="30" y2="-3.855" gradientUnits="userSpaceOnUse">
<stop stop-color="#FFDB73"/>
<stop offset="0.08" stop-color="#FDAD4E"/>
<stop offset="0.15" stop-color="#FB832E"/>
<stop offset="0.19" stop-color="#FA7321"/>
<stop offset="0.23" stop-color="#F6692F"/>
<stop offset="0.37" stop-color="#E84A5A"/>
<stop offset="0.48" stop-color="#E03675"/>
<stop offset="0.55" stop-color="#DD2F7F"/>
<stop offset="0.824" stop-color="#B43D97"/>
</linearGradient>
<clipPath id="clip0_403_255">
<rect width="30" height="30" fill="white" transform="translate(0 0.120117)"/>
</clipPath>
</defs>
</svg>
