<svg width="61" height="61" viewBox="0 0 61 61" fill="none" xmlns="http://www.w3.org/2000/svg">
<g filter="url(#filter0_i_200_332)">
<rect y="0.245117" width="60.4277" height="60.4277" rx="9" fill="#FC7B91"/>
<path fill-rule="evenodd" clip-rule="evenodd" d="M21.9639 16.959C21.3671 16.959 20.7948 17.196 20.3729 17.618C19.9509 18.04 19.7139 18.6122 19.7139 19.209V36.9656C20.4105 36.6351 21.1781 36.459 21.9639 36.459H40.7139V16.959H21.9639ZM43.7139 15.459C43.7139 14.6306 43.0423 13.959 42.2139 13.959H21.9639C20.5715 13.959 19.2361 14.5121 18.2516 15.4967C17.267 16.4812 16.7139 17.8166 16.7139 19.209V41.709C16.7139 43.1014 17.267 44.4367 18.2516 45.4213C19.2361 46.4059 20.5715 46.959 21.9639 46.959H42.2139C43.0423 46.959 43.7139 46.2874 43.7139 45.459V15.459ZM40.7139 39.459H21.9639C21.3671 39.459 20.7948 39.696 20.3729 40.118C19.9509 40.54 19.7139 41.1122 19.7139 41.709C19.7139 42.3057 19.9509 42.878 20.3729 43.3C20.7948 43.7219 21.3671 43.959 21.9639 43.959H40.7139V39.459Z" fill="white"/>
<path fill-rule="evenodd" clip-rule="evenodd" d="M30.2139 22.959C29.3854 22.959 28.7139 23.6306 28.7139 24.459C28.7139 25.2874 29.3854 25.959 30.2139 25.959C31.0423 25.959 31.7139 25.2874 31.7139 24.459C31.7139 23.6306 31.0423 22.959 30.2139 22.959ZM25.7139 24.459C25.7139 21.9737 27.7286 19.959 30.2139 19.959C32.6991 19.959 34.7139 21.9737 34.7139 24.459C34.7139 26.9443 32.6991 28.959 30.2139 28.959C27.7286 28.959 25.7139 26.9443 25.7139 24.459Z" fill="white"/>
<path fill-rule="evenodd" clip-rule="evenodd" d="M25.9712 27.7163C27.0964 26.5911 28.6226 25.959 30.2139 25.959C31.8052 25.959 33.3313 26.5911 34.4565 27.7163C35.5817 28.8416 36.2139 30.3677 36.2139 31.959C36.2139 32.7874 35.5423 33.459 34.7139 33.459C33.8854 33.459 33.2139 32.7874 33.2139 31.959C33.2139 31.1633 32.8978 30.4003 32.3352 29.8377C31.7726 29.2751 31.0095 28.959 30.2139 28.959C29.4182 28.959 28.6552 29.2751 28.0925 29.8377C27.5299 30.4003 27.2139 31.1633 27.2139 31.959C27.2139 32.7874 26.5423 33.459 25.7139 33.459C24.8854 33.459 24.2139 32.7874 24.2139 31.959C24.2139 30.3677 24.846 28.8416 25.9712 27.7163Z" fill="white"/>
</g>
<defs>
<filter id="filter0_i_200_332" x="-2" y="0.245117" width="62.4277" height="64.4277" filterUnits="userSpaceOnUse" color-interpolation-filters="sRGB">
<feFlood flood-opacity="0" result="BackgroundImageFix"/>
<feBlend mode="normal" in="SourceGraphic" in2="BackgroundImageFix" result="shape"/>
<feColorMatrix in="SourceAlpha" type="matrix" values="0 0 0 0 0 0 0 0 0 0 0 0 0 0 0 0 0 0 127 0" result="hardAlpha"/>
<feOffset dx="-2" dy="4"/>
<feGaussianBlur stdDeviation="7.05"/>
<feComposite in2="hardAlpha" operator="arithmetic" k2="-1" k3="1"/>
<feColorMatrix type="matrix" values="0 0 0 0 0.890196 0 0 0 0 0.270588 0 0 0 0 0.482353 0 0 0 1 0"/>
<feBlend mode="normal" in2="shape" result="effect1_innerShadow_200_332"/>
</filter>
</defs>
</svg>
