<svg width="61" height="61" viewBox="0 0 61 61" fill="none" xmlns="http://www.w3.org/2000/svg">
<g filter="url(#filter0_i_200_295)">
<rect y="0.245361" width="60.4277" height="60.4277" rx="9" fill="#FC7B91"/>
<path fill-rule="evenodd" clip-rule="evenodd" d="M30.2139 16.9592C28.2247 16.9592 26.3171 17.7494 24.9106 19.1559C23.504 20.5625 22.7139 22.4701 22.7139 24.4592C22.7139 27.2417 24.6196 30.2516 26.835 32.7439C27.9075 33.9505 28.9847 34.9608 29.7954 35.6702C29.9449 35.801 30.085 35.9213 30.2139 36.0303C30.3428 35.9213 30.4828 35.801 30.6324 35.6702C31.4431 34.9608 32.5202 33.9505 33.5928 32.7439C35.8082 30.2516 37.7139 27.2417 37.7139 24.4592C37.7139 22.4701 36.9237 20.5625 35.5172 19.1559C34.1106 17.7494 32.203 16.9592 30.2139 16.9592ZM30.2139 37.9592C29.3139 39.1592 29.3136 39.159 29.3132 39.1587L29.3123 39.1581L29.31 39.1563L29.3028 39.1509L29.2788 39.1327C29.2587 39.1173 29.2302 39.0955 29.1939 39.0674C29.1214 39.0112 29.0178 38.93 28.8876 38.8253C28.6271 38.616 28.2593 38.3125 27.8199 37.9279C26.9431 37.1607 25.7702 36.0617 24.5928 34.737C22.3082 32.1669 19.7139 28.4268 19.7139 24.4592C19.7139 21.6745 20.8201 19.0037 22.7892 17.0346C24.7584 15.0655 27.4291 13.9592 30.2139 13.9592C32.9986 13.9592 35.6694 15.0655 37.6385 17.0346C39.6076 19.0037 40.7139 21.6745 40.7139 24.4592C40.7139 28.4268 38.1196 32.1669 35.835 34.737C34.6575 36.0617 33.4847 37.1607 32.6079 37.9279C32.1684 38.3125 31.8006 38.616 31.5402 38.8253C31.4099 38.93 31.3063 39.0112 31.2338 39.0674C31.1975 39.0955 31.1691 39.1173 31.1489 39.1327L31.1249 39.1509L31.1178 39.1563L31.1154 39.1581L31.1145 39.1587C31.1142 39.159 31.1139 39.1592 30.2139 37.9592ZM30.2139 37.9592L31.1139 39.1592C30.5805 39.5592 29.8472 39.5592 29.3139 39.1592L30.2139 37.9592Z" fill="white"/>
<path fill-rule="evenodd" clip-rule="evenodd" d="M30.2139 22.9592C29.3854 22.9592 28.7139 23.6308 28.7139 24.4592C28.7139 25.2877 29.3854 25.9592 30.2139 25.9592C31.0423 25.9592 31.7139 25.2877 31.7139 24.4592C31.7139 23.6308 31.0423 22.9592 30.2139 22.9592ZM25.7139 24.4592C25.7139 21.9739 27.7286 19.9592 30.2139 19.9592C32.6991 19.9592 34.7139 21.9739 34.7139 24.4592C34.7139 26.9445 32.6991 28.9592 30.2139 28.9592C27.7286 28.9592 25.7139 26.9445 25.7139 24.4592Z" fill="white"/>
<path fill-rule="evenodd" clip-rule="evenodd" d="M19.6322 31.9615C19.6594 31.96 19.6866 31.9592 19.7138 31.9592H25.4663C26.2947 31.9592 26.9663 32.6308 26.9663 33.4592C26.9663 34.2877 26.2947 34.9592 25.4663 34.9592H19.7947L19.7868 34.9836L16.7949 43.9592H43.6327L40.6408 34.9836L40.6329 34.9592H34.9613C34.1329 34.9592 33.4613 34.2877 33.4613 33.4592C33.4613 32.6308 34.1329 31.9592 34.9613 31.9592H40.7138C40.741 31.9592 40.7682 31.96 40.7954 31.9615C41.4058 31.9947 41.9915 32.2136 42.474 32.5889C42.9522 32.9609 43.3065 33.4689 43.4905 34.0458L46.4109 42.8072C46.7171 43.2967 46.7147 43.7749 46.7139 43.9383C46.7138 43.946 46.7138 43.953 46.7138 43.9592C46.7138 44.7501 46.4436 45.5257 45.862 46.1074C45.2803 46.6891 44.5047 46.9592 43.7138 46.9592H16.7138C15.9229 46.9592 15.1473 46.6891 14.5656 46.1074C13.984 45.5257 13.7138 44.7501 13.7138 43.9592C13.7138 43.953 13.7138 43.946 13.7137 43.9383C13.7129 43.7749 13.7105 43.2967 14.0167 42.8072L16.9371 34.0459C17.121 33.4689 17.4753 32.9609 17.9536 32.5889C18.4361 32.2136 19.0218 31.9947 19.6322 31.9615ZM43.7132 43.9185C43.7132 43.9185 43.7133 43.9211 43.7135 43.9268L43.7132 43.9185ZM16.7144 43.9185C16.7145 43.9187 16.7144 43.9216 16.7141 43.9268L16.7144 43.9185Z" fill="white"/>
</g>
<defs>
<filter id="filter0_i_200_295" x="-2" y="0.245361" width="62.4277" height="64.4277" filterUnits="userSpaceOnUse" color-interpolation-filters="sRGB">
<feFlood flood-opacity="0" result="BackgroundImageFix"/>
<feBlend mode="normal" in="SourceGraphic" in2="BackgroundImageFix" result="shape"/>
<feColorMatrix in="SourceAlpha" type="matrix" values="0 0 0 0 0 0 0 0 0 0 0 0 0 0 0 0 0 0 127 0" result="hardAlpha"/>
<feOffset dx="-2" dy="4"/>
<feGaussianBlur stdDeviation="7.05"/>
<feComposite in2="hardAlpha" operator="arithmetic" k2="-1" k3="1"/>
<feColorMatrix type="matrix" values="0 0 0 0 0.890196 0 0 0 0 0.270588 0 0 0 0 0.482353 0 0 0 1 0"/>
<feBlend mode="normal" in2="shape" result="effect1_innerShadow_200_295"/>
</filter>
</defs>
</svg>
