<svg width="61" height="61" viewBox="0 0 61 61" fill="none" xmlns="http://www.w3.org/2000/svg">
<g filter="url(#filter0_i_200_266)">
<rect y="0.245361" width="60.4277" height="60.4277" rx="9" fill="#FC7B91"/>
<path fill-rule="evenodd" clip-rule="evenodd" d="M30.2139 16.9592C28.9712 16.9592 27.9639 17.9666 27.9639 19.2092C27.9639 20.4519 28.9712 21.4592 30.2139 21.4592C31.4565 21.4592 32.4639 20.4519 32.4639 19.2092C32.4639 17.9666 31.4565 16.9592 30.2139 16.9592ZM24.9639 19.2092C24.9639 16.3097 27.3144 13.9592 30.2139 13.9592C33.1134 13.9592 35.4639 16.3097 35.4639 19.2092C35.4639 22.1087 33.1134 24.4592 30.2139 24.4592C27.3144 24.4592 24.9639 22.1087 24.9639 19.2092Z" fill="white"/>
<path fill-rule="evenodd" clip-rule="evenodd" d="M28.5745 20.8485C29.1603 21.4343 29.1603 22.3841 28.5745 22.9698L22.7245 28.8198C22.1387 29.4056 21.1889 29.4056 20.6032 28.8198C20.0174 28.2341 20.0174 27.2843 20.6032 26.6985L26.4532 20.8485C27.0389 20.2627 27.9887 20.2627 28.5745 20.8485Z" fill="white"/>
<path fill-rule="evenodd" clip-rule="evenodd" d="M18.9639 28.2092C17.7212 28.2092 16.7139 29.2166 16.7139 30.4592C16.7139 31.7019 17.7212 32.7092 18.9639 32.7092C20.2065 32.7092 21.2139 31.7019 21.2139 30.4592C21.2139 29.2166 20.2065 28.2092 18.9639 28.2092ZM13.7139 30.4592C13.7139 27.5597 16.0644 25.2092 18.9639 25.2092C21.8634 25.2092 24.2139 27.5597 24.2139 30.4592C24.2139 33.3587 21.8634 35.7092 18.9639 35.7092C16.0644 35.7092 13.7139 33.3587 13.7139 30.4592Z" fill="white"/>
<path fill-rule="evenodd" clip-rule="evenodd" d="M21.2139 30.4592C21.2139 29.6308 21.8854 28.9592 22.7139 28.9592H37.7139C38.5423 28.9592 39.2139 29.6308 39.2139 30.4592C39.2139 31.2877 38.5423 31.9592 37.7139 31.9592H22.7139C21.8854 31.9592 21.2139 31.2877 21.2139 30.4592Z" fill="white"/>
<path fill-rule="evenodd" clip-rule="evenodd" d="M41.4639 28.2092C40.2212 28.2092 39.2139 29.2166 39.2139 30.4592C39.2139 31.7019 40.2212 32.7092 41.4639 32.7092C42.7065 32.7092 43.7139 31.7019 43.7139 30.4592C43.7139 29.2166 42.7065 28.2092 41.4639 28.2092ZM36.2139 30.4592C36.2139 27.5597 38.5644 25.2092 41.4639 25.2092C44.3634 25.2092 46.7139 27.5597 46.7139 30.4592C46.7139 33.3587 44.3634 35.7092 41.4639 35.7092C38.5644 35.7092 36.2139 33.3587 36.2139 30.4592Z" fill="white"/>
<path fill-rule="evenodd" clip-rule="evenodd" d="M39.8245 32.0985C40.4103 32.6843 40.4103 33.6341 39.8245 34.2198L33.9745 40.0698C33.3887 40.6556 32.4389 40.6556 31.8532 40.0698C31.2674 39.4841 31.2674 38.5343 31.8532 37.9485L37.7032 32.0985C38.2889 31.5127 39.2387 31.5127 39.8245 32.0985Z" fill="white"/>
<path fill-rule="evenodd" clip-rule="evenodd" d="M30.2139 39.4592C28.9712 39.4592 27.9639 40.4666 27.9639 41.7092C27.9639 42.9519 28.9712 43.9592 30.2139 43.9592C31.4565 43.9592 32.4639 42.9519 32.4639 41.7092C32.4639 40.4666 31.4565 39.4592 30.2139 39.4592ZM24.9639 41.7092C24.9639 38.8097 27.3144 36.4592 30.2139 36.4592C33.1134 36.4592 35.4639 38.8097 35.4639 41.7092C35.4639 44.6087 33.1134 46.9592 30.2139 46.9592C27.3144 46.9592 24.9639 44.6087 24.9639 41.7092Z" fill="white"/>
</g>
<defs>
<filter id="filter0_i_200_266" x="-2" y="0.245361" width="62.4277" height="64.4277" filterUnits="userSpaceOnUse" color-interpolation-filters="sRGB">
<feFlood flood-opacity="0" result="BackgroundImageFix"/>
<feBlend mode="normal" in="SourceGraphic" in2="BackgroundImageFix" result="shape"/>
<feColorMatrix in="SourceAlpha" type="matrix" values="0 0 0 0 0 0 0 0 0 0 0 0 0 0 0 0 0 0 127 0" result="hardAlpha"/>
<feOffset dx="-2" dy="4"/>
<feGaussianBlur stdDeviation="7.05"/>
<feComposite in2="hardAlpha" operator="arithmetic" k2="-1" k3="1"/>
<feColorMatrix type="matrix" values="0 0 0 0 0.890196 0 0 0 0 0.270588 0 0 0 0 0.482353 0 0 0 1 0"/>
<feBlend mode="normal" in2="shape" result="effect1_innerShadow_200_266"/>
</filter>
</defs>
</svg>
