<svg width="61" height="61" viewBox="0 0 61 61" fill="none" xmlns="http://www.w3.org/2000/svg">
<g filter="url(#filter0_i_200_344)">
<rect y="0.245117" width="60.4277" height="60.4277" rx="9" fill="#FC7B91"/>
<path fill-rule="evenodd" clip-rule="evenodd" d="M33.2139 34.959C32.3854 34.959 31.7139 35.6306 31.7139 36.459C31.7139 37.2874 32.3854 37.959 33.2139 37.959C34.0423 37.959 34.7139 37.2874 34.7139 36.459C34.7139 35.6306 34.0423 34.959 33.2139 34.959ZM28.7139 36.459C28.7139 33.9737 30.7286 31.959 33.2139 31.959C35.6991 31.959 37.7139 33.9737 37.7139 36.459C37.7139 38.9443 35.6991 40.959 33.2139 40.959C30.7286 40.959 28.7139 38.9443 28.7139 36.459Z" fill="white"/>
<path fill-rule="evenodd" clip-rule="evenodd" d="M21.2139 37.959C20.3854 37.959 19.7139 38.6306 19.7139 39.459C19.7139 40.2874 20.3854 40.959 21.2139 40.959C22.0423 40.959 22.7139 40.2874 22.7139 39.459C22.7139 38.6306 22.0423 37.959 21.2139 37.959ZM16.7139 39.459C16.7139 36.9737 18.7286 34.959 21.2139 34.959C23.6991 34.959 25.7139 36.9737 25.7139 39.459C25.7139 41.9443 23.6991 43.959 21.2139 43.959C18.7286 43.959 16.7139 41.9443 16.7139 39.459Z" fill="white"/>
<path fill-rule="evenodd" clip-rule="evenodd" d="M21.2139 16.959C20.816 16.959 20.4345 17.117 20.1532 17.3983C19.8719 17.6796 19.7139 18.0612 19.7139 18.459V31.059C19.7139 31.8874 19.0423 32.559 18.2139 32.559C17.3854 32.559 16.7139 31.8874 16.7139 31.059V18.459C16.7139 17.2655 17.188 16.1209 18.0319 15.277C18.8758 14.4331 20.0204 13.959 21.2139 13.959H33.9639C34.3617 13.959 34.7432 14.117 35.0245 14.3983L43.2745 22.6483C43.5558 22.9296 43.7139 23.3112 43.7139 23.709V42.459C43.7139 43.6525 43.2398 44.7971 42.3958 45.641C41.5519 46.4849 40.4073 46.959 39.2139 46.959H27.9639C27.1354 46.959 26.4639 46.2874 26.4639 45.459C26.4639 44.6306 27.1354 43.959 27.9639 43.959H39.2139C39.6117 43.959 39.9932 43.8009 40.2745 43.5196C40.5558 43.2383 40.7139 42.8568 40.7139 42.459V24.3303L33.3425 16.959H21.2139Z" fill="white"/>
<path fill-rule="evenodd" clip-rule="evenodd" d="M37.1857 24.8164C37.5208 25.1014 37.7139 25.5191 37.7139 25.959V36.459C37.7139 37.2874 37.0423 37.959 36.2139 37.959C35.3854 37.959 34.7139 37.2874 34.7139 36.459V27.7224L25.7139 29.1849V39.459C25.7139 40.2874 25.0423 40.959 24.2139 40.959C23.3854 40.959 22.7139 40.2874 22.7139 39.459V27.909C22.7139 27.1734 23.2472 26.5464 23.9733 26.4284L35.9733 24.4784C36.4074 24.4079 36.8507 24.5314 37.1857 24.8164Z" fill="white"/>
</g>
<defs>
<filter id="filter0_i_200_344" x="-2" y="0.245117" width="62.4277" height="64.4277" filterUnits="userSpaceOnUse" color-interpolation-filters="sRGB">
<feFlood flood-opacity="0" result="BackgroundImageFix"/>
<feBlend mode="normal" in="SourceGraphic" in2="BackgroundImageFix" result="shape"/>
<feColorMatrix in="SourceAlpha" type="matrix" values="0 0 0 0 0 0 0 0 0 0 0 0 0 0 0 0 0 0 127 0" result="hardAlpha"/>
<feOffset dx="-2" dy="4"/>
<feGaussianBlur stdDeviation="7.05"/>
<feComposite in2="hardAlpha" operator="arithmetic" k2="-1" k3="1"/>
<feColorMatrix type="matrix" values="0 0 0 0 0.890196 0 0 0 0 0.270588 0 0 0 0 0.482353 0 0 0 1 0"/>
<feBlend mode="normal" in2="shape" result="effect1_innerShadow_200_344"/>
</filter>
</defs>
</svg>
