<svg width="30" height="31" viewBox="0 0 30 31" fill="none" xmlns="http://www.w3.org/2000/svg">
<g clip-path="url(#clip0_403_260)">
<path d="M25.0123 0.174805H4.98668C2.23207 0.174805 -0.000976562 2.40785 -0.000976562 5.16246V25.1881C-0.000976562 27.9427 2.23207 30.1757 4.98668 30.1757H25.0123C27.7669 30.1757 30 27.9427 30 25.1881V5.16246C30 2.40785 27.7669 0.174805 25.0123 0.174805Z" fill="#232323"/>
<path d="M22.8158 13.1236V9.77969C18.4447 9.59512 18.3041 5.62305 18.3041 5.2498V5.22168H14.9255V18.2453C14.9252 18.8081 14.7473 19.3564 14.4173 19.8123C14.0873 20.2682 13.622 20.6084 13.0875 20.7845C12.5529 20.9607 11.9765 20.9638 11.4401 20.7934C10.9037 20.623 10.4348 20.2878 10.0999 19.8355C9.76503 19.3831 9.58133 18.8367 9.57493 18.274C9.56853 17.7112 9.73976 17.1608 10.0643 16.701C10.3887 16.2412 10.85 15.8954 11.3823 15.7128C11.9147 15.5303 12.4911 15.5202 13.0294 15.6842V12.2354C12.7706 12.2021 12.5099 12.1855 12.249 12.1855C11.0505 12.1855 9.87888 12.5409 8.88235 13.2068C7.88583 13.8727 7.10913 14.8191 6.65048 15.9263C6.19183 17.0336 6.07183 18.252 6.30565 19.4275C6.53947 20.603 7.1166 21.6827 7.96408 22.5302C8.81155 23.3777 9.8913 23.9548 11.0668 24.1886C12.2423 24.4225 13.4607 24.3025 14.5679 23.8438C15.6752 23.3852 16.6216 22.6085 17.2875 21.6119C17.9533 20.6154 18.3087 19.4438 18.3087 18.2453C18.3087 18.1604 18.3087 18.076 18.3029 17.9922V11.5791C19.8585 13.0023 22.8158 13.1236 22.8158 13.1236Z" fill="#00F6EF"/>
<path d="M23.8106 13.9486V10.6029C19.439 10.4184 19.2989 6.44629 19.2989 6.07305V6.04492H15.9204V19.0686C15.9202 19.6314 15.7424 20.1798 15.4125 20.6357C15.0826 21.0917 14.6173 21.432 14.0827 21.6082C13.5482 21.7845 12.9718 21.7876 12.4353 21.6173C11.8989 21.447 11.4299 21.1118 11.0949 20.6595C10.76 20.2072 10.5763 19.6608 10.5698 19.098C10.5634 18.5353 10.7346 17.9848 11.059 17.5249C11.3835 17.0651 11.8448 16.7192 12.3771 16.5367C12.9095 16.3541 13.4859 16.3441 14.0243 16.508V13.0586C13.7649 13.0261 13.5036 13.0102 13.2421 13.0111C12.0436 13.0115 10.872 13.3672 9.8757 14.0334C8.87936 14.6996 8.10294 15.6462 7.64463 16.7537C7.18632 17.8611 7.0667 19.0796 7.30091 20.255C7.53511 21.4305 8.11262 22.51 8.9604 23.3573C9.80818 24.2045 10.8881 24.7812 12.0637 25.0146C13.2393 25.2481 14.4577 25.1276 15.5649 24.6686C16.672 24.2095 17.6181 23.4324 18.2836 22.4356C18.9491 21.4388 19.3041 20.2671 19.3036 19.0686C19.3036 18.9836 19.3036 18.8992 19.2978 18.8154V12.4023C20.8534 13.8256 23.8106 13.9486 23.8106 13.9486Z" fill="white"/>
<path d="M18.3879 6.04492C18.5508 6.93203 19.0266 8.31895 20.4135 9.13047C19.3536 7.8959 19.3002 6.30273 19.3002 6.07305V6.04492H18.3879Z" fill="#FF004F"/>
<path d="M23.8107 13.9482V10.6025C23.4761 10.5903 23.143 10.5511 22.8146 10.4854V13.1191C22.8146 13.1191 19.8574 12.9979 18.3029 11.5746V17.9859C18.3064 18.0697 18.3088 18.1541 18.3088 18.2391C18.3086 19.3354 18.0111 20.4112 17.4478 21.3518C16.8846 22.2924 16.0767 23.0626 15.1103 23.5803C14.1438 24.098 13.0551 24.3439 11.96 24.2917C10.8649 24.2395 9.80441 23.8913 8.8916 23.284C9.73107 24.1509 10.8103 24.7475 11.991 24.9971C13.1716 25.2468 14.4 25.1382 15.5185 24.6853C16.6371 24.2324 17.595 23.4558 18.2693 22.4551C18.9437 21.4543 19.3039 20.2749 19.3037 19.0682C19.3037 18.9832 19.3037 18.8988 19.2979 18.815V12.402C20.8535 13.8252 23.8107 13.9482 23.8107 13.9482Z" fill="#FF004F"/>
<path d="M13.0294 15.6786C12.3843 15.4818 11.6887 15.5358 11.0817 15.8297C10.4746 16.1237 10.0009 16.6359 9.75524 17.264C9.50955 17.8921 9.50999 18.5898 9.75646 19.2176C10.0029 19.8454 10.4773 20.357 11.0847 20.6502C10.7528 20.1968 10.5719 19.6505 10.5678 19.0886C10.5636 18.5267 10.7363 17.9778 11.0615 17.5195C11.3867 17.0612 11.8479 16.7169 12.3796 16.5353C12.9114 16.3537 13.4868 16.344 14.0243 16.5077V13.0582C13.7649 13.0257 13.5036 13.0099 13.2421 13.0108C13.17 13.0108 13.0991 13.0108 13.0277 13.0149L13.0294 15.6786Z" fill="#FF004F"/>
</g>
<defs>
<clipPath id="clip0_403_260">
<rect width="30" height="30" fill="white" transform="translate(0 0.120117)"/>
</clipPath>
</defs>
</svg>
