<svg width="61" height="61" viewBox="0 0 61 61" fill="none" xmlns="http://www.w3.org/2000/svg">
<g filter="url(#filter0_i_200_320)">
<rect y="0.245117" width="60.4277" height="60.4277" rx="9" fill="#FC7B91"/>
<path fill-rule="evenodd" clip-rule="evenodd" d="M19.7139 18.459C19.316 18.459 18.9345 18.617 18.6532 18.8983C18.3719 19.1796 18.2139 19.5612 18.2139 19.959V40.3377L21.6532 36.8983C21.9345 36.617 22.316 36.459 22.7139 36.459H40.7139C41.1117 36.459 41.4932 36.3009 41.7745 36.0196C42.0558 35.7383 42.2139 35.3568 42.2139 34.959V19.959C42.2139 19.5612 42.0558 19.1796 41.7745 18.8983C41.4932 18.617 41.1117 18.459 40.7139 18.459H19.7139ZM16.5319 16.777C17.3758 15.9331 18.5204 15.459 19.7139 15.459H40.7139C41.9073 15.459 43.0519 15.9331 43.8958 16.777C44.7398 17.6209 45.2139 18.7655 45.2139 19.959V34.959C45.2139 36.1525 44.7398 37.2971 43.8958 38.141C43.0519 38.9849 41.9073 39.459 40.7139 39.459H23.3352L17.7745 45.0196C17.3455 45.4486 16.7004 45.577 16.1398 45.3448C15.5793 45.1126 15.2139 44.5657 15.2139 43.959V19.959C15.2139 18.7655 15.688 17.6209 16.5319 16.777Z" fill="white"/>
<path fill-rule="evenodd" clip-rule="evenodd" d="M21.2139 24.459C21.2139 23.6306 21.8854 22.959 22.7139 22.959H31.7139C32.5423 22.959 33.2139 23.6306 33.2139 24.459C33.2139 25.2874 32.5423 25.959 31.7139 25.959H22.7139C21.8854 25.959 21.2139 25.2874 21.2139 24.459Z" fill="white"/>
<path fill-rule="evenodd" clip-rule="evenodd" d="M21.2139 30.459C21.2139 29.6306 21.8854 28.959 22.7139 28.959H37.7139C38.5423 28.959 39.2139 29.6306 39.2139 30.459C39.2139 31.2874 38.5423 31.959 37.7139 31.959H22.7139C21.8854 31.959 21.2139 31.2874 21.2139 30.459Z" fill="white"/>
</g>
<defs>
<filter id="filter0_i_200_320" x="-2" y="0.245117" width="62.4277" height="64.4277" filterUnits="userSpaceOnUse" color-interpolation-filters="sRGB">
<feFlood flood-opacity="0" result="BackgroundImageFix"/>
<feBlend mode="normal" in="SourceGraphic" in2="BackgroundImageFix" result="shape"/>
<feColorMatrix in="SourceAlpha" type="matrix" values="0 0 0 0 0 0 0 0 0 0 0 0 0 0 0 0 0 0 127 0" result="hardAlpha"/>
<feOffset dx="-2" dy="4"/>
<feGaussianBlur stdDeviation="7.05"/>
<feComposite in2="hardAlpha" operator="arithmetic" k2="-1" k3="1"/>
<feColorMatrix type="matrix" values="0 0 0 0 0.890196 0 0 0 0 0.270588 0 0 0 0 0.482353 0 0 0 1 0"/>
<feBlend mode="normal" in2="shape" result="effect1_innerShadow_200_320"/>
</filter>
</defs>
</svg>
