<svg width="61" height="61" viewBox="0 0 61 61" fill="none" xmlns="http://www.w3.org/2000/svg">
<g filter="url(#filter0_i_200_241)">
<rect y="0.245361" width="60.4277" height="60.4277" rx="9" fill="#FC7B91"/>
<path fill-rule="evenodd" clip-rule="evenodd" d="M15.9106 25.1559C17.3171 23.7494 19.2247 22.9592 21.2139 22.9592C24.454 22.9592 27.4466 24.8357 30.2139 28.0596C32.9812 24.8357 35.9737 22.9592 39.2139 22.9592C41.203 22.9592 43.1106 23.7494 44.5172 25.1559C45.9237 26.5624 46.7139 28.4701 46.7139 30.4592C46.7139 32.4484 45.9237 34.356 44.5172 35.7625C43.1106 37.1691 41.203 37.9592 39.2139 37.9592C35.9737 37.9592 32.9812 36.0827 30.2139 32.8588C27.4466 36.0827 24.454 37.9592 21.2139 37.9592C19.2247 37.9592 17.3171 37.1691 15.9106 35.7625C14.504 34.356 13.7139 32.4484 13.7139 30.4592C13.7139 28.4701 14.504 26.5625 15.9106 25.1559ZM28.3109 30.4592C25.688 27.2455 23.3136 25.9592 21.2139 25.9592C20.0204 25.9592 18.8758 26.4333 18.0319 27.2772C17.188 28.1212 16.7139 29.2658 16.7139 30.4592C16.7139 31.6527 17.188 32.7973 18.0319 33.6412C18.8758 34.4851 20.0204 34.9592 21.2139 34.9592C23.3136 34.9592 25.688 33.673 28.3109 30.4592ZM32.1168 30.4592C34.7397 33.673 37.1141 34.9592 39.2139 34.9592C40.4073 34.9592 41.5519 34.4851 42.3958 33.6412C43.2398 32.7973 43.7139 31.6527 43.7139 30.4592C43.7139 29.2658 43.2398 28.1212 42.3958 27.2772C41.5519 26.4333 40.4073 25.9592 39.2139 25.9592C37.1141 25.9592 34.7397 27.2455 32.1168 30.4592Z" fill="white"/>
</g>
<defs>
<filter id="filter0_i_200_241" x="-2" y="0.245361" width="62.4277" height="64.4277" filterUnits="userSpaceOnUse" color-interpolation-filters="sRGB">
<feFlood flood-opacity="0" result="BackgroundImageFix"/>
<feBlend mode="normal" in="SourceGraphic" in2="BackgroundImageFix" result="shape"/>
<feColorMatrix in="SourceAlpha" type="matrix" values="0 0 0 0 0 0 0 0 0 0 0 0 0 0 0 0 0 0 127 0" result="hardAlpha"/>
<feOffset dx="-2" dy="4"/>
<feGaussianBlur stdDeviation="7.05"/>
<feComposite in2="hardAlpha" operator="arithmetic" k2="-1" k3="1"/>
<feColorMatrix type="matrix" values="0 0 0 0 0.890196 0 0 0 0 0.270588 0 0 0 0 0.482353 0 0 0 1 0"/>
<feBlend mode="normal" in2="shape" result="effect1_innerShadow_200_241"/>
</filter>
</defs>
</svg>
