<svg width="30" height="31" viewBox="0 0 30 31" fill="none" xmlns="http://www.w3.org/2000/svg">
<g clip-path="url(#clip0_403_250)">
<path d="M25.0123 0.174805H4.98668C2.23207 0.174805 -0.000976562 2.40785 -0.000976562 5.16246V25.1881C-0.000976562 27.9427 2.23207 30.1757 4.98668 30.1757H25.0123C27.7669 30.1757 30 27.9427 30 25.1881V5.16246C30 2.40785 27.7669 0.174805 25.0123 0.174805Z" fill="#25D366"/>
<path fill-rule="evenodd" clip-rule="evenodd" d="M21.9329 8.20106C20.0934 6.35945 17.6472 5.34482 15.0408 5.34375C9.67065 5.34375 5.29987 9.71417 5.29777 15.086C5.29702 16.8032 5.74567 18.4793 6.59831 19.9569L5.21606 25.0056L10.381 23.6508C11.804 24.4269 13.4063 24.8361 15.037 24.8366H15.0409C15.0406 24.8366 15.0412 24.8366 15.0409 24.8366C20.4105 24.8366 24.7817 20.4658 24.7839 15.0938C24.7849 12.4904 23.7724 10.0426 21.9329 8.20106ZM15.0409 23.1912H15.0376C13.5846 23.1906 12.1593 22.8002 10.916 22.0624L10.6203 21.8869L7.55536 22.6909L8.37347 19.7026L8.18091 19.3962C7.37031 18.1069 6.94219 16.6167 6.94282 15.0866C6.94456 10.6217 10.5774 6.98927 15.0442 6.98927C17.2071 6.98995 19.2404 7.83341 20.7693 9.36408C22.2982 10.8948 23.1397 12.9294 23.1388 15.0931C23.137 19.5584 19.5043 23.1912 15.0409 23.1912Z" fill="white"/>
<path fill-rule="evenodd" clip-rule="evenodd" d="M19.4829 17.1264C19.2395 17.0045 18.0426 16.4157 17.8194 16.3344C17.5963 16.2531 17.434 16.2125 17.2717 16.4562C17.1094 16.6999 16.6429 17.2483 16.5009 17.4108C16.3589 17.5732 16.2168 17.5936 15.9734 17.4716C15.73 17.3498 14.9456 17.0928 14.0157 16.2634C13.292 15.6178 12.8034 14.8207 12.6614 14.5769C12.5194 14.3332 12.6463 14.2015 12.7682 14.0801C12.8777 13.9709 13.0116 13.7957 13.1334 13.6536C13.2551 13.5115 13.2956 13.4098 13.3768 13.2475C13.4579 13.085 13.4174 12.9428 13.3565 12.821C13.2956 12.6991 12.8088 11.5009 12.6059 11.0133C12.4083 10.5387 12.2076 10.603 12.0581 10.5955C11.9164 10.5884 11.7538 10.5869 11.5916 10.5869C11.4293 10.5869 11.1655 10.6479 10.9424 10.8915C10.7193 11.1353 10.0903 11.7243 10.0903 12.9224C10.0903 14.1207 10.9627 15.2783 11.0844 15.4407C11.2061 15.6033 12.801 18.0621 15.2431 19.1166C15.8239 19.3675 16.2774 19.5173 16.6309 19.6294C17.2141 19.8148 17.7448 19.7886 18.1643 19.7259C18.632 19.656 19.6046 19.137 19.8075 18.5684C20.0104 17.9997 20.0104 17.5122 19.9495 17.4107C19.8886 17.3092 19.7263 17.2483 19.4829 17.1264Z" fill="white"/>
</g>
<defs>
<clipPath id="clip0_403_250">
<rect width="30" height="30" fill="white" transform="translate(0 0.120117)"/>
</clipPath>
</defs>
</svg>
